<?xml version="1.0" encoding="UTF-8" standalone="no"?>
<!-- Created with Inkscape (http://www.inkscape.org/) -->

<svg
   xmlns:dc="http://purl.org/dc/elements/1.1/"
   xmlns:cc="http://creativecommons.org/ns#"
   xmlns:rdf="http://www.w3.org/1999/02/22-rdf-syntax-ns#"
   xmlns:svg="http://www.w3.org/2000/svg"
   xmlns="http://www.w3.org/2000/svg"
   xmlns:sodipodi="http://sodipodi.sourceforge.net/DTD/sodipodi-0.dtd"
   xmlns:inkscape="http://www.inkscape.org/namespaces/inkscape"
   width="500mm"
   height="500mm"
   viewBox="0 0 1771.6536 1771.6536"
   id="svg5145"
   version="1.1"
   inkscape:version="0.91 r13725"
   sodipodi:docname="age.svg">
  <defs
     id="defs5147">
    <clipPath
       clipPathUnits="userSpaceOnUse"
       id="clipPath30-3">
      <path
         d="M 187.388,20.417 652.436,20.417 652.436,579.64 187.388,579.64 187.388,20.417 Z"
         id="path32-7"
         inkscape:connector-curvature="0" />
    </clipPath>
  </defs>
  <sodipodi:namedview
     id="base"
     pagecolor="#ffffff"
     bordercolor="#666666"
     borderopacity="1.0"
     inkscape:pageopacity="0.0"
     inkscape:pageshadow="2"
     inkscape:zoom="0.83496427"
     inkscape:cx="798.03525"
     inkscape:cy="1064.4811"
     inkscape:document-units="px"
     inkscape:current-layer="g28"
     showgrid="false"
     units="mm"
     showguides="true"
     inkscape:guide-bbox="true"
     inkscape:window-width="1600"
     inkscape:window-height="834"
     inkscape:window-x="0"
     inkscape:window-y="27"
     inkscape:window-maximized="1">
    <sodipodi:guide
       position="1592.0004,1212.183"
       orientation="0,1"
       id="guide4243" />
    <sodipodi:guide
       position="881.42855,1108.5714"
       orientation="1,0"
       id="guide4264" />
    <sodipodi:guide
       position="1800,1071.4285"
       orientation="1,0"
       id="guide4266" />
    <sodipodi:guide
       position="2717.3103,1149.5536"
       orientation="1,0"
       id="guide4313" />
    <sodipodi:guide
       position="249.82687,586.03456"
       orientation="1,0"
       id="guide4153" />
    <sodipodi:guide
       position="249.82687,249.82687"
       orientation="0,1"
       id="guide4155" />
  </sodipodi:namedview>
  <metadata
     id="metadata5150">
    <rdf:RDF>
      <cc:Work
         rdf:about="">
        <dc:format>image/svg+xml</dc:format>
        <dc:type
           rdf:resource="http://purl.org/dc/dcmitype/StillImage" />
        <dc:title></dc:title>
      </cc:Work>
    </rdf:RDF>
  </metadata>
  <svg
     id="age"
     x="0"
     y="0"
     width="500mm"
     height="500mm"
     inkscape:label="#g5819"
     version="1.1"
     inkscape:version="0.91 r13725"
     transform="translate(0,1271.6536)">
    <g
       transform="translate(-634.22636,446.5063)"
       id="g28">
      <g
         id="g4155"
         transform="translate(-3.5929681,-3.5929681)">
        <text
           style="font-size:125px;font-family:Onyx;letter-spacing:3;fill:#868ceb;stroke:none"
           id="text30"
           letter-spacing="3"
           font-size="125"
           y="291.03589"
           x="1411.8468">26 ANS</text>
        <rect
           ry="9.3699989"
           y="58.665604"
           x="1545.5055"
           height="125.41384"
           width="76.846451"
           id="rect6508-2-7"
           style="fill:#868ceb;fill-opacity:1;stroke:#6e72c8;stroke-width:2.09854436;stroke-linecap:round;stroke-linejoin:round;stroke-miterlimit:4;stroke-dasharray:none;stroke-dashoffset:0;stroke-opacity:1" />
        <path
           sodipodi:nodetypes="aasscsa"
           inkscape:connector-curvature="0"
           id="path6527-5-9"
           d="M 1570.4653,40.889493 C 1573.8253,47.620863 1585.5094,50.349573 1592.7449,47.597923 1601.2559,44.361543 1606.3738,33.637903 1606.1817,24.632753 1606.0397,17.892593 1603.2475,11.517313 1597.7475,7.2625125 1593.3266,3.8418525 1585.8286,0.02654255 1578.275,1.6399025 1590.9827,15.533443 1577.2525,24.301813 1577.2525,24.301813 1571.1153,29.047953 1567.7905,35.531943 1570.4653,40.889493 Z"
           style="fill:#868ceb;fill-opacity:1;stroke:none;stroke-width:5;stroke-linecap:round;stroke-linejoin:round;stroke-miterlimit:4;stroke-dasharray:none;stroke-dashoffset:0;stroke-opacity:1" />
        <path
           sodipodi:nodetypes="aasscsa"
           inkscape:connector-curvature="0"
           id="path6527-1"
           d="M 1575.4572,36.178463 C 1576.3517,40.715273 1582.1687,44.069163 1586.6088,43.602123 1593.2017,42.908843 1599.6656,36.254473 1601.2794,29.298313 1602.4887,24.091933 1601.796,18.690033 1598.8224,14.431933 1596.4304,11.008723 1591.9903,6.7294325 1586.4572,6.6129725 1592.5443,19.574493 1582.3458,25.075403 1582.3458,25.075403 1577.1842,27.621363 1574.6151,31.923783 1575.4572,36.178463 Z"
           style="fill:#5c60aa;fill-opacity:1;stroke:none;stroke-width:5;stroke-linecap:round;stroke-linejoin:round;stroke-miterlimit:4;stroke-dasharray:none;stroke-dashoffset:0;stroke-opacity:1" />
        <path
           sodipodi:nodetypes="aasscsa"
           inkscape:connector-curvature="0"
           id="path6527-5-1-66-6"
           d="M 1488.722,-5.5429675 C 1493.2123,3.0159725 1508.8296,6.4855425 1518.5029,2.9868025 1529.8786,-1.1282575 1536.7181,-14.763357 1536.4641,-26.213387 1536.2731,-34.783497 1532.5395,-42.889677 1525.1887,-48.299667 1519.28,-52.649017 1509.2576,-57.500187 1499.1606,-55.448807 1516.1473,-37.783167 1497.7944,-26.634197 1497.7944,-26.634197 1489.5908,-20.599477 1485.1475,-12.355087 1488.722,-5.5429675 Z"
           style="fill:#868ceb;fill-opacity:1;stroke:none;stroke-width:5;stroke-linecap:round;stroke-linejoin:round;stroke-miterlimit:4;stroke-dasharray:none;stroke-dashoffset:0;stroke-opacity:1" />
        <path
           sodipodi:nodetypes="aasscsa"
           inkscape:connector-curvature="0"
           id="path6527-9-80-4"
           d="M 1493.4311,-8.6937275 C 1495.4943,-2.6859075 1504.9829,1.1883925 1511.7776,0.07105255 1521.8619,-1.5875675 1530.8574,-11.255467 1532.3111,-20.795817 1533.4009,-27.936537 1531.5223,-35.131097 1526.2892,-40.535147 1522.0839,-44.879447 1514.5794,-50.150527 1506.0119,-49.698607 1517.3555,-32.922547 1502.4181,-24.396217 1502.4181,-24.396217 1494.8208,-20.401407 1491.4939,-14.327727 1493.4311,-8.6937275 Z"
           style="fill:#5c60aa;fill-opacity:1;stroke:none;stroke-width:5;stroke-linecap:round;stroke-linejoin:round;stroke-miterlimit:4;stroke-dasharray:none;stroke-dashoffset:0;stroke-opacity:1" />
        <rect
           ry="7.1879878"
           y="87.903091"
           x="1414.9711"
           height="96.208443"
           width="59.926003"
           id="rect6508-2-2-7"
           style="fill:#868ceb;fill-opacity:1;stroke:#6e72c8;stroke-width:2.08192706;stroke-linecap:round;stroke-linejoin:round;stroke-miterlimit:4;stroke-dasharray:none;stroke-dashoffset:0;stroke-opacity:1" />
        <path
           sodipodi:nodetypes="zsszzaszsszz"
           inkscape:connector-curvature="0"
           id="rect8375-2-6"
           d="M 1482.8015,88.073843 C 1484.9127,88.300443 1488.7572,90.066863 1489.0465,93.119013 1489.3229,96.034523 1487.612,98.169853 1487.612,98.169853 1488.1051,100.15107 1437.1621,101.24496 1435.4778,102.19481 1433.7946,103.14467 1434.1041,108.17879 1433.5331,109.42075 1432.9621,110.66271 1431.9695,112.41272 1429.9244,112.39852 1428.4835,112.38832 1427.6211,110.52543 1427.4632,110.26671 1426.3062,108.36396 1426.7587,102.88376 1422.6751,102.06379 1418.5904,101.24382 1415.1162,100.70711 1415.1172,98.711953 L 1415.1172,93.528533 C 1415.1172,91.533743 1418.4473,87.922323 1422.3143,87.903923 1426.1813,87.885523 1480.6892,87.847223 1482.8004,88.073843 Z"
           style="fill:#6e72c8;fill-opacity:1;stroke:none;stroke-width:9.6079998;stroke-linecap:round;stroke-linejoin:round;stroke-miterlimit:4;stroke-dasharray:none;stroke-dashoffset:0;stroke-opacity:1" />
        <path
           sodipodi:nodetypes="csszzaszsszzc"
           inkscape:connector-curvature="0"
           id="rect8375-2-0-0"
           d="M 1552.0152,59.310113 C 1549.8774,59.754923 1545.9826,63.222263 1545.6902,69.213413 1545.4106,74.936363 1547.1439,79.127823 1547.1439,79.127823 1546.6444,83.016823 1598.2407,85.164073 1599.9463,87.028573 1601.6508,88.893073 1601.6124,98.645473 1601.9166,101.21255 1602.2197,103.77963 1602.4545,108.84329 1605.378,108.83916 1607.6621,108.83616 1607.8008,105.35122 1608.0634,102.87313 1608.4743,98.996363 1608.7774,88.380913 1612.9134,86.771393 1617.0493,85.161843 1622.3476,84.687313 1622.355,80.773863 L 1622.387,67.000333 C 1622.387,61.924213 1616.1036,58.566413 1613.5036,58.542633 1610.9036,58.518933 1554.2257,58.283933 1552.0867,58.728723 Z"
           style="fill:#6e72c8;fill-opacity:1;stroke:none;stroke-width:9.6079998;stroke-linecap:round;stroke-linejoin:round;stroke-miterlimit:4;stroke-dasharray:none;stroke-dashoffset:0;stroke-opacity:1" />
        <rect
           ry="12.472322"
           y="16.56291"
           x="1467.7815"
           height="166.93727"
           width="91.822441"
           id="rect6508-6"
           style="fill:#868ceb;fill-opacity:1;stroke:#6e72c8;stroke-width:3.2869606;stroke-linecap:round;stroke-linejoin:round;stroke-miterlimit:4;stroke-dasharray:none;stroke-dashoffset:0;stroke-opacity:1" />
        <path
           sodipodi:nodetypes="aasscsa"
           inkscape:connector-curvature="0"
           id="path6527-5-2-3"
           d="M 1429.6918,72.730723 C 1432.3121,77.978643 1441.4218,80.105993 1447.0616,77.960743 1453.6962,75.437603 1457.687,67.077263 1457.5376,60.056683 1457.4266,54.801933 1455.2503,49.831633 1450.9617,46.514513 1447.5153,43.847703 1441.6694,40.873223 1435.7809,42.131033 1445.689,52.962693 1434.9836,59.798673 1434.9836,59.798673 1430.1987,63.498863 1427.6072,68.553893 1429.6918,72.730723 Z"
           style="fill:#868ceb;fill-opacity:1;stroke:none;stroke-width:5;stroke-linecap:round;stroke-linejoin:round;stroke-miterlimit:4;stroke-dasharray:none;stroke-dashoffset:0;stroke-opacity:1" />
        <path
           sodipodi:nodetypes="aasscsa"
           inkscape:connector-curvature="0"
           id="path6527-0-7"
           d="M 1433.8672,69.628653 C 1434.6634,72.823833 1439.2829,75.183003 1442.7475,74.851363 1447.8899,74.359243 1452.8093,69.668103 1453.9257,64.767153 1454.7636,61.099143 1453.9577,57.282933 1452.5371,54.988983 1450.9265,52.381223 1449.0939,49.475803 1442.2213,46.882793 1447.2516,56.009273 1439.0256,61.803633 1439.0256,61.803633 1435.0402,63.599993 1433.119,66.632113 1433.8672,69.628653 Z"
           style="fill:#5c60aa;fill-opacity:1;stroke:none;stroke-width:5;stroke-linecap:round;stroke-linejoin:round;stroke-miterlimit:4;stroke-dasharray:none;stroke-dashoffset:0;stroke-opacity:1" />
        <path
           sodipodi:nodetypes="zsssssssssszaszsszz"
           inkscape:connector-curvature="0"
           id="rect8375-6"
           d="M 1549.5732,17.176393 C 1552.1668,17.621193 1559.0447,22.380513 1559.4002,28.371673 1559.7396,34.094613 1557.638,38.286083 1557.638,38.286083 1557.7127,38.772213 1556.877,39.139763 1555.34,39.425853 1553.8041,39.711943 1551.5691,39.916563 1548.8474,40.076843 1546.1267,40.237113 1542.9204,40.353033 1539.4431,40.461703 1535.9646,40.570373 1532.215,40.671793 1528.4068,40.803083 1524.5996,40.934363 1520.7337,41.095523 1517.0225,41.323633 1513.3125,41.551753 1509.7572,41.846843 1506.5722,42.246013 1503.3862,42.645173 1500.5695,43.148423 1498.3356,43.792863 1496.1027,44.437293 1494.4515,45.222903 1493.5976,46.186823 1491.7597,48.260803 1491.9091,57.932923 1491.2089,60.370803 1490.5088,62.808683 1489.2888,66.243843 1486.7763,66.215973 1485.0066,66.196373 1483.9467,62.539213 1483.7536,62.031383 1482.3319,58.296413 1482.8879,47.539173 1477.8715,45.929643 1472.855,44.320093 1468.0626,42.455683 1468.1779,38.543243 L 1468.5301,26.485613 C 1468.6443,22.573193 1474.7292,18.529573 1477.4306,18.134823 1480.131,17.740063 1546.9806,16.731583 1549.5732,17.176393 Z"
           style="fill:#6e72c8;fill-opacity:1;stroke:none;stroke-width:9.6079998;stroke-linecap:round;stroke-linejoin:round;stroke-miterlimit:4;stroke-dasharray:none;stroke-dashoffset:0;stroke-opacity:1" />
      </g>
    </g>
  </svg>
</svg>
