<?xml version="1.0" encoding="UTF-8" standalone="no"?>
<!-- Created with Inkscape (http://www.inkscape.org/) -->

<svg
   xmlns="http://www.w3.org/2000/svg"
   width="500"
   height="500"
   version="1.1">

  <g
     label="Calque 1"
     groupmode="layer"
     id="layer1">
    <path
       style="opacity:0.65116278;fill:none;stroke:#2646b3;stroke-width:3;stroke-linecap:round;stroke-linejoin:round;stroke-miterlimit:4;stroke-opacity:1;stroke-dashoffset:44"
       d="m 465.15494,480.82778 10.50063,10 10.50064,-10 0,40.23478 11.74968,-2 -22.25032,34 -22.25031,-34 11.74968,2 z"
       id="rect3418"

       />
    <path
       type="arc"
       style="opacity:0.65116278;fill:none;stroke:#2646b3;stroke-width:3;stroke-linecap:round;stroke-linejoin:round;stroke-miterlimit:4;stroke-opacity:1;stroke-dasharray:none;stroke-dashoffset:44"
       id="path3423"
       cx="475.15051"
       cy="572.91852"
       rx="30.935923"
       ry="4.1668792"
       d="m 506.08644,572.91852 a 30.935923,4.1668792 0 1 1 -61.87185,0 30.935923,4.1668792 0 1 1 61.87185,0 z" />
    <g
       transform="translate(-2.7779195,-0.08122)"
       style="font-size:15px;font-style:normal;font-weight:normal;line-height:125%;letter-spacing:0px;word-spacing:0px;fill:#000000;fill-opacity:1;stroke:none;font-family:Sans;-inkscape-font-specification:Sans"
       id="flowRoot3427">
      <path
         d="m 413.08008,452.3339 1.34033,-0.11719 c 0.0635,0.53711 0.21118,0.97778 0.44312,1.32202 0.23193,0.34424 0.59203,0.62256 1.08032,0.83496 0.48827,0.2124 1.03759,0.3186 1.64795,0.3186 0.54198,0 1.0205,-0.0806 1.43554,-0.2417 0.41504,-0.16113 0.72387,-0.38207 0.92652,-0.66284 0.20263,-0.28076 0.30394,-0.58715 0.30395,-0.91919 -1e-5,-0.33691 -0.0977,-0.6311 -0.29297,-0.88257 -0.19532,-0.25146 -0.51758,-0.46264 -0.96679,-0.63354 -0.2881,-0.1123 -0.9253,-0.28686 -1.91162,-0.52368 -0.98634,-0.23681 -1.67725,-0.4602 -2.07276,-0.67017 -0.5127,-0.26855 -0.89478,-0.6018 -1.14624,-0.99975 -0.25146,-0.39795 -0.3772,-0.8435 -0.3772,-1.33667 0,-0.54199 0.15381,-1.04858 0.46143,-1.51978 0.30762,-0.47118 0.75683,-0.82885 1.34766,-1.073 0.59081,-0.24413 1.24755,-0.3662 1.97021,-0.36621 0.79589,1e-5 1.4978,0.12819 2.10571,0.38452 0.60791,0.25636 1.07544,0.63356 1.40259,1.1316 0.32714,0.49805 0.50292,1.06202 0.52735,1.69189 l -1.36231,0.10254 c -0.0733,-0.6787 -0.32105,-1.1914 -0.74341,-1.53809 -0.42237,-0.34667 -1.04615,-0.52001 -1.87134,-0.52002 -0.85937,10e-6 -1.48559,0.15748 -1.87866,0.47242 -0.39307,0.31495 -0.5896,0.69458 -0.5896,1.13891 0,0.38575 0.13916,0.70313 0.41748,0.95215 0.27344,0.24903 0.98755,0.50416 2.14234,0.76538 1.15478,0.26124 1.94701,0.48951 2.37671,0.68482 0.62499,0.28809 1.08641,0.65308 1.38427,1.09497 0.29785,0.44189 0.44677,0.95093 0.44678,1.5271 -10e-6,0.57129 -0.16358,1.10962 -0.49072,1.61499 -0.32716,0.50537 -0.79713,0.89843 -1.40991,1.1792 -0.6128,0.28076 -1.3025,0.42114 -2.0691,0.42114 -0.97168,0 -1.78589,-0.1416 -2.44262,-0.42481 -0.65674,-0.2832 -1.17188,-0.70922 -1.54541,-1.27807 -0.37354,-0.56885 -0.57007,-1.21216 -0.5896,-1.92993 z"
         id="path3468"
          />
      <path
         d="m 431.24414,452.01895 1.4209,0.35889 c -0.29786,1.16699 -0.83375,2.05689 -1.60767,2.66968 -0.77393,0.61279 -1.71997,0.91919 -2.83813,0.91919 -1.15723,0 -2.09839,-0.2356 -2.82349,-0.70679 -0.7251,-0.47119 -1.27686,-1.15356 -1.65527,-2.04712 -0.37842,-0.89355 -0.56763,-1.85302 -0.56763,-2.87842 0,-1.11815 0.21362,-2.09349 0.64087,-2.92602 0.42724,-0.83251 1.03515,-1.46484 1.82373,-1.89697 0.78857,-0.43212 1.65649,-0.64819 2.60376,-0.6482 1.07421,1e-5 1.97753,0.27345 2.70996,0.82031 0.73241,0.54689 1.24267,1.31593 1.53076,2.30713 l -1.39892,0.32959 c -0.24903,-0.78124 -0.61036,-1.35009 -1.08399,-1.70654 -0.47364,-0.35644 -1.06934,-0.53466 -1.78711,-0.53467 -0.8252,1e-5 -1.51489,0.19777 -2.06909,0.59326 -0.5542,0.39552 -0.9436,0.92653 -1.16821,1.59302 -0.22461,0.66651 -0.33692,1.35377 -0.33691,2.06177 -10e-6,0.91309 0.13305,1.71021 0.39917,2.39136 0.26611,0.68115 0.67992,1.19018 1.24145,1.5271 0.56152,0.33691 1.16943,0.50537 1.82373,0.50537 0.79589,0 1.46972,-0.22949 2.02149,-0.68848 0.55174,-0.45898 0.92528,-1.14013 1.1206,-2.04346 z"
         id="path3470"
          />
      <path
         d="m 434.44482,455.7836 0,-10.7373 4.76075,0 c 0.95702,1e-5 1.68456,0.0964 2.18261,0.2893 0.49804,0.19289 0.89599,0.53346 1.19385,1.02173 0.29784,0.48829 0.44677,1.02784 0.44678,1.61865 -1e-5,0.76173 -0.24659,1.40382 -0.73975,1.92627 -0.49317,0.52247 -1.25489,0.8545 -2.28515,0.9961 0.37597,0.18067 0.66161,0.35889 0.85693,0.53467 0.41503,0.38086 0.8081,0.85693 1.1792,1.42822 l 1.86767,2.92236 -1.7871,0 -1.4209,-2.23388 c -0.41505,-0.64453 -0.75685,-1.1377 -1.02539,-1.4795 -0.26856,-0.34179 -0.50904,-0.58105 -0.72144,-0.71777 -0.21241,-0.13671 -0.42847,-0.23193 -0.64819,-0.28564 -0.16114,-0.0342 -0.42481,-0.0513 -0.79102,-0.0513 l -1.64795,0 0,4.76806 z m 1.4209,-5.99853 3.0542,0 c 0.64941,0 1.15722,-0.0671 1.52344,-0.20142 0.3662,-0.13427 0.64452,-0.34911 0.83496,-0.64453 0.19042,-0.2954 0.28564,-0.61645 0.28564,-0.96314 0,-0.5078 -0.18433,-0.92528 -0.55297,-1.25244 -0.36866,-0.32714 -0.95094,-0.49071 -1.74683,-0.49072 l -3.39844,0 z"
         id="path3472"
          />
      <path
         d="m 444.83057,450.55411 c 0,-1.78222 0.47851,-3.17748 1.43554,-4.18579 0.95703,-1.00829 2.19238,-1.51244 3.70606,-1.51245 0.9912,1e-5 1.88476,0.23682 2.68066,0.71045 0.79589,0.47364 1.40258,1.13404 1.82007,1.9812 0.41747,0.84717 0.62621,1.80787 0.62622,2.88208 -1e-5,1.08887 -0.21974,2.06299 -0.65918,2.92236 -0.43946,0.85938 -1.06202,1.51001 -1.86767,1.95191 -0.80568,0.44189 -1.67482,0.66284 -2.60743,0.66284 -1.01074,0 -1.91406,-0.24414 -2.70996,-0.73242 -0.7959,-0.48828 -1.39892,-1.15479 -1.80908,-1.99952 -0.41016,-0.84472 -0.61523,-1.73827 -0.61523,-2.68066 z m 1.46484,0.022 c 0,1.29395 0.3479,2.31324 1.0437,3.05786 0.6958,0.74463 1.5686,1.11695 2.61841,1.11695 1.06933,0 1.94945,-0.37598 2.64038,-1.12793 0.69091,-0.75195 1.03637,-1.81885 1.03638,-3.20069 -10e-6,-0.87401 -0.14772,-1.63695 -0.44312,-2.28881 -0.29542,-0.65185 -0.72755,-1.15722 -1.29638,-1.51612 -0.56886,-0.35887 -1.20729,-0.53832 -1.91529,-0.53833 -1.00586,10e-6 -1.87134,0.34547 -2.59643,1.03638 -0.7251,0.69093 -1.08765,1.84449 -1.08765,3.46069 z"
         id="path3474"
          />
      <path
         d="m 456.86426,455.7836 0,-10.7373 1.4209,0 0,9.47021 5.28808,0 0,1.26709 z"
         id="path3476"
          />
      <path
         d="m 465.21387,455.7836 0,-10.7373 1.4209,0 0,9.47021 5.28808,0 0,1.26709 z"
         id="path3478"
          />
      <path
         d="m 480.51416,455.7836 0,-9.47021 -3.5376,0 0,-1.26709 8.51074,0 0,1.26709 -3.55224,0 0,9.47021 z"
         id="path3480"
          />
      <path
         d="m 486.52002,450.55411 c 0,-1.78222 0.47851,-3.17748 1.43555,-4.18579 0.95702,-1.00829 2.19237,-1.51244 3.70605,-1.51245 0.99121,1e-5 1.88476,0.23682 2.68067,0.71045 0.79588,0.47364 1.40257,1.13404 1.82006,1.9812 0.41747,0.84717 0.62621,1.80787 0.62622,2.88208 -10e-6,1.08887 -0.21973,2.06299 -0.65918,2.92236 -0.43946,0.85938 -1.06202,1.51001 -1.86767,1.95191 -0.80567,0.44189 -1.67481,0.66284 -2.60742,0.66284 -1.01075,0 -1.91407,-0.24414 -2.70996,-0.73242 -0.7959,-0.48828 -1.39893,-1.15479 -1.80909,-1.99952 -0.41015,-0.84472 -0.61523,-1.73827 -0.61523,-2.68066 z m 1.46484,0.022 c 0,1.29395 0.3479,2.31324 1.0437,3.05786 0.6958,0.74463 1.5686,1.11695 2.61841,1.11695 1.06933,0 1.94946,-0.37598 2.64038,-1.12793 0.69091,-0.75195 1.03637,-1.81885 1.03638,-3.20069 -1e-5,-0.87401 -0.14771,-1.63695 -0.44311,-2.28881 -0.29542,-0.65185 -0.72755,-1.15722 -1.29639,-1.51612 -0.56886,-0.35887 -1.20728,-0.53832 -1.91528,-0.53833 -1.00587,10e-6 -1.87135,0.34547 -2.59644,1.03638 -0.7251,0.69093 -1.08765,1.84449 -1.08765,3.46069 z"
         id="path3482"
          />
      <path
         d="m 502.28906,452.3339 1.34033,-0.11719 c 0.0635,0.53711 0.21118,0.97778 0.44312,1.32202 0.23193,0.34424 0.59204,0.62256 1.08032,0.83496 0.48828,0.2124 1.0376,0.3186 1.64795,0.3186 0.54199,0 1.0205,-0.0806 1.43555,-0.2417 0.41503,-0.16113 0.72387,-0.38207 0.92651,-0.66284 0.20263,-0.28076 0.30395,-0.58715 0.30396,-0.91919 -10e-6,-0.33691 -0.0977,-0.6311 -0.29297,-0.88257 -0.19532,-0.25146 -0.51759,-0.46264 -0.9668,-0.63354 -0.28809,-0.1123 -0.9253,-0.28686 -1.91162,-0.52368 -0.98633,-0.23681 -1.67725,-0.4602 -2.07275,-0.67017 -0.5127,-0.26855 -0.89478,-0.6018 -1.14624,-0.99975 -0.25147,-0.39795 -0.3772,-0.8435 -0.3772,-1.33667 0,-0.54199 0.15381,-1.04858 0.46142,-1.51978 0.30762,-0.47118 0.75684,-0.82885 1.34766,-1.073 0.59082,-0.24413 1.24756,-0.3662 1.97022,-0.36621 0.79589,1e-5 1.49779,0.12819 2.10571,0.38452 0.6079,0.25636 1.07543,0.63356 1.40259,1.1316 0.32714,0.49805 0.50292,1.06202 0.52734,1.69189 l -1.3623,0.10254 c -0.0732,-0.6787 -0.32106,-1.1914 -0.74341,-1.53809 -0.42237,-0.34667 -1.04615,-0.52001 -1.87134,-0.52002 -0.85938,10e-6 -1.4856,0.15748 -1.87866,0.47242 -0.39307,0.31495 -0.5896,0.69458 -0.5896,1.13891 0,0.38575 0.13916,0.70313 0.41748,0.95215 0.27343,0.24903 0.98754,0.50416 2.14233,0.76538 1.15478,0.26124 1.94702,0.48951 2.37671,0.68482 0.62499,0.28809 1.08642,0.65308 1.38428,1.09497 0.29784,0.44189 0.44677,0.95093 0.44678,1.5271 -1e-5,0.57129 -0.16359,1.10962 -0.49073,1.61499 -0.32715,0.50537 -0.79712,0.89843 -1.40991,1.1792 -0.6128,0.28076 -1.3025,0.42114 -2.06909,0.42114 -0.97168,0 -1.78589,-0.1416 -2.44263,-0.42481 -0.65674,-0.2832 -1.17187,-0.70922 -1.54541,-1.27807 -0.37353,-0.56885 -0.57007,-1.21216 -0.5896,-1.92993 z"
         id="path3484"
          />
      <path
         d="m 515.52393,455.7836 0,-9.47021 -3.5376,0 0,-1.26709 8.51074,0 0,1.26709 -3.55225,0 0,9.47021 z"
         id="path3486"
          />
      <path
         d="m 520.78271,455.7836 4.12354,-10.7373 1.53076,0 4.39453,10.7373 -1.61865,0 -1.25244,-3.25195 -4.48975,0 -1.1792,3.25195 z m 3.09815,-4.40918 3.64014,0 -1.12061,-2.97363 c -0.3418,-0.90331 -0.59571,-1.6455 -0.76172,-2.22656 -0.13672,0.68848 -0.32959,1.37208 -0.57861,2.05078 z"
         id="path3488"
          />
      <path
         d="m 532.00342,455.7836 0,-10.7373 4.76074,0 c 0.95702,1e-5 1.68456,0.0964 2.18262,0.2893 0.49804,0.19289 0.89598,0.53346 1.19384,1.02173 0.29785,0.48829 0.44677,1.02784 0.44678,1.61865 -10e-6,0.76173 -0.24659,1.40382 -0.73974,1.92627 -0.49318,0.52247 -1.25489,0.8545 -2.28516,0.9961 0.37597,0.18067 0.66161,0.35889 0.85693,0.53467 0.41503,0.38086 0.8081,0.85693 1.1792,1.42822 l 1.86768,2.92236 -1.78711,0 -1.4209,-2.23388 c -0.41505,-0.64453 -0.75684,-1.1377 -1.02539,-1.4795 -0.26856,-0.34179 -0.50904,-0.58105 -0.72144,-0.71777 -0.2124,-0.13671 -0.42847,-0.23193 -0.64819,-0.28564 -0.16114,-0.0342 -0.42481,-0.0513 -0.79101,-0.0513 l -1.64795,0 0,4.76806 z m 1.4209,-5.99853 3.0542,0 c 0.6494,0 1.15722,-0.0671 1.52343,-0.20142 0.36621,-0.13427 0.64453,-0.34911 0.83496,-0.64453 0.19043,-0.2954 0.28564,-0.61645 0.28565,-0.96314 -10e-6,-0.5078 -0.18434,-0.92528 -0.55298,-1.25244 -0.36866,-0.32714 -0.95093,-0.49071 -1.74683,-0.49072 l -3.39843,0 z"
         id="path3490"
          />
      <path
         d="m 545.55322,455.7836 0,-9.47021 -3.5376,0 0,-1.26709 8.51075,0 0,1.26709 -3.55225,0 0,9.47021 z"
         id="path3492"
          />
    </g>
  </g>
</svg>
