<?xml version="1.0" encoding="UTF-8" standalone="no"?>
<svg
   xmlns:dc="http://purl.org/dc/elements/1.1/"
   xmlns:cc="http://creativecommons.org/ns#"
   xmlns:rdf="http://www.w3.org/1999/02/22-rdf-syntax-ns#"
   xmlns:svg="http://www.w3.org/2000/svg"
   xmlns="http://www.w3.org/2000/svg"
   xmlns:sodipodi="http://sodipodi.sourceforge.net/DTD/sodipodi-0.dtd"
   xmlns:inkscape="http://www.inkscape.org/namespaces/inkscape"
   version="1.1"
   viewbox="0 0 1600 150"
   height="150"
   width="1600"
   id="svg2"
   inkscape:version="0.91 r13725"
   sodipodi:docname="banniereCurriculumVitae.svg">
  <metadata
     id="metadata12">
    <rdf:RDF>
      <cc:Work
         rdf:about="">
        <dc:format>image/svg+xml</dc:format>
        <dc:type
           rdf:resource="http://purl.org/dc/dcmitype/StillImage" />
      </cc:Work>
    </rdf:RDF>
  </metadata>
  <defs
     id="defs10" />
  <sodipodi:namedview
     pagecolor="#ffffff"
     bordercolor="#666666"
     borderopacity="1"
     objecttolerance="10"
     gridtolerance="10"
     guidetolerance="10"
     inkscape:pageopacity="0"
     inkscape:pageshadow="2"
     inkscape:window-width="1600"
     inkscape:window-height="834"
     id="namedview8"
     showgrid="false"
     showguides="true"
     inkscape:guide-bbox="true"
     inkscape:zoom="3.98"
     inkscape:cx="1508.1859"
     inkscape:cy="53.631757"
     inkscape:window-x="0"
     inkscape:window-y="27"
     inkscape:window-maximized="1"
     inkscape:current-layer="svg2">
    <sodipodi:guide
       position="800.20325,-31.269044"
       orientation="1,0"
       id="guide4140" />
    <sodipodi:guide
       position="631.15578,74.371859"
       orientation="0,1"
       id="guide4142" />
  </sodipodi:namedview>
  <path
     style="stroke:none;stroke-opacity:1;fill:#3340f1;fill-opacity:1"
     d="M 0 0 L 0 150 L 1600 150 L 1600 0 L 0 0 z M 8.0527344 8.2890625 L 1592.1113 8.2890625 A 1.0001 1.0001 0 0 1 1593.1113 9.2890625 L 1593.1113 141.94727 A 1.0001 1.0001 0 0 1 1592.1113 142.94727 L 8.0527344 142.94727 A 1.0001 1.0001 0 0 1 7.0527344 141.94727 L 7.0527344 9.2890625 A 1.0001 1.0001 0 0 1 8.0527344 8.2890625 z M 9.0527344 10.289062 L 9.0527344 140.94727 L 1591.1113 140.94727 L 1591.1113 10.289062 L 9.0527344 10.289062 z M 127.76953 19.875 C 131.67578 19.875 135.19141 22.560547 138.31641 27.931641 L 144.17578 20.242188 L 144.98242 20.242188 L 144.98242 63.673828 C 144.98242 64.015625 144.88477 64.308594 144.68945 64.552734 C 144.49414 64.748047 144.25 64.845703 143.95703 64.845703 C 143.66406 64.845703 143.41992 64.748047 143.22461 64.552734 C 143.0293 64.308594 142.93164 64.015625 142.93164 63.673828 L 142.93164 59.792969 C 142.93164 53.640625 142.22461 47.462891 140.80859 41.261719 C 139.00195 33.15625 136.50977 27.394531 133.33594 23.976562 C 132.11523 22.658203 130.5293 22 128.57617 22 C 127.25781 22 126.20703 22.511719 125.42578 23.537109 C 124.40039 24.806641 123.88867 26.759766 123.88867 29.396484 L 123.88867 123.43945 C 123.88867 125.7832 124.32812 127.49219 125.20703 128.56641 C 126.13477 129.5918 127.35547 130.10547 128.86914 130.10547 C 130.82227 130.10547 132.82422 129.25 134.875 127.54102 C 136.92578 125.7832 138.48828 123.43945 139.5625 120.50977 C 141.80859 114.55273 142.93164 107.88867 142.93164 100.51562 L 142.93164 88.429688 C 142.93164 87.941406 143.0293 87.576172 143.22461 87.332031 C 143.41992 87.087891 143.66406 86.964844 143.95703 86.964844 C 144.20117 86.964844 144.39648 87.062501 144.54297 87.257812 C 144.83594 87.599609 144.98242 87.990233 144.98242 88.429688 L 144.98242 100.51562 C 144.98242 111.89258 142.88281 120.4375 138.68359 126.15039 C 135.70508 130.25195 131.94531 132.30273 127.4043 132.30273 C 124.03516 132.30273 121.10547 131.25195 118.61523 129.15234 C 116.125 127.00391 114.09766 123.36719 112.53516 118.24023 C 109.6543 108.62109 108.21484 97.023438 108.21484 83.449219 L 108.21484 70.851562 C 108.21484 61.085938 109.04492 51.833984 110.70508 43.09375 C 112.41406 34.304688 115.17188 27.908203 118.98047 23.904297 C 121.56836 21.21875 124.49805 19.875 127.76953 19.875 z M 587.14453 19.875 C 591.05078 19.875 594.56641 22.560547 597.69141 27.931641 L 603.55078 20.242188 L 604.35742 20.242188 L 604.35742 63.673828 C 604.35742 64.015625 604.25977 64.308594 604.06445 64.552734 C 603.86914 64.748047 603.625 64.845703 603.33203 64.845703 C 603.03906 64.845703 602.79492 64.748047 602.59961 64.552734 C 602.4043 64.308594 602.30664 64.015625 602.30664 63.673828 L 602.30664 59.792969 C 602.30664 53.640625 601.59961 47.462891 600.18359 41.261719 C 598.37695 33.15625 595.88477 27.394531 592.71094 23.976562 C 591.49023 22.658203 589.9043 22 587.95117 22 C 586.63281 22 585.58203 22.511719 584.80078 23.537109 C 583.77539 24.806641 583.26367 26.759766 583.26367 29.396484 L 583.26367 123.43945 C 583.26367 125.7832 583.70312 127.49219 584.58203 128.56641 C 585.50977 129.5918 586.73047 130.10547 588.24414 130.10547 C 590.19727 130.10547 592.19922 129.25 594.25 127.54102 C 596.30078 125.7832 597.86328 123.43945 598.9375 120.50977 C 601.18359 114.55273 602.30664 107.88867 602.30664 100.51562 L 602.30664 88.429688 C 602.30664 87.941406 602.4043 87.576172 602.59961 87.332031 C 602.79492 87.087891 603.03906 86.964844 603.33203 86.964844 C 603.57617 86.964844 603.77148 87.062501 603.91797 87.257812 C 604.21094 87.599609 604.35742 87.990233 604.35742 88.429688 L 604.35742 100.51562 C 604.35742 111.89258 602.25781 120.4375 598.05859 126.15039 C 595.08008 130.25195 591.32031 132.30273 586.7793 132.30273 C 583.41016 132.30273 580.48047 131.25195 577.99023 129.15234 C 575.5 127.00391 573.47266 123.36719 571.91016 118.24023 C 569.0293 108.62109 567.58984 97.023438 567.58984 83.449219 L 567.58984 70.851562 C 567.58984 61.085938 568.41992 51.833984 570.08008 43.09375 C 571.78906 34.304688 574.54688 27.908203 578.35547 23.904297 C 580.94336 21.21875 583.87305 19.875 587.14453 19.875 z M 195.40234 21.046875 L 218.91406 21.046875 C 219.1582 21.046875 219.35352 21.144531 219.5 21.339844 C 219.64648 21.486328 219.71875 21.681641 219.71875 21.925781 C 219.71875 22.267578 219.64648 22.537109 219.5 22.732422 C 219.35352 22.878906 219.1582 22.951172 218.91406 22.951172 L 214.8125 22.951172 L 214.8125 123.73242 C 214.8125 125.7832 215.37305 127.37109 216.49609 128.49414 C 217.61914 129.61719 219.13281 130.17773 221.03711 130.17773 C 224.50391 130.17773 227.35938 128.81055 229.60547 126.07617 C 231.90039 123.29297 233.04883 118.92383 233.04883 112.9668 L 233.04883 32.326172 C 233.04883 28.664062 232.73242 26.345703 232.09766 25.369141 C 231.51172 24.34375 230.36328 23.634766 228.6543 23.244141 C 227.77539 23.048828 227.18945 22.830078 226.89648 22.585938 C 226.65234 22.292969 226.53125 22 226.53125 21.707031 L 226.67578 21.193359 L 227.26172 21.046875 L 238.83594 21.046875 C 239.12891 21.046875 239.49414 21.316406 239.93359 21.853516 C 239.93359 22.097656 239.81055 22.316406 239.56641 22.511719 C 239.37109 22.707031 239.00586 22.853516 238.46875 22.951172 C 237.49219 23.097656 236.73633 23.660156 236.19922 24.636719 C 235.27148 26.199219 234.80664 28.761719 234.80664 32.326172 L 234.80664 115.01758 C 234.80664 120.68164 233.3418 124.97852 230.41211 127.9082 C 227.53125 130.83789 223.35547 132.30273 217.88672 132.30273 C 211.00195 132.30273 206.02148 130.54492 202.94531 127.0293 C 200.79688 124.53906 199.72266 119.85156 199.72266 112.9668 L 199.72266 22.951172 L 195.40234 22.951172 C 194.86523 22.560547 194.59766 22.244141 194.59766 22 C 194.59766 21.707031 194.86523 21.388672 195.40234 21.046875 z M 289.10938 21.046875 L 312.17969 21.046875 C 317.89258 21.046875 322.84766 23.488281 327.04688 28.371094 C 331.24608 33.205078 333.34766 39.822266 333.34766 48.220703 C 333.34766 53.054688 332.54102 57.351562 330.92969 61.111328 C 329.31836 64.871094 326.92578 67.970703 323.75195 70.412109 C 321.84766 71.876953 318.89454 73.292969 314.89062 74.660156 C 319.38281 75.978516 322.50782 77.248047 324.26562 78.46875 C 327.24415 80.519531 329.43945 82.986328 330.85547 85.867188 C 332.32031 88.748047 333.05469 92.482422 333.05469 97.072266 L 333.05469 123.87891 C 333.05469 125.09961 333.25001 125.95508 333.64062 126.44336 C 334.03125 126.93164 334.54297 127.17578 335.17773 127.17578 C 336.1543 127.17578 337.0332 126.56445 337.81445 125.34375 C 339.08398 123.39062 339.88867 119.87499 340.23047 114.79688 C 340.2793 113.91796 340.40234 113.33203 340.59766 113.03906 C 340.8418 112.74609 341.08594 112.59961 341.33008 112.59961 C 341.62305 112.59961 341.86719 112.77148 342.0625 113.11328 C 342.30664 113.50391 342.42969 114.23633 342.42969 115.31055 C 342.42969 120.73047 341.10938 124.92969 338.47266 127.9082 C 335.88477 130.83789 332.61523 132.30273 328.66016 132.30273 C 325.14453 132.30273 322.48242 131.39844 320.67578 129.5918 C 318.86914 127.78516 317.96484 125.22266 317.96484 121.90234 L 317.96484 83.15625 C 317.96484 79.835938 317.13672 77.615234 315.47656 76.492188 C 314.5 75.857422 312.20312 75.539062 308.58984 75.539062 L 308.58984 129.29883 L 312.17969 129.29883 C 312.57031 129.29883 312.86328 129.39648 313.05859 129.5918 C 313.30273 129.78711 313.42578 130.00781 313.42578 130.25195 C 313.42578 130.49609 313.30273 130.71484 313.05859 130.91016 C 312.86328 131.10547 312.57031 131.20312 312.17969 131.20312 L 289.10938 131.20312 C 288.81641 131.20312 288.57031 131.13086 288.375 130.98438 C 288.17969 130.78906 288.08203 130.54492 288.08203 130.25195 C 288.08203 129.95898 288.17969 129.73828 288.375 129.5918 C 288.57031 129.39648 288.81641 129.29883 289.10938 129.29883 L 293.42969 129.29883 L 293.42969 22.878906 L 289.10938 22.878906 C 288.57227 22.585938 288.30273 22.267578 288.30273 21.925781 C 288.30273 21.632812 288.57227 21.339844 289.10938 21.046875 z M 391.23828 21.046875 L 414.30859 21.046875 C 420.02148 21.046875 424.97656 23.488281 429.17578 28.371094 C 433.375 33.205078 435.47656 39.822266 435.47656 48.220703 C 435.47656 53.054688 434.66992 57.351562 433.05859 61.111328 C 431.44727 64.871094 429.05469 67.970703 425.88086 70.412109 C 423.97656 71.876953 421.02344 73.292969 417.01953 74.660156 C 421.51172 75.978516 424.63672 77.248047 426.39453 78.46875 C 429.37305 80.519531 431.56835 82.986328 432.98438 85.867188 C 434.44922 88.748047 435.18359 92.482422 435.18359 97.072266 L 435.18359 123.87891 C 435.18359 125.09961 435.37891 125.95508 435.76953 126.44336 C 436.16016 126.93164 436.67188 127.17578 437.30664 127.17578 C 438.2832 127.17578 439.16211 126.56445 439.94336 125.34375 C 441.21289 123.39062 442.01757 119.87499 442.35938 114.79688 C 442.4082 113.91796 442.53125 113.33203 442.72656 113.03906 C 442.9707 112.74609 443.21484 112.59961 443.45898 112.59961 C 443.75195 112.59961 443.99609 112.77148 444.19141 113.11328 C 444.43555 113.50391 444.55859 114.23633 444.55859 115.31055 C 444.55859 120.73047 443.23828 124.92969 440.60156 127.9082 C 438.01367 130.83789 434.74414 132.30273 430.78906 132.30273 C 427.27344 132.30273 424.61133 131.39844 422.80469 129.5918 C 420.99805 127.78516 420.09375 125.22266 420.09375 121.90234 L 420.09375 83.15625 C 420.09375 79.835938 419.26562 77.615234 417.60547 76.492188 C 416.62891 75.857422 414.33203 75.539062 410.71875 75.539062 L 410.71875 129.29883 L 414.30859 129.29883 C 414.69922 129.29883 414.99219 129.39648 415.1875 129.5918 C 415.43164 129.78711 415.55469 130.00781 415.55469 130.25195 C 415.55469 130.49609 415.43164 130.71484 415.1875 130.91016 C 414.99219 131.10547 414.69922 131.20312 414.30859 131.20312 L 391.23828 131.20312 C 390.94531 131.20312 390.69922 131.13086 390.50391 130.98438 C 390.30859 130.78906 390.21094 130.54492 390.21094 130.25195 C 390.21094 129.95898 390.30859 129.73828 390.50391 129.5918 C 390.69922 129.39648 390.94531 129.29883 391.23828 129.29883 L 395.55859 129.29883 L 395.55859 22.878906 L 391.23828 22.878906 C 390.70117 22.585938 390.43164 22.267578 390.43164 21.925781 C 390.43164 21.632812 390.70117 21.339844 391.23828 21.046875 z M 493.14648 21.046875 L 516.94922 21.046875 C 517.19336 21.046875 517.38867 21.144531 517.53516 21.339844 C 517.73047 21.486328 517.82813 21.681641 517.82812 21.925781 C 517.82812 22.21875 517.73047 22.462891 517.53516 22.658203 C 517.38867 22.804688 517.19336 22.878906 516.94922 22.878906 L 512.55469 22.878906 L 512.55469 129.29883 L 516.94922 129.29883 C 517.4375 129.64062 517.68359 129.95898 517.68359 130.25195 C 517.68359 130.59375 517.4375 130.91016 516.94922 131.20312 L 492.56055 131.20312 C 492.02344 130.86133 491.75391 130.54492 491.75391 130.25195 C 491.75391 129.95898 492.02344 129.64062 492.56055 129.29883 L 497.54102 129.29883 L 497.54102 22.878906 L 493.14648 22.878906 C 492.90234 22.878906 492.70703 22.804688 492.56055 22.658203 C 492.41406 22.462891 492.33984 22.244141 492.33984 22 C 492.33984 21.707031 492.41406 21.486328 492.56055 21.339844 C 492.70703 21.144531 492.90234 21.046875 493.14648 21.046875 z M 654.77734 21.046875 L 678.28906 21.046875 C 678.5332 21.046875 678.72852 21.144531 678.875 21.339844 C 679.02148 21.486328 679.09375 21.681641 679.09375 21.925781 C 679.09375 22.267578 679.02148 22.537109 678.875 22.732422 C 678.72852 22.878906 678.5332 22.951172 678.28906 22.951172 L 674.1875 22.951172 L 674.1875 123.73242 C 674.1875 125.7832 674.74805 127.37109 675.87109 128.49414 C 676.99414 129.61719 678.50781 130.17773 680.41211 130.17773 C 683.87891 130.17773 686.73438 128.81055 688.98047 126.07617 C 691.27539 123.29297 692.42383 118.92383 692.42383 112.9668 L 692.42383 32.326172 C 692.42383 28.664062 692.10742 26.345703 691.47266 25.369141 C 690.88672 24.34375 689.73828 23.634766 688.0293 23.244141 C 687.15039 23.048828 686.56445 22.830078 686.27148 22.585938 C 686.02734 22.292969 685.90625 22 685.90625 21.707031 L 686.05078 21.193359 L 686.63672 21.046875 L 698.21094 21.046875 C 698.50391 21.046875 698.86914 21.316406 699.30859 21.853516 C 699.30859 22.097656 699.18555 22.316406 698.94141 22.511719 C 698.74609 22.707031 698.38086 22.853516 697.84375 22.951172 C 696.86719 23.097656 696.11133 23.660156 695.57422 24.636719 C 694.64648 26.199219 694.18164 28.761719 694.18164 32.326172 L 694.18164 115.01758 C 694.18164 120.68164 692.7168 124.97852 689.78711 127.9082 C 686.90625 130.83789 682.73047 132.30273 677.26172 132.30273 C 670.37695 132.30273 665.39648 130.54492 662.32031 127.0293 C 660.17188 124.53906 659.09766 119.85156 659.09766 112.9668 L 659.09766 22.951172 L 654.77734 22.951172 C 654.24023 22.560547 653.97266 22.244141 653.97266 22 C 653.97266 21.707031 654.24023 21.388672 654.77734 21.046875 z M 748.11719 21.046875 L 772.50781 21.046875 C 772.75195 21.046875 772.94727 21.144531 773.09375 21.339844 C 773.28906 21.486328 773.38672 21.681641 773.38672 21.925781 C 773.38672 22.21875 773.28906 22.462891 773.09375 22.658203 C 772.94727 22.804688 772.75195 22.878906 772.50781 22.878906 L 767.67188 22.878906 L 767.67188 129.29883 L 770.75 129.29883 C 772.94727 129.29883 774.875 128.68945 776.53516 127.46875 C 778.19531 126.19922 779.80664 123.61133 781.36914 119.70508 C 783.66406 113.94336 785.32422 107.66797 786.34961 100.88086 C 787.42383 94.044921 787.98633 89.675781 788.03516 87.771484 C 788.08398 87.087891 788.18165 86.648438 788.32812 86.453125 L 788.91406 86.232422 L 789.5 86.453125 C 789.69531 86.648438 789.79297 86.867188 789.79297 87.111328 L 789.20703 131.20312 L 748.11719 131.20312 C 747.87305 131.20312 747.65234 131.13086 747.45703 130.98438 C 747.31055 130.78906 747.23828 130.54492 747.23828 130.25195 C 747.23828 129.95898 747.31055 129.73828 747.45703 129.5918 C 747.65234 129.39648 747.87305 129.29883 748.11719 129.29883 L 752.6582 129.29883 L 752.6582 22.878906 L 748.11719 22.878906 C 747.58008 22.537109 747.3125 22.244141 747.3125 22 C 747.3125 21.707031 747.58008 21.388672 748.11719 21.046875 z M 839.99219 21.046875 L 863.50391 21.046875 C 863.74805 21.046875 863.94336 21.144531 864.08984 21.339844 C 864.23633 21.486328 864.30859 21.681641 864.30859 21.925781 C 864.30859 22.267578 864.23633 22.537109 864.08984 22.732422 C 863.94336 22.878906 863.74805 22.951172 863.50391 22.951172 L 859.40234 22.951172 L 859.40234 123.73242 C 859.40234 125.7832 859.96289 127.37109 861.08594 128.49414 C 862.20898 129.61719 863.72266 130.17773 865.62695 130.17773 C 869.09375 130.17773 871.94922 128.81055 874.19531 126.07617 C 876.49023 123.29297 877.63867 118.92383 877.63867 112.9668 L 877.63867 32.326172 C 877.63867 28.664062 877.32227 26.345703 876.6875 25.369141 C 876.10156 24.34375 874.95312 23.634766 873.24414 23.244141 C 872.36523 23.048828 871.7793 22.830078 871.48633 22.585938 C 871.24219 22.292969 871.12109 22 871.12109 21.707031 L 871.26562 21.193359 L 871.85156 21.046875 L 883.42578 21.046875 C 883.71875 21.046875 884.08398 21.316406 884.52344 21.853516 C 884.52344 22.097656 884.40039 22.316406 884.15625 22.511719 C 883.96094 22.707031 883.5957 22.853516 883.05859 22.951172 C 882.08203 23.097656 881.32617 23.660156 880.78906 24.636719 C 879.86133 26.199219 879.39648 28.761719 879.39648 32.326172 L 879.39648 115.01758 C 879.39648 120.68164 877.93164 124.97852 875.00195 127.9082 C 872.12109 130.83789 867.94531 132.30273 862.47656 132.30273 C 855.5918 132.30273 850.61133 130.54492 847.53516 127.0293 C 845.38672 124.53906 844.3125 119.85156 844.3125 112.9668 L 844.3125 22.951172 L 839.99219 22.951172 C 839.45508 22.560547 839.1875 22.244141 839.1875 22 C 839.1875 21.707031 839.45508 21.388672 839.99219 21.046875 z M 934.06445 21.046875 L 953.91406 21.046875 L 960.94531 88.210938 L 969.95312 21.046875 L 989.875 21.046875 C 990.16797 21.046875 990.41211 21.144531 990.60742 21.339844 C 990.80273 21.486328 990.90039 21.681641 990.90039 21.925781 C 990.90039 22.21875 990.80273 22.462891 990.60742 22.658203 C 990.41211 22.804688 990.16797 22.878906 989.875 22.878906 L 985.11328 22.878906 L 985.11328 129.29883 L 989.875 129.29883 C 990.02148 129.29883 990.11914 129.34766 990.16797 129.44531 C 990.31445 129.68945 990.38672 129.98242 990.38672 130.32422 C 990.38672 130.61719 990.33984 130.83788 990.24219 130.98438 C 990.14453 131.13086 990.02148 131.20312 989.875 131.20312 L 965.77734 131.20312 C 965.58203 131.20312 965.38672 131.13086 965.19141 130.98438 C 965.04492 130.78906 964.97266 130.54492 964.97266 130.25195 C 964.97266 129.95898 965.04492 129.73828 965.19141 129.5918 C 965.38672 129.39648 965.58203 129.29883 965.77734 129.29883 L 970.83203 129.29883 L 970.83203 27.638672 L 957.94141 128.64062 C 957.74609 129.95898 957.57617 130.71484 957.42969 130.91016 C 957.2832 131.10547 957.0625 131.20312 956.76953 131.20312 L 952.00781 131.20312 C 951.71484 131.20312 951.49609 131.10547 951.34961 130.91016 C 951.20312 130.71484 951.05664 129.95898 950.91016 128.64062 L 940.36328 28.664062 L 940.36328 121.53516 C 940.36328 124.07422 940.60742 125.85742 941.0957 126.88281 C 941.63281 127.9082 942.53516 128.64062 943.80469 129.08008 L 947.10156 129.37305 C 947.3457 129.51953 947.46875 129.8125 947.46875 130.25195 C 947.46875 130.64258 947.39453 130.91016 947.24805 131.05664 C 947.15039 131.1543 946.85742 131.20312 946.36914 131.20312 L 933.40625 131.20312 C 933.21094 131.20312 933.03906 131.13086 932.89258 130.98438 C 932.79492 130.83788 932.74609 130.64258 932.74609 130.39844 C 932.74609 130.1543 932.79492 129.98242 932.89258 129.88477 C 933.03906 129.73828 933.47852 129.51953 934.21094 129.22656 C 935.72461 128.64062 936.75 127.88281 937.28711 126.95508 C 938.01953 125.68555 938.38672 123.87891 938.38672 121.53516 L 938.38672 22.878906 L 934.06445 22.878906 C 933.82031 22.878906 933.60156 22.804688 933.40625 22.658203 C 933.25977 22.462891 933.18555 22.244141 933.18555 22 C 933.18555 21.707031 933.25977 21.486328 933.40625 21.339844 C 933.60156 21.144531 933.82031 21.046875 934.06445 21.046875 z M 1105.9492 21.046875 L 1129.3125 21.046875 C 1129.5566 21.046875 1129.752 21.144531 1129.8984 21.339844 C 1130.0938 21.486328 1130.1914 21.707031 1130.1914 22 C 1130.1914 22.292969 1130.1191 22.537109 1129.9727 22.732422 C 1129.8262 22.878906 1129.6055 22.951172 1129.3125 22.951172 L 1124.8457 22.951172 L 1131.2188 104.03125 L 1139.8594 30.349609 C 1139.957 29.666016 1140.0078 28.982422 1140.0078 28.298828 C 1140.0078 26.6875 1139.7871 25.466797 1139.3477 24.636719 C 1138.9082 23.806641 1138.2734 23.292969 1137.4434 23.097656 L 1135.0996 22.878906 C 1134.8066 22.683594 1134.6602 22.390625 1134.6602 22 C 1134.6602 21.707031 1134.9277 21.388672 1135.4648 21.046875 L 1146.5254 21.046875 C 1146.7695 21.046875 1146.9648 21.121094 1147.1113 21.267578 C 1147.2578 21.414062 1147.332 21.609375 1147.332 21.853516 C 1147.332 22.097656 1147.2578 22.292969 1147.1113 22.439453 C 1147.0137 22.585938 1146.8184 22.683594 1146.5254 22.732422 C 1145.3535 22.878906 1144.4512 23.390625 1143.8164 24.269531 C 1142.791 25.783203 1142.082 28.298828 1141.6914 31.814453 L 1130.6328 124.46484 C 1130.1934 128.27344 1129.875 130.34961 1129.6797 130.69141 C 1129.4844 131.0332 1129.1191 131.20312 1128.582 131.20312 L 1121.5508 131.20312 C 1121.1602 131.20312 1120.8672 131.00781 1120.6719 130.61719 C 1120.4766 130.22656 1120.1094 127.41992 1119.5723 122.19531 L 1109.6836 22.951172 L 1105.9492 22.951172 C 1105.7051 22.951172 1105.4844 22.878906 1105.2891 22.732422 C 1105.1426 22.537109 1105.0703 22.292969 1105.0703 22 C 1105.0703 21.707031 1105.1426 21.486328 1105.2891 21.339844 C 1105.4844 21.144531 1105.7051 21.046875 1105.9492 21.046875 z M 1193.5762 21.046875 L 1217.3789 21.046875 C 1217.623 21.046875 1217.8184 21.144531 1217.9648 21.339844 C 1218.1602 21.486328 1218.2578 21.681641 1218.2578 21.925781 C 1218.2578 22.21875 1218.1602 22.462891 1217.9648 22.658203 C 1217.8184 22.804688 1217.623 22.878906 1217.3789 22.878906 L 1212.9844 22.878906 L 1212.9844 129.29883 L 1217.3789 129.29883 C 1217.8672 129.64062 1218.1133 129.95898 1218.1133 130.25195 C 1218.1133 130.59375 1217.8672 130.91016 1217.3789 131.20312 L 1192.9902 131.20312 C 1192.4531 130.86133 1192.1836 130.54492 1192.1836 130.25195 C 1192.1836 129.95898 1192.4531 129.64062 1192.9902 129.29883 L 1197.9707 129.29883 L 1197.9707 22.878906 L 1193.5762 22.878906 C 1193.332 22.878906 1193.1367 22.804688 1192.9902 22.658203 C 1192.8438 22.462891 1192.7695 22.244141 1192.7695 22 C 1192.7695 21.707031 1192.8438 21.486328 1192.9902 21.339844 C 1193.1367 21.144531 1193.332 21.046875 1193.5762 21.046875 z M 1267.2148 21.046875 L 1314.8203 21.046875 L 1314.8203 67.482422 C 1314.8203 67.824219 1314.7227 68.117188 1314.5273 68.361328 C 1314.332 68.556641 1314.0898 68.654297 1313.7969 68.654297 C 1313.5527 68.654297 1313.332 68.556641 1313.1367 68.361328 C 1312.9414 68.117188 1312.8438 67.824219 1312.8438 67.482422 L 1312.8438 64.626953 C 1312.8438 61.84375 1312.1347 56.667969 1310.7188 49.099609 C 1309.3515 41.482422 1307.7656 35.085938 1305.959 29.910156 C 1304.7871 26.589844 1303.8105 24.587891 1303.0293 23.904297 C 1302.2969 23.220703 1301.5898 22.878906 1300.9062 22.878906 L 1298.5625 22.878906 L 1298.5625 129.29883 L 1304.2734 129.29883 C 1304.8105 129.64062 1305.0801 129.95898 1305.0801 130.25195 C 1305.0801 130.54492 1304.8105 130.86134 1304.2734 131.20312 L 1277.1016 131.20312 C 1276.8574 131.20312 1276.6621 131.13086 1276.5156 130.98438 C 1276.3691 130.78906 1276.2969 130.54492 1276.2969 130.25195 C 1276.2969 129.95898 1276.3691 129.73828 1276.5156 129.5918 C 1276.6621 129.39648 1276.8574 129.29883 1277.1016 129.29883 L 1283.4727 129.29883 L 1283.4727 22.878906 L 1281.9355 22.878906 C 1280.8613 22.878906 1279.9336 23.220703 1279.1523 23.904297 C 1277.9805 24.929688 1276.834 27.199219 1275.7109 30.714844 C 1273.9043 36.330078 1272.3652 43.068358 1271.0957 50.929688 C 1269.8262 58.742188 1269.1914 63.699219 1269.1914 65.798828 L 1269.1914 67.482422 C 1269.1914 67.873047 1269.0938 68.191406 1268.8984 68.435547 C 1268.7031 68.630859 1268.4824 68.728516 1268.2383 68.728516 C 1267.9453 68.728516 1267.7266 68.630859 1267.5801 68.435547 C 1267.3359 68.142578 1267.2148 67.824219 1267.2148 67.482422 L 1267.2148 21.046875 z M 1451.0371 21.046875 L 1492.6387 21.046875 L 1492.6387 61.84375 C 1492.3457 62.332031 1492.0527 62.576172 1491.7598 62.576172 C 1491.4668 62.576172 1491.248 62.501953 1491.1016 62.355469 C 1491.0039 62.160156 1490.9297 61.453125 1490.8809 60.232422 C 1490.5391 52.126953 1489.2695 44.582031 1487.0723 37.599609 C 1484.875 30.617188 1482.75 26.199219 1480.6992 24.34375 C 1479.625 23.367188 1477.8203 22.878906 1475.2812 22.878906 L 1470.7383 22.878906 L 1470.7383 74.441406 C 1473.5215 74.148438 1475.793 72.683594 1477.5508 70.046875 C 1479.8945 66.482422 1481.0664 61.013672 1481.0664 53.640625 L 1481.0664 47.927734 C 1481.0664 47.683594 1481.1387 47.488281 1481.2852 47.341797 C 1481.4805 47.146484 1481.7012 47.048828 1481.9453 47.048828 C 1482.1895 47.048828 1482.3848 47.146484 1482.5312 47.341797 C 1482.6778 47.488281 1482.75 47.683594 1482.75 47.927734 L 1482.75 102.3457 C 1482.75 102.58984 1482.6777 102.81055 1482.5312 103.00586 C 1482.3849 103.15234 1482.1895 103.22461 1481.9453 103.22461 C 1481.7012 103.22461 1481.4805 103.15234 1481.2852 103.00586 C 1481.1387 102.81055 1481.0664 102.58984 1481.0664 102.3457 L 1481.0664 97.072266 C 1481.0664 89.845703 1479.748 84.109375 1477.1113 79.861328 C 1475.5488 77.419922 1473.9121 76.199219 1472.2031 76.199219 C 1471.7637 76.199219 1471.4238 76.345703 1471.1797 76.638672 C 1470.8867 76.980469 1470.7383 77.517578 1470.7383 78.25 L 1470.7383 129.29883 L 1473.082 129.29883 C 1475.084 129.29883 1477.0625 128.56641 1479.0156 127.10156 C 1480.9688 125.58789 1482.7988 123 1484.5078 119.33789 C 1486.2168 115.62695 1487.5371 111.59961 1488.4648 107.25391 C 1489.9785 100.22266 1490.7344 94.728515 1490.7344 90.773438 L 1490.7344 85.939453 C 1491.0762 85.402344 1491.3945 85.134766 1491.6875 85.134766 C 1491.9805 85.134766 1492.1992 85.207031 1492.3457 85.353516 C 1492.541 85.5 1492.6387 85.695312 1492.6387 85.939453 L 1492.6387 131.20312 L 1451.0371 131.20312 C 1450.6953 131.20312 1450.4258 131.10547 1450.2305 130.91016 C 1450.0352 130.71484 1449.9375 130.49609 1449.9375 130.25195 C 1449.9375 129.95898 1450.0352 129.73828 1450.2305 129.5918 C 1450.4258 129.39648 1450.6953 129.29883 1451.0371 129.29883 L 1455.7246 129.29883 L 1455.7246 22.878906 L 1451.0371 22.878906 C 1450.5488 22.537109 1450.3047 22.244141 1450.3047 22 C 1450.3047 21.658203 1450.5488 21.339844 1451.0371 21.046875 z M 1377.6914 22.585938 L 1385.8223 22.585938 L 1398.8594 129.29883 L 1402.1562 129.29883 C 1402.6935 129.64062 1402.9609 129.95898 1402.9609 130.25195 C 1402.9609 130.54492 1402.6935 130.86134 1402.1562 131.20312 L 1380.1094 131.20312 C 1379.8652 131.20312 1379.6699 131.13086 1379.5234 130.98438 C 1379.377 130.78906 1379.3047 130.54492 1379.3047 130.25195 C 1379.3047 129.95898 1379.377 129.73828 1379.5234 129.5918 C 1379.6699 129.39648 1379.8652 129.29883 1380.1094 129.29883 L 1383.625 129.29883 L 1381.7207 108.49805 L 1368.4648 108.49805 L 1366.8516 120.29102 C 1366.8027 120.92578 1366.7793 121.58398 1366.7793 122.26758 C 1366.7793 124.41602 1367.1699 126.05273 1367.9512 127.17578 C 1368.7812 128.25 1369.9043 128.9082 1371.3203 129.15234 L 1372.4922 129.51953 C 1372.6875 129.71484 1372.7852 129.95898 1372.7852 130.25195 C 1372.7852 130.54492 1372.6875 130.78906 1372.4922 130.98438 C 1372.3457 131.13086 1372.1504 131.20312 1371.9062 131.20312 L 1359.3828 131.20312 C 1359.1387 131.20312 1358.918 131.13086 1358.7227 130.98438 C 1358.5762 130.78906 1358.5039 130.54492 1358.5039 130.25195 C 1358.5039 129.95898 1358.5762 129.71484 1358.7227 129.51953 L 1359.6016 129.22656 C 1361.0176 129.03125 1362.1172 128.39648 1362.8984 127.32227 C 1364.0703 125.61328 1364.8984 122.78125 1365.3867 118.82617 L 1377.6914 22.585938 z M 308.58984 22.878906 L 308.58984 73.5625 L 312.17969 73.5625 C 313.88867 73.5625 315.28125 72.976562 316.35547 71.804688 C 317.42969 70.632812 317.96484 68.923828 317.96484 66.677734 L 317.96484 28.664062 C 317.96484 26.466797 317.57422 24.953125 316.79297 24.123047 C 316.01172 23.292969 314.47461 22.878906 312.17969 22.878906 L 308.58984 22.878906 z M 410.71875 22.878906 L 410.71875 73.5625 L 414.30859 73.5625 C 416.01758 73.5625 417.41015 72.976562 418.48438 71.804688 C 419.55858 70.632812 420.09375 68.923828 420.09375 66.677734 L 420.09375 28.664062 C 420.09375 26.466797 419.70311 24.953125 418.92188 24.123047 C 418.14062 23.292969 416.60352 22.878906 414.30859 22.878906 L 410.71875 22.878906 z M 1375.8613 49.904297 L 1368.6836 106.59375 L 1381.5 106.59375 L 1375.8613 49.904297 z "
     id="rect4" />
</svg>
