<?xml version="1.0" encoding="UTF-8" standalone="no"?>
<!-- Created with Inkscape (http://www.inkscape.org/) -->

<svg
   xmlns:dc="http://purl.org/dc/elements/1.1/"
   xmlns:cc="http://creativecommons.org/ns#"
   xmlns:rdf="http://www.w3.org/1999/02/22-rdf-syntax-ns#"
   xmlns:svg="http://www.w3.org/2000/svg"
   xmlns="http://www.w3.org/2000/svg"
   xmlns:sodipodi="http://sodipodi.sourceforge.net/DTD/sodipodi-0.dtd"
   xmlns:inkscape="http://www.inkscape.org/namespaces/inkscape"
   id="svg2"
   version="1.1"
   inkscape:version="0.48.5 r10040"
   width="320"
   height="665"
   xml:space="preserve"
   sodipodi:docname="eiffel_tower.svg"><metadata
     id="metadata8"><rdf:RDF><cc:Work
         rdf:about=""><dc:format>image/svg+xml</dc:format><dc:type
           rdf:resource="http://purl.org/dc/dcmitype/StillImage" /><dc:title></dc:title></cc:Work></rdf:RDF></metadata><defs
     id="defs6"><clipPath
       clipPathUnits="userSpaceOnUse"
       id="clipPath30"><path
         d="m 187.388,20.417 465.048,0 0,559.223 -465.048,0 0,-559.223 z"
         id="path32"
         inkscape:connector-curvature="0" /></clipPath></defs><sodipodi:namedview
     pagecolor="#ffffff"
     bordercolor="#666666"
     borderopacity="1"
     objecttolerance="10"
     gridtolerance="10"
     guidetolerance="10"
     inkscape:pageopacity="0"
     inkscape:pageshadow="2"
     inkscape:window-width="1600"
     inkscape:window-height="834"
     id="namedview4"
     showgrid="false"
     inkscape:zoom="0.8970687"
     inkscape:cx="596.64023"
     inkscape:cy="376.07412"
     inkscape:window-x="0"
     inkscape:window-y="27"
     inkscape:window-maximized="1"
     inkscape:current-layer="g10" /><g
     id="g10"
     inkscape:groupmode="layer"
     inkscape:label="eiffel_tower"
     transform="matrix(1.25,0,0,-1.25,0,665.00008)"><g
       id="g3048"
       transform="translate(-296.96722,-36.879022)"><path
         id="path12"
         style="fill:#000000;fill-opacity:1;fill-rule:nonzero;stroke:none"
         d="m 425.768,520.358 -1.562,0 0,43.756 1.562,0 0,-43.756 z"
         inkscape:connector-curvature="0" /><path
         id="path14"
         style="fill:#000000;fill-opacity:1;fill-rule:nonzero;stroke:none"
         d="m 427.819,554.151 -5.665,0 0,2.149 5.665,0 0,-2.149 z"
         inkscape:connector-curvature="0" /><path
         id="path16"
         style="fill:#000000;fill-opacity:1;fill-rule:nonzero;stroke:none"
         d="m 428.308,549.073 -6.643,0 0,3.907 6.643,0 0,-3.907 z"
         inkscape:connector-curvature="0" /><path
         id="path18"
         style="fill:#000000;fill-opacity:1;fill-rule:nonzero;stroke:none"
         d="m 427.722,542.626 -5.47,0 0,3.711 5.47,0 0,-3.711 z"
         inkscape:connector-curvature="0" /><path
         id="path20"
         style="fill:#000000;fill-opacity:1;fill-rule:nonzero;stroke:none"
         d="m 427.33,517.818 -4.688,0 0,9.767 4.688,0 0,-9.767 z"
         inkscape:connector-curvature="0" /><g
         transform="translate(368.586,109.7352)"
         id="g22"><path
           id="path24"
           style="fill:#000000;fill-opacity:1;fill-rule:nonzero;stroke:none"
           d="m 0,0 -0.149,-0.261 0.056,0 0.034,0.067 0.171,0 0.036,-0.067 0.058,0 L 0.058,0 0,0 z m 0.028,-0.034 0.071,-0.13 -0.142,0 0.071,0.13 z"
           inkscape:connector-curvature="0" /></g><g
         id="g26"><g
           clip-path="url(#clipPath30)"
           id="g28"><g
             transform="translate(502.9844,56.7969)"
             id="g34"><path
               id="path36"
               style="fill:#000000;fill-opacity:1;fill-rule:nonzero;stroke:none"
               d="M 0,0 10.682,0 4.866,-5.748 3.63,-5.741 C 3.319,-5.34 2.958,-4.854 2.546,-4.254 L 0,0 z m 0.17,-16.548 -0.002,0.138 0.073,-0.211 -0.071,0.073 z M -4.349,7.257 6.215,2.613 l -7.781,0 -2.783,4.644 z m -6.601,11.015 10.429,0 -6.549,-6.471 -3.88,6.471 z m -1.179,1.97 -3.074,5.133 10.213,-4.491 -7.139,0 0,-0.642 z m -5.984,9.99 -3.783,6.312 10.17,0 -6.387,-6.312 z m -3.911,-2.349 c -0.535,0.474 -1.08,0.936 -1.639,1.389 l 0.818,-0.575 1.062,-1.034 c -0.081,0.071 -0.161,0.149 -0.241,0.22 m 5.83,11.274 -7.137,0 0,-0.214 -2.728,4.551 9.865,-4.337 z m -11.567,10.885 -3.375,2.752 0.266,0.215 6.113,0.003 -1.261,-1.247 -1.5,1.225 -0.676,-0.553 1.562,-1.278 -1.129,-1.117 z m 0.502,-10.493 -0.204,-0.232 c -0.119,0.085 -0.238,0.168 -0.353,0.248 -0.912,0.628 -1.86,1.215 -2.825,1.778 l 0.179,0.228 c 0.474,0.587 1.755,0.67 2.706,0.079 0.95,-0.585 0.865,-1.681 0.497,-2.101 m -3.565,11.899 2.453,-2.008 -0.784,-0.776 -1.669,2.784 z m -4.273,-7.691 c -0.101,0.054 -0.206,0.106 -0.311,0.159 l 1.567,2.045 c 0.682,0.886 2.391,1.092 3.3,0.488 0.908,-0.603 1.238,-1.685 0.457,-2.661 l -1.531,-1.89 c -1.148,0.645 -2.315,1.258 -3.482,1.859 m -5.012,2.447 2.924,4.764 c 0.796,1.301 2.521,1.348 3.48,0.834 0.935,-0.499 1.444,-1.7 0.54,-2.956 l -3.205,-4.438 c -1.227,0.618 -2.47,1.224 -3.739,1.796 m -3.002,1.257 c -0.58,0.224 -1.17,0.434 -1.761,0.637 l 2.155,3.849 c 0.555,0.986 1.989,1.099 2.887,0.752 0.853,-0.335 1.498,-1.428 0.893,-2.384 l -2.284,-3.625 c -0.623,0.268 -1.254,0.527 -1.89,0.771 m -2.805,0.987 c -1.459,0.474 -2.931,0.903 -4.414,1.306 l 0.85,1.704 c 0.416,0.852 1.276,1.253 2.095,1.351 l 0.433,-0.356 0.428,0.349 c 0.147,-0.019 0.282,-0.05 0.407,-0.089 0.84,-0.263 1.72,-1.532 1.117,-2.609 l -0.916,-1.656 z m -5.095,2.372 -0.373,-0.782 c -0.061,0.017 -0.122,0.034 -0.183,0.049 -1.301,0.347 -2.61,0.662 -3.922,0.961 l 0.397,0.801 c 0.173,0.293 0.363,0.528 0.571,0.712 l 0.109,0.091 c 0.196,0.15 0.397,0.265 0.615,0.338 l 1.59,0 c 0.09,-0.022 0.174,-0.034 0.261,-0.063 1.177,-0.401 1.273,-1.394 0.935,-2.107 m -6.239,5.792 1.773,1.444 -0.015,-2.693 -1.758,1.249 z m 1.745,-3.049 -5.507,-0.005 3.122,2.537 2.389,-1.699 -0.004,-0.833 z m -1.039,-2.155 -0.031,-0.115 c -1.35,0.295 -2.704,0.567 -4.069,0.816 l 0.123,0.214 c 0.192,0.346 0.62,0.568 1.115,0.667 l 0.019,0 1.352,0 c 0.056,-0.009 0.11,-0.019 0.161,-0.032 0.878,-0.221 1.5,-1.011 1.33,-1.55 m -5.361,7.538 3.29,-2.337 -3.315,-2.695 0.025,5.032 z m -1.243,6.51 -3.044,-2.479 -3.479,2.47 0,0.269 6.525,0 -0.002,-0.26 z m -0.02,-4.632 -2.301,1.637 2.316,1.886 -0.015,-3.523 z m -0.011,-1.667 -2.572,-2.09 -3.387,2.408 3.024,2.463 2.941,-2.089 -0.006,-0.692 z m -0.018,-3.908 -1.833,1.305 1.849,1.502 -0.016,-2.807 z m -0.009,-1.693 -5.514,-0.008 3.044,2.479 2.475,-1.759 -0.005,-0.712 z m -6.465,10.905 2.833,-2.009 -2.824,-2.299 -0.009,4.308 z m 0.019,-10.271 -0.01,4.67 3.263,-2.321 -3.253,-2.643 0,0.238 0.037,0.028 -0.037,0.028 z m -1.276,-0.642 -1.667,-0.002 -0.429,0.002 c -1.242,0.055 -2.422,0.094 -3.252,0.118 l 2.806,2.283 2.542,-1.821 0,-0.58 z m -5.907,-0.932 0,0.033 c 0.311,-0.007 0.665,-0.02 1.056,-0.033 l -1.056,0 z m -0.471,6.085 3.113,-2.233 -3.153,-2.566 0.04,4.799 z M -78.087,78 l -6.348,0 0,6.3 13.091,0 0,-6.3 -6.562,0 -0.181,0 z m 0.097,-3.475 -0.017,0 0,0.017 0.017,0 0,-0.017 z m -1.777,-21.872 c 0.749,0.029 1.351,0.047 1.684,0.058 l 0.049,-0.042 -1.733,-0.016 z m -3.637,0.893 -1.394,0 2.961,2.365 2.743,-2.231 c -0.964,-0.028 -2.33,-0.071 -3.729,-0.132 l -0.581,-0.002 z m -1.656,4.989 2.543,-2.071 -2.549,-2.05 0.006,4.121 z m -4.564,-6.618 -6.485,-1.193 -6.368,-1.307 -7.362,-2.119 -8.216,-3.557 -6.782,-3.671 -5.021,-3.201 c 0.899,0.725 1.779,1.404 2.496,1.898 2.211,1.516 4.679,2.829 7.16,4.11 2.562,1.321 5.146,2.595 7.857,3.639 2.666,1.02 5.465,1.825 8.297,2.574 3.062,0.812 6.183,1.491 9.33,2.059 2.631,0.475 5.295,0.875 7.958,1.126 0.19,0.015 0.392,0.033 0.603,0.051 l -3.467,-0.409 z m -39.471,1.095 -0.501,-0.41 -0.413,0.41 0.914,0 z m -14.509,-13.196 3.607,5.867 9.619,0 -13.226,-5.867 z m 11.066,-0.659 -6.033,0 8.193,3.602 -2.16,-3.602 z m -4.891,-8.161 -5.612,5.548 8.942,0 -3.33,-5.548 z m -3.58,-10.372 c -0.561,-0.688 -1.102,-1.388 -1.631,-2.098 l 0,0.223 4.291,7.158 1.894,0.834 -0.116,0.476 0.936,-0.859 c -1.926,-1.819 -3.743,-3.726 -5.374,-5.734 m -2.39,-3.149 0.476,0.797 0.1,0 c -0.196,-0.262 -0.388,-0.528 -0.576,-0.797 m -6.375,3.409 8.541,3.755 -2.25,-3.755 -6.291,0 z m 1.306,-8.321 -5.777,5.709 9.197,0 -3.42,-5.709 z m -12.391,-0.816 3.432,5.583 5.651,-5.583 -9.083,0 z m 6.428,-9.134 -6.548,0 8.89,3.908 -2.342,-3.908 z m -5.004,-8.353 -0.203,-0.002 -5.812,5.742 9.455,0 -3.44,-5.74 z m -12.218,-0.066 3.003,4.881 4.899,-4.84 -7.902,-0.041 z m -8.576,-0.048 9.184,4.04 -2.456,-4.001 -6.728,-0.039 z m -6.659,-0.033 4.274,7.178 0,-1.291 9.23,0 -13.272,-5.886 -0.232,-10e-4 z m 8.61,14.469 6.045,-5.969 -9.596,0 3.551,5.969 z m 6.078,10.216 0,-0.526 10.019,0 -13.384,-5.937 -0.282,-0.588 -0.547,0 4.194,7.051 z m 4.918,8.263 6.254,-6.177 -9.93,0 3.676,6.177 z m 0.684,1.15 0,-0.06 -0.063,-0.045 0.063,0.105 z m 5.603,9.415 0,-1.082 10.019,0 -13.384,-5.935 -0.28,-0.589 -0.881,0 4.526,7.606 z m 4.709,7.914 6.461,-6.383 -10.26,0 3.799,6.383 z m 0.609,1.023 0.284,0.004 0,-0.144 -0.623,-0.429 0.339,0.569 z m 2.656,4.466 1.139,-0.931 -2.215,-1.805 -0.552,0 1.628,2.736 z m 1.189,1.993 0.372,0 -0.077,-0.064 1.577,-1.289 -1.252,-1.022 -1.371,1.118 0.751,1.257 z m 2.04,3.434 0,-1.637 1.818,0 0,-1.213 -3.511,0.003 1.693,2.847 z m 1.818,3.056 0,-2.083 -1.238,0 1.238,2.083 z m 1.549,-7.646 -1.57,-0.696 -0.612,0.5 1.208,0.983 0.974,-0.787 z m 0.022,13.85 -0.116,-0.19 -0.236,0.19 0.352,0 z m 0.531,18.584 7.801,0 -2.717,-6.3 -5.084,0 0,6.3 z m 9.16,0 3.152,0 0,-4.75 -3.175,-1.55 -2.691,0 2.714,6.3 z m 2.945,6.834 0.246,-0.008 -0.034,-0.104 0.276,0 3.28,-2.472 -4.881,0 1.113,2.584 z m 0.802,1.862 -0.079,-0.34 -0.281,-0.496 0.36,0.836 z m 3.714,8.613 0,0.016 0.02,0.016 3.261,9.365 0,0.018 5.51,18.252 5.191,16.708 0.198,0 -0.434,-1.077 7.881,-6.948 -11.777,-7.364 -0.478,0 -0.105,-0.336 -0.088,0.079 -0.324,-1.35 -0.528,-1.307 8.551,-7.621 -13.06,-8.299 -0.227,0 -0.773,-2.454 0.466,0 -0.1,-0.249 8.546,-7.433 -14.342,-8.146 -0.3,0 -0.447,0.335 3.359,7.795 z m 14.633,46.518 1.02,-0.837 -0.317,-0.262 -1.034,0 0.331,1.099 z m 1.408,1.353 1.14,-0.94 -1.148,-0.941 -1.144,0.938 1.152,0.943 z m -0.803,0.662 0.415,-0.341 -0.688,-0.564 0.273,0.905 z m 0.179,0.589 1.372,0 -0.756,-0.62 -0.645,0.529 0.029,0.091 z m 0.323,1.067 0.026,-0.023 -0.034,0 0.008,0.023 z m 2.843,9.609 2.67,-4.244 -5.295,-4.632 2.625,8.876 z m 6.061,-9.632 -7.369,0 4.756,4.153 2.613,-4.153 z m 2.815,8.894 -1.779,-7.736 -2.502,3.997 4.281,3.739 z m -3.883,11.664 0.065,0.048 15.93,0 0.024,-0.019 -16.019,-0.029 z m 0.516,15.429 0.064,-0.064 -0.176,-1.006 0.647,0.537 7.285,-7.236 -6.523,-4.888 -3.602,0 2.305,12.657 z m -2.404,-15.433 -0.403,0 0.01,0.052 0.461,0 -0.068,-0.052 z m 2.541,16.187 0,0.015 2.831,16.742 0.08,-0.084 -0.045,-0.817 0.452,0.389 7.183,-7.561 -9.956,-8.275 -0.152,0 -0.042,0.041 -0.028,-0.041 -0.146,0 0,-0.234 -0.099,-0.155 -0.004,-0.005 0,-0.005 -0.1,-0.159 0.026,0.149 z m 2.959,17.516 -0.016,-0.3 -0.04,-0.021 0.056,0.321 z m 0.044,0.267 0.021,0 0,0.015 2.226,17.57 0.02,0.018 1.714,17.114 0,0.015 1.431,17.214 1.45,16.149 0,0.017 1.315,16.396 0,0.017 0.929,15.488 0.141,-0.094 0,-0.516 0.178,0.002 -0.04,-0.357 6.406,-7.046 -7,-7.198 -0.288,0 -0.029,0.027 -0.004,-0.027 -0.175,-0.003 0,-0.968 -0.084,-0.463 0.197,-0.219 -0.013,-0.259 0.128,0.131 6.5,-7.227 -7.632,-7.418 -0.313,0.332 -0.047,-0.403 -0.147,0 0,-1.304 0.109,0 -0.131,-0.656 0.455,0.437 6.752,-7.228 -8.024,-7.321 -0.445,0.481 -0.115,-1.619 0.028,-0.031 -0.128,-1.095 0.615,0.568 7.023,-7.6 -8.108,-7.896 -0.581,10e-4 -0.246,0.261 -0.093,-1.532 0.252,-0.265 -0.173,-0.737 0.454,0.436 7.117,-7.562 -8.526,-7.711 -0.468,0.535 -0.004,-0.719 -0.182,0 0,-1.306 0.09,0 -0.172,-0.709 0.638,0.578 6.96,-7.905 -9.518,-8.23 -0.365,0 0,-0.315 -0.142,-0.125 0.044,0.262 z m 9.92,113.587 6.348,-6.041 -7.137,-7.115 0.789,13.156 z m 0.085,1.419 0.015,-0.013 0,-0.121 -0.022,0.021 0.007,0.113 z m 0.038,0.728 0.755,12.268 5.593,-5.924 -6.278,-6.36 -0.07,0 0,0.016 z m 0.839,13.636 0.173,-0.192 0,-0.066 0.062,0 0.258,-0.278 -0.548,-0.344 0.055,0.88 z m 0.022,0.367 0.031,-0.022 -0.034,-0.021 0.003,0.043 z m 0.779,12.76 5.708,-6.005 -6.463,-6.352 0.755,12.357 z m 0.017,0.232 0.077,-0.056 -0.085,-0.053 0.008,0.109 z m 0.039,0.642 0.642,11.324 0.088,-0.09 0,-0.075 0.071,0 5.287,-5.368 -6.093,-5.854 0.005,0.063 z m 0.666,11.741 0.059,-0.041 -0.063,-0.042 0.004,0.083 z m 0.656,11.548 5.064,-5.456 -5.695,-5.646 0.631,11.102 z m 0.037,0.647 0.175,-0.116 -0.19,-0.116 0.015,0.232 z m 0.584,11.012 4.686,-5.186 -5.243,-5.31 0.557,10.496 z m 0.043,0.837 0.172,-0.429 -0.198,-0.123 0.026,0.552 z m 0.534,9.992 4.526,-4.835 -5.045,-4.911 0.519,9.746 z m 0.037,0.726 0.179,-0.12 -0.193,-0.12 0.014,0.24 z m 0.328,9.919 4.354,-4.733 -4.668,-4.772 0.314,9.505 z m 0.01,0.293 0.054,-0.034 -0.055,-0.034 10e-4,0.068 z m 0.308,9.378 4.229,-4.4 -4.255,-4.33 -0.16,-0.001 0,-0.163 -0.107,-0.111 0.293,9.005 z m 0.122,0.502 -0.107,-0.07 0,0.07 0.107,0 z m 1.216,36.426 c 0.635,1.323 2.191,3.567 3.777,4.932 0.963,0.828 2.021,1.271 2.701,1.491 l 0,-0.058 0.449,0 0,-10.488 -8.46,0 c 0.21,0.659 0.99,2.995 1.533,4.123 m 7.256,-36.886 -3.675,-3.739 -4.03,4.199 7.705,0 0,-0.46 z m 1.152,-142.938 -0.897,0.618 0,0.363 0.157,0.095 -0.157,0.171 0,0.525 -0.372,0 0.593,13.281 0.676,-15.053 z m -0.182,25.527 0,7.2 0.174,0.173 13.521,-0.057 -6.664,-7.327 -6.902,6.625 -0.109,-1.385 6.285,-6.039 -5.887,-6.466 -0.091,0 -0.327,7.259 0,0.017 z m 0,8.521 0.007,0.007 0.137,-0.125 0,-0.605 -0.027,0.016 0,0.604 -0.117,0 0,0.103 z m 0,12.598 0.13,0.134 0.705,-0.745 0.725,0.454 4.927,-4.904 -6.487,-7.066 0,12.127 z m 0,15.682 0.13,0.128 6.255,-6.335 -6.255,-6.817 -0.13,0.138 0,12.886 z m 0,13.218 0.13,0.124 5.859,-5.758 -5.859,-6.157 -0.13,0.132 0,11.659 z m 0,12.113 0.13,0.121 5.408,-5.204 -5.408,-5.495 -0.13,0.127 0,10.451 z m 0,11.904 0.13,0.124 5.127,-5.075 -5.127,-5.526 -0.13,0.135 0,10.342 z m 0.144,1.161 0,-0.083 -0.014,-0.009 -0.013,0.009 0,0.083 0.013,0.007 0.014,-0.007 z m -0.144,10.661 0.13,0.128 4.899,-4.963 -4.899,-5.431 -0.13,0.14 0,10.126 z m 0.144,0.867 0,-0.017 -0.014,-0.008 -0.013,0.008 0,0.017 0.013,0.008 0.014,-0.008 z m -0.144,9.701 0.13,0.123 4.463,-4.36 -4.463,-4.768 -0.13,0.135 0,8.87 z m 0,10.768 0.13,0.128 4.283,-4.371 -4.283,-4.651 -0.13,0.137 0,8.757 z m 0,9.801 0.13,0.129 4.087,-4.166 -4.087,-4.256 -0.13,0.13 0,8.163 z m 0.338,43.667 0.445,0 0,0.054 c 0.684,-0.221 1.736,-0.665 2.695,-1.487 1.586,-1.365 3.141,-3.609 3.777,-4.932 0.545,-1.128 1.32,-3.464 1.534,-4.123 l -8.451,0 0,10.488 z m 5.258,-47.693 3.04,3.164 0.213,-6.475 -3.253,3.311 z m 3.586,-13.477 -3.393,3.473 3.164,3.445 0.229,-6.918 z m 0.547,-10.908 -3.743,3.64 3.361,3.588 0.382,-7.228 z m -4.426,2.912 4.316,-4.214 -8.261,0 3.945,4.214 z m 3.846,5.557 -3.874,-4.138 -4.243,4.125 8.117,0.013 z m -4.032,5.18 4.052,-4.137 -7.868,-0.011 3.816,4.148 z m 3.58,5.368 -3.609,-3.92 -3.869,3.956 7.478,-0.036 z m -3.794,6.071 -4.124,4.199 7.8,0 0.01,-0.36 -3.686,-3.839 z m 0.006,-1.42 3.535,-3.607 -6.965,0.035 3.43,3.572 z m 0.783,-30.497 -4.429,4.483 8.471,0 -4.042,-4.483 z m 4.233,3.186 0.418,-7.898 -3.945,3.995 3.527,3.903 z m -8.47,-9.374 4.282,4.739 4.678,-4.739 -8.96,0 z m 9.579,-10.815 -4.395,4.357 3.909,4.211 0.486,-8.568 z m 0.19,-3.33 0.511,-8.962 -4.797,4.607 4.286,4.355 z m 0.703,-12.233 0.604,-9.86 -5.156,5.068 4.552,4.792 z m 0.887,-14.502 0.601,-9.81 -5.04,5.106 4.439,4.704 z m 1.518,-25.049 -6.466,6.443 5.705,6.214 0.761,-12.657 z m -7.135,5.714 7.024,-6.994 -13.394,0.057 6.37,6.937 z m 5.274,7.224 -5.314,-5.789 -5.794,5.773 0.004,0.004 11.104,0.012 z m -4.773,6.69 5.574,-5.645 -10.92,-0.011 5.346,5.656 z m 4.591,7.761 -5.24,-5.706 -5.71,5.786 10.95,-0.08 z m -5.589,6.66 5.714,-5.617 -10.976,0.08 5.262,5.537 z m 4.843,6.534 -4.878,-5.126 -5.269,5.179 10.147,-0.053 z m -5.294,6.145 5.301,-5.1 -10.269,0.053 4.968,5.047 z m 4.592,6.071 -4.613,-4.687 -4.893,4.699 9.506,-0.012 z m -4.909,7.371 -4.758,4.716 9.136,0 -4.378,-4.716 z m 0.035,-1.424 4.952,-4.903 -9.494,0.013 4.542,4.89 z m 9.375,-75.675 -0.725,0 -6.746,6.474 6.647,7.308 0.824,-13.782 z m 1.317,-16.493 -0.145,0 -0.013,0.32 -7.466,6.864 6.473,7.198 1.151,-14.382 z m 1.251,-13.961 -7.349,5.065 6.289,6.729 1.06,-11.794 z m 0.196,-2.159 -14.293,0 6.122,6.553 8.083,-5.579 0.088,-0.974 z m 1.427,-17.148 -1.724,-0.005 0.25,0.988 -6.873,6.307 7.1,7.69 1.247,-14.98 z m 1.712,-17.183 -0.099,-0.11 -14.48,0 -1.199,0 6.067,6.446 6.459,-6.336 -0.023,1.528 -5.708,5.587 7.477,7.942 1.506,-15.057 z m 0.201,-1.507 1.896,-14.947 -8.849,7.048 6.953,7.899 z m 4.974,-33.407 -9.512,7.578 6.989,7.355 2.523,-14.933 z m 2.437,-13.449 -8.047,4.919 6.054,6.015 1.993,-10.934 z m 0.63,-3.467 -17.084,0.029 0.019,0.023 17.055,0 0.01,-0.052 z m -4.855,-19.212 -4.533,3.879 2.925,3.721 1.608,-7.6 z m 4.174,3.823 -2.497,-3.963 -1.77,7.692 4.267,-3.729 z m 1.16,-1.012 4.756,-4.153 -7.371,0 2.615,4.153 z m 2.614,4.152 1.803,-6.101 -3.64,3.184 1.837,2.917 z m 2.753,-9.349 -0.759,-0.623 -0.752,0.623 1.511,0 z m 0.53,-1.684 -0.911,0.749 0.547,0.45 0.364,-1.199 z m 0.245,-0.825 0.359,-1.194 -1.193,0 -0.31,0.255 1.139,0.945 0.005,-0.006 z m 5.321,-17.179 -11.056,6.916 6.991,6.167 4.065,-13.083 z m 5.621,-18.564 -11.933,7.581 7.6,6.771 4.333,-14.352 z m 3.702,-10.838 0.019,-0.016 0,-0.016 3.397,-7.88 -13.903,7.896 8.054,7.001 2.433,-6.985 z m 5.648,-13.091 -3.654,0 2.757,2.078 0.897,-2.078 z m 1.832,-4.25 2.714,-6.3 -1.467,0 -4.401,2.146 0,4.154 3.154,0 z m 7.705,-36.007 -2.507,0 -0.727,0.584 -2.531,4.132 0.92,-0.407 -0.277,-0.232 5.122,-4.077 z m 1.829,36.001 0,-8.36 -2.872,0 -3.712,8.36 6.584,0 z m -1.042,-21.574 0.54,0.533 0.925,-1.557 -1.465,1.024 z m -2.819,1.968 0.664,0 -0.277,-0.271 -0.387,0.271 z m 4.314,-5.542 -1.901,-1.528 -2.79,1.945 2.613,2.581 2.078,-1.459 0,-1.539 z m 1.273,-4.327 2.791,0 0.716,-1.209 -3.507,-0.004 0,1.213 z m 0,4.687 1.237,-2.077 -1.237,0 0,2.077 z m 5.379,-9.043 -2.473,1.974 0.674,0.553 -3.818,-0.032 3.03,-2.472 -2.968,1.317 -0.779,0.634 0.636,0.521 -2.417,-0.02 -0.183,0.082 6.776,0.002 1.522,-2.559 z m -3.978,-2.17 -3.604,0 -4.435,3.535 8.039,-3.535 z m -3.43,9.136 0.756,0.604 0,-0.604 -0.756,0 z m 0.756,-2.61 0,-1.213 -2.963,-0.003 -1.661,0.738 0.599,0.478 4.025,0 z m -6.341,7.206 0.025,2.663 0.613,0 1.2,-0.843 -1.838,-1.82 z m 0.956,-7.206 -0.112,-0.091 -0.205,0.091 0.317,0 z m -1.002,2.61 0.005,0.466 1.11,1.095 2.239,-1.561 -3.354,0 z m 6.745,-18.127 -3.917,6.381 10.371,0 -6.454,-6.381 z m 13.025,-0.145 -9.031,0 5.687,5.616 3.344,-5.616 z m 1.551,-2.613 3.381,-5.684 -12.812,5.684 9.431,0 z m 6.099,-10.248 3.222,-5.412 -8.702,0 5.48,5.412 z m 4.774,-8.024 3.264,-5.482 -12.364,5.482 9.1,0 z M 13.474,2.76 9.562,9.139 l 10.364,0 -6.452,-6.379 z m 9.262,5.057 3.096,-5.204 -8.369,0 5.273,5.204 z M 27.385,0 30.531,-5.284 18.617,0 27.385,0 z m -8.651,-5.822 -2.457,4.008 9.202,-4.045 -6.745,0.037 z M 7.697,9.139 11.326,3.236 -1.977,9.139 l 9.674,0 z m -2.624,7.321 10.714,-4.713 -7.826,0 -2.888,4.713 z m -2.409,0.87 3.431,-5.583 -9.086,0 5.655,5.583 z m -6.198,10.081 3.613,-5.883 -13.26,5.883 9.647,0 z m -1.608,2.609 -9.052,0 5.633,5.564 3.419,-5.564 z m 13.864,-2.609 -6.453,-6.38 -3.911,6.38 10.364,0 z m -11.969,2.609 -2.89,4.713 10.722,-4.713 -7.832,0 z m -11.524,15.663 3.607,-5.867 -13.223,5.867 9.616,0 z m -7.885,5.317 3.354,-2.707 -2.469,0 -1.987,1.621 1.102,1.086 z m -0.274,3.819 -0.486,-0.484 0.001,0.484 0.485,0 z m -0.201,4.458 0.723,-1.171 -1.003,0.447 0,0.496 0.28,0.228 z m 3.041,3.56 -2.193,-1.774 -1.118,1.827 0.002,1.798 0.649,0 2.66,-1.851 z m 0.646,0.526 -1.903,1.325 3.543,0 -1.64,-1.325 z m 0.733,-0.51 1.825,1.474 -0.028,-2.726 -1.797,1.252 z m -1.035,-4.889 -1.125,0.796 -0.958,1.565 2.471,2.003 2.363,-1.645 -2.751,-2.719 z m 0.602,-5.174 0.03,-0.044 c 0,-0.011 -0.007,-0.023 -0.017,-0.029 -0.015,-0.006 -0.032,-0.013 -0.064,-0.013 l -0.081,0 0,0.097 0.081,0 c 0.024,0 0.042,-0.005 0.051,-0.011 m -0.057,0.04 -0.075,0 0,0.081 0.062,0 0.048,-0.075 c -0.012,-10e-4 -0.021,-0.006 -0.035,-0.006 m -0.825,0.766 0.242,0.241 0.148,-0.24 -0.39,-0.001 z m -0.298,-0.822 -0.142,0 0.071,0.13 0.071,-0.13 z m 0.691,0 0.073,0.13 0.071,-0.13 -0.144,0 z m 0.16,-0.032 0.034,-0.067 0.055,0 -0.148,0.263 -0.056,0 -0.086,-0.145 -0.11,0.092 0,0.053 -0.053,0 0,-0.012 -0.083,0.064 -0.321,-0.273 -0.126,0.221 -0.057,0 -0.148,-0.263 0.054,0 0.037,0.067 0.172,0 0.032,-0.057 -0.295,-0.248 3.278,-2.647 0.92,-1.497 -1.551,0 -4.118,3.316 1.425,1.406 1.34,0 0.048,-0.077 -0.099,0 0,-0.263 0.138,0 c 0.043,0 0.077,0.007 0.104,0.018 0,0.004 0.002,0.006 0.002,0.007 l 0.462,-0.753 -0.985,0.795 0.135,0 z m -4.896,-3.431 1.238,-1.018 -2.27,0 1.032,1.018 z m -4.266,5.508 3.945,0 0,-1.228 -5.467,-0.003 1.522,1.231 z m -2.501,0 1.142,0 -1.144,-0.924 0.002,0.924 z m 6.006,23.644 0,-0.463 -4.977,0 -1.294,3.513 6.271,-3.05 z m 0,2.998 -5.496,2.678 0.214,0.161 5.282,0 0,-2.839 z m -1.402,-18.695 0.842,0.68 1.009,-1.645 0,-0.346 -1.851,1.311 z m -2.256,-1.831 1.607,1.303 2.5,-1.766 0,-1.353 -0.004,-10e-4 -4.103,1.817 z m -2.316,-1.877 1.433,-0.631 1.41,-0.998 -2.872,0 0.004,1.61 0.025,0.019 z m 1.856,5.63 2.791,0 0.312,-0.506 -1.112,-0.903 -1.991,1.409 z m 1.344,-1.934 -1.762,-1.428 -1.456,0.646 0.002,2.716 0.479,0 2.737,-1.934 z m -6.094,25.796 -0.91,2.472 9.032,0 -3.294,-2.472 -4.828,0 z M -38.185,78 l 0,0.444 4.892,3.684 1.518,-4.128 -6.41,0 z m 4.367,-14.832 1.423,1.161 -10e-4,-1.791 -1.422,0.63 z m -1.595,-7.604 1.187,-1.98 -3.639,-0.006 2.452,1.986 z m -1.703,9.124 3.803,0 -1.383,-1.129 -2.207,0.978 -0.213,0.151 z m -0.918,-4.959 0.086,0.069 0.136,-0.233 -0.222,0.164 z m -0.738,-0.602 0.087,0.073 1.907,-1.357 0.918,-1.534 -2.968,-2.41 0.056,5.228 z m 0.378,1.415 -0.366,-0.299 0.01,0.89 0.356,-0.591 z m 2.656,23.077 -2.447,-1.837 0,2.518 1.048,0 1.399,-0.681 z m -8.998,7.403 8.169,0 0.91,-2.472 -4.011,0 -5.068,2.472 z m 2.513,-28.309 1.692,1.394 0.008,-0.014 -0.198,-0.809 0.72,-0.314 -0.021,-1.825 -2.201,1.568 z m -0.27,-5.517 -3.423,2.468 3.053,2.517 2.831,-2.018 -0.012,-0.966 -2.449,-2.001 z m 0.721,-0.52 1.715,1.403 -0.027,-2.619 -1.688,1.216 z m -0.648,-0.527 2.324,-1.674 -0.01,-0.897 -5.475,-0.007 3.161,2.578 z m -4.032,2.911 3.312,-2.389 -3.386,-2.762 0.074,5.151 z m 2.862,3.637 -2.843,-2.347 0.062,4.334 2.781,-1.987 z m 2.611,2.156 -1.967,-1.626 -3.411,2.433 0.002,0.056 5.659,0 -0.449,-0.584 0.166,-0.279 z m -7.048,19.447 7.217,0 0,-4.487 -2.411,-1.813 -2.607,0 -2.199,6.3 z m -5.658,-6.3 0,6.3 4.346,0 2.202,-6.3 -6.548,0 z m 3.035,-14.919 -3.506,2.53 0,0.105 6.527,0 -0.003,-0.181 -3.018,-2.454 z m 0.717,-0.518 2.287,1.855 -0.05,-3.466 -2.237,1.611 z m -0.292,-5.342 -3.348,2.38 2.994,2.434 2.866,-2.065 -0.008,-0.684 -2.504,-2.065 z m 0.727,-0.516 1.759,1.454 -0.038,-2.676 -1.721,1.222 z m -0.643,-0.528 2.349,-1.669 -0.013,-0.938 -5.499,-0.005 3.163,2.612 z m -4.055,2.881 3.332,-2.367 -3.366,-2.777 0.034,5.144 z m 0.036,5.565 2.863,-2.066 -2.891,-2.351 0.028,4.417 z m -34.64,-1.942 2.477,2.006 -0.008,-4.015 -2.469,2.009 z m -0.668,-5.724 -3.196,2.596 3.184,2.579 3.149,-2.562 -0.003,-0.115 -3.134,-2.498 z m 0.679,-0.555 2.453,1.958 -0.004,-3.946 -2.449,1.988 z m -4.002,-2.096 -0.023,4.27 2.661,-2.167 -2.638,-2.103 z m 3.317,1.552 2.839,-2.31 -5.73,0.007 2.891,2.303 z m -0.685,6.826 -2.665,-2.159 -0.019,4.343 2.684,-2.184 z m 3.748,3.032 -3.068,-2.482 -3.049,2.482 6.117,0 z m -13.024,18.584 12.375,0 0,-6.3 -12.375,0 0,6.3 z m 2.914,-27.867 2.435,1.969 0.018,-3.966 -2.453,1.997 z m -4,2.143 2.641,-2.143 -2.613,-2.118 -0.028,4.261 z m 2.656,4.112 -2.665,-2.163 -0.03,4.357 2.695,-2.194 z m 0.671,0.546 -3.055,2.482 6.12,0 -3.065,-2.482 z m 3.102,-3.617 0,-0.118 -3.107,-2.516 -3.168,2.573 3.181,2.581 3.094,-2.52 z m -2.421,3.064 2.397,1.945 0.02,-3.909 -2.417,1.964 z m -7.541,-9.754 c 0.088,0.028 0.174,0.041 0.262,0.063 l 1.591,0 c 0.495,-0.169 0.935,-0.529 1.292,-1.141 l 0.4,-0.801 c -1.31,-0.299 -2.619,-0.616 -3.916,-0.961 -0.061,-0.015 -0.125,-0.033 -0.189,-0.049 l -0.371,0.782 c -0.34,0.713 -0.244,1.706 0.931,2.107 m -3.703,0.642 2.873,2.327 2.825,-2.333 -5.698,0.006 z m -2.123,-0.856 c 0.976,0.307 2.709,0.081 3.362,-1.255 l 0.852,-1.705 c -1.48,-0.402 -2.958,-0.831 -4.416,-1.308 l -0.913,1.659 c -0.604,1.077 0.269,2.346 1.115,2.609 m -7.18,-2.398 c -0.604,0.956 0.039,2.049 0.895,2.382 0.892,0.349 2.331,0.24 2.881,-0.75 l 2.161,-3.85 c -0.589,-0.202 -1.176,-0.412 -1.757,-0.636 -0.639,-0.246 -1.268,-0.503 -1.894,-0.771 l -2.286,3.625 z m -5.771,-1.467 c -0.906,1.256 -0.394,2.455 0.537,2.954 0.963,0.514 2.684,0.467 3.482,-0.834 l 2.925,-4.766 c -1.271,-0.57 -2.514,-1.177 -3.74,-1.797 l -3.204,4.443 z m -3.083,-5.058 c -0.2,0.249 -0.324,0.507 -0.39,0.762 l 1.053,0.46 -0.326,1.348 c 0.039,0.033 0.08,0.06 0.122,0.089 0.903,0.606 2.615,0.4 3.3,-0.49 l 1.567,-2.043 c -0.102,-0.055 -0.206,-0.105 -0.308,-0.159 -1.169,-0.601 -2.337,-1.216 -3.487,-1.86 l -1.531,1.893 z m -2.326,-2.137 c 0.949,0.588 2.231,0.505 2.702,-0.084 l 0.182,-0.227 c -0.965,-0.564 -1.911,-1.15 -2.825,-1.777 -0.113,-0.08 -0.233,-0.163 -0.353,-0.252 l -0.206,0.236 c -0.365,0.42 -0.452,1.516 0.5,2.104 m -2.47,12.049 1.374,1.117 2.618,0 1.522,-1.234 -5.399,0.006 -0.115,0.111 z m -0.601,-3.61 0.067,0.054 0.561,-0.557 -0.628,0.503 z m 0.742,14.09 -0.748,-1.219 -0.004,1.727 0.127,0 0.625,-0.508 z m 6.21,20.118 0.213,-0.161 -6.722,-3.279 0,3.44 6.509,0 z m 4.503,6.722 -0.914,-2.472 -4.828,0 -3.292,2.472 9.034,0 z m 0.861,2.496 -8.117,-0.027 9.833,5.474 -1.716,-5.447 z m 4.974,15.789 -1.833,-5.826 -6.625,5.826 8.458,0 z m 0.74,2.494 -8.232,-0.029 9.92,6.093 -1.688,-6.064 z m 4.537,16.299 -1.756,-6.305 -7.098,6.334 8.854,-0.029 z m 0.671,2.495 -6.938,0 8.247,5.06 -1.309,-5.06 z m 3.978,15.389 -1.656,-6.407 -7.262,6.407 8.918,0 z m -7.59,2.243 1.137,-0.937 -0.322,-0.262 -1.651,0 -0.311,0.253 1.147,0.946 z m 1.149,1.572 -1.152,-0.945 -1.141,0.938 1.141,0.939 0.017,0 1.135,-0.932 z m 0.378,0.31 -0.757,0.622 1.517,0 -0.76,-0.622 z m 2.676,-0.313 -1.152,-0.942 -1.144,0.942 1.138,0.935 0.016,0 1.142,-0.935 z m 0.379,0.311 -0.765,0.624 1.531,0 -0.766,-0.624 z m 2.674,-0.308 -1.15,-0.945 -1.145,0.938 1.145,0.939 0.016,0 1.134,-0.932 z m 0.375,0.31 -0.75,0.622 1.513,0 -0.763,-0.622 z m 2.68,-0.313 -1.151,-0.942 -1.144,0.942 1.135,0.935 0.018,0 1.142,-0.935 z m 4.024,7.2 -4.536,-3.879 1.612,7.6 2.924,-3.721 z m 1.128,0.964 -2.955,3.758 7.338,-0.007 -4.383,-3.751 z m 1.723,-8.164 1.137,0.935 0.019,0 0.104,-0.087 -0.285,-1.65 -0.975,0.802 z m 0.795,-1.858 -0.158,-0.91 -0.321,0 -0.316,0.262 0.795,0.648 z m -1.18,-0.333 -1.139,0.935 1.145,0.944 1.145,-0.94 -1.151,-0.939 z m -8.659,-9.976 8.957,5.495 -2.202,-11.458 -6.755,5.963 z m -4.788,-17.764 10.466,6.43 -2.756,-13.312 -7.71,6.882 z m -4.931,-18.667 11.481,6.388 -3.049,-13.802 -8.432,7.414 z m 6.781,-12.648 -2.405,0 2.897,1.407 -0.492,-1.407 z m -3.685,-10.55 -1.38,0 -3.639,2.731 0,3.569 7.219,0 -2.2,-6.3 z m -1.771,-21.558 2.403,1.963 0.056,-3.972 -2.459,2.009 z m -0.675,-0.554 2.838,-2.317 -5.676,0.005 2.838,2.312 z m -0.681,0.554 -2.603,-2.125 -0.048,4.286 2.651,-2.161 z m 0.681,6.948 -1.827,1.506 -0.197,0.82 4.837,0 -2.813,-2.326 z m 3.062,-3.643 10e-4,-0.25 -3.063,-2.503 -3.225,2.625 3.225,2.659 3.062,-2.531 z m -2.392,3.087 2.319,1.914 0.054,-3.873 -2.373,1.959 z m -2.104,0.45 -0.055,0.22 0.812,-0.671 -2.675,-2.209 -0.021,1.809 1.939,0.851 z m -1.158,2.432 -0.072,-0.031 -0.026,0.031 0.098,0 z m -2.143,27.804 1.961,6.249 7.153,-6.222 -9.114,-0.027 z m 5.707,18.286 1.693,6.092 6.803,-6.064 -8.496,-0.028 z m 7.647,-2.499 -10.221,-5.804 1.824,5.804 8.397,0 z m 4.227,18.761 -8.931,-5.674 1.584,5.701 7.347,-0.027 z m 0.492,2.527 -7.173,0 1.329,5.153 5.844,-5.153 z m -2.108,16.696 -0.318,-0.263 -1.652,0 -0.309,0.253 1.145,0.946 1.134,-0.936 z m 1.53,1.253 -1.149,-0.942 -1.136,0.932 1.147,0.946 1.138,-0.936 z m -0.377,2.187 -0.76,-0.62 -0.75,0.62 1.51,0 z m -1.022,1.044 4.785,4.094 3.216,-4.094 -8.001,0 z m 5.616,-1.044 1.513,0 -0.76,-0.622 -0.753,0.622 z m -1.916,-0.939 1.144,0.939 0.013,0 1.136,-0.932 -1.149,-0.945 -1.144,0.938 z m 1.962,-2.764 -1.653,0 -0.309,0.255 1.144,0.944 1.136,-0.937 -0.318,-0.262 z m 0.797,-1.044 -9.158,-5.726 1.48,5.726 7.678,0 z m -4.669,2.244 1.142,-0.938 -0.315,-0.262 -1.674,0 -0.306,0.253 1.153,0.947 z m 1.142,1.571 -1.148,-0.941 -1.137,0.938 1.136,0.935 0.014,0 1.135,-0.932 z m 0.383,-0.319 1.144,-0.94 -1.146,-0.938 -1.142,0.938 1.144,0.94 z m -0.004,0.631 -0.754,0.62 1.508,0 -0.754,-0.62 z m -7.256,-1.571 1.148,0.944 1.142,-0.939 -1.15,-0.94 -1.14,0.935 z m -0.38,-0.31 1.143,-0.935 -0.329,-0.267 -1.651,0 -0.311,0.255 1.148,0.947 z m -2.676,0.31 1.151,0.944 1.145,-0.94 -1.152,-0.942 -1.144,0.938 z m -1.91,-0.935 -1.14,0.935 1.149,0.944 1.138,-0.939 -1.147,-0.94 z m 1.532,0.625 1.143,-0.939 -0.319,-0.263 -1.65,0 -0.322,0.262 1.148,0.94 z m -10.477,-59.68 0.909,2.472 8.17,0 -5.071,-2.472 -4.008,0 z m -0.568,-32.097 2.459,2.029 0.048,-4.058 -2.507,2.029 z m -1.357,-1.634 0.801,0 0,0.983 2.744,-2.224 -4.284,0.003 0.739,1.238 z m -2.129,4.46 3.637,1.598 -1.835,-3.059 -1.802,1.461 z m 5.351,20.089 0,-1.368 -5.184,0 1.522,4.128 3.662,-2.76 z m 0,3.338 -1.217,0.913 1.217,0.593 0,-1.506 z m -1.97,-19.019 -0.672,-0.297 -1.596,1.3 3.502,0 -1.234,-1.003 z m 2.388,-2.795 0.146,0.248 0.005,-0.372 -0.151,0.124 z m 0.163,-1.24 0.003,-0.067 -1.877,-1.55 1.265,2.114 0.609,-0.497 z m -6.175,5.038 2.073,-1.692 -2.266,-1.005 -0.003,2.697 0.196,0 z m -1.253,13.31 -5.928,0 7.221,3.513 -1.293,-3.513 z m -0.201,-23.181 0,-0.405 -0.498,0.405 0.498,0 z m -0.008,3.633 0.004,-1.023 -1.263,0 1.259,1.023 z m -2.5,4.236 2.46,2.002 0.032,0 0.005,-3.261 -0.61,-0.271 -1.887,1.53 z m -1.452,1.178 0.505,0.824 2.066,0 -1.793,-1.456 -0.778,0.632 z m 0.1,-1.185 -1.656,-1.344 1.101,1.791 0.555,-0.447 z m -1.974,-7.862 -0.61,-0.495 -0.004,0.495 0.614,0 z m -0.521,4.739 3.169,2.578 1.684,-1.367 -4.1,-1.82 -0.753,0.609 z m 6.653,-7.086 -1.824,-3.045 -0.856,0.849 2.68,2.196 z m -3.308,0.539 2.627,-0.002 -2.612,-2.131 -1.128,1.117 1.175,0.963 -0.062,0.053 z m 4.715,1.808 -0.152,-0.253 -0.28,-0.231 0,0.484 0.432,0 z m -0.437,2.61 0,1.096 1.35,-1.096 -1.35,0 z m 21.331,20.571 -6.598,0 2.203,6.3 4.395,0 0,-6.3 z m -2.671,-14.735 -3.017,2.451 6.022,0 -3.005,-2.451 z m 0.681,-0.552 2.417,1.974 0.024,-3.959 -2.441,1.985 z m -4.041,-2.189 -0.064,4.418 2.748,-2.229 -2.684,-2.189 z m 2.732,-4.073 -2.642,-2.141 -0.065,4.376 2.707,-2.235 z m 3.766,1.951 0.023,-3.966 -2.435,2.011 2.412,1.955 z m -0.009,1.097 -3.076,-2.495 -3.169,2.613 3.116,2.542 3.129,-2.542 0,-0.118 z m 9.038,94.056 -2.578,3.279 3.67,3.138 -1.092,-6.417 z m 2.94,7.997 4.531,-4.16 -6.404,-5.157 1.523,9.015 0.35,0.302 z m -0.222,0.472 0.023,0.129 0.084,0.503 0.769,0 -0.876,-0.632 z m 0.073,-0.336 -0.112,0.092 0.001,0.014 0.111,-0.106 z m -5.59,18.202 9.374,7.006 -2.327,-11.791 -2.244,0 -4.803,4.785 z m 3.144,-4.785 -9.548,0 5.449,4.071 4.099,-4.071 z m 5.251,12.512 -9.217,-6.91 -6.935,6.91 16.152,0 z m 0.514,1.308 -15.936,0 8.903,7.398 7.033,-7.398 z m 1.722,16.248 -8.693,-7.226 -6.871,7.226 15.564,0 z m 0.133,1.304 -14.931,0 8.469,7.345 6.462,-7.345 z m 0.884,16.266 1.167,0 -8.417,-7.278 -6.419,7.278 13.669,0 z m 0.968,1.306 -0.968,0 -13.493,0 7.818,7.057 6.643,-7.057 z m -1.45,15.955 0,-0.033 2.901,0.007 -8.041,-7.274 -6.912,7.329 12.052,-0.029 z m 2.723,1.301 -13.916,0.033 7.352,7.078 6.564,-7.111 z m 0.834,15.877 -7.306,-7.115 -6.578,7.115 13.884,0 z m -0.229,1.308 -13.165,0 7.069,6.525 6.096,-6.525 z m 1.309,14.843 -7.318,-6.681 -6.261,6.655 13.579,0.026 z m -0.527,1.303 -12.835,-0.026 6.879,6.649 5.956,-6.623 z m 1.227,15.174 -7.091,-6.893 -6.195,6.881 13.286,0.012 z m -0.63,1.305 -12.058,-0.012 6.268,6.378 5.79,-6.366 z m 0.719,14.645 -6.441,-6.622 -5.977,6.57 12.418,0.052 z m 0.194,-13.914 -5.884,6.467 6.177,6.287 0,-6.206 0,-0.017 -0.293,-6.531 z m 0.654,-23.099 -0.604,3.065 0.046,1.041 0.337,0.307 0.411,-0.969 0.43,-0.295 -0.62,-3.149 z m 1.265,-6.423 -1.01,5.13 0.635,3.224 0.375,-8.354 z m 1.943,12.312 5.71,6.351 6.886,-6.374 -12.596,0.023 z m -1.424,-2.454 -0.051,1.153 14.958,-0.028 -6.503,-6.916 -8.404,5.791 z m 0.961,-13.692 -0.079,0 -0.18,0.846 -0.107,-0.399 -0.542,12.12 7.72,-5.332 -6.812,-7.235 z m 8.171,-9.052 -7.869,7.218 -0.06,0.299 0.213,0.227 14.878,0 -7.162,-7.744 z m -5.889,-8.133 6.059,6.559 7.1,-6.527 -13.159,-0.032 z m -1.054,-1.326 3.781,-0.008 0,0.033 11.819,0.029 -7.514,-7.967 -8.086,7.913 z m 0.66,-15.785 -0.399,1.028 -0.904,13.689 0.061,0.165 7.936,-7.783 -6.694,-7.099 z m 9.561,-8.716 -9.122,7.265 2.203,0 13.328,0 -6.409,-7.265 z m -6.376,-9.001 6.623,7.525 9.449,-7.525 -16.072,0 z m 8.786,-8.927 -9.57,7.623 0.4,0 16.419,0 -7.249,-7.623 z m -6.592,-8.625 6.814,7.171 9.002,-7.171 -15.816,0 z m 10.371,-7.577 -10.256,6.269 16.55,0 -6.294,-6.269 z m 0.305,-1.359 7.99,-4.884 -12.904,0 4.914,4.884 z m -10.044,-4.884 -2.393,12.116 0.243,0.221 11.16,-6.821 -5.537,-5.516 -3.473,0 z m 2.989,-21.728 -4.989,4.015 3.729,3.424 1.26,-7.439 z m 0.965,-5.746 0.099,-0.603 -0.198,0 -0.319,0.262 0.418,0.341 z m -0.418,2.165 0.052,0.041 0.013,-0.094 -0.065,0.053 z m -1.527,-1.256 1.147,0.944 0.565,-0.463 0.139,-0.835 -0.709,-0.581 -1.142,0.935 z m -0.383,-0.313 1.138,-0.937 -0.319,-0.262 -1.653,0 -0.308,0.255 1.142,0.944 z m -2.67,0.313 1.142,0.94 1.146,-0.94 -1.149,-0.938 -1.139,0.938 z m -0.382,-0.312 1.143,-0.938 -0.318,-0.262 -1.67,0 -0.308,0.253 1.153,0.947 z m -2.677,0.306 1.146,0.946 1.142,-0.935 -1.152,-0.943 -1.136,0.932 z m -0.379,-0.307 1.137,-0.936 -0.32,-0.263 -1.652,0 -0.309,0.253 1.144,0.946 z m -2.684,0.318 1.15,0.942 1.146,-0.942 -1.15,-0.94 -1.146,0.94 z m -0.378,-0.31 1.145,-0.94 -0.328,-0.267 -1.651,0 -0.318,0.263 1.152,0.944 z m -2.67,0.305 1.147,0.944 1.144,-0.939 -1.152,-0.943 -1.139,0.938 z m -0.375,-0.305 1.143,-0.937 -0.327,-0.27 -0.756,0 -0.896,0 -0.317,0.262 1.153,0.945 z m -2.678,0.305 1.152,0.947 1.145,-0.938 -1.158,-0.944 -1.139,0.935 z m -0.385,-0.313 1.138,-0.937 -0.323,-0.262 -1.651,0 -0.306,0.255 1.142,0.944 z m -2.672,0.313 1.149,0.94 1.138,-0.94 -1.146,-0.938 -1.141,0.938 z m -0.384,-0.312 1.145,-0.938 -0.318,-0.262 -1.667,0 -0.311,0.253 1.151,0.947 z m -2.674,0.306 1.149,0.946 1.139,-0.935 -1.151,-0.943 -1.137,0.932 z m -0.377,-0.307 1.134,-0.936 -0.321,-0.263 -1.65,0 -0.308,0.253 1.145,0.946 z m -2.681,0.313 1.149,0.944 1.142,-0.939 -1.148,-0.94 -1.143,0.935 z m -0.377,-0.31 1.138,-0.935 -0.327,-0.267 -1.65,0 -0.312,0.255 1.151,0.947 z m 1.144,1.569 -1.152,-0.945 -1.143,0.938 1.143,0.939 0.022,0 1.13,-0.932 z m 9.974,1.976 -10.824,0 5.747,4.663 5.077,-4.663 z m -5.95,35.657 6.891,-6.34 -6.516,-5.987 -2.787,0 2.412,12.327 z m -0.612,2.219 -7.051,7.416 8.765,7.285 -1.714,-14.701 z m 2.959,25.409 0,-0.017 -0.936,-8.022 -6.667,7.559 8.029,6.967 -0.426,-6.487 z m 0.648,9.796 -6.612,7.012 7.529,6.797 -0.917,-13.809 z m 1.74,30.85 -0.599,-13.377 -6.39,6.911 6.933,6.673 0.056,-0.207 z m 0.162,3.67 -6.062,6.444 6.627,6.119 -0.565,-12.563 z m 0.725,16.159 -5.892,6.544 6.463,6.245 -0.571,-12.789 z m 0.429,-11.63 0.257,5.795 0.442,-2.246 -0.699,-3.549 z m 2.019,24.355 6.988,-6.471 -6.379,-7.09 -0.609,13.561 z m 0.389,-30.143 -0.269,0.247 0.054,-1.442 0.282,-0.258 0.033,-0.743 -1.433,-5.242 -1.427,5.291 0.032,0.733 0.213,-0.232 0.04,0.699 0.014,0.012 0.007,0 0,0.01 0.196,0.187 -0.183,0.341 0.021,0.443 -0.034,0.038 0,0.289 -0.193,0 0.091,2.08 1.102,5.591 1.416,-7.187 0.038,-0.857 z m -0.685,-9.841 0.969,3.54 0.385,-8.554 -1.354,5.014 z m 1.319,-6.452 0.098,0.026 0.006,-0.128 -0.104,0.102 z m -1.547,-7.085 -1.959,5.048 0.023,0.194 2.125,0.007 1.571,-0.007 0.017,-0.261 -1.777,-4.981 z m 2.538,-6.541 -1.888,4.864 1.327,3.628 0.561,-8.492 z m 0.094,13.103 -0.013,0.172 -0.601,13.359 0.194,0.699 7.455,-6.859 -6.812,-7.371 -0.223,0 z m -5.277,-17.252 2.776,7.592 2.627,-6.773 0.054,-0.819 -5.457,0 z m 8.414,-17.51 0.006,-0.062 -0.233,0 -0.223,0.394 -0.951,8.172 0,0.017 -0.458,6.901 9.081,-7.234 -7.222,-8.188 z m -0.198,-1.834 -0.012,0.107 0.258,0.361 0.068,0 0.006,-0.068 -0.32,-0.4 z m 0.01,-0.083 9.791,-7.799 -7.401,-7.783 -0.68,0.898 -1.71,14.684 z m 1.982,-29.517 -6.511,5.987 5.848,5.382 2.226,-11.369 -1.563,0 z m -5.57,-23.33 5.065,4.653 5.754,-4.653 -10.819,0 z m 10.509,-1.044 1.039,0 0.058,-0.344 -0.342,-0.278 -0.755,0.622 z m -0.773,0 0.016,0 1.135,-0.932 -1.151,-0.945 -1.142,0.938 1.142,0.939 z m -2.287,0 1.512,0 -0.756,-0.62 -0.756,0.62 z m -0.772,0 0.015,0 1.13,-0.932 -1.145,-0.941 -1.137,0.938 1.137,0.935 z m -2.274,0 1.511,0 -0.757,-0.62 -0.754,0.62 z m -0.793,0 0.018,0 1.142,-0.935 -1.152,-0.942 -1.148,0.945 1.14,0.932 z m -2.27,0 1.513,0 -0.759,-0.622 -0.754,0.622 z m -0.774,0 0.015,0 1.134,-0.932 -1.149,-0.945 -1.143,0.938 1.143,0.939 z m -2.29,0 1.532,0 -0.768,-0.624 -0.764,0.624 z m -0.771,0 0.016,0 1.143,-0.935 -1.153,-0.942 -1.143,0.942 1.137,0.935 z m -0.092,10.64 0.002,-8.499 -4.929,4.5 4.927,3.999 z m -0.367,11.01 0.078,0 -7.549,-0.012 0.017,0.012 7.454,0 z m 1.984,-9.725 -0.542,-0.101 -0.862,0.101 0.432,0 0.972,0 z m 0.039,-1.379 4.823,-3.897 -4.823,-4.373 0,8.27 z m -1.011,11.104 0.079,0 8.683,0 0.016,-0.015 -8.778,0.015 z m 5.8,2.724 -5.721,0 -1.091,0 -4.494,0 5.653,5.203 5.653,-5.203 z m 0.59,12.512 -6.243,-5.738 -6.242,5.738 12.485,0 z m -6.947,10.655 -6.688,-9.28 -0.026,0.4 1.756,15.098 0.263,-0.3 0.021,0.275 4.674,-6.193 z m -0.32,17.438 -4.321,-8.476 0.901,7.744 0,0.017 0.401,6.057 3.019,-5.342 z m -3.174,-9.233 3.941,7.876 4.452,-7.876 -8.393,0 z m 4.227,-7.187 -4.447,5.883 8.686,0 -4.239,-5.883 z m 6.196,-10.203 0.018,-0.162 -12.225,0 5.996,8.396 6.211,-8.234 z m -5.483,9.257 3.79,5.306 1.416,-12.198 -5.206,6.892 z m -4.332,24.399 6.152,0 -3.04,-5.964 -3.277,5.796 0.013,0.037 0.152,0.131 z m 1.089,15.167 -0.088,-1.735 0.18,1.5 1.697,-4.374 -2.362,-6.62 0.485,9.494 -1.015,-8.519 0.74,11.191 0.363,-0.937 z m 2.011,8.462 1.188,-4.406 0.062,-0.671 -0.769,-0.002 -1.869,0.007 1.388,5.072 z m -2.114,-2.964 0.412,9.269 1.054,-3.904 -1.466,-5.365 z m -0.371,-92.677 1.514,0 -0.759,-0.622 -0.755,0.622 z m -0.772,0 0.018,0 1.135,-0.929 -1.153,-0.948 -1.142,0.938 1.142,0.939 z m -2.288,0 1.514,0 -0.758,-0.62 -0.756,0.62 z m -0.774,0 0.015,0 1.136,-0.932 -1.148,-0.941 -1.139,0.938 1.136,0.935 z m -2.273,0 1.513,0 -0.759,-0.62 -0.754,0.62 z m -2.308,-0.622 -0.755,0.622 1.515,0 -0.76,-0.622 z m 1.519,0.622 0.017,0 1.141,-0.935 -1.152,-0.942 -1.141,0.942 1.135,0.935 z m 20.311,21.65 0.201,0 -0.016,-0.019 -0.181,0 -0.004,0.019 z m 0.89,-9.725 0.019,-0.137 -4.612,-4.187 -5.371,4.324 9.964,0 z m -7.421,46.359 -3.626,6.416 2.566,5.126 0.366,-5.562 0,-0.017 0.694,-5.963 z m -14.552,-36.634 0.308,0 -0.014,-0.016 -0.277,0 -0.017,0.016 z m 9.275,-9.725 -5.387,-4.336 -4.751,4.336 10.138,0 z m -12.867,-10.553 0.388,-0.328 -0.134,0 -0.254,0.328 z m 0.558,-1.372 -0.765,-0.624 -0.204,0.165 0.077,0.459 0.892,0 z m -1.15,-3.44 -0.318,-0.263 -0.038,0 0.079,0.49 0.277,-0.227 z m -0.186,0.775 0.18,1.097 0.393,0.321 1.144,-0.939 -1.151,-0.943 -0.566,0.464 z m 32.968,8.768 -3.585,-4.563 -1.516,8.928 5.101,-4.365 z m 0.884,1.126 -4.385,3.751 7.341,0.008 -2.956,-3.759 z m -2.974,-6.185 3.217,4.094 4.787,-4.094 -8.004,0 z m 9.033,-1.976 -1.149,-0.941 -1.137,0.938 1.137,0.935 0.013,0 1.136,-0.932 z m 0.381,0.312 -0.756,0.62 1.512,0 -0.756,-0.62 z m 2.681,-0.312 -1.15,-0.945 -1.145,0.938 1.145,0.939 0.017,0 1.133,-0.932 z m 0.377,0.31 -0.755,0.622 1.513,0 -0.758,-0.622 z m 2.679,-0.313 -1.152,-0.942 -1.147,0.945 1.135,0.932 0.019,0 1.145,-0.935 z m 0.373,0.311 -0.76,0.624 1.529,0 -0.769,-0.624 z m 1.528,-1.253 -1.143,0.938 1.143,0.939 0.016,0 1.132,-0.932 -1.148,-0.945 z m 0.383,-0.314 1.147,0.944 1.147,-0.944 -1.15,-0.937 -1.144,0.937 z m -4.936,-8.963 -1.654,6.407 8.92,0 -7.266,-6.407 z m 2.326,-8.982 -1.31,5.06 8.247,-5.06 -6.937,0 z m 2.425,-8.8 -1.753,6.305 8.854,0.029 -7.101,-6.334 z m 2.782,-9.994 -1.687,6.064 9.919,-6.093 -8.232,0.029 z m 2.573,-8.32 -1.831,5.826 8.456,0 -6.625,-5.826 z m 1.421,-4.516 9.841,-5.474 -8.124,0.027 -1.717,5.447 z m -9.044,-5.418 7.154,6.222 1.964,-6.249 -9.118,0.027 z m -3.682,-2.89 0.073,-0.249 0.157,0.137 4.105,-1.995 -3.632,0 -0.741,2.125 0.038,-0.018 z m -11.435,56.634 -0.32,-0.263 -0.158,0 -0.133,0.766 0.611,-0.503 z m 0.386,2.193 1.144,-0.939 -1.148,-0.943 -1.119,0.916 -0.005,0.042 1.128,0.924 z m -0.379,0.312 -0.843,-0.689 -0.276,1.606 1.119,-0.917 z m 0.377,0.311 -0.765,0.624 1.532,0 -0.767,-0.624 z m 2.675,-0.308 -1.15,-0.945 -1.143,0.938 1.143,0.939 0.017,0 1.133,-0.932 z m 0.371,0.305 -0.766,0.627 1.532,0 -0.766,-0.627 z m 2.682,-0.308 -1.156,-0.944 -1.145,0.937 1.145,0.942 0.016,0 1.14,-0.935 z m -0.366,0.935 1.51,0 -0.759,-0.62 -0.751,0.62 z m 0.738,-3.132 -1.138,0.933 1.151,0.948 1.141,-0.935 -1.154,-0.946 z m 2.684,-0.309 -0.319,-0.262 -1.67,0 -0.306,0.253 1.151,0.947 1.144,-0.938 z m 0.382,0.312 -1.142,0.938 1.145,0.94 1.142,-0.94 -1.145,-0.938 z m -0.191,-1.618 1.481,-5.726 -9.161,5.726 7.68,0 z m -6.304,1.311 -0.329,-0.267 -1.651,0 -0.309,0.255 1.148,0.947 1.141,-0.935 z m 1.917,0.932 1.134,-0.936 -0.318,-0.263 -1.651,0 -0.31,0.253 1.145,0.946 z m -1.54,-0.622 -1.141,0.935 1.15,0.944 1.139,-0.939 -1.148,-0.94 z m 10.567,-19.51 1.585,-5.701 -8.932,5.674 7.347,0.027 z m -7.836,2.5 5.842,5.153 1.331,-5.153 -7.173,0 z m 13.114,-21.288 1.825,-5.804 -10.221,5.804 8.396,0 z m -9.246,2.527 6.804,6.064 1.692,-6.092 -8.496,0.028 z m 2.186,35.456 -0.324,-0.262 -1.647,0 -0.32,0.263 1.147,0.939 1.144,-0.94 z m 0.388,0.315 -1.149,0.94 1.151,0.942 1.146,-0.942 -1.148,-0.94 z m 2.673,-0.314 -0.32,-0.263 -1.651,0 -0.316,0.262 1.145,0.94 1.142,-0.939 z m 1.914,0.939 1.14,-0.936 -0.328,-0.266 -1.652,0 -0.308,0.255 1.148,0.947 z m -1.537,-0.628 -1.139,0.938 1.149,0.944 1.142,-0.939 -1.152,-0.943 z m -12.919,-17.007 -0.084,0 -2.953,15.389 0.234,0 0.638,-2.304 9.862,-6.051 -7.751,-6.832 0.054,-0.202 z m 4.074,-19.939 0.209,-1.169 -0.275,1.257 -3.584,17.314 0.549,0.001 0.368,-1.351 11.144,-6.843 -8.714,-7.776 0.303,-1.433 z m 4.508,-19.759 -0.039,0.125 0.02,0 0.019,-0.125 z m -0.475,3.083 0.031,-0.42 -0.109,0 0.078,-0.545 -0.073,-0.064 0.158,-0.55 0.093,-0.654 -0.2,0.578 -0.022,0.048 -3.53,15.99 12.878,-7.165 -8.596,-7.56 -0.708,0.342 z m -24.707,197.135 5.149,5.66 5.902,-5.671 -11.051,0.011 z m 12.413,-1.317 0.131,-0.126 -6.374,-7.078 -7.776,7.152 -0.004,0.066 14.023,-0.014 z m -21.93,23.365 6.551,-6.234 0,-0.122 -12.992,-0.055 6.441,6.411 z m 6.551,5.988 0,-10.841 -5.842,5.559 5.513,5.487 0.329,-0.205 z m -0.14,1.807 0.004,-0.004 -6.423,-6.403 -6.747,6.421 13.166,-0.014 z m -0.987,1.046 -10.915,0.011 5.577,5.645 5.338,-5.656 z m 1.127,12.204 0,-10.837 -5.156,5.617 5.156,5.22 z m -0.108,1.293 -5.715,-5.786 -5.236,5.706 10.951,0.08 z m -0.099,1.043 -10.98,-0.08 5.716,5.617 5.264,-5.537 z m 0.039,12.124 -5.268,-5.179 -4.876,5.126 10.144,0.053 z m 0.168,-1.213 0,-9.677 -4.759,5.001 4.759,4.676 z m -0.051,2.258 -10.27,-0.053 5.303,5.1 4.967,-5.047 z m 0.051,9.875 0,-8.522 -4.31,4.377 4.31,4.145 z m -0.108,1.255 -4.893,-4.699 -4.611,4.687 9.504,0.012 z m -0.089,1.045 -9.494,-0.013 4.955,4.903 4.539,-4.89 z m 0.197,9.577 0,-8.327 -4.03,4.339 4.03,3.988 z m 0,1.453 0,-0.056 -4.704,-4.66 -4.377,4.716 9.081,0 z m -0.226,1.043 -8.961,0 4.68,4.739 4.281,-4.739 z m 0.226,9.305 0,-8.061 -3.8,4.212 3.8,3.849 z m -0.035,1.366 -4.426,-4.483 -4.043,4.483 8.469,0 z m -0.091,1.044 -8.265,0 4.315,4.214 3.95,-4.214 z m 0.126,8.192 0,-6.877 -3.366,3.592 3.366,3.285 z m 0,1.566 0,-0.195 -4.042,-3.933 -3.879,4.141 7.921,-0.013 z m -0.072,1.045 -7.869,0.011 4.056,4.138 3.813,-4.149 z m 0.072,8.114 0,-6.704 -3.185,3.456 3.185,3.248 z m 0,1.438 0,-0.011 -3.856,-3.945 -3.61,3.92 7.466,0.036 z m -2.989,5.321 2.989,3.043 0,-6.153 -2.989,3.11 z m 2.741,-4.278 -6.968,-0.035 3.537,3.607 3.431,-3.572 z m -53.256,-357.538 1.261,-1.004 -0.293,-0.239 -1.894,0 -0.302,0.239 1.228,1.004 z m -3.157,0.532 1.237,0.999 1.232,-0.984 -1.226,-1.002 -1.243,0.987 z m -0.669,-0.543 1.247,-0.991 -0.297,-0.241 -1.915,0 -0.282,0.228 1.247,1.004 z m -1.222,0.975 0.528,-0.422 -1.246,-1.004 -0.105,0.087 0.823,1.339 z m -0.389,2.507 -0.463,-0.753 -0.442,0.354 0.905,0.399 z m 1.671,10.227 -1.795,1.456 3.584,0 -1.789,-1.456 z m 3.072,-2.488 -2.39,1.938 2.464,2.006 0.012,0 0.008,-3.795 -0.094,-0.149 z m -0.275,-8.91 1.098,-1.083 -0.139,-0.115 -1.231,0.979 0.272,0.219 z m -1.289,6.351 -0.551,-0.446 -2.863,2.835 1.906,1.556 2.623,-2.125 -1.115,-1.82 z m -0.887,-4.594 0.149,0.244 0.247,-0.244 -0.396,0 z m 0.537,-1.978 -1.238,-0.996 -0.756,0.604 0.818,1.331 1.176,-0.939 z m -0.005,1.097 0,0.01 -0.012,0 -0.367,0.293 0.83,-10e-4 0.58,-0.571 -0.345,-0.278 -0.686,0.547 z m -4.484,9.268 -0.027,2.71 0.202,0 2.478,-2.009 -1.841,-1.501 -0.812,0.8 z m 0.04,-4.132 0.425,-0.419 -0.423,0 -0.002,0.419 z m -0.626,-7.228 -1.124,0.905 1.594,0.7 0.763,-0.61 -1.233,-0.995 z m 0,-1.092 0.076,-0.059 -0.721,-1.176 -0.302,0 -0.294,0.234 1.241,1.001 z m -3.165,0.55 1.25,0.997 1.236,-1 -1.242,-1.001 -1.244,1.004 z m -5.314,-1.785 1.507,0.66 0.516,-0.421 -0.302,-0.239 -1.721,0 z m 3.792,4.726 -0.664,-0.532 -0.523,-0.228 -0.945,0.761 2.132,-0.001 z m -2.341,1.8 0.604,0 -0.604,-0.493 0,0.493 z m 1.622,9.561 0.182,0.31 0.695,0 -0.679,-0.467 -0.198,0.157 z m 0.839,-1.764 -2.461,-2.021 0,1.009 -0.03,0 1.209,2.034 1.282,-1.022 z m -1.055,-5.187 -1.406,0 0,1.124 1.406,-1.124 z m 4.128,6.608 0.78,0.647 0.016,-1.432 -0.796,0.785 z m -5.064,-10.431 1.491,1.213 2.713,0 0.802,-0.643 -1.292,-0.576 -3.714,0.006 z m 0.786,-4.525 -0.318,0.26 1.445,0.636 -1.127,-0.896 z m 1.916,0.444 1.246,-1.004 -0.283,-0.228 -1.916,0 -0.295,0.241 1.248,0.991 z m 3.238,5.294 0,-0.229 -0.06,-0.027 -0.317,0.256 0.377,0 z m -1.24,2.61 1.205,0.98 0.011,-0.98 -1.216,0 z m -0.294,7.261 0.111,0 -0.061,-0.051 -0.05,0.051 z m 1.278,-5.357 -2.34,-1.904 -1.031,0 -2.674,2.148 3.031,2.496 1.217,-0.969 1.797,-1.771 z m -9.719,-6.312 1.96,0 -0.977,-0.8 -0.983,0.8 z m 1.389,-2.24 -1.622,-0.72 -0.041,0.037 1.253,1.017 0.41,-0.334 z m -3.41,-5.098 10.369,0 -3.914,-6.381 -6.455,6.381 z m 2.658,-15.663 3.422,5.564 5.635,-5.564 -9.057,0 z m -1.603,-2.609 9.645,0 -13.263,-5.883 3.618,5.883 z m -8.122,2.609 10.719,4.713 -2.89,-4.713 -7.829,0 z m 6.227,-2.609 -3.909,-6.38 -6.456,6.38 10.365,0 z m -9.605,-15.664 -7.823,0 10.714,4.713 -2.891,-4.713 z m -5.512,-8.987 -6.451,6.379 10.363,0 -3.912,-6.379 z m 5.776,6.379 9.678,0 -13.306,-5.903 3.628,5.903 z m 67.112,42.968 c -1.364,-0.249 -2.718,-0.519 -4.067,-0.814 l -0.038,0.115 c -0.164,0.539 0.455,1.33 1.334,1.55 0.053,0.015 0.105,0.023 0.161,0.032 l 1.353,0 0.019,0 c 0.497,-0.099 0.924,-0.321 1.113,-0.667 l 0.125,-0.216 z m -4.712,1.456 2.865,2.316 2.858,-2.323 -5.723,0.007 z m 18.392,9.608 -3.102,2.545 6.031,0 0.004,-0.212 -2.933,-2.333 z m 0.679,-0.554 2.263,1.802 0.029,-3.682 -2.292,1.88 z m -4.065,-2.145 0.007,4.376 2.698,-2.22 -2.705,-2.156 z m 6.375,-2.04 0.033,-4.008 -2.5,2.035 2.467,1.973 z m -0.011,1.102 -3.138,-2.522 -3.064,2.494 3.222,2.567 2.98,-2.452 0,-0.087 z m 7.762,-1.519 0.004,-2.909 -1.898,1.367 1.894,1.542 z m -2.982,3.871 2.98,-2.118 0,-0.649 -2.613,-2.127 -3.374,2.42 3.007,2.474 z m -0.718,0.512 -2.66,-2.184 0.03,4.052 2.63,-1.868 z m 3.695,-1.643 -2.332,1.66 2.328,1.914 0.004,-3.574 z m -0.004,4.668 -3.049,-2.498 -3.263,2.323 0.003,0.468 6.309,0 0,-0.293 z m -34.228,23.127 0.862,2.472 0.069,0 0.046,0.311 0.266,0.763 0.018,0.016 0,0.035 4.076,18.419 3.621,17.49 0.125,0 0.315,2.198 3.024,15.73 14.741,0 14.761,0 3.202,-16.658 3.882,-18.76 4.076,-18.419 0,-0.035 0.021,-0.016 1.241,-3.546 -54.346,0 z m 46.762,-25.516 -3.464,2.462 0,0.22 6.443,0 0,-0.26 -2.979,-2.422 z m 0.718,-0.509 2.252,1.836 -0.019,-3.423 -2.233,1.587 z m -0.648,-0.526 2.873,-2.042 -0.005,-0.791 -2.505,-2.036 -3.385,2.407 3.022,2.462 z m -10.347,22.301 12.375,0 0,-6.3 -12.375,0 0,6.3 z m 6.804,-19.787 2.828,-2.003 -2.849,-2.314 0.021,4.317 z m 27.451,-7.048 -2.094,3.496 0.383,0.311 3.74,-1.643 0,-0.517 -2.029,-1.647 z m 2.022,-2.738 0,-0.633 -0.435,0.725 0.307,0 0.128,-0.092 z m -0.71,2.702 0.714,0.577 0,-0.577 -0.714,0 z m 42.095,-63.2 4.906,4.846 3.005,-4.887 -7.911,0.041 z m 39.573,-12.048 -2.919,2.761 -0.342,10e-4 -0.517,0.474 0.716,-10e-4 0.846,0.938 -6.641,3.315 -0.722,0 -1.117,0.898 -9.583,15.656 0.016,0.015 -0.042,0.033 -1.404,2.292 0,0.3 -0.186,0 -5.297,8.657 0,0.593 -0.363,0 -5.47,8.936 0,0.312 -0.191,0 -5.64,9.219 0,0.032 -0.019,0 -5.011,8.19 1.274,-0.989 0.704,0.56 -2.245,0.86 -11.176,18.265 1.199,0 0,0.794 -0.428,0 0.237,2.65 0.111,1.264 0.744,2.396 1.076,1.832 0.745,0 0,0.793 -2.402,0 0,11.073 0.625,0 0,4.25 -13.348,0 -0.303,0.685 0.007,0 -0.037,0.065 -1.099,2.474 -0.066,0.272 -0.045,-0.031 -3.606,8.131 -0.019,0.035 -3.378,9.448 0,0.016 -5.737,18.465 -5.53,17.292 -1.643,5.292 0.276,0.206 -0.461,0.391 -2.825,9.11 0.136,0.212 -0.234,0.095 -0.139,0.449 -0.122,0.396 -0.518,0 -2.227,0.018 -2.139,-3.394 -3.94,3.446 -1.336,0.012 1.323,0 -0.098,0.086 6.289,0.007 -0.059,-0.093 3.034,0 c 0.138,4.386 1.15,8.239 3.645,8.605 l 1.015,0 0.086,1.173 -7.825,0.014 -0.009,0.052 7.235,0 0,2.759 -7.751,0 -2.343,12.598 0.397,0.384 -0.499,0.766 0,0.242 -0.149,0 -2.857,16.304 0.479,0.491 -0.516,0.323 0,0.65 -0.213,0 -2.253,17.087 0,0.273 0.134,0.147 -0.01,1.746 -0.326,-0.359 -1.56,15.186 0.17,0.175 -0.102,1.55 -0.215,-0.221 -1.358,15.84 0.122,0.123 -0.096,1.276 0.016,-0.013 -0.019,0.054 -0.023,0.323 -0.07,-0.071 -0.103,0.284 -1.315,14.25 0.159,0 0,1.321 -0.157,0 -0.051,0.407 -0.1,-0.101 -1.238,15.071 0.072,0 0,0.273 0.087,0.09 -0.087,0.447 0,0.51 -0.092,0.003 -0.097,0.52 -0.019,-0.019 -0.88,14.278 0.098,0 0,0.523 0.392,0.253 -0.57,0.553 -0.872,14.13 0.238,0 0,0.324 0.396,0.255 -0.396,0.386 0,0.093 -0.09,0 -0.228,0.223 -0.748,11.941 0.551,0.569 -0.611,0.375 -0.03,0.433 0.017,0.018 0.065,0 0,0.067 0.374,0.396 -0.25,0.147 0.271,0.182 -0.561,0.535 -0.752,11.952 0.336,0.347 -0.169,0.102 0.42,0.294 -0.674,0.629 -0.641,10.985 0.098,0.095 0.079,0 0,0.078 0.29,0.286 -0.289,0.184 0.33,0.212 -0.59,0.57 -0.624,10.673 0.508,0.533 -0.464,0.282 0.483,0.312 -0.626,0.621 -0.549,10.046 0.43,0.466 -0.392,0.234 0,0.322 0.101,0.442 -0.231,0.217 -0.507,9.29 0.553,0.577 -0.513,0.314 0.432,0.28 -0.556,0.553 -0.304,9.044 0.403,0.428 -0.195,0.12 0.281,0.177 -0.353,0.349 0,0.163 -0.167,10e-4 -0.012,0.012 -0.288,8.553 0.527,0.534 -0.475,0.308 0.013,0 0,3.478 -0.212,0 -0.037,1.131 c 0.294,1.89 1.143,6.569 2.604,8.886 1.863,2.946 3.457,3.479 3.457,3.479 l -3.727,0.044 4.424,0 0.458,0 0,5.119 -0.458,0 0,2.725 -0.452,0 -3.873,0 0,1.231 1.934,0 0,4.816 -1.934,0 c 0,0 -0.503,8.39 -7.67,13.09 -0.869,0.53 -1.852,0.897 -2.674,1.143 -1.735,0.27 -3.39,0.208 -4.903,-0.05 -0.785,-0.245 -1.695,-0.6 -2.502,-1.093 -3.871,-2.63 -4.816,-4.636 -6.194,-7.411 -0.713,-1.559 -1.177,-3.321 -1.332,-3.947 l -0.14,0 0,-7.779 -3.871,0 -0.455,0 0,-2.725 -0.457,0 0,-5.119 0.457,0 4.421,0 -3.726,-0.044 c 0,0 1.593,-0.533 3.452,-3.479 1.471,-2.325 2.321,-7.033 2.611,-8.908 l -0.839,-24.796 0,-0.017 -1.241,-22.759 -1.43,-24.46 -1.76,-27.96 -1.945,-31.597 0,-0.014 -1.367,-16.599 -1.514,-16.367 -1.488,-17.423 -1.782,-17.327 -2.341,-17.771 0,-0.016 -3.15,-17.967 0,-0.018 -2.543,-13.692 -7.751,0 0,-2.759 7.234,0 -0.008,-0.052 -7.825,-0.014 0.082,-1.173 1.016,0 c 2.497,-0.366 3.506,-4.219 3.645,-8.605 l 4.262,0 -0.058,0.093 6.291,-0.007 -0.099,-0.086 0.094,0 -0.095,-0.001 -3.963,-3.466 -2.137,3.414 -3.448,-0.029 -0.516,0 -0.126,-0.396 -4.887,-15.755 -5.529,-17.292 -5.737,-18.465 0,-0.016 -3.379,-9.448 -0.02,-0.035 -5.145,-11.596 -13.101,0 0,-4.25 0.75,0 0,-11.073 -2.779,0 0,-0.793 0.726,0 1.076,-1.832 0.765,-2.396 0.112,-1.264 0.236,-2.65 -0.429,0 0,-0.794 0.327,0 -0.456,-0.363 0.749,-0.58 -44.059,-71.988 -1.113,-0.898 -0.727,0 -6.64,-3.315 0.798,-0.883 -0.09,0 -2.92,-2.76 47.654,0 4.526,0 -0.728,0.741 -0.023,2.108 c 0,0 0.784,0.164 0.9,0.352 0.113,0.188 0.149,0.857 0,1.015 -0.149,0.159 -1.053,0.312 -1.053,0.312 0,0 0.17,1.127 -0.159,1.428 -0.169,0.156 -0.395,0.218 -0.584,0.24 -0.015,1.116 -0.021,3.357 0.139,4.58 0.316,2.396 0.937,4.769 1.738,7.104 0.912,2.653 2.064,5.275 3.48,7.778 1.747,3.087 3.797,6.071 6.153,8.887 2.136,2.553 4.586,4.971 7.206,7.232 2.183,1.888 4.596,3.611 7.085,5.27 2.341,1.557 4.765,3.038 7.311,4.357 3.244,1.686 6.64,3.204 10.127,4.544 3.363,1.289 6.774,2.482 10.317,3.337 3.457,0.832 7.066,1.322 10.685,1.75 3.888,0.489 7.606,0.648 11.745,0.675 4.137,0.028 7.883,-0.251 11.807,-0.675 3.618,-0.428 7.227,-0.918 10.686,-1.75 3.537,-0.855 6.95,-2.048 10.314,-3.337 3.489,-1.34 6.883,-2.858 10.129,-4.544 2.546,-1.319 4.97,-2.8 7.312,-4.357 2.488,-1.659 4.9,-3.382 7.08,-5.27 2.619,-2.261 5.073,-4.679 7.211,-7.232 2.352,-2.816 4.403,-5.8 6.151,-8.887 1.413,-2.503 2.565,-5.125 3.479,-7.778 0.804,-2.335 1.423,-4.708 1.741,-7.104 0.16,-1.223 0.15,-3.462 0.136,-4.58 -0.184,-0.022 -0.415,-0.083 -0.586,-0.24 -0.329,-0.301 -0.16,-1.428 -0.16,-1.428 0,0 -0.903,-0.153 -1.055,-0.312 -0.15,-0.158 -0.113,-0.827 0,-1.015 0.118,-0.188 0.902,-0.352 0.902,-0.352 l -0.024,-2.108 -0.726,-0.741 4.104,0 -0.347,-0.53 48.423,0 z"
               inkscape:connector-curvature="0" /></g><g
             transform="translate(451.1152,218.4199)"
             id="g38"><path
               id="path40"
               style="fill:#000000;fill-opacity:1;fill-rule:nonzero;stroke:none"
               d="m 0,0 6.079,-0.052 0.04,0.064 -6.132,0 L 0,0 z"
               inkscape:connector-curvature="0" /></g><g
             transform="translate(400.1016,218.4316)"
             id="g42"><path
               id="path44"
               style="fill:#000000;fill-opacity:1;fill-rule:nonzero;stroke:none"
               d="m 0,0 -6.134,0 0.032,-0.053 6.101,0.052 L 0,0 z"
               inkscape:connector-curvature="0" /></g><g
             transform="translate(494.6445,109.7549)"
             id="g46"><path
               id="path48"
               style="fill:#000000;fill-opacity:1;fill-rule:nonzero;stroke:none"
               d="M 0,0 0.081,0 0.041,0.032 0,0 z"
               inkscape:connector-curvature="0" /></g><path
             id="path50"
             style="fill:#000000;fill-opacity:1;fill-rule:nonzero;stroke:none"
             d="m 350.799,37.508 -52.667,0 0,8.766 52.667,0 0,-8.766 z"
             inkscape:connector-curvature="0" /><path
             id="path52"
             style="fill:#000000;fill-opacity:1;fill-rule:nonzero;stroke:none"
             d="m 551.799,37.508 -52.667,0 0,8.766 52.667,0 0,-8.766 z"
             inkscape:connector-curvature="0" /></g></g></g></g></svg>
