<?xml version="1.0" encoding="UTF-8" standalone="no"?>

<svg
   xmlns="http://www.w3.org/2000/svg"
   width="3000"
   height="3000"
   version="1.1"
   >
  <path

     d="m 657.21351,1432.7143 a 4.2134832,4.2134832 0 1 1 -8.42696,0 4.2134832,4.2134832 0 1 1 8.42696,0 z"
     ry="10.714286"
     rx="10.714286"
     cy="1425"
     cx="660.71429"
     id="path2985"
     style="fill:#e7f3e7;fill-opacity:0.7;stroke:none"
     type="arc" />
  <path

     d="m 1256.8026,1149.4005 a 4.2134832,4.2134832 0 1 1 -8.4269,0 4.2134832,4.2134832 0 1 1 8.4269,0 z"
     ry="10.714286"
     rx="10.714286"
     cy="1425"
     cx="660.71429"
     id="path2985-6"
     style="fill:#e7f3e7;fill-opacity:0.7;stroke:none"
     type="arc" />
  <path

     d="m 1402.2646,1909.0352 a 4.2134832,4.2134832 0 1 1 -8.4269,0 4.2134832,4.2134832 0 1 1 8.4269,0 z"
     ry="10.714286"
     rx="10.714286"
     cy="1425"
     cx="660.71429"
     id="path2985-0"
     style="fill:#e7f3e7;fill-opacity:0.7;stroke:none"
     type="arc" />
  <path

     d="m 2145.7368,1545.3803 a 4.2134832,4.2134832 0 1 1 -8.4269,0 4.2134832,4.2134832 0 1 1 8.4269,0 z"
     ry="10.714286"
     rx="10.714286"
     cy="1425"
     cx="660.71429"
     id="path2985-9"
     style="fill:#e7f3e7;fill-opacity:0.7;stroke:none"
     type="arc" />
  <path

     d="m 2250.7927,688.77095 a 4.2134832,4.2134832 0 1 1 -8.4269,0 4.2134832,4.2134832 0 1 1 8.4269,0 z"
     ry="10.714286"
     rx="10.714286"
     cy="1425"
     cx="660.71429"
     id="path2985-5"
     style="fill:#e7f3e7;fill-opacity:0.7;stroke:none"
     type="arc" />
  <path

     d="m 1822.488,470.57805 a 4.2134832,4.2134832 0 1 1 -8.4269,0 4.2134832,4.2134832 0 1 1 8.4269,0 z"
     ry="10.714286"
     rx="10.714286"
     cy="1425"
     cx="660.71429"
     id="path2985-8"
     style="fill:#e7f3e7;fill-opacity:0.7;stroke:none"
     type="arc" />
  <path

     d="m 2218.4678,2119.1469 a 4.2134832,4.2134832 0 1 1 -8.4269,0 4.2134832,4.2134832 0 1 1 8.4269,0 z"
     ry="10.714286"
     rx="10.714286"
     cy="1425"
     cx="660.71429"
     id="path2985-3"
     style="fill:#e7f3e7;fill-opacity:0.7;stroke:none"
     type="arc" />
  <path

     d="m 1644.7012,2450.477 a 4.2134832,4.2134832 0 1 1 -8.4269,0 4.2134832,4.2134832 0 1 1 8.4269,0 z"
     ry="10.714286"
     rx="10.714286"
     cy="1425"
     cx="660.71429"
     id="path2985-63"
     style="fill:#e7f3e7;fill-opacity:0.7;stroke:none"
     type="arc" />
  <path

     d="m 408.2745,2418.1521 a 4.2134832,4.2134832 0 1 1 -8.42696,0 4.2134832,4.2134832 0 1 1 8.42696,0 z"
     ry="10.714286"
     rx="10.714286"
     cy="1425"
     cx="660.71429"
     id="path2985-7"
     style="fill:#e7f3e7;fill-opacity:0.7;stroke:none"
     type="arc" />
  <path

     d="m 715.36087,1666.5986 a 4.2134832,4.2134832 0 1 1 -8.42696,0 4.2134832,4.2134832 0 1 1 8.42696,0 z"
     ry="10.714286"
     rx="10.714286"
     cy="1425"
     cx="660.71429"
     id="path2985-73"
     style="fill:#e7f3e7;fill-opacity:0.7;stroke:none"
     type="arc" />
  <path

     d="m 198.16277,1028.1822 a 4.2134832,4.2134832 0 1 1 -8.42696,0 4.2134832,4.2134832 0 1 1 8.42696,0 z"
     ry="10.714286"
     rx="10.714286"
     cy="1425"
     cx="660.71429"
     id="path2985-1"
     style="fill:#e7f3e7;fill-opacity:0.7;stroke:none"
     type="arc" />
  <path

     d="m 400.19328,389.76585 a 4.2134832,4.2134832 0 1 1 -8.42696,0 4.2134832,4.2134832 0 1 1 8.42696,0 z"
     ry="10.714286"
     rx="10.714286"
     cy="1425"
     cx="660.71429"
     id="path2985-60"
     style="fill:#e7f3e7;fill-opacity:0.7;stroke:none"
     type="arc" />
  <path

     d="m 2291.1988,397.84705 a 4.2134832,4.2134832 0 1 1 -8.4269,0 4.2134832,4.2134832 0 1 1 8.4269,0 z"
     ry="10.714286"
     rx="10.714286"
     cy="1425"
     cx="660.71429"
     id="path2985-4"
     style="fill:#e7f3e7;fill-opacity:0.7;stroke:none"
     type="arc" />
  <path

     d="m 2614.4476,1391.8371 a 4.2134832,4.2134832 0 1 1 -8.4269,0 4.2134832,4.2134832 0 1 1 8.4269,0 z"
     ry="10.714286"
     rx="10.714286"
     cy="1425"
     cx="660.71429"
     id="path2985-74"
     style="fill:#e7f3e7;fill-opacity:0.7;stroke:none"
     type="arc" />
  <path

     d="m 2816.4781,1036.2634 a 4.2134832,4.2134832 0 1 1 -8.4269,0 4.2134832,4.2134832 0 1 1 8.4269,0 z"
     ry="10.714286"
     rx="10.714286"
     cy="1425"
     cx="660.71429"
     id="path2985-79"
     style="fill:#e7f3e7;fill-opacity:0.7;stroke:none"
     type="arc" />
  <path

     d="m 2800.3157,591.79635 a 4.2134832,4.2134832 0 1 1 -8.4269,0 4.2134832,4.2134832 0 1 1 8.4269,0 z"
     ry="10.714286"
     rx="10.714286"
     cy="1425"
     cx="660.71429"
     id="path2985-37"
     style="fill:#e7f3e7;fill-opacity:0.7;stroke:none"
     type="arc" />
  <path

     d="m 2800.3157,2151.4718 a 4.2134832,4.2134832 0 1 1 -8.4269,0 4.2134832,4.2134832 0 1 1 8.4269,0 z"
     ry="10.714286"
     rx="10.714286"
     cy="1425"
     cx="660.71429"
     id="path2985-57"
     style="fill:#e7f3e7;fill-opacity:0.7;stroke:none"
     type="arc" />
  <path

     d="m 2590.204,2797.9694 a 4.2134832,4.2134832 0 1 1 -8.4269,0 4.2134832,4.2134832 0 1 1 8.4269,0 z"
     ry="10.714286"
     rx="10.714286"
     cy="1425"
     cx="660.71429"
     id="path2985-87"
     style="fill:#e7f3e7;fill-opacity:0.7;stroke:none"
     type="arc" />
  <path

     d="m 1757.8383,1836.3042 a 4.2134832,4.2134832 0 1 1 -8.4269,0 4.2134832,4.2134832 0 1 1 8.4269,0 z"
     ry="10.714286"
     rx="10.714286"
     cy="1425"
     cx="660.71429"
     id="path2985-375"
     style="fill:#e7f3e7;fill-opacity:0.7;stroke:none"
     type="arc" />
  <path

     d="m 747.68575,1585.7864 a 4.2134832,4.2134832 0 1 1 -8.42696,0 4.2134832,4.2134832 0 1 1 8.42696,0 z"
     ry="10.714286"
     rx="10.714286"
     cy="1425"
     cx="660.71429"
     id="path2985-04"
     style="fill:#e7f3e7;fill-opacity:0.7;stroke:none"
     type="arc" />
  <path

     d="m 1175.9904,1407.9995 a 4.2134832,4.2134832 0 1 1 -8.4269,0 4.2134832,4.2134832 0 1 1 8.4269,0 z"
     ry="10.714286"
     rx="10.714286"
     cy="1425"
     cx="660.71429"
     id="path2985-2"
     style="fill:#e7f3e7;fill-opacity:0.7;stroke:none"
     type="arc" />
  <path

     d="m 1272.965,1949.4413 a 4.2134832,4.2134832 0 1 1 -8.4269,0 4.2134832,4.2134832 0 1 1 8.4269,0 z"
     ry="10.714286"
     rx="10.714286"
     cy="1425"
     cx="660.71429"
     id="path2985-64"
     style="fill:#e7f3e7;fill-opacity:0.7;stroke:none"
     type="arc" />
  <path

     d="m 1095.1782,1367.5934 a 4.2134832,4.2134832 0 1 1 -8.4269,0 4.2134832,4.2134832 0 1 1 8.4269,0 z"
     ry="10.714286"
     rx="10.714286"
     cy="1425"
     cx="660.71429"
     id="path2985-12"
     style="fill:#e7f3e7;fill-opacity:0.7;stroke:none"
     type="arc" />
  <path

     d="m 2178.0617,1100.9132 a 4.2134832,4.2134832 0 1 1 -8.4269,0 4.2134832,4.2134832 0 1 1 8.4269,0 z"
     ry="10.714286"
     rx="10.714286"
     cy="1425"
     cx="660.71429"
     id="path2985-370"
     style="fill:#e7f3e7;fill-opacity:0.7;stroke:none"
     type="arc" />
  <path

     d="m 1701.2697,1012.0197 a 4.2134832,4.2134832 0 1 1 -8.4269,0 4.2134832,4.2134832 0 1 1 8.4269,0 z"
     ry="10.714286"
     rx="10.714286"
     cy="1425"
     cx="660.71429"
     id="path2985-86"
     style="fill:#e7f3e7;fill-opacity:0.7;stroke:none"
     type="arc" />
  <path

     d="m 1111.3407,1052.4258 a 4.2134832,4.2134832 0 1 1 -8.427,0 4.2134832,4.2134832 0 1 1 8.427,0 z"
     ry="10.714286"
     rx="10.714286"
     cy="1425"
     cx="660.71429"
     id="path2985-71"
     style="fill:#e7f3e7;fill-opacity:0.7;stroke:none"
     type="arc" />
  <path

     d="m 1474.9955,1650.4362 a 4.2134832,4.2134832 0 1 1 -8.4269,0 4.2134832,4.2134832 0 1 1 8.4269,0 z"
     ry="10.714286"
     rx="10.714286"
     cy="1425"
     cx="660.71429"
     id="path2985-75"
     style="fill:#e7f3e7;fill-opacity:0.7;stroke:none"
     type="arc" />
  <path

     d="m 327.4623,2078.7408 a 4.2134832,4.2134832 0 1 1 -8.42697,0 4.2134832,4.2134832 0 1 1 8.42697,0 z"
     ry="10.714286"
     rx="10.714286"
     cy="1425"
     cx="660.71429"
     id="path2985-14"
     style="fill:#e7f3e7;fill-opacity:0.7;stroke:none"
     type="arc" />
  <path

     d="m 1427.9423,1461.8644 a 4.2134832,4.2134832 0 1 1 -8.4269,0 4.2134832,4.2134832 0 1 1 8.4269,0 z"
     ry="10.714286"
     rx="10.714286"
     cy="1425"
     cx="660.71429"
     id="path2985-79-3"
     style="fill:#e7f3e7;fill-opacity:0.7;stroke:none"
     type="arc" />
  <path

     d="m 1008.4507,1544.4915 a 4.2134832,4.2134832 0 1 1 -8.4269,0 4.2134832,4.2134832 0 1 1 8.4269,0 z"
     ry="10.714286"
     rx="10.714286"
     cy="1425"
     cx="660.71429"
     id="path2985-79-9"
     style="fill:#e7f3e7;fill-opacity:0.7;stroke:none"
     type="arc" />
  <path

     d="m 703.36599,1366.5254 a 4.2134832,4.2134832 0 1 1 -8.4269,0 4.2134832,4.2134832 0 1 1 8.4269,0 z"
     ry="10.714286"
     rx="10.714286"
     cy="1425"
     cx="660.71429"
     id="path2985-79-91"
     style="fill:#e7f3e7;fill-opacity:0.7;stroke:none"
     type="arc" />
  <path

     d="m 512.68803,1169.4915 a 4.2134832,4.2134832 0 1 1 -8.4269,0 4.2134832,4.2134832 0 1 1 8.4269,0 z"
     ry="10.714286"
     rx="10.714286"
     cy="1425"
     cx="660.71429"
     id="path2985-79-33"
     style="fill:#e7f3e7;fill-opacity:0.7;stroke:none"
     type="arc" />
  <path

     d="m 544.46769,902.54237 a 4.2134832,4.2134832 0 1 1 -8.4269,0 4.2134832,4.2134832 0 1 1 8.4269,0 z"
     ry="10.714286"
     rx="10.714286"
     cy="1425"
     cx="660.71429"
     id="path2985-79-5"
     style="fill:#e7f3e7;fill-opacity:0.7;stroke:none"
     type="arc" />
  <path

     d="m 722.43379,635.59322 a 4.2134832,4.2134832 0 1 1 -8.4269,0 4.2134832,4.2134832 0 1 1 8.4269,0 z"
     ry="10.714286"
     rx="10.714286"
     cy="1425"
     cx="660.71429"
     id="path2985-79-0"
     style="fill:#e7f3e7;fill-opacity:0.7;stroke:none"
     type="arc" />
  <path

     d="m 671.58633,1716.1017 a 4.2134832,4.2134832 0 1 1 -8.4269,0 4.2134832,4.2134832 0 1 1 8.4269,0 z"
     ry="10.714286"
     rx="10.714286"
     cy="1425"
     cx="660.71429"
     id="path2985-79-330"
     style="fill:#e7f3e7;fill-opacity:0.7;stroke:none"
     type="arc" />
  <path

     d="m 366.50159,1588.9831 a 4.2134832,4.2134832 0 1 1 -8.4269,0 4.2134832,4.2134832 0 1 1 8.4269,0 z"
     ry="10.714286"
     rx="10.714286"
     cy="1425"
     cx="660.71429"
     id="path2985-79-06"
     style="fill:#e7f3e7;fill-opacity:0.7;stroke:none"
     type="arc" />
  <path

     d="m 442.77277,1951.2712 a 4.2134832,4.2134832 0 1 1 -8.4269,0 4.2134832,4.2134832 0 1 1 8.4269,0 z"
     ry="10.714286"
     rx="10.714286"
     cy="1425"
     cx="660.71429"
     id="path2985-79-4"
     style="fill:#e7f3e7;fill-opacity:0.7;stroke:none"
     type="arc" />
  <path

     d="m 144.04396,591.10169 a 4.2134832,4.2134832 0 1 1 -8.4269,0 4.2134832,4.2134832 0 1 1 8.4269,0 z"
     ry="10.714286"
     rx="10.714286"
     cy="1425"
     cx="660.71429"
     id="path2985-79-2"
     style="fill:#e7f3e7;fill-opacity:0.7;stroke:none"
     type="arc" />
  <path

     d="m 245.73887,165.25424 a 4.2134832,4.2134832 0 1 1 -8.4269,0 4.2134832,4.2134832 0 1 1 8.4269,0 z"
     ry="10.714286"
     rx="10.714286"
     cy="1425"
     cx="660.71429"
     id="path2985-79-41"
     style="fill:#e7f3e7;fill-opacity:0.7;stroke:none"
     type="arc" />
  <path

     d="m 601.67108,311.44068 a 4.2134832,4.2134832 0 1 1 -8.4269,0 4.2134832,4.2134832 0 1 1 8.4269,0 z"
     ry="10.714286"
     rx="10.714286"
     cy="1425"
     cx="660.71429"
     id="path2985-79-7"
     style="fill:#e7f3e7;fill-opacity:0.7;stroke:none"
     type="arc" />
  <path

     d="m 944.89142,394.0678 a 4.2134832,4.2134832 0 1 1 -8.4269,0 4.2134832,4.2134832 0 1 1 8.4269,0 z"
     ry="10.714286"
     rx="10.714286"
     cy="1425"
     cx="660.71429"
     id="path2985-79-45"
     style="fill:#e7f3e7;fill-opacity:0.7;stroke:none"
     type="arc" />
  <path

     d="m 900.39989,101.69491 a 4.2134832,4.2134832 0 1 1 -8.4269,0 4.2134832,4.2134832 0 1 1 8.4269,0 z"
     ry="10.714286"
     rx="10.714286"
     cy="1425"
     cx="660.71429"
     id="path2985-79-59"
     style="fill:#e7f3e7;fill-opacity:0.7;stroke:none"
     type="arc" />
  <path

     d="m 627.09481,76.271185 a 4.2134832,4.2134832 0 1 1 -8.4269,0 4.2134832,4.2134832 0 1 1 8.4269,0 z"
     ry="10.714286"
     rx="10.714286"
     cy="1425"
     cx="660.71429"
     id="path2985-79-8"
     style="fill:#e7f3e7;fill-opacity:0.7;stroke:none"
     type="arc" />
  <path

     d="m 1237.2643,127.11864 a 4.2134832,4.2134832 0 1 1 -8.4269,0 4.2134832,4.2134832 0 1 1 8.4269,0 z"
     ry="10.714286"
     rx="10.714286"
     cy="1425"
     cx="660.71429"
     id="path2985-79-05"
     style="fill:#e7f3e7;fill-opacity:0.7;stroke:none"
     type="arc" />
  <path

     d="m 1434.2982,184.32203 a 4.2134832,4.2134832 0 1 1 -8.4269,0 4.2134832,4.2134832 0 1 1 8.4269,0 z"
     ry="10.714286"
     rx="10.714286"
     cy="1425"
     cx="660.71429"
     id="path2985-79-53"
     style="fill:#e7f3e7;fill-opacity:0.7;stroke:none"
     type="arc" />
  <path

     d="m 1319.8914,146.18644 a 4.2134832,4.2134832 0 1 1 -8.4269,0 4.2134832,4.2134832 0 1 1 8.4269,0 z"
     ry="10.714286"
     rx="10.714286"
     cy="1425"
     cx="660.71429"
     id="path2985-79-55"
     style="fill:#e7f3e7;fill-opacity:0.7;stroke:none"
     type="arc" />
  <path

     d="m 1720.3151,120.76271 a 4.2134832,4.2134832 0 1 1 -8.4269,0 4.2134832,4.2134832 0 1 1 8.4269,0 z"
     ry="10.714286"
     rx="10.714286"
     cy="1425"
     cx="660.71429"
     id="path2985-79-71"
     style="fill:#e7f3e7;fill-opacity:0.7;stroke:none"
     type="arc" />
  <path

     d="m 1866.5016,400.42373 a 4.2134832,4.2134832 0 1 1 -8.4269,0 4.2134832,4.2134832 0 1 1 8.4269,0 z"
     ry="10.714286"
     rx="10.714286"
     cy="1425"
     cx="660.71429"
     id="path2985-79-86"
     style="fill:#e7f3e7;fill-opacity:0.7;stroke:none"
     type="arc" />
  <path

     d="m 2711.8406,120.76271 a 4.2134832,4.2134832 0 1 1 -8.4269,0 4.2134832,4.2134832 0 1 1 8.4269,0 z"
     ry="10.714286"
     rx="10.714286"
     cy="1425"
     cx="660.71429"
     id="path2985-79-1"
     style="fill:#e7f3e7;fill-opacity:0.7;stroke:none"
     type="arc" />
  <path

     d="m 2222.4338,610.16949 a 4.2134832,4.2134832 0 1 1 -8.4269,0 4.2134832,4.2134832 0 1 1 8.4269,0 z"
     ry="10.714286"
     rx="10.714286"
     cy="1425"
     cx="660.71429"
     id="path2985-79-99"
     style="fill:#e7f3e7;fill-opacity:0.7;stroke:none"
     type="arc" />
  <path

     d="m 2203.366,330.50847 a 4.2134832,4.2134832 0 1 1 -8.4269,0 4.2134832,4.2134832 0 1 1 8.4269,0 z"
     ry="10.714286"
     rx="10.714286"
     cy="1425"
     cx="660.71429"
     id="path2985-79-6"
     style="fill:#e7f3e7;fill-opacity:0.7;stroke:none"
     type="arc" />
  <path

     d="m 2762.688,584.74576 a 4.2134832,4.2134832 0 1 1 -8.4269,0 4.2134832,4.2134832 0 1 1 8.4269,0 z"
     ry="10.714286"
     rx="10.714286"
     cy="1425"
     cx="660.71429"
     id="path2985-79-61"
     style="fill:#e7f3e7;fill-opacity:0.7;stroke:none"
     type="arc" />
  <path

     d="m 2171.5863,1156.7797 a 4.2134832,4.2134832 0 1 1 -8.4269,0 4.2134832,4.2134832 0 1 1 8.4269,0 z"
     ry="10.714286"
     rx="10.714286"
     cy="1425"
     cx="660.71429"
     id="path2985-79-01"
     style="fill:#e7f3e7;fill-opacity:0.7;stroke:none"
     type="arc" />
  <path

     d="m 1307.1796,1525.4237 a 4.2134832,4.2134832 0 1 1 -8.4269,0 4.2134832,4.2134832 0 1 1 8.4269,0 z"
     ry="10.714286"
     rx="10.714286"
     cy="1425"
     cx="660.71429"
     id="path2985-79-12"
     style="fill:#e7f3e7;fill-opacity:0.7;stroke:none"
     type="arc" />
  <path

     d="m 951.24735,1703.3898 a 4.2134832,4.2134832 0 1 1 -8.4269,0 4.2134832,4.2134832 0 1 1 8.4269,0 z"
     ry="10.714286"
     rx="10.714286"
     cy="1425"
     cx="660.71429"
     id="path2985-79-08"
     style="fill:#e7f3e7;fill-opacity:0.7;stroke:none"
     type="arc" />
  <path

     d="m 646.1626,1379.2373 a 4.2134832,4.2134832 0 1 1 -8.4269,0 4.2134832,4.2134832 0 1 1 8.4269,0 z"
     ry="10.714286"
     rx="10.714286"
     cy="1425"
     cx="660.71429"
     id="path2985-79-74"
     style="fill:#e7f3e7;fill-opacity:0.7;stroke:none"
     type="arc" />
  <path

     d="m 430.06091,1588.9831 a 4.2134832,4.2134832 0 1 1 -8.4269,0 4.2134832,4.2134832 0 1 1 8.4269,0 z"
     ry="10.714286"
     rx="10.714286"
     cy="1425"
     cx="660.71429"
     id="path2985-79-94"
     style="fill:#e7f3e7;fill-opacity:0.7;stroke:none"
     type="arc" />
  <path

     d="m 474.55243,1906.7797 a 4.2134832,4.2134832 0 1 1 -8.4269,0 4.2134832,4.2134832 0 1 1 8.4269,0 z"
     ry="10.714286"
     rx="10.714286"
     cy="1425"
     cx="660.71429"
     id="path2985-79-84"
     style="fill:#e7f3e7;fill-opacity:0.7;stroke:none"
     type="arc" />
  <path

     d="m 976.67108,2269.0678 a 4.2134832,4.2134832 0 1 1 -8.4269,0 4.2134832,4.2134832 0 1 1 8.4269,0 z"
     ry="10.714286"
     rx="10.714286"
     cy="1425"
     cx="660.71429"
     id="path2985-79-17"
     style="fill:#e7f3e7;fill-opacity:0.7;stroke:none"
     type="arc" />
  <path

     d="m 1752.0948,2555.0847 a 4.2134832,4.2134832 0 1 1 -8.4269,0 4.2134832,4.2134832 0 1 1 8.4269,0 z"
     ry="10.714286"
     rx="10.714286"
     cy="1425"
     cx="660.71429"
     id="path2985-79-44"
     style="fill:#e7f3e7;fill-opacity:0.7;stroke:none"
     type="arc" />
  <path

     d="m 309.2982,1792.3729 a 4.2134832,4.2134832 0 1 1 -8.4269,0 4.2134832,4.2134832 0 1 1 8.4269,0 z"
     ry="10.714286"
     rx="10.714286"
     cy="1425"
     cx="660.71429"
     id="path2985-79-49"
     style="fill:#e7f3e7;fill-opacity:0.7;stroke:none"
     type="arc" />
  <path

     d="m 315.65413,2250 a 4.2134832,4.2134832 0 1 0 -8.4269,0 4.2134832,4.2134832 0 1 0 8.4269,0 z"
     ry="10.714286"
     rx="10.714286"
     cy="1425"
     cx="660.71429"
     id="path2985-79-79"
     style="fill:#e7f3e7;fill-opacity:0.7;stroke:none"
     type="arc" />
  <path

     d="m 328.36599,2644.0678 a 4.2134832,4.2134832 0 1 1 -8.4269,0 4.2134832,4.2134832 0 1 1 8.4269,0 z"
     ry="10.714286"
     rx="10.714286"
     cy="1425"
     cx="660.71429"
     id="path2985-79-46"
     style="fill:#e7f3e7;fill-opacity:0.7;stroke:none"
     type="arc" />
  <path

     d="m 283.87447,2720.339 a 4.2134832,4.2134832 0 1 1 -8.4269,0 4.2134832,4.2134832 0 1 1 8.4269,0 z"
     ry="10.714286"
     rx="10.714286"
     cy="1425"
     cx="660.71429"
     id="path2985-79-32"
     style="fill:#e7f3e7;fill-opacity:0.7;stroke:none"
     type="arc" />
  <path

     d="m 271.1626,1493.6441 a 4.2134832,4.2134832 0 1 1 -8.4269,0 4.2134832,4.2134832 0 1 1 8.4269,0 z"
     ry="10.714286"
     rx="10.714286"
     cy="1425"
     cx="660.71429"
     id="path2985-79-26"
     style="fill:#e7f3e7;fill-opacity:0.7;stroke:none"
     type="arc" />
  <path

     d="m 213.95921,1105.9322 a 4.2134832,4.2134832 0 1 1 -8.4269,0 4.2134832,4.2134832 0 1 1 8.4269,0 z"
     ry="10.714286"
     rx="10.714286"
     cy="1425"
     cx="660.71429"
     id="path2985-79-34"
     style="fill:#e7f3e7;fill-opacity:0.7;stroke:none"
     type="arc" />
  <path

     d="m 468.1965,1290.2542 a 4.2134832,4.2134832 0 1 1 -8.4269,0 4.2134832,4.2134832 0 1 1 8.4269,0 z"
     ry="10.714286"
     rx="10.714286"
     cy="1425"
     cx="660.71429"
     id="path2985-79-20"
     style="fill:#e7f3e7;fill-opacity:0.7;stroke:none"
     type="arc" />
  <path

     d="m 1078.366,1220.339 a 4.2134832,4.2134832 0 1 1 -8.4269,0 4.2134832,4.2134832 0 1 1 8.4269,0 z"
     ry="10.714286"
     rx="10.714286"
     cy="1425"
     cx="660.71429"
     id="path2985-79-54"
     style="fill:#e7f3e7;fill-opacity:0.7;stroke:none"
     type="arc" />
  <path

     d="m 455.48464,1156.7797 a 4.2134832,4.2134832 0 1 1 -8.4269,0 4.2134832,4.2134832 0 1 1 8.4269,0 z"
     ry="10.714286"
     rx="10.714286"
     cy="1425"
     cx="660.71429"
     id="path2985-79-39"
     style="fill:#e7f3e7;fill-opacity:0.7;stroke:none"
     type="arc" />
  <path

     d="m 601.67108,1150.4237 a 4.2134832,4.2134832 0 1 1 -8.4269,0 4.2134832,4.2134832 0 1 1 8.4269,0 z"
     ry="10.714286"
     rx="10.714286"
     cy="1425"
     cx="660.71429"
     id="path2985-79-93"
     style="fill:#e7f3e7;fill-opacity:0.7;stroke:none"
     type="arc" />
  <path

     d="m 951.24735,1220.339 a 4.2134832,4.2134832 0 1 1 -8.4269,0 4.2134832,4.2134832 0 1 1 8.4269,0 z"
     ry="10.714286"
     rx="10.714286"
     cy="1425"
     cx="660.71429"
     id="path2985-79-76"
     style="fill:#e7f3e7;fill-opacity:0.7;stroke:none"
     type="arc" />
  <path

     d="m 2038.1118,1315.678 a 4.2134832,4.2134832 0 1 1 -8.4269,0 4.2134832,4.2134832 0 1 1 8.4269,0 z"
     ry="10.714286"
     rx="10.714286"
     cy="1425"
     cx="660.71429"
     id="path2985-79-78"
     style="fill:#e7f3e7;fill-opacity:0.7;stroke:none"
     type="arc" />
  <path

     d="m 2483.027,1004.2373 a 4.2134832,4.2134832 0 1 1 -8.4269,0 4.2134832,4.2134832 0 1 1 8.4269,0 z"
     ry="10.714286"
     rx="10.714286"
     cy="1425"
     cx="660.71429"
     id="path2985-79-27"
     style="fill:#e7f3e7;fill-opacity:0.7;stroke:none"
     type="arc" />
  <path

     d="m 2451.2473,927.9661 a 4.2134832,4.2134832 0 1 1 -8.4269,0 4.2134832,4.2134832 0 1 1 8.4269,0 z"
     ry="10.714286"
     rx="10.714286"
     cy="1425"
     cx="660.71429"
     id="path2985-79-43"
     style="fill:#e7f3e7;fill-opacity:0.7;stroke:none"
     type="arc" />
  <path

     d="m 1580.4846,781.77966 a 4.2134832,4.2134832 0 1 1 -8.4269,0 4.2134832,4.2134832 0 1 1 8.4269,0 z"
     ry="10.714286"
     rx="10.714286"
     cy="1425"
     cx="660.71429"
     id="path2985-79-48"
     style="fill:#e7f3e7;fill-opacity:0.7;stroke:none"
     type="arc" />
  <path

     d="m 1427.9423,877.11864 a 4.2134832,4.2134832 0 1 1 -8.4269,0 4.2134832,4.2134832 0 1 1 8.4269,0 z"
     ry="10.714286"
     rx="10.714286"
     cy="1425"
     cx="660.71429"
     id="path2985-79-90"
     style="fill:#e7f3e7;fill-opacity:0.7;stroke:none"
     type="arc" />
  <path

     d="m 1663.1118,1118.6441 a 4.2134832,4.2134832 0 1 1 -8.4269,0 4.2134832,4.2134832 0 1 1 8.4269,0 z"
     ry="10.714286"
     rx="10.714286"
     cy="1425"
     cx="660.71429"
     id="path2985-79-792"
     style="fill:#e7f3e7;fill-opacity:0.7;stroke:none"
     type="arc" />
  <path

     d="m 2171.5863,1302.9661 a 4.2134832,4.2134832 0 1 1 -8.4269,0 4.2134832,4.2134832 0 1 1 8.4269,0 z"
     ry="10.714286"
     rx="10.714286"
     cy="1425"
     cx="660.71429"
     id="path2985-79-15"
     style="fill:#e7f3e7;fill-opacity:0.7;stroke:none"
     type="arc" />
  <path

     d="m 2756.3321,1665.2542 a 4.2134832,4.2134832 0 1 1 -8.4269,0 4.2134832,4.2134832 0 1 1 8.4269,0 z"
     ry="10.714286"
     rx="10.714286"
     cy="1425"
     cx="660.71429"
     id="path2985-79-550"
     style="fill:#e7f3e7;fill-opacity:0.7;stroke:none"
     type="arc" />
  <path

     d="m 2120.7389,1957.6271 a 4.2134832,4.2134832 0 1 1 -8.4269,0 4.2134832,4.2134832 0 1 1 8.4269,0 z"
     ry="10.714286"
     rx="10.714286"
     cy="1425"
     cx="660.71429"
     id="path2985-79-18"
     style="fill:#e7f3e7;fill-opacity:0.7;stroke:none"
     type="arc" />
  <path

     d="m 951.24735,1938.5593 a 4.2134832,4.2134832 0 1 1 -8.4269,0 4.2134832,4.2134832 0 1 1 8.4269,0 z"
     ry="10.714286"
     rx="10.714286"
     cy="1425"
     cx="660.71429"
     id="path2985-79-450"
     style="fill:#e7f3e7;fill-opacity:0.7;stroke:none"
     type="arc" />
  <path

     d="m 677.94226,1709.7458 a 4.2134832,4.2134832 0 1 1 -8.4269,0 4.2134832,4.2134832 0 1 1 8.4269,0 z"
     ry="10.714286"
     rx="10.714286"
     cy="1425"
     cx="660.71429"
     id="path2985-79-124"
     style="fill:#e7f3e7;fill-opacity:0.7;stroke:none"
     type="arc" />
  <path

     d="m 779.63718,1245.7627 a 4.2134832,4.2134832 0 1 1 -8.4269,0 4.2134832,4.2134832 0 1 1 8.4269,0 z"
     ry="10.714286"
     rx="10.714286"
     cy="1425"
     cx="660.71429"
     id="path2985-79-21"
     style="fill:#e7f3e7;fill-opacity:0.7;stroke:none"
     type="arc" />
  <path

     d="m 1084.7219,991.52542 a 4.2134832,4.2134832 0 1 1 -8.4269,0 4.2134832,4.2134832 0 1 1 8.4269,0 z"
     ry="10.714286"
     rx="10.714286"
     cy="1425"
     cx="660.71429"
     id="path2985-79-999"
     style="fill:#e7f3e7;fill-opacity:0.7;stroke:none"
     type="arc" />
</svg>
