<?xml version="1.0" encoding="UTF-8" standalone="no"?>
<svg
   xmlns:dc="http://purl.org/dc/elements/1.1/"
   xmlns:cc="http://creativecommons.org/ns#"
   xmlns:rdf="http://www.w3.org/1999/02/22-rdf-syntax-ns#"
   xmlns:svg="http://www.w3.org/2000/svg"
   xmlns="http://www.w3.org/2000/svg"
   xmlns:sodipodi="http://sodipodi.sourceforge.net/DTD/sodipodi-0.dtd"
   xmlns:inkscape="http://www.inkscape.org/namespaces/inkscape"
   width="3000"
   height="3000"
   version="1.1"
   id="svg2"
   inkscape:version="0.48.5 r10040"
   sodipodi:docname="fondEtoiles3.svg">
  <metadata
     id="metadata88">
    <rdf:RDF>
      <cc:Work
         rdf:about="">
        <dc:format>image/svg+xml</dc:format>
        <dc:type
           rdf:resource="http://purl.org/dc/dcmitype/StillImage" />
      </cc:Work>
    </rdf:RDF>
  </metadata>
  <defs
     id="defs86" />
  <sodipodi:namedview
     pagecolor="#ffffff"
     bordercolor="#666666"
     borderopacity="1"
     objecttolerance="10"
     gridtolerance="10"
     guidetolerance="10"
     inkscape:pageopacity="0"
     inkscape:pageshadow="2"
     inkscape:window-width="1600"
     inkscape:window-height="834"
     id="namedview84"
     showgrid="false"
     inkscape:zoom="0.44500587"
     inkscape:cx="1540.804"
     inkscape:cy="2116.6562"
     inkscape:window-x="0"
     inkscape:window-y="27"
     inkscape:window-maximized="1"
     inkscape:current-layer="svg2" />
  <path
     d="m 639.50559,847.16371 a 3.9337756,3.9337756 0 1 1 -7.86754,0 3.9337756,3.9337756 0 1 1 7.86754,0 z"
     ry="10.714286"
     rx="10.714286"
     cy="1425"
     cx="660.71429"
     id="path2985"
     style="fill:#e7f3e7;fill-opacity:0.7;stroke:none"
     type="arc"
     connector-curvature="0"
     inkscape:connector-curvature="0" />
  <path
     d="m 1305.5388,1213.4226 a 5.1348884,5.1348884 0 1 1 -10.2697,0 5.1348884,5.1348884 0 1 1 10.2697,0 z"
     ry="10.714286"
     rx="10.714286"
     cy="1425"
     cx="660.71429"
     id="path2985-6"
     style="fill:#e7f3e7;fill-opacity:0.7;stroke:none"
     type="arc"
     connector-curvature="0"
     inkscape:connector-curvature="0" />
  <path
     d="m 1438.9423,1923.8356 a 3.9337756,3.9337756 0 1 1 -7.8675,0 3.9337756,3.9337756 0 1 1 7.8675,0 z"
     ry="10.714286"
     rx="10.714286"
     cy="1425"
     cx="660.71429"
     id="path2985-0"
     style="fill:#e7f3e7;fill-opacity:0.7;stroke:none"
     type="arc"
     inkscape:connector-curvature="0" />
  <path
     d="m 2135.462,1583.1157 a 5.1348884,5.1348884 0 1 1 -10.2696,0 5.1348884,5.1348884 0 1 1 10.2696,0 z"
     ry="10.714286"
     rx="10.714286"
     cy="1425"
     cx="660.71429"
     id="path2985-9"
     style="fill:#e7f3e7;fill-opacity:0.7;stroke:none"
     type="arc"
     connector-curvature="0"
     inkscape:connector-curvature="0" />
  <path
     d="m 2231.1417,784.57729 a 3.9337756,3.9337756 0 1 1 -7.8675,0 3.9337756,3.9337756 0 1 1 7.8675,0 z"
     ry="10.714286"
     rx="10.714286"
     cy="1425"
     cx="660.71429"
     id="path2985-5"
     style="fill:#e7f3e7;fill-opacity:0.7;stroke:none"
     type="arc"
     inkscape:connector-curvature="0" />
  <path
     d="m 1831.2696,580.8689 a 3.9337756,3.9337756 0 1 1 -7.8675,0 3.9337756,3.9337756 0 1 1 7.8675,0 z"
     ry="10.714286"
     rx="10.714286"
     cy="1425"
     cx="660.71429"
     id="path2985-8"
     style="fill:#e7f3e7;fill-opacity:0.7;stroke:none"
     type="arc"
     inkscape:connector-curvature="0" />
  <path
     d="m 2200.9627,2119.9993 a 3.9337756,3.9337756 0 1 1 -7.8675,0 3.9337756,3.9337756 0 1 1 7.8675,0 z"
     ry="10.714286"
     rx="10.714286"
     cy="1425"
     cx="660.71429"
     id="path2985-3"
     style="fill:#e7f3e7;fill-opacity:0.7;stroke:none"
     type="arc"
     inkscape:connector-curvature="0" />
  <path
     d="m 1663.9269,2430.0161 a 3.2547357,3.2547357 0 1 1 -6.5094,0 3.2547357,3.2547357 0 1 1 6.5094,0 z"
     ry="10.714286"
     rx="10.714286"
     cy="1425"
     cx="660.71429"
     id="path2985-63"
     style="fill:#e7f3e7;fill-opacity:0.7;stroke:none"
     type="arc"
     connector-curvature="0"
     inkscape:connector-curvature="0" />
  <path
     d="m 512.40574,2398.4201 a 4.6680803,4.6680803 0 1 1 -9.33615,0 4.6680803,4.6680803 0 1 1 9.33615,0 z"
     ry="10.714286"
     rx="10.714286"
     cy="1425"
     cx="660.71429"
     id="path2985-7"
     style="fill:#e7f3e7;fill-opacity:0.7;stroke:none"
     type="arc"
     connector-curvature="0"
     inkscape:connector-curvature="0" />
  <path
     d="m 314.77345,1101.4571 a 3.9337756,3.9337756 0 1 1 -7.86755,0 3.9337756,3.9337756 0 1 1 7.86755,0 z"
     ry="10.714286"
     rx="10.714286"
     cy="1425"
     cx="660.71429"
     id="path2985-1"
     style="fill:#e7f3e7;fill-opacity:0.7;stroke:none"
     type="arc"
     inkscape:connector-curvature="0" />
  <path
     d="m 503.39238,505.42133 a 3.9337756,3.9337756 0 1 1 -7.86755,0 3.9337756,3.9337756 0 1 1 7.86755,0 z"
     ry="10.714286"
     rx="10.714286"
     cy="1425"
     cx="660.71429"
     id="path2985-60"
     style="fill:#e7f3e7;fill-opacity:0.7;stroke:none"
     type="arc"
     inkscape:connector-curvature="0" />
  <path
     d="m 2271.2271,511.78057 a 5.1145847,5.1145847 0 1 1 -10.2291,0 5.1145847,5.1145847 0 1 1 10.2291,0 z"
     ry="10.714286"
     rx="10.714286"
     cy="1425"
     cx="660.71429"
     id="path2985-4"
     style="fill:#e7f3e7;fill-opacity:0.7;stroke:none"
     type="arc"
     connector-curvature="0"
     inkscape:connector-curvature="0" />
  <path
     d="m 2570.6558,1440.9712 a 3.9337756,3.9337756 0 1 1 -7.8675,0 3.9337756,3.9337756 0 1 1 7.8675,0 z"
     ry="10.714286"
     rx="10.714286"
     cy="1425"
     cx="660.71429"
     id="path2985-74"
     style="fill:#e7f3e7;fill-opacity:0.7;stroke:none"
     type="arc"
     inkscape:connector-curvature="0" />
  <path
     d="m 2759.2747,1109.0019 a 3.9337756,3.9337756 0 1 1 -7.8675,0 3.9337756,3.9337756 0 1 1 7.8675,0 z"
     ry="10.714286"
     rx="10.714286"
     cy="1425"
     cx="660.71429"
     id="path2985-79"
     style="fill:#e7f3e7;fill-opacity:0.7;stroke:none"
     type="arc"
     inkscape:connector-curvature="0" />
  <path
     d="m 2746.5468,692.85475 a 5.1145847,5.1145847 0 1 1 -10.2291,0 5.1145847,5.1145847 0 1 1 10.2291,0 z"
     ry="10.714286"
     rx="10.714286"
     cy="1425"
     cx="660.71429"
     id="path2985-37"
     style="fill:#e7f3e7;fill-opacity:0.7;stroke:none"
     type="arc"
     connector-curvature="0"
     inkscape:connector-curvature="0" />
  <path
     d="m 2744.1852,2150.1783 a 3.9337756,3.9337756 0 1 1 -7.8675,0 3.9337756,3.9337756 0 1 1 7.8675,0 z"
     ry="10.714286"
     rx="10.714286"
     cy="1425"
     cx="660.71429"
     id="path2985-57"
     style="fill:#e7f3e7;fill-opacity:0.7;stroke:none"
     type="arc"
     inkscape:connector-curvature="0" />
  <path
     d="m 2549.4901,2753.0217 a 4.6680803,4.6680803 0 1 1 -9.336,0 4.6680803,4.6680803 0 1 1 9.336,0 z"
     ry="10.714286"
     rx="10.714286"
     cy="1425"
     cx="660.71429"
     id="path2985-87"
     style="fill:#e7f3e7;fill-opacity:0.7;stroke:none"
     type="arc"
     connector-curvature="0"
     inkscape:connector-curvature="0" />
  <path
     d="m 1774.2031,1854.2805 a 5.579547,5.579547 0 1 1 -11.159,0 5.579547,5.579547 0 1 1 11.159,0 z"
     ry="10.714286"
     rx="10.714286"
     cy="1425"
     cx="660.71429"
     id="path2985-375"
     style="fill:#e7f3e7;fill-opacity:0.7;stroke:none"
     type="arc"
     connector-curvature="0"
     inkscape:connector-curvature="0" />
  <path
     d="m 827.81693,1622.0454 a 3.9337756,3.9337756 0 1 1 -7.86754,0 3.9337756,3.9337756 0 1 1 7.86754,0 z"
     ry="10.714286"
     rx="10.714286"
     cy="1425"
     cx="660.71429"
     id="path2985-04"
     style="fill:#e7f3e7;fill-opacity:0.7;stroke:none"
     type="arc"
     inkscape:connector-curvature="0" />
  <path
     d="m 1227.689,1456.0607 a 3.9337756,3.9337756 0 1 1 -7.8675,0 3.9337756,3.9337756 0 1 1 7.8675,0 z"
     ry="10.714286"
     rx="10.714286"
     cy="1425"
     cx="660.71429"
     id="path2985-2"
     style="fill:#e7f3e7;fill-opacity:0.7;stroke:none"
     type="arc"
     inkscape:connector-curvature="0" />
  <path
     d="m 1321.5619,1959.8849 a 5.6016964,5.6016964 0 1 1 -11.2033,0 5.6016964,5.6016964 0 1 1 11.2033,0 z"
     ry="10.714286"
     rx="10.714286"
     cy="1425"
     cx="660.71429"
     id="path2985-64"
     style="fill:#e7f3e7;fill-opacity:0.7;stroke:none"
     type="arc"
     connector-curvature="0"
     inkscape:connector-curvature="0" />
  <path
     d="m 1152.2415,1418.3369 a 3.9337756,3.9337756 0 1 1 -7.8675,0 3.9337756,3.9337756 0 1 1 7.8675,0 z"
     ry="10.714286"
     rx="10.714286"
     cy="1425"
     cx="660.71429"
     id="path2985-12"
     style="fill:#e7f3e7;fill-opacity:0.7;stroke:none"
     type="arc"
     inkscape:connector-curvature="0" />
  <path
     d="m 2166.5304,1167.7076 a 5.579547,5.579547 0 1 1 -11.159,0 5.579547,5.579547 0 1 1 11.159,0 z"
     ry="10.714286"
     rx="10.714286"
     cy="1425"
     cx="660.71429"
     id="path2985-370"
     style="fill:#e7f3e7;fill-opacity:0.7;stroke:none"
     type="arc"
     connector-curvature="0"
     inkscape:connector-curvature="0" />
  <path
     d="m 1718.0982,1086.3676 a 3.9337756,3.9337756 0 1 1 -7.8675,0 3.9337756,3.9337756 0 1 1 7.8675,0 z"
     ry="10.714286"
     rx="10.714286"
     cy="1425"
     cx="660.71429"
     id="path2985-86"
     style="fill:#e7f3e7;fill-opacity:0.7;stroke:none"
     type="arc"
     inkscape:connector-curvature="0" />
  <path
     d="m 1167.331,1124.0913 a 3.9338,3.9338 0 0 1 -7.8676,0 3.9338,3.9338 0 1 1 7.8676,0 z"
     ry="10.714286"
     rx="10.714286"
     cy="1425"
     cx="660.71429"
     id="path2985-71"
     style="fill:#e7f3e7;fill-opacity:0.7;stroke:none"
     type="arc"
     inkscape:connector-curvature="0" />
  <path
     d="m 1508.3136,1681.6663 a 4.6680803,4.6680803 0 1 1 -9.3361,0 4.6680803,4.6680803 0 1 1 9.3361,0 z"
     ry="10.714286"
     rx="10.714286"
     cy="1425"
     cx="660.71429"
     id="path2985-75"
     style="fill:#e7f3e7;fill-opacity:0.7;stroke:none"
     type="arc"
     connector-curvature="0"
     inkscape:connector-curvature="0" />
  <path
     d="m 435.48957,2082.2755 a 3.93378,3.93378 0 0 1 -7.86756,0 3.93378,3.93378 0 1 1 7.86756,0 z"
     ry="10.714286"
     rx="10.714286"
     cy="1425"
     cx="660.71429"
     id="path2985-14"
     style="fill:#e7f3e7;fill-opacity:0.7;stroke:none"
     type="arc"
     inkscape:connector-curvature="0" />
  <path
     d="m 1462.9154,1506.3498 a 3.9337756,3.9337756 0 1 1 -7.8675,0 3.9337756,3.9337756 0 1 1 7.8675,0 z"
     ry="10.714286"
     rx="10.714286"
     cy="1425"
     cx="660.71429"
     id="path2985-79-3"
     style="fill:#e7f3e7;fill-opacity:0.7;stroke:none"
     type="arc"
     inkscape:connector-curvature="0" />
  <path
     d="m 1072.7399,1582.7546 a 4.6680803,4.6680803 0 1 1 -9.3361,0 4.6680803,4.6680803 0 1 1 9.3361,0 z"
     ry="10.714286"
     rx="10.714286"
     cy="1425"
     cx="660.71429"
     id="path2985-79-9"
     style="fill:#e7f3e7;fill-opacity:0.7;stroke:none"
     type="arc"
     connector-curvature="0"
     inkscape:connector-curvature="0" />
  <path
     d="m 685.93012,783.69416 a 5.6016964,5.6016964 0 1 1 -11.20331,0 5.6016964,5.6016964 0 1 1 11.20331,0 z"
     ry="10.714286"
     rx="10.714286"
     cy="1425"
     cx="660.71429"
     id="path2985-79-91"
     style="fill:#e7f3e7;fill-opacity:0.7;stroke:none"
     type="arc"
     connector-curvature="0"
     inkscape:connector-curvature="0" />
  <path
     d="m 638.08929,984.15777 a 3.9337756,3.9337756 0 1 1 -7.86749,0 3.9337756,3.9337756 0 1 1 7.86749,0 z"
     ry="10.714286"
     rx="10.714286"
     cy="1425"
     cx="660.71429"
     id="path2985-79-5"
     style="fill:#e7f3e7;fill-opacity:0.7;stroke:none"
     type="arc"
     inkscape:connector-curvature="0" />
  <path
     d="m 801.97545,736.06713 a 2.8008482,2.8008482 0 1 1 -5.60165,0 2.8008482,2.8008482 0 1 1 5.60165,0 z"
     ry="10.714286"
     rx="10.714286"
     cy="1425"
     cx="660.71429"
     id="path2985-79-0"
     style="fill:#e7f3e7;fill-opacity:0.7;stroke:none"
     type="arc"
     connector-curvature="0"
     inkscape:connector-curvature="0" />
  <path
     d="m 470.60504,1625.6986 a 3.2676562,3.2676562 0 1 1 -6.53526,0 3.2676562,3.2676562 0 1 1 6.53526,0 z"
     ry="10.714286"
     rx="10.714286"
     cy="1425"
     cx="660.71429"
     id="path2985-79-06"
     style="fill:#e7f3e7;fill-opacity:0.7;stroke:none"
     type="arc"
     connector-curvature="0"
     inkscape:connector-curvature="0" />
  <path
     d="m 543.14527,1963.2678 a 3.9337756,3.9337756 0 1 1 -7.86749,0 3.9337756,3.9337756 0 1 1 7.86749,0 z"
     ry="10.714286"
     rx="10.714286"
     cy="1425"
     cx="660.71429"
     id="path2985-79-4"
     style="fill:#e7f3e7;fill-opacity:0.7;stroke:none"
     type="arc"
     inkscape:connector-curvature="0" />
  <path
     d="m 264.24726,693.3917 a 3.9337756,3.9337756 0 1 1 -7.86749,0 3.9337756,3.9337756 0 1 1 7.86749,0 z"
     ry="10.714286"
     rx="10.714286"
     cy="1425"
     cx="660.71429"
     id="path2985-79-2"
     style="fill:#e7f3e7;fill-opacity:0.7;stroke:none"
     type="arc"
     inkscape:connector-curvature="0" />
  <path
     d="m 359.19126,295.81368 a 3.9337756,3.9337756 0 1 1 -7.86749,0 3.9337756,3.9337756 0 1 1 7.86749,0 z"
     ry="10.714286"
     rx="10.714286"
     cy="1425"
     cx="660.71429"
     id="path2985-79-41"
     style="fill:#e7f3e7;fill-opacity:0.7;stroke:none"
     type="arc"
     inkscape:connector-curvature="0" />
  <path
     d="m 694.83112,430.62115 a 5.6016964,5.6016964 0 1 1 -11.20331,0 5.6016964,5.6016964 0 1 1 11.20331,0 z"
     ry="10.714286"
     rx="10.714286"
     cy="1425"
     cx="660.71429"
     id="path2985-79-7"
     style="fill:#e7f3e7;fill-opacity:0.7;stroke:none"
     type="arc"
     connector-curvature="0"
     inkscape:connector-curvature="0" />
  <path
     d="m 1011.9313,509.4377 a 3.9337756,3.9337756 0 1 1 -7.8675,0 3.9337756,3.9337756 0 1 1 7.8675,0 z"
     ry="10.714286"
     rx="10.714286"
     cy="1425"
     cx="660.71429"
     id="path2985-79-45"
     style="fill:#e7f3e7;fill-opacity:0.7;stroke:none"
     type="arc"
     inkscape:connector-curvature="0" />
  <path
     d="m 970.39331,236.47367 a 3.9337756,3.9337756 0 1 1 -7.86749,0 3.9337756,3.9337756 0 1 1 7.86749,0 z"
     ry="10.714286"
     rx="10.714286"
     cy="1425"
     cx="660.71429"
     id="path2985-79-59"
     style="fill:#e7f3e7;fill-opacity:0.7;stroke:none"
     type="arc"
     inkscape:connector-curvature="0" />
  <path
     d="m 715.23129,212.73767 a 3.9337756,3.9337756 0 1 1 -7.86749,0 3.9337756,3.9337756 0 1 1 7.86749,0 z"
     ry="10.714286"
     rx="10.714286"
     cy="1425"
     cx="660.71429"
     id="path2985-79-8"
     style="fill:#e7f3e7;fill-opacity:0.7;stroke:none"
     type="arc"
     inkscape:connector-curvature="0" />
  <path
     d="m 1284.8953,260.20967 a 3.9337756,3.9337756 0 1 1 -7.8675,0 3.9337756,3.9337756 0 1 1 7.8675,0 z"
     ry="10.714286"
     rx="10.714286"
     cy="1425"
     cx="660.71429"
     id="path2985-79-05"
     style="fill:#e7f3e7;fill-opacity:0.7;stroke:none"
     type="arc"
     inkscape:connector-curvature="0" />
  <path
     d="m 1472.1409,311.96337 a 5.57955,5.57955 0 0 1 -11.1591,0 5.57955,5.57955 0 1 1 11.1591,0 z"
     ry="10.714286"
     rx="10.714286"
     cy="1425"
     cx="660.71429"
     id="path2985-79-53"
     style="fill:#e7f3e7;fill-opacity:0.7;stroke:none"
     type="arc"
     connector-curvature="0"
     inkscape:connector-curvature="0" />
  <path
     d="m 1362.0373,278.01168 a 3.9337756,3.9337756 0 1 1 -7.8675,0 3.9337756,3.9337756 0 1 1 7.8675,0 z"
     ry="10.714286"
     rx="10.714286"
     cy="1425"
     cx="660.71429"
     id="path2985-79-55"
     style="fill:#e7f3e7;fill-opacity:0.7;stroke:none"
     type="arc"
     inkscape:connector-curvature="0" />
  <path
     d="m 1735.8793,254.27567 a 3.9337756,3.9337756 0 1 1 -7.8675,0 3.9337756,3.9337756 0 1 1 7.8675,0 z"
     ry="10.714286"
     rx="10.714286"
     cy="1425"
     cx="660.71429"
     id="path2985-79-71"
     style="fill:#e7f3e7;fill-opacity:0.7;stroke:none"
     type="arc"
     inkscape:connector-curvature="0" />
  <path
     d="m 1872.3614,515.3717 a 3.9337756,3.9337756 0 1 1 -7.8675,0 3.9337756,3.9337756 0 1 1 7.8675,0 z"
     ry="10.714286"
     rx="10.714286"
     cy="1425"
     cx="660.71429"
     id="path2985-79-86"
     style="fill:#e7f3e7;fill-opacity:0.7;stroke:none"
     type="arc"
     inkscape:connector-curvature="0" />
  <path
     d="m 2661.5835,254.27567 a 3.9337756,3.9337756 0 1 1 -7.8675,0 3.9337756,3.9337756 0 1 1 7.8675,0 z"
     ry="10.714286"
     rx="10.714286"
     cy="1425"
     cx="660.71429"
     id="path2985-79-1"
     style="fill:#e7f3e7;fill-opacity:0.7;stroke:none"
     type="arc"
     inkscape:connector-curvature="0" />
  <path
     d="m 2204.6654,711.19371 a 3.9337756,3.9337756 0 1 1 -7.8675,0 3.9337756,3.9337756 0 1 1 7.8675,0 z"
     ry="10.714286"
     rx="10.714286"
     cy="1425"
     cx="660.71429"
     id="path2985-79-99"
     style="fill:#e7f3e7;fill-opacity:0.7;stroke:none"
     type="arc"
     inkscape:connector-curvature="0" />
  <path
     d="m 2186.8634,450.09769 a 3.9337756,3.9337756 0 1 1 -7.8675,0 3.9337756,3.9337756 0 1 1 7.8675,0 z"
     ry="10.714286"
     rx="10.714286"
     cy="1425"
     cx="660.71429"
     id="path2985-79-6"
     style="fill:#e7f3e7;fill-opacity:0.7;stroke:none"
     type="arc"
     inkscape:connector-curvature="0" />
  <path
     d="m 2709.0554,687.4577 a 3.9337756,3.9337756 0 1 1 -7.8675,0 3.9337756,3.9337756 0 1 1 7.8675,0 z"
     ry="10.714286"
     rx="10.714286"
     cy="1425"
     cx="660.71429"
     id="path2985-79-61"
     style="fill:#e7f3e7;fill-opacity:0.7;stroke:none"
     type="arc"
     inkscape:connector-curvature="0" />
  <path
     d="m 2157.1934,1221.5178 a 3.9337756,3.9337756 0 1 1 -7.8675,0 3.9337756,3.9337756 0 1 1 7.8675,0 z"
     ry="10.714286"
     rx="10.714286"
     cy="1425"
     cx="660.71429"
     id="path2985-79-01"
     style="fill:#e7f3e7;fill-opacity:0.7;stroke:none"
     type="arc"
     inkscape:connector-curvature="0" />
  <path
     d="m 1350.1694,1565.6898 a 3.9337756,3.9337756 0 1 1 -7.8675,0 3.9337756,3.9337756 0 1 1 7.8675,0 z"
     ry="10.714286"
     rx="10.714286"
     cy="1425"
     cx="660.71429"
     id="path2985-79-12"
     style="fill:#e7f3e7;fill-opacity:0.7;stroke:none"
     type="arc"
     inkscape:connector-curvature="0" />
  <path
     d="m 1017.8653,1731.8418 a 3.9337756,3.9337756 0 1 1 -7.8675,0 3.9337756,3.9337756 0 1 1 7.8675,0 z"
     ry="10.714286"
     rx="10.714286"
     cy="1425"
     cx="660.71429"
     id="path2985-79-08"
     style="fill:#e7f3e7;fill-opacity:0.7;stroke:none"
     type="arc"
     inkscape:connector-curvature="0" />
  <path
     d="m 531.27728,1625.0299 a 3.9337756,3.9337756 0 1 1 -7.86749,0 3.9337756,3.9337756 0 1 1 7.86749,0 z"
     ry="10.714286"
     rx="10.714286"
     cy="1425"
     cx="660.71429"
     id="path2985-79-94"
     style="fill:#e7f3e7;fill-opacity:0.7;stroke:none"
     type="arc"
     inkscape:connector-curvature="0" />
  <path
     d="m 572.81528,1921.7299 a 3.9337756,3.9337756 0 1 1 -7.86749,0 3.9337756,3.9337756 0 1 1 7.86749,0 z"
     ry="10.714286"
     rx="10.714286"
     cy="1425"
     cx="660.71429"
     id="path2985-79-84"
     style="fill:#e7f3e7;fill-opacity:0.7;stroke:none"
     type="arc"
     inkscape:connector-curvature="0" />
  <path
     d="m 1040.2691,2260.6366 a 3.2676562,3.2676562 0 1 1 -6.5353,0 3.2676562,3.2676562 0 1 1 6.5353,0 z"
     ry="10.714286"
     rx="10.714286"
     cy="1425"
     cx="660.71429"
     id="path2985-79-17"
     style="fill:#e7f3e7;fill-opacity:0.7;stroke:none"
     type="arc"
     connector-curvature="0"
     inkscape:connector-curvature="0" />
  <path
     d="m 1765.5493,2526.9978 a 3.9337756,3.9337756 0 1 1 -7.8674,0 3.9337756,3.9337756 0 1 1 7.8674,0 z"
     ry="10.714286"
     rx="10.714286"
     cy="1425"
     cx="660.71429"
     id="path2985-79-44"
     style="fill:#e7f3e7;fill-opacity:0.7;stroke:none"
     type="arc"
     inkscape:connector-curvature="0" />
  <path
     d="m 418.53127,1814.9178 a 3.9337756,3.9337756 0 1 1 -7.86749,0 3.9337756,3.9337756 0 1 1 7.86749,0 z"
     ry="10.714286"
     rx="10.714286"
     cy="1425"
     cx="660.71429"
     id="path2985-79-49"
     style="fill:#e7f3e7;fill-opacity:0.7;stroke:none"
     type="arc"
     inkscape:connector-curvature="0" />
  <path
     d="m 424.46527,2242.1659 a 3.9337756,3.9337756 0 1 0 -7.86749,0 3.9337756,3.9337756 0 1 0 7.86749,0 z"
     ry="10.714286"
     rx="10.714286"
     cy="1425"
     cx="660.71429"
     id="path2985-79-79"
     style="fill:#e7f3e7;fill-opacity:0.7;stroke:none"
     type="arc"
     inkscape:connector-curvature="0" />
  <path
     d="m 436.33327,2610.0739 a 3.9337756,3.9337756 0 1 1 -7.86749,0 3.9337756,3.9337756 0 1 1 7.86749,0 z"
     ry="10.714286"
     rx="10.714286"
     cy="1425"
     cx="660.71429"
     id="path2985-79-46"
     style="fill:#e7f3e7;fill-opacity:0.7;stroke:none"
     type="arc"
     inkscape:connector-curvature="0" />
  <path
     d="m 394.79527,2681.2819 a 3.9337756,3.9337756 0 1 1 -7.86749,0 3.9337756,3.9337756 0 1 1 7.86749,0 z"
     ry="10.714286"
     rx="10.714286"
     cy="1425"
     cx="660.71429"
     id="path2985-79-32"
     style="fill:#e7f3e7;fill-opacity:0.7;stroke:none"
     type="arc"
     inkscape:connector-curvature="0" />
  <path
     d="m 382.92726,1536.0198 a 3.9337756,3.9337756 0 1 1 -7.86749,0 3.9337756,3.9337756 0 1 1 7.86749,0 z"
     ry="10.714286"
     rx="10.714286"
     cy="1425"
     cx="660.71429"
     id="path2985-79-26"
     style="fill:#e7f3e7;fill-opacity:0.7;stroke:none"
     type="arc"
     inkscape:connector-curvature="0" />
  <path
     d="m 329.52126,1174.0458 a 3.9337756,3.9337756 0 1 1 -7.86749,0 3.9337756,3.9337756 0 1 1 7.86749,0 z"
     ry="10.714286"
     rx="10.714286"
     cy="1425"
     cx="660.71429"
     id="path2985-79-34"
     style="fill:#e7f3e7;fill-opacity:0.7;stroke:none"
     type="arc"
     inkscape:connector-curvature="0" />
  <path
     d="m 569.24289,1344.9462 a 5.1145847,5.1145847 0 1 1 -10.22909,0 5.1145847,5.1145847 0 1 1 10.22909,0 z"
     ry="10.714286"
     rx="10.714286"
     cy="1425"
     cx="660.71429"
     id="path2985-79-20"
     style="fill:#e7f3e7;fill-opacity:0.7;stroke:none"
     type="arc"
     connector-curvature="0"
     inkscape:connector-curvature="0" />
  <path
     d="m 1136.5453,1280.8578 a 3.9337756,3.9337756 0 1 1 -7.8675,0 3.9337756,3.9337756 0 1 1 7.8675,0 z"
     ry="10.714286"
     rx="10.714286"
     cy="1425"
     cx="660.71429"
     id="path2985-79-54"
     style="fill:#e7f3e7;fill-opacity:0.7;stroke:none"
     type="arc"
     inkscape:connector-curvature="0" />
  <path
     d="m 691.49529,1215.5837 a 3.9337756,3.9337756 0 1 1 -7.86749,0 3.9337756,3.9337756 0 1 1 7.86749,0 z"
     ry="10.714286"
     rx="10.714286"
     cy="1425"
     cx="660.71429"
     id="path2985-79-93"
     style="fill:#e7f3e7;fill-opacity:0.7;stroke:none"
     type="arc"
     inkscape:connector-curvature="0" />
  <path
     d="m 1017.8653,1280.8578 a 3.9337756,3.9337756 0 1 1 -7.8675,0 3.9337756,3.9337756 0 1 1 7.8675,0 z"
     ry="10.714286"
     rx="10.714286"
     cy="1425"
     cx="660.71429"
     id="path2985-79-76"
     style="fill:#e7f3e7;fill-opacity:0.7;stroke:none"
     type="arc"
     inkscape:connector-curvature="0" />
  <path
     d="m 2032.5794,1369.8678 a 3.9337756,3.9337756 0 1 1 -7.8675,0 3.9337756,3.9337756 0 1 1 7.8675,0 z"
     ry="10.714286"
     rx="10.714286"
     cy="1425"
     cx="660.71429"
     id="path2985-79-78"
     style="fill:#e7f3e7;fill-opacity:0.7;stroke:none"
     type="arc"
     inkscape:connector-curvature="0" />
  <path
     d="m 2447.9594,1079.1018 a 3.9337756,3.9337756 0 1 1 -7.8675,0 3.9337756,3.9337756 0 1 1 7.8675,0 z"
     ry="10.714286"
     rx="10.714286"
     cy="1425"
     cx="660.71429"
     id="path2985-79-27"
     style="fill:#e7f3e7;fill-opacity:0.7;stroke:none"
     type="arc"
     inkscape:connector-curvature="0" />
  <path
     d="m 2418.2894,1007.8938 a 3.9337756,3.9337756 0 1 1 -7.8675,0 3.9337756,3.9337756 0 1 1 7.8675,0 z"
     ry="10.714286"
     rx="10.714286"
     cy="1425"
     cx="660.71429"
     id="path2985-79-43"
     style="fill:#e7f3e7;fill-opacity:0.7;stroke:none"
     type="arc"
     inkscape:connector-curvature="0" />
  <path
     d="m 1608.6671,869.73718 a 5.6016964,5.6016964 0 1 1 -11.2033,0 5.6016964,5.6016964 0 1 1 11.2033,0 z"
     ry="10.714286"
     rx="10.714286"
     cy="1425"
     cx="660.71429"
     id="path2985-79-48"
     style="fill:#e7f3e7;fill-opacity:0.7;stroke:none"
     type="arc"
     connector-curvature="0"
     inkscape:connector-curvature="0" />
  <path
     d="m 1462.9154,960.42177 a 3.9337756,3.9337756 0 1 1 -7.8675,0 3.9337756,3.9337756 0 1 1 7.8675,0 z"
     ry="10.714286"
     rx="10.714286"
     cy="1425"
     cx="660.71429"
     id="path2985-79-90"
     style="fill:#e7f3e7;fill-opacity:0.7;stroke:none"
     type="arc"
     inkscape:connector-curvature="0" />
  <path
     d="m 1682.4734,1185.9138 a 3.9337756,3.9337756 0 1 1 -7.8675,0 3.9337756,3.9337756 0 1 1 7.8675,0 z"
     ry="10.714286"
     rx="10.714286"
     cy="1425"
     cx="660.71429"
     id="path2985-79-792"
     style="fill:#e7f3e7;fill-opacity:0.7;stroke:none"
     type="arc"
     inkscape:connector-curvature="0" />
  <path
     d="m 2157.1934,1357.9998 a 3.9337756,3.9337756 0 1 1 -7.8675,0 3.9337756,3.9337756 0 1 1 7.8675,0 z"
     ry="10.714286"
     rx="10.714286"
     cy="1425"
     cx="660.71429"
     id="path2985-79-15"
     style="fill:#e7f3e7;fill-opacity:0.7;stroke:none"
     type="arc"
     inkscape:connector-curvature="0" />
  <path
     d="m 2703.1214,1696.2378 a 3.9337756,3.9337756 0 1 1 -7.8675,0 3.9337756,3.9337756 0 1 1 7.8675,0 z"
     ry="10.714286"
     rx="10.714286"
     cy="1425"
     cx="660.71429"
     id="path2985-79-550"
     style="fill:#e7f3e7;fill-opacity:0.7;stroke:none"
     type="arc"
     inkscape:connector-curvature="0" />
  <path
     d="m 2108.3634,1969.8835 a 3.25475,3.25475 0 0 1 -6.5095,0 3.25475,3.25475 0 1 1 6.5095,0 z"
     ry="10.714286"
     rx="10.714286"
     cy="1425"
     cx="660.71429"
     id="path2985-79-18"
     style="fill:#e7f3e7;fill-opacity:0.7;stroke:none"
     type="arc"
     connector-curvature="0"
     inkscape:connector-curvature="0" />
  <path
     d="m 1017.8653,1951.3998 a 3.9337756,3.9337756 0 1 1 -7.8675,0 3.9337756,3.9337756 0 1 1 7.8675,0 z"
     ry="10.714286"
     rx="10.714286"
     cy="1425"
     cx="660.71429"
     id="path2985-79-450"
     style="fill:#e7f3e7;fill-opacity:0.7;stroke:none"
     type="arc"
     inkscape:connector-curvature="0" />
  <path
     d="m 762.70329,1737.7758 a 3.9337756,3.9337756 0 1 1 -7.86749,0 3.9337756,3.9337756 0 1 1 7.86749,0 z"
     ry="10.714286"
     rx="10.714286"
     cy="1425"
     cx="660.71429"
     id="path2985-79-124"
     style="fill:#e7f3e7;fill-opacity:0.7;stroke:none"
     type="arc"
     inkscape:connector-curvature="0" />
  <path
     d="m 857.6473,1304.5938 a 3.9337756,3.9337756 0 1 1 -7.86749,0 3.9337756,3.9337756 0 1 1 7.86749,0 z"
     ry="10.714286"
     rx="10.714286"
     cy="1425"
     cx="660.71429"
     id="path2985-79-21"
     style="fill:#e7f3e7;fill-opacity:0.7;stroke:none"
     type="arc"
     inkscape:connector-curvature="0" />
  <path
     d="m 1142.4793,1067.2338 a 3.9337756,3.9337756 0 1 1 -7.8675,0 3.9337756,3.9337756 0 1 1 7.8675,0 z"
     ry="10.714286"
     rx="10.714286"
     cy="1425"
     cx="660.71429"
     id="path2985-79-999"
     style="fill:#e7f3e7;fill-opacity:0.7;stroke:none"
     type="arc"
     inkscape:connector-curvature="0" />
</svg>
