<?xml version="1.0" encoding="UTF-8" standalone="no"?>
<!-- Created with Inkscape (http://www.inkscape.org/) -->

<svg
   xmlns="http://www.w3.org/2000/svg"
   width="3000"
   height="3000"
   version="1.1"
>

  <g transform="translate(0,1947.6378)">
    <path
       type="arc"
       style="fill:#e7f3e7;fill-opacity:1;stroke:none;stroke-width:4;stroke-linecap:round;stroke-linejoin:round;stroke-miterlimit:4;stroke-opacity:1;stroke-dasharray:none;stroke-dashoffset:0"
       id="path2985"
       cx="660.71429"
       cy="1425"
       rx="10.714286"
       ry="10.714286"
       d="m 671.42858,1425 a 10.714286,10.714286 0 1 1 -21.42857,0 10.714286,10.714286 0 1 1 21.42857,0 z"
       transform="matrix(0.39325842,0,0,0.39325842,393.16857,-1075.3167)" />
    <path
       type="arc"
       style="fill:#e7f3e7;fill-opacity:1;stroke:none"
       id="path2985-6"
       cx="660.71429"
       cy="1425"
       rx="10.714286"
       ry="10.714286"
       d="m 671.42858,1425 a 10.714286,10.714286 0 1 1 -21.42857,0 10.714286,10.714286 0 1 1 21.42857,0 z"
       transform="matrix(0.39325842,0,0,0.39325842,992.75769,-1358.6305)" />
    <path
       type="arc"
       style="fill:#e7f3e7;fill-opacity:1;stroke:none"
       id="path2985-0"
       cx="660.71429"
       cy="1425"
       rx="10.714286"
       ry="10.714286"
       d="m 671.42858,1425 a 10.714286,10.714286 0 1 1 -21.42857,0 10.714286,10.714286 0 1 1 21.42857,0 z"
       transform="matrix(0.39325842,0,0,0.39325842,1138.2197,-598.9958)" />
    <path
       type="arc"
       style="fill:#e7f3e7;fill-opacity:1;stroke:none"
       id="path2985-9"
       cx="660.71429"
       cy="1425"
       rx="10.714286"
       ry="10.714286"
       d="m 671.42858,1425 a 10.714286,10.714286 0 1 1 -21.42857,0 10.714286,10.714286 0 1 1 21.42857,0 z"
       transform="matrix(0.39325842,0,0,0.39325842,1881.6919,-962.65071)" />
    <path
       type="arc"
       style="fill:#e7f3e7;fill-opacity:1;stroke:none"
       id="path2985-5"
       cx="660.71429"
       cy="1425"
       rx="10.714286"
       ry="10.714286"
       d="m 671.42858,1425 a 10.714286,10.714286 0 1 1 -21.42857,0 10.714286,10.714286 0 1 1 21.42857,0 z"
       transform="matrix(0.39325842,0,0,0.39325842,1986.7478,-1819.2601)" />
    <path
       type="arc"
       style="fill:#e7f3e7;fill-opacity:1;stroke:none"
       id="path2985-8"
       cx="660.71429"
       cy="1425"
       rx="10.714286"
       ry="10.714286"
       d="m 671.42858,1425 a 10.714286,10.714286 0 1 1 -21.42857,0 10.714286,10.714286 0 1 1 21.42857,0 z"
       transform="matrix(0.39325842,0,0,0.39325842,1558.4431,-2037.453)" />
    <path
       type="arc"
       style="fill:#e7f3e7;fill-opacity:1;stroke:none"
       id="path2985-3"
       cx="660.71429"
       cy="1425"
       rx="10.714286"
       ry="10.714286"
       d="m 671.42858,1425 a 10.714286,10.714286 0 1 1 -21.42857,0 10.714286,10.714286 0 1 1 21.42857,0 z"
       transform="matrix(0.39325842,0,0,0.39325842,1954.4229,-388.88407)" />
    <path
       type="arc"
       style="fill:#e7f3e7;fill-opacity:1;stroke:none"
       id="path2985-63"
       cx="660.71429"
       cy="1425"
       rx="10.714286"
       ry="10.714286"
       d="m 671.42858,1425 a 10.714286,10.714286 0 1 1 -21.42857,0 10.714286,10.714286 0 1 1 21.42857,0 z"
       transform="matrix(0.39325842,0,0,0.39325842,1380.6563,-57.554032)" />
    <path
       type="arc"
       style="fill:#e7f3e7;fill-opacity:1;stroke:none"
       id="path2985-7"
       cx="660.71429"
       cy="1425"
       rx="10.714286"
       ry="10.714286"
       d="m 671.42858,1425 a 10.714286,10.714286 0 1 1 -21.42857,0 10.714286,10.714286 0 1 1 21.42857,0 z"
       transform="matrix(0.39325842,0,0,0.39325842,144.22956,-89.878914)" />
    <path
       type="arc"
       style="fill:#e7f3e7;fill-opacity:1;stroke:none"
       id="path2985-73"
       cx="660.71429"
       cy="1425"
       rx="10.714286"
       ry="10.714286"
       d="m 671.42858,1425 a 10.714286,10.714286 0 1 1 -21.42857,0 10.714286,10.714286 0 1 1 21.42857,0 z"
       transform="matrix(0.39325842,0,0,0.39325842,451.31593,-841.43241)" />
    <path
       type="arc"
       style="fill:#e7f3e7;fill-opacity:1;stroke:none"
       id="path2985-1"
       cx="660.71429"
       cy="1425"
       rx="10.714286"
       ry="10.714286"
       d="m 671.42858,1425 a 10.714286,10.714286 0 1 1 -21.42857,0 10.714286,10.714286 0 1 1 21.42857,0 z"
       transform="matrix(0.39325842,0,0,0.39325842,-65.882171,-1479.8488)" />
    <path
       type="arc"
       style="fill:#e7f3e7;fill-opacity:1;stroke:none"
       id="path2985-60"
       cx="660.71429"
       cy="1425"
       rx="10.714286"
       ry="10.714286"
       d="m 671.42858,1425 a 10.714286,10.714286 0 1 1 -21.42857,0 10.714286,10.714286 0 1 1 21.42857,0 z"
       transform="matrix(0.39325842,0,0,0.39325842,136.14834,-2118.2652)" />
    <path
       type="arc"
       style="fill:#e7f3e7;fill-opacity:1;stroke:none"
       id="path2985-4"
       cx="660.71429"
       cy="1425"
       rx="10.714286"
       ry="10.714286"
       d="m 671.42858,1425 a 10.714286,10.714286 0 1 1 -21.42857,0 10.714286,10.714286 0 1 1 21.42857,0 z"
       transform="matrix(0.39325842,0,0,0.39325842,2027.1539,-2110.184)" />
    <path
       type="arc"
       style="fill:#e7f3e7;fill-opacity:1;stroke:none"
       id="path2985-74"
       cx="660.71429"
       cy="1425"
       rx="10.714286"
       ry="10.714286"
       d="m 671.42858,1425 a 10.714286,10.714286 0 1 1 -21.42857,0 10.714286,10.714286 0 1 1 21.42857,0 z"
       transform="matrix(0.39325842,0,0,0.39325842,2350.4027,-1116.1939)" />
    <path
       type="arc"
       style="fill:#e7f3e7;fill-opacity:1;stroke:none"
       id="path2985-79"
       cx="660.71429"
       cy="1425"
       rx="10.714286"
       ry="10.714286"
       d="m 671.42858,1425 a 10.714286,10.714286 0 1 1 -21.42857,0 10.714286,10.714286 0 1 1 21.42857,0 z"
       transform="matrix(0.39325842,0,0,0.39325842,2552.4332,-1471.7676)" />
    <path
       type="arc"
       style="fill:#e7f3e7;fill-opacity:1;stroke:none"
       id="path2985-37"
       cx="660.71429"
       cy="1425"
       rx="10.714286"
       ry="10.714286"
       d="m 671.42858,1425 a 10.714286,10.714286 0 1 1 -21.42857,0 10.714286,10.714286 0 1 1 21.42857,0 z"
       transform="matrix(0.39325842,0,0,0.39325842,2536.2708,-1916.2347)" />
    <path
       type="arc"
       style="fill:#e7f3e7;fill-opacity:1;stroke:none"
       id="path2985-57"
       cx="660.71429"
       cy="1425"
       rx="10.714286"
       ry="10.714286"
       d="m 671.42858,1425 a 10.714286,10.714286 0 1 1 -21.42857,0 10.714286,10.714286 0 1 1 21.42857,0 z"
       transform="matrix(0.39325842,0,0,0.39325842,2536.2708,-356.55919)" />
    <path
       type="arc"
       style="fill:#e7f3e7;fill-opacity:1;stroke:none"
       id="path2985-87"
       cx="660.71429"
       cy="1425"
       rx="10.714286"
       ry="10.714286"
       d="m 671.42858,1425 a 10.714286,10.714286 0 1 1 -21.42857,0 10.714286,10.714286 0 1 1 21.42857,0 z"
       transform="matrix(0.39325842,0,0,0.39325842,2326.1591,289.93844)" />
    <path
       type="arc"
       style="fill:#e7f3e7;fill-opacity:1;stroke:none"
       id="path2985-375"
       cx="660.71429"
       cy="1425"
       rx="10.714286"
       ry="10.714286"
       d="m 671.42858,1425 a 10.714286,10.714286 0 1 1 -21.42857,0 10.714286,10.714286 0 1 1 21.42857,0 z"
       transform="matrix(0.39325842,0,0,0.39325842,1493.7934,-671.72678)" />
    <path
       type="arc"
       style="fill:#e7f3e7;fill-opacity:1;stroke:none"
       id="path2985-04"
       cx="660.71429"
       cy="1425"
       rx="10.714286"
       ry="10.714286"
       d="m 671.42858,1425 a 10.714286,10.714286 0 1 1 -21.42857,0 10.714286,10.714286 0 1 1 21.42857,0 z"
       transform="matrix(0.39325842,0,0,0.39325842,483.64081,-922.24461)" />
    <path
       type="arc"
       style="fill:#e7f3e7;fill-opacity:1;stroke:none"
       id="path2985-2"
       cx="660.71429"
       cy="1425"
       rx="10.714286"
       ry="10.714286"
       d="m 671.42858,1425 a 10.714286,10.714286 0 1 1 -21.42857,0 10.714286,10.714286 0 1 1 21.42857,0 z"
       transform="matrix(0.39325842,0,0,0.39325842,911.94549,-1100.0315)" />
    <path
       type="arc"
       style="fill:#e7f3e7;fill-opacity:1;stroke:none"
       id="path2985-64"
       cx="660.71429"
       cy="1425"
       rx="10.714286"
       ry="10.714286"
       d="m 671.42858,1425 a 10.714286,10.714286 0 1 1 -21.42857,0 10.714286,10.714286 0 1 1 21.42857,0 z"
       transform="matrix(0.39325842,0,0,0.39325842,1008.9201,-558.58969)" />
    <path
       type="arc"
       style="fill:#e7f3e7;fill-opacity:1;stroke:none"
       id="path2985-12"
       cx="660.71429"
       cy="1425"
       rx="10.714286"
       ry="10.714286"
       d="m 671.42858,1425 a 10.714286,10.714286 0 1 1 -21.42857,0 10.714286,10.714286 0 1 1 21.42857,0 z"
       transform="matrix(0.39325842,0,0,0.39325842,831.13329,-1140.4376)" />
    <path
       type="arc"
       style="fill:#e7f3e7;fill-opacity:1;stroke:none"
       id="path2985-370"
       cx="660.71429"
       cy="1425"
       rx="10.714286"
       ry="10.714286"
       d="m 671.42858,1425 a 10.714286,10.714286 0 1 1 -21.42857,0 10.714286,10.714286 0 1 1 21.42857,0 z"
       transform="matrix(0.39325842,0,0,0.39325842,1914.0168,-1407.1178)" />
    <path
       type="arc"
       style="fill:#e7f3e7;fill-opacity:1;stroke:none"
       id="path2985-86"
       cx="660.71429"
       cy="1425"
       rx="10.714286"
       ry="10.714286"
       d="m 671.42858,1425 a 10.714286,10.714286 0 1 1 -21.42857,0 10.714286,10.714286 0 1 1 21.42857,0 z"
       transform="matrix(0.39325842,0,0,0.39325842,1437.2248,-1496.0113)" />
    <path
       type="arc"
       style="fill:#e7f3e7;fill-opacity:1;stroke:none"
       id="path2985-71"
       cx="660.71429"
       cy="1425"
       rx="10.714286"
       ry="10.714286"
       d="m 671.42858,1425 a 10.714286,10.714286 0 1 1 -21.42857,0 10.714286,10.714286 0 1 1 21.42857,0 z"
       transform="matrix(0.39325842,0,0,0.39325842,847.29573,-1455.6052)" />
    <path
       type="arc"
       style="fill:#e7f3e7;fill-opacity:1;stroke:none"
       id="path2985-75"
       cx="660.71429"
       cy="1425"
       rx="10.714286"
       ry="10.714286"
       d="m 671.42858,1425 a 10.714286,10.714286 0 1 1 -21.42857,0 10.714286,10.714286 0 1 1 21.42857,0 z"
       transform="matrix(0.39325842,0,0,0.39325842,1210.9506,-857.59485)" />
    <path
       type="arc"
       style="fill:#e7f3e7;fill-opacity:1;stroke:none"
       id="path2985-14"
       cx="660.71429"
       cy="1425"
       rx="10.714286"
       ry="10.714286"
       d="m 671.42858,1425 a 10.714286,10.714286 0 1 1 -21.42857,0 10.714286,10.714286 0 1 1 21.42857,0 z"
       transform="matrix(0.39325842,0,0,0.39325842,63.417355,-429.29017)" />
  </g>
</svg>
