<?xml version="1.0" encoding="UTF-8" standalone="no"?>
<!-- Created with Inkscape (http://www.inkscape.org/) -->

<svg
   xmlns:dc="http://purl.org/dc/elements/1.1/"
   xmlns:cc="http://creativecommons.org/ns#"
   xmlns:rdf="http://www.w3.org/1999/02/22-rdf-syntax-ns#"
   xmlns:svg="http://www.w3.org/2000/svg"
   xmlns="http://www.w3.org/2000/svg"
   xmlns:sodipodi="http://sodipodi.sourceforge.net/DTD/sodipodi-0.dtd"
   xmlns:inkscape="http://www.inkscape.org/namespaces/inkscape"
   width="500mm"
   height="500mm"
   viewBox="0 0 1771.6534 1771.6534"
   id="svg5145"
   version="1.1"
   inkscape:version="0.91 r13725"
   sodipodi:docname="formation.svg">
  <defs
     id="defs5147">
    <clipPath
       clipPathUnits="userSpaceOnUse"
       id="clipPath30-3">
      <path
         d="M 187.388,20.417 652.436,20.417 652.436,579.64 187.388,579.64 187.388,20.417 Z"
         id="path32-7"
         inkscape:connector-curvature="0" />
    </clipPath>
  </defs>
  <sodipodi:namedview
     id="base"
     pagecolor="#ffffff"
     bordercolor="#666666"
     borderopacity="1.0"
     inkscape:pageopacity="0.0"
     inkscape:pageshadow="2"
     inkscape:zoom="0.29520444"
     inkscape:cx="-259.14249"
     inkscape:cy="683.83333"
     inkscape:document-units="px"
     inkscape:current-layer="g4268"
     showgrid="false"
     units="mm"
     showguides="true"
     inkscape:guide-bbox="true"
     inkscape:window-width="1600"
     inkscape:window-height="834"
     inkscape:window-x="0"
     inkscape:window-y="27"
     inkscape:window-maximized="1">
    <sodipodi:guide
       position="2717.3103,1149.5536"
       orientation="1,0"
       id="guide4313" />
    <sodipodi:guide
       position="105.01196,809.60834"
       orientation="1,0"
       id="guide4176" />
    <sodipodi:guide
       position="374.86632,249.11245"
       orientation="0,1"
       id="guide4178" />
  </sodipodi:namedview>
  <metadata
     id="metadata5150">
    <rdf:RDF>
      <cc:Work
         rdf:about="">
        <dc:format>image/svg+xml</dc:format>
        <dc:type
           rdf:resource="http://purl.org/dc/dcmitype/StillImage" />
        <dc:title />
      </cc:Work>
    </rdf:RDF>
  </metadata>
  <svg
     id="location"
     width="600mm"
     height="500mm"
     inkscape:label="#g6114"
     version="1.1"
     inkscape:version="0.91 r13725"
     transform="translate(0,1271.6534)">
    <g
       transform="translate(1154.1305,218.49262)"
       id="g45" />
  </svg>
  <svg
     id="formation"
     width="600mm"
     height="500mm"
     inkscape:label="#g6069"
     version="1.1"
     inkscape:version="0.91 r13725"
     transform="translate(0,1271.6534)">
    <g
       id="g4268"
       transform="translate(-2378.284,22.698667)">
      <g
         id="g4180"
         transform="translate(29.664794,337.18428)">
        <text
           style="font-size:50px;font-family:Onyx;letter-spacing:2;fill:#868ceb;stroke:none"
           id="text55"
           letter-spacing="2"
           font-size="50"
           y="134.10243"
           x="2577.8882">MASTER</text>
        <text
           style="font-size:160px;font-family:Onyx;letter-spacing:3;fill:#868ceb;stroke:none"
           id="text57"
           letter-spacing="3"
           font-size="160"
           y="269.10242"
           x="2499.8882">MIAGE</text>
        <path
           style="fill:#868ceb;fill-opacity:1"
           d="M 2590.7811,384.65095 C 2576.0381,384.27084 2562.7491,392.03976 2550.5591,405.96185 2574.5451,414.97502 2594.8621,412.48989 2609.8391,393.27229 2599.5491,398.61231 2587.8091,400.45298 2575.0481,399.78021 2585.9951,393.10085 2597.1981,389.14761 2608.7761,388.96066 2602.5401,386.1971 2596.5491,384.79967 2590.7811,384.65095 Z"
           id="path32-3-2-2"
           inkscape:connector-curvature="0" />
        <path
           style="fill:#868ceb;fill-opacity:1"
           d="M 2600.5941,356.52202 C 2592.1721,344.41518 2578.0431,338.30443 2559.6061,336.72219 2566.5431,361.38909 2580.5731,376.29198 2604.9271,376.9854 2594.5321,371.85376 2586.0981,363.48179 2579.0861,352.79903 2590.9501,357.66729 2600.7681,364.35578 2607.7731,373.57617 2606.3091,366.9143 2603.8881,361.2587 2600.5941,356.52202 Z"
           id="path32-3-2-1-2"
           inkscape:connector-curvature="0" />
        <path
           style="fill:#868ceb;fill-opacity:1"
           d="M 2549.3281,339.66261 C 2548.3661,324.9459 2539.4221,312.41741 2524.4491,301.54268 2517.6541,326.24888 2521.9741,346.25572 2542.4721,359.42444 2536.2201,349.66244 2533.3201,338.13802 2532.8311,325.36891 2540.4771,335.66384 2545.4321,346.46117 2546.6701,357.97433 2548.8561,351.51326 2549.7031,345.41985 2549.3281,339.66261 Z"
           id="path32-3-2-1-5-9"
           inkscape:connector-curvature="0" />
        <path
           style="fill:#868ceb;fill-opacity:1"
           d="M 2547.4731,369.08465 C 2532.8191,367.41671 2518.9011,373.99254 2505.5391,386.79567 2528.6451,397.87186 2549.1011,397.17474 2565.7021,379.34239 2554.9851,383.7606 2543.1281,384.56697 2530.4751,382.78006 2541.9651,377.08469 2553.4701,374.12681 2565.0201,374.95386 2559.0511,371.65452 2553.2051,369.7387 2547.4731,369.08465 Z"
           id="path32-3-2-1-5-5-3"
           inkscape:connector-curvature="0" />
        <path
           style="fill:#868ceb;fill-opacity:1"
           d="M 2508.6131,347.97778 C 2495.0262,342.2427 2479.8182,344.6241 2463.3862,353.13662 2482.4282,370.28252 2502.2491,375.38579 2523.2071,362.96237 2511.6791,364.17703 2500.0761,361.60495 2488.4422,356.32037 2501.0721,354.09856 2512.9441,354.50722 2523.7911,358.55973 2518.9961,353.71017 2513.9281,350.22264 2508.6131,347.97778 Z"
           id="path32-3-2-1-5-5-7-1"
           inkscape:connector-curvature="0" />
        <path
           style="fill:#868ceb;fill-opacity:1"
           d="M 2512.7181,318.23274 C 2516.4771,303.97211 2511.9711,289.25282 2501.2231,274.18798 2486.9382,295.46074 2484.6862,315.80383 2499.9451,334.79687 2497.1141,323.55599 2498.0221,311.70627 2501.6111,299.44259 2505.5941,311.63213 2506.8661,323.44271 2504.3861,334.75314 2508.5101,329.32147 2511.2471,323.81158 2512.7181,318.23274 Z"
           id="path32-3-2-1-5-5-7-9-47"
           inkscape:connector-curvature="0" />
        <path
           style="fill:#868ceb;fill-opacity:1"
           d="M 2474.5642,319.54355 C 2462.6262,310.8838 2447.2722,309.76446 2429.3422,314.33979 2444.0122,335.34857 2462.1652,344.80194 2485.3892,337.44068 2473.8862,336.01667 2463.1652,330.88674 2453.0292,323.10718 2465.8342,323.79984 2477.3052,326.88311 2486.9552,333.28393 2483.3812,327.47554 2479.2342,322.93167 2474.5642,319.54355 Z"
           id="path32-3-2-1-5-5-7-9-4-8"
           inkscape:connector-curvature="0" />
        <path
           style="fill:#868ceb;fill-opacity:1"
           d="M 2448.5342,285.76904 C 2438.4592,274.99803 2423.5982,270.98069 2405.1252,272.06456 2415.5352,295.47874 2431.5602,308.2102 2455.7602,305.39746 2444.7372,301.81297 2435.1862,294.73877 2426.7142,285.17443 2439.1542,288.28837 2449.8302,293.49579 2458.0872,301.61414 2455.6822,295.2323 2452.4752,289.98304 2448.5342,285.76904 Z"
           id="path32-3-2-1-5-5-7-9-4-9-3"
           inkscape:connector-curvature="0" />
        <path
           style="fill:#868ceb;fill-opacity:1"
           d="M 2482.8322,290.69247 C 2489.4742,277.52371 2488.1252,262.18842 2480.7452,245.21954 2462.3492,263.05785 2455.9182,282.48774 2466.8952,304.23783 2466.4622,292.65453 2469.8142,281.25136 2475.8742,270.0032 2477.2352,282.75428 2476.0242,294.57078 2471.2472,305.11895 2476.4102,300.66281 2480.2342,295.84396 2482.8322,290.69247 Z"
           id="path32-3-2-1-5-5-7-9-4-9-2-4"
           inkscape:connector-curvature="0" />
        <path
           style="fill:#868ceb;fill-opacity:1"
           d="M 2468.9962,244.65997 C 2476.6602,232.05917 2476.5322,216.6652 2470.5202,199.16468 2450.7672,215.48857 2442.8162,234.34753 2452.0352,256.89935 2452.5212,245.31817 2456.7672,234.21661 2463.7002,223.48423 2464.0462,236.30309 2461.9012,247.98639 2456.3032,258.12269 2461.8032,254.08985 2465.9982,249.5893 2468.9962,244.65997 Z"
           id="path32-3-2-1-5-5-7-9-4-9-2-8-8"
           inkscape:connector-curvature="0" />
        <path
           style="fill:#868ceb;fill-opacity:1"
           d="M 2437.7542,248.7023 C 2428.9612,236.8611 2414.6492,231.19135 2396.1722,230.18005 2403.8692,254.62126 2418.3532,269.08102 2442.7162,269.02076 2432.1682,264.21445 2423.4782,256.10565 2416.1412,245.64576 2428.1492,250.14616 2438.1682,256.52653 2445.4552,265.52575 2443.7872,258.91285 2441.1942,253.33421 2437.7542,248.7023 Z"
           id="path32-3-2-1-5-5-7-9-4-9-2-9-3"
           inkscape:connector-curvature="0" />
        <path
           style="fill:#868ceb;fill-opacity:1"
           d="M 2433.2242,209.0931 C 2429.2052,194.90236 2417.8372,184.5231 2400.9212,177.02122 2399.4442,202.60318 2407.8542,221.26149 2430.6542,229.85015 2422.4982,221.61373 2417.2502,210.949 2414.1022,198.56632 2423.7322,207.03478 2430.8352,216.55509 2434.4552,227.55445 2435.2422,220.77999 2434.7972,214.64427 2433.2242,209.0931 Z"
           id="path32-3-2-1-5-5-7-9-4-9-2-9-0-8"
           inkscape:connector-curvature="0" />
        <path
           style="fill:#868ceb;fill-opacity:1"
           d="M 2459.4652,197.16222 C 2470.1442,186.98919 2474.0242,172.0927 2472.7722,153.6303 2449.4532,164.25383 2436.8702,180.39458 2439.9052,204.56879 2443.3882,193.51295 2450.3742,183.8971 2459.8602,175.33774 2456.8602,187.80569 2451.7502,198.52879 2443.7092,206.86057 2450.0682,204.3975 2455.2882,201.14247 2459.4652,197.16222 Z"
           id="path32-3-2-1-5-5-7-9-4-9-2-9-0-0-7"
           inkscape:connector-curvature="0" />
        <path
           style="fill:#868ceb;fill-opacity:1"
           d="M 2439.3052,161.6963 C 2440.3732,146.98619 2433.2332,133.34867 2419.8972,120.52089 2409.7722,144.06044 2411.3042,164.46906 2429.8002,180.32773 2424.9472,169.80115 2423.6572,157.98539 2424.9272,145.27208 2431.0862,156.52012 2434.5112,167.89381 2434.1572,179.46811 2437.2102,173.36971 2438.8882,167.45093 2439.3052,161.6963 Z"
           id="path32-3-2-1-5-5-7-9-4-9-2-9-0-7-3"
           inkscape:connector-curvature="0" />
        <path
           style="fill:#868ceb;fill-opacity:1"
           d="M 2474.1532,143.63081 C 2486.9382,136.27586 2494.2352,122.72183 2497.3901,104.48792 2472.2192,109.2875 2456.1712,121.98951 2453.3962,146.19491 2459.3972,136.27813 2468.4622,128.59019 2479.7052,122.52046 2473.8382,133.92335 2466.3352,143.13162 2456.5482,149.32214 2463.3102,148.43508 2469.1532,146.50876 2474.1532,143.63081 Z"
           id="path32-3-2-1-5-5-7-9-4-9-2-9-0-2-1"
           inkscape:connector-curvature="0" />
        <path
           style="fill:#868ceb;fill-opacity:1"
           d="M 2457.2552,113.0338 C 2461.7872,98.998774 2458.0912,84.055434 2448.1842,68.426514 2432.7572,88.886954 2429.3972,109.07541 2443.5962,128.87404 2441.3822,117.49597 2442.9372,105.71188 2447.1902,93.664284 2450.5012,106.05345 2451.1252,117.91507 2448.0322,129.07396 2452.4472,123.87547 2455.4822,118.52453 2457.2552,113.0338 Z"
           id="path32-3-2-1-5-5-7-9-4-9-2-9-0-24-1"
           inkscape:connector-curvature="0" />
        <path
           style="fill:#868ceb;fill-opacity:1"
           d="M 2486.4622,98.320704 C 2498.3171,89.546334 2504.0091,75.243994 2505.0491,56.768414 2480.5962,64.426764 2466.1132,78.887564 2466.1362,103.25155 2470.9592,92.711224 2479.0812,84.033164 2489.5522,76.712524 2485.0332,88.713754 2478.6372,98.722734 2469.6272,105.99607 2476.2422,104.33836 2481.8252,101.75386 2486.4622,98.320704 Z"
           id="path32-3-2-1-5-5-7-9-4-9-2-9-0-20-67"
           inkscape:connector-curvature="0" />
        <path
           style="fill:#868ceb;fill-opacity:1"
           d="M 2665.9041,384.49549 C 2680.6471,384.11539 2693.9361,391.8843 2706.1261,405.80639 2682.1401,414.81956 2661.8231,412.33444 2646.8461,393.11683 2657.1361,398.45686 2668.8761,400.29753 2681.6371,399.62476 2670.6901,392.9454 2659.4871,388.99215 2647.9091,388.80521 2654.1451,386.04165 2660.1361,384.64422 2665.9041,384.49549 Z"
           id="path32-3-2-7-3"
           inkscape:connector-curvature="0" />
        <path
           style="fill:#868ceb;fill-opacity:1"
           d="M 2656.0911,356.36657 C 2664.5131,344.25972 2678.6421,338.14897 2697.0791,336.56673 2690.1421,361.23363 2676.1121,376.13652 2651.7581,376.82995 2662.1531,371.6983 2670.5871,363.32634 2677.5991,352.64357 2665.7351,357.51183 2655.9171,364.20033 2648.9121,373.42072 2650.3761,366.75884 2652.7971,361.10325 2656.0911,356.36657 Z"
           id="path32-3-2-1-54-6"
           inkscape:connector-curvature="0" />
        <path
           style="fill:#868ceb;fill-opacity:1"
           d="M 2707.3571,339.50715 C 2708.3191,324.79044 2717.2631,312.26195 2732.2361,301.38722 2739.0311,326.09342 2734.7111,346.10026 2714.2131,359.26899 2720.4652,349.50699 2723.3651,337.98257 2723.8541,325.21346 2716.2081,335.50839 2711.2531,346.30571 2710.0151,357.81887 2707.8291,351.35781 2706.9821,345.26439 2707.3571,339.50715 Z"
           id="path32-3-2-1-5-7-5"
           inkscape:connector-curvature="0" />
        <path
           style="fill:#868ceb;fill-opacity:1"
           d="M 2709.2121,368.9292 C 2723.8661,367.26125 2737.7841,373.83709 2751.1461,386.64021 2728.0401,397.7164 2707.5841,397.01929 2690.9831,379.18694 2701.7001,383.60514 2713.5571,384.41152 2726.2101,382.62461 2714.7201,376.92923 2703.2151,373.97135 2691.6651,374.79841 2697.6341,371.49906 2703.4801,369.58325 2709.2121,368.9292 Z"
           id="path32-3-2-1-5-5-75-1"
           inkscape:connector-curvature="0" />
        <path
           style="fill:#868ceb;fill-opacity:1"
           d="M 2748.0721,347.82233 C 2761.6591,342.08724 2776.8671,344.46864 2793.2991,352.98116 2774.2571,370.12707 2754.4361,375.23033 2733.4781,362.80692 2745.0061,364.02157 2756.6091,361.4495 2768.2431,356.16491 2755.6131,353.9431 2743.7411,354.35177 2732.8941,358.40428 2737.6891,353.55472 2742.7571,350.06719 2748.0721,347.82233 Z"
           id="path32-3-2-1-5-5-7-8-5"
           inkscape:connector-curvature="0" />
        <path
           style="fill:#868ceb;fill-opacity:1"
           d="M 2743.9671,318.07729 C 2740.2081,303.81665 2744.7141,289.09736 2755.4621,274.03253 2769.7471,295.30529 2771.9991,315.64838 2756.7401,334.64141 2759.5711,323.40054 2758.6631,311.55082 2755.0741,299.28713 2751.0911,311.47667 2749.8191,323.28725 2752.2991,334.59768 2748.1751,329.16601 2745.4381,323.65612 2743.9671,318.07729 Z"
           id="path32-3-2-1-5-5-7-9-0-6"
           inkscape:connector-curvature="0" />
        <path
           style="fill:#868ceb;fill-opacity:1"
           d="M 2782.1211,319.38809 C 2794.0591,310.72834 2809.4131,309.60901 2827.3431,314.18434 2812.6731,335.19311 2794.5201,344.64648 2771.2961,337.28523 2782.7991,335.86122 2793.5201,330.73129 2803.6561,322.95173 2790.8511,323.64439 2779.3801,326.72765 2769.7301,333.12847 2773.3041,327.32008 2777.4511,322.77622 2782.1211,319.38809 Z"
           id="path32-3-2-1-5-5-7-9-4-3-9"
           inkscape:connector-curvature="0" />
        <path
           style="fill:#868ceb;fill-opacity:1"
           d="M 2808.1511,285.61358 C 2818.2261,274.84257 2833.0871,270.82524 2851.5601,271.90911 2841.1501,295.32329 2825.1251,308.05474 2800.9251,305.242 2811.9481,301.65752 2821.4991,294.58331 2829.9711,285.01897 2817.5311,288.13292 2806.8551,293.34033 2798.5981,301.45869 2801.0031,295.07685 2804.2101,289.82758 2808.1511,285.61358 Z"
           id="path32-3-2-1-5-5-7-9-4-9-9-6"
           inkscape:connector-curvature="0" />
        <path
           style="fill:#868ceb;fill-opacity:1"
           d="M 2773.8531,290.53702 C 2767.2111,277.36825 2768.5601,262.03297 2775.9401,245.06409 2794.3361,262.9024 2800.7671,282.33229 2789.7901,304.08237 2790.2231,292.49908 2786.8711,281.09591 2780.8111,269.84775 2779.4501,282.59883 2780.6611,294.41532 2785.4381,304.9635 2780.2751,300.50735 2776.4511,295.6885 2773.8531,290.53702 Z"
           id="path32-3-2-1-5-5-7-9-4-9-2-0-8"
           inkscape:connector-curvature="0" />
        <path
           style="fill:#868ceb;fill-opacity:1"
           d="M 2787.6891,244.50452 C 2780.0251,231.90372 2780.1531,216.50975 2786.1651,199.00923 2805.9181,215.33312 2813.8691,234.19208 2804.6501,256.7439 2804.1641,245.16272 2799.9181,234.06116 2792.9851,223.32878 2792.6391,236.14764 2794.7841,247.83094 2800.3821,257.96724 2794.8821,253.9344 2790.6871,249.43385 2787.6891,244.50452 Z"
           id="path32-3-2-1-5-5-7-9-4-9-2-8-1-7"
           inkscape:connector-curvature="0" />
        <path
           style="fill:#868ceb;fill-opacity:1"
           d="M 2818.9311,248.54685 C 2827.7241,236.70565 2842.0361,231.0359 2860.5131,230.0246 2852.8161,254.46581 2838.3321,268.92557 2813.9691,268.86531 2824.5171,264.059 2833.2071,255.9502 2840.5441,245.49031 2828.5361,249.99071 2818.5171,256.37108 2811.2301,265.3703 2812.8981,258.7574 2815.4911,253.17876 2818.9311,248.54685 Z"
           id="path32-3-2-1-5-5-7-9-4-9-2-9-4-3"
           inkscape:connector-curvature="0" />
        <path
           style="fill:#868ceb;fill-opacity:1"
           d="M 2823.4611,208.93765 C 2827.4801,194.74691 2838.8481,184.36765 2855.7641,176.86577 2857.2411,202.44773 2848.8311,221.10604 2826.0311,229.6947 2834.1871,221.45828 2839.4351,210.79355 2842.5831,198.41087 2832.9531,206.87933 2825.8501,216.39964 2822.2301,227.399 2821.4431,220.62454 2821.8881,214.48882 2823.4611,208.93765 Z"
           id="path32-3-2-1-5-5-7-9-4-9-2-9-0-1-5"
           inkscape:connector-curvature="0" />
        <path
           style="fill:#868ceb;fill-opacity:1"
           d="M 2797.2201,197.00677 C 2786.5411,186.83374 2782.6611,171.93725 2783.9131,153.47485 2807.2321,164.09838 2819.8151,180.23913 2816.7801,204.41334 2813.2971,193.3575 2806.3111,183.74165 2796.8251,175.18229 2799.8251,187.65024 2804.9351,198.37334 2812.9761,206.70512 2806.6171,204.24205 2801.3971,200.98702 2797.2201,197.00677 Z"
           id="path32-3-2-1-5-5-7-9-4-9-2-9-0-0-6-0"
           inkscape:connector-curvature="0" />
        <path
           style="fill:#868ceb;fill-opacity:1"
           d="M 2817.3801,161.54085 C 2816.3121,146.83074 2823.4521,133.19322 2836.7881,120.36544 2846.9131,143.90499 2845.3811,164.31361 2826.8851,180.17228 2831.7381,169.6457 2833.0281,157.82994 2831.7581,145.11663 2825.5991,156.36467 2822.1741,167.73836 2822.5281,179.31266 2819.4751,173.21426 2817.7971,167.29548 2817.3801,161.54085 Z"
           id="path32-3-2-1-5-5-7-9-4-9-2-9-0-7-9-7"
           inkscape:connector-curvature="0" />
        <path
           style="fill:#868ceb;fill-opacity:1"
           d="M 2782.5321,143.47536 C 2769.7471,136.12041 2762.4501,122.56638 2759.2951,104.33247 2784.4661,109.13205 2800.5141,121.83406 2803.2891,146.03946 2797.2881,136.12268 2788.2231,128.43474 2776.9801,122.36501 2782.8471,133.7679 2790.3501,142.97617 2800.1371,149.16669 2793.3751,148.27963 2787.5321,146.35331 2782.5321,143.47536 Z"
           id="path32-3-2-1-5-5-7-9-4-9-2-9-0-2-8-5"
           inkscape:connector-curvature="0" />
        <path
           style="fill:#868ceb;fill-opacity:1"
           d="M 2799.4301,112.87835 C 2794.8981,98.843324 2798.5941,83.899984 2808.5011,68.271064 2823.9281,88.731504 2827.2881,108.91996 2813.0891,128.71859 2815.3031,117.34052 2813.7481,105.55643 2809.4951,93.508834 2806.1841,105.898 2805.5601,117.75962 2808.6531,128.91851 2804.2381,123.72002 2801.2031,118.36908 2799.4301,112.87835 Z"
           id="path32-3-2-1-5-5-7-9-4-9-2-9-0-24-6-5"
           inkscape:connector-curvature="0" />
        <path
           style="fill:#868ceb;fill-opacity:1"
           d="M 2770.2231,98.165254 C 2758.3681,89.390884 2752.6761,75.088544 2751.6361,56.612964 2776.0891,64.271314 2790.5721,78.732114 2790.5491,103.0961 2785.7261,92.555774 2777.6041,83.877714 2767.1331,76.557074 2771.6521,88.558304 2778.0481,98.567284 2787.0581,105.84062 2780.4431,104.18291 2774.8601,101.59841 2770.2231,98.165254 Z"
           id="path32-3-2-1-5-5-7-9-4-9-2-9-0-20-6-8"
           inkscape:connector-curvature="0" />
        <polygon
           points="450.001,586.377 447.183,580.666 440.878,579.75 445.439,575.305 444.362,569.026 450.001,571.991 455.639,569.026 454.562,575.305 459.124,579.75 452.819,580.666 "
           id="polygon192-4"
           style="fill:#868ceb;fill-opacity:1"
           transform="matrix(1.283408,0,0,1.283408,2050.9902,-356.91766)" />
      </g>
    </g>
  </svg>
</svg>
