<?xml version="1.0" encoding="UTF-8" standalone="no"?>
<!-- Created with Inkscape (http://www.inkscape.org/) -->

<svg
   xmlns:dc="http://purl.org/dc/elements/1.1/"
   xmlns:cc="http://creativecommons.org/ns#"
   xmlns:rdf="http://www.w3.org/1999/02/22-rdf-syntax-ns#"
   xmlns:svg="http://www.w3.org/2000/svg"
   xmlns="http://www.w3.org/2000/svg"
   xmlns:sodipodi="http://sodipodi.sourceforge.net/DTD/sodipodi-0.dtd"
   xmlns:inkscape="http://www.inkscape.org/namespaces/inkscape"
   width="500mm"
   height="500mm"
   viewBox="0 0 1771.6534 1771.6534"
   id="svg5145"
   version="1.1"
   inkscape:version="0.91 r13725"
   sodipodi:docname="localisation.svg">
  <defs
     id="defs5147">
    <clipPath
       clipPathUnits="userSpaceOnUse"
       id="clipPath30-3">
      <path
         d="M 187.388,20.417 652.436,20.417 652.436,579.64 187.388,579.64 187.388,20.417 Z"
         id="path32-7"
         inkscape:connector-curvature="0" />
    </clipPath>
  </defs>
  <sodipodi:namedview
     id="base"
     pagecolor="#ffffff"
     bordercolor="#666666"
     borderopacity="1.0"
     inkscape:pageopacity="0.0"
     inkscape:pageshadow="2"
     inkscape:zoom="0.29520445"
     inkscape:cx="117.39148"
     inkscape:cy="1173.2326"
     inkscape:document-units="px"
     inkscape:current-layer="g45"
     showgrid="false"
     units="mm"
     showguides="true"
     inkscape:guide-bbox="true"
     inkscape:window-width="1600"
     inkscape:window-height="834"
     inkscape:window-x="0"
     inkscape:window-y="27"
     inkscape:window-maximized="1">
    <sodipodi:guide
       position="249.11245,265.87963"
       orientation="1,0"
       id="guide4141" />
    <sodipodi:guide
       position="-306.59994,249.11245"
       orientation="0,1"
       id="guide4143" />
  </sodipodi:namedview>
  <metadata
     id="metadata5150">
    <rdf:RDF>
      <cc:Work
         rdf:about="">
        <dc:format>image/svg+xml</dc:format>
        <dc:type
           rdf:resource="http://purl.org/dc/dcmitype/StillImage" />
        <dc:title />
      </cc:Work>
    </rdf:RDF>
  </metadata>
  <svg
     id="location"
     width="600mm"
     height="500mm"
     inkscape:label="#g6114"
     version="1.1"
     inkscape:version="0.91 r13725"
     transform="translate(0,1271.6534)">
    <g
       transform="translate(1154.1305,218.49262)"
       id="g45">
      <g
         id="g4145"
         transform="translate(36.994402,318.05749)">
        <text
           style="font-size:240px;font-family:Onyx;letter-spacing:19.99999809px;fill:#868ceb;stroke:none"
           id="text47-5"
           letter-spacing="7"
           font-size="240"
           y="119.70997"
           x="-1093.1416">
          <tspan
             id="tspan4273"
             style="letter-spacing:19.99999809px">P R</tspan>
        </text>
        <g
           style="fill:#868ceb;fill-opacity:1"
           transform="matrix(0.36294065,0,0,-0.36859395,-958.98918,112.95407)"
           id="g3048-1-9">
          <path
             inkscape:connector-curvature="0"
             d="M 0,0 10.682,0 4.866,-5.748 3.63,-5.741 C 3.319,-5.34 2.958,-4.854 2.546,-4.254 L 0,0 Z M 0.17,-16.548 0.168,-16.41 0.241,-16.621 0.17,-16.548 Z M -4.349,7.257 6.215,2.613 -1.566,2.613 -4.349,7.257 Z M -10.95,18.272 -0.521,18.272 -7.07,11.801 -10.95,18.272 Z M -12.129,20.242 -15.203,25.375 -4.99,20.884 -12.129,20.884 -12.129,20.242 Z M -18.113,30.232 -21.896,36.544 -11.726,36.544 -18.113,30.232 Z M -22.024,27.883 C -22.559,28.357 -23.104,28.819 -23.663,29.272 L -22.845,28.697 -21.783,27.663 C -21.864,27.734 -21.944,27.812 -22.024,27.883 M -16.194,39.157 -23.331,39.157 -23.331,38.943 -26.059,43.494 -16.194,39.157 Z M -27.761,50.042 -31.136,52.794 -30.87,53.009 -24.757,53.012 -26.018,51.765 -27.518,52.99 -28.194,52.437 -26.632,51.159 -27.761,50.042 Z M -27.259,39.549 -27.463,39.317 C -27.582,39.402 -27.701,39.485 -27.816,39.565 -28.728,40.193 -29.676,40.78 -30.641,41.343 L -30.462,41.571 C -29.988,42.158 -28.707,42.241 -27.756,41.65 -26.806,41.065 -26.891,39.969 -27.259,39.549 M -30.824,51.448 -28.371,49.44 -29.155,48.664 -30.824,51.448 Z M -35.097,43.757 C -35.198,43.811 -35.303,43.863 -35.408,43.916 L -33.841,45.961 C -33.159,46.847 -31.45,47.053 -30.541,46.449 -29.633,45.846 -29.303,44.764 -30.084,43.788 L -31.615,41.898 C -32.763,42.543 -33.93,43.156 -35.097,43.757 M -40.109,46.204 -37.185,50.968 C -36.389,52.269 -34.664,52.316 -33.705,51.802 -32.77,51.303 -32.261,50.102 -33.165,48.846 L -36.37,44.408 C -37.597,45.026 -38.84,45.632 -40.109,46.204 M -43.111,47.461 C -43.691,47.685 -44.281,47.895 -44.872,48.098 L -42.717,51.947 C -42.162,52.933 -40.728,53.046 -39.83,52.699 -38.977,52.364 -38.332,51.271 -38.937,50.315 L -41.221,46.69 C -41.844,46.958 -42.475,47.217 -43.111,47.461 M -45.916,48.448 C -47.375,48.922 -48.847,49.351 -50.33,49.754 L -49.48,51.458 C -49.064,52.31 -48.204,52.711 -47.385,52.809 L -46.952,52.453 -46.524,52.802 C -46.377,52.783 -46.242,52.752 -46.117,52.713 -45.277,52.45 -44.397,51.181 -45,50.104 L -45.916,48.448 Z M -51.011,50.82 -51.384,50.038 C -51.445,50.055 -51.506,50.072 -51.567,50.087 -52.868,50.434 -54.177,50.749 -55.489,51.048 L -55.092,51.849 C -54.919,52.142 -54.729,52.377 -54.521,52.561 L -54.412,52.652 C -54.216,52.802 -54.015,52.917 -53.797,52.99 L -52.207,52.99 C -52.117,52.968 -52.033,52.956 -51.946,52.927 -50.769,52.526 -50.673,51.533 -51.011,50.82 M -57.25,56.612 -55.477,58.056 -55.492,55.363 -57.25,56.612 Z M -55.505,53.563 -61.012,53.558 -57.89,56.095 -55.501,54.396 -55.505,53.563 Z M -56.544,51.408 -56.575,51.293 C -57.925,51.588 -59.279,51.86 -60.644,52.109 L -60.521,52.323 C -60.329,52.669 -59.901,52.891 -59.406,52.99 L -59.387,52.99 -58.035,52.99 C -57.979,52.981 -57.925,52.971 -57.874,52.958 -56.996,52.737 -56.374,51.947 -56.544,51.408 M -61.905,58.946 -58.615,56.609 -61.93,53.914 -61.905,58.946 Z M -63.148,65.456 -66.192,62.977 -69.671,65.447 -69.671,65.716 -63.146,65.716 -63.148,65.456 Z M -63.168,60.824 -65.469,62.461 -63.153,64.347 -63.168,60.824 Z M -63.179,59.157 -65.751,57.067 -69.138,59.475 -66.114,61.938 -63.173,59.849 -63.179,59.157 Z M -63.197,55.249 -65.03,56.554 -63.181,58.056 -63.197,55.249 Z M -63.206,53.556 -68.72,53.548 -65.676,56.027 -63.201,54.268 -63.206,53.556 Z M -69.671,64.461 -66.838,62.452 -69.662,60.153 -69.671,64.461 Z M -69.652,54.19 -69.662,58.86 -66.399,56.539 -69.652,53.896 -69.652,54.134 -69.615,54.162 -69.652,54.19 Z M -70.928,53.548 -72.595,53.546 -73.024,53.548 C -74.266,53.603 -75.446,53.642 -76.276,53.666 L -73.47,55.949 -70.928,54.128 -70.928,53.548 Z M -76.835,52.616 -76.835,52.649 C -76.524,52.642 -76.17,52.629 -75.779,52.616 L -76.835,52.616 Z M -77.306,58.701 -74.193,56.468 -77.346,53.902 -77.306,58.701 Z M -78.087,78 -84.435,78 -84.435,84.3 -71.344,84.3 -71.344,78 -77.906,78 -78.087,78 Z M -77.99,74.525 -78.007,74.525 -78.007,74.542 -77.99,74.542 -77.99,74.525 Z M -79.767,52.653 C -79.018,52.682 -78.416,52.7 -78.083,52.711 L -78.034,52.669 -79.767,52.653 Z M -83.404,53.546 -84.798,53.546 -81.837,55.911 -79.094,53.68 C -80.058,53.652 -81.424,53.609 -82.823,53.548 L -83.404,53.546 Z M -85.06,58.535 -82.517,56.464 -85.066,54.414 -85.06,58.535 Z M -89.624,51.917 -96.109,50.724 -102.477,49.417 -109.839,47.298 -118.055,43.741 -124.837,40.07 -129.858,36.869 C -128.959,37.594 -128.079,38.273 -127.362,38.767 -125.151,40.283 -122.683,41.596 -120.202,42.877 -117.64,44.198 -115.056,45.472 -112.345,46.516 -109.679,47.536 -106.88,48.341 -104.048,49.09 -100.986,49.902 -97.865,50.581 -94.718,51.149 -92.087,51.624 -89.423,52.024 -86.76,52.275 -86.57,52.29 -86.368,52.308 -86.157,52.326 L -89.624,51.917 Z M -129.095,53.012 -129.596,52.602 -130.009,53.012 -129.095,53.012 Z M -143.604,39.816 -139.997,45.683 -130.378,45.683 -143.604,39.816 Z M -132.538,39.157 -138.571,39.157 -130.378,42.759 -132.538,39.157 Z M -137.429,30.996 -143.041,36.544 -134.099,36.544 -137.429,30.996 Z M -141.009,20.624 C -141.57,19.936 -142.111,19.236 -142.64,18.526 L -142.64,18.749 -138.349,25.907 -136.455,26.741 -136.571,27.217 -135.635,26.358 C -137.561,24.539 -139.378,22.632 -141.009,20.624 M -143.399,17.475 -142.923,18.272 -142.823,18.272 C -143.019,18.01 -143.211,17.744 -143.399,17.475 M -149.774,20.884 -141.233,24.639 -143.483,20.884 -149.774,20.884 Z M -148.468,12.563 -154.245,18.272 -145.048,18.272 -148.468,12.563 Z M -160.859,11.747 -157.427,17.33 -151.776,11.747 -160.859,11.747 Z M -154.431,2.613 -160.979,2.613 -152.089,6.521 -154.431,2.613 Z M -159.435,-5.74 -159.638,-5.742 -165.45,0 -155.995,0 -159.435,-5.74 Z M -171.653,-5.806 -168.65,-0.925 -163.751,-5.765 -171.653,-5.806 Z M -180.229,-5.854 -171.045,-1.814 -173.501,-5.815 -180.229,-5.854 Z M -186.888,-5.887 -182.614,1.291 -182.614,0 -173.384,0 -186.656,-5.886 -186.888,-5.887 Z M -178.278,8.582 -172.233,2.613 -181.829,2.613 -178.278,8.582 Z M -172.2,18.798 -172.2,18.272 -162.181,18.272 -175.565,12.335 -175.847,11.747 -176.394,11.747 -172.2,18.798 Z M -167.282,27.061 -161.028,20.884 -170.958,20.884 -167.282,27.061 Z M -166.598,28.211 -166.598,28.151 -166.661,28.106 -166.598,28.211 Z M -160.995,37.626 -160.995,36.544 -150.976,36.544 -164.36,30.609 -164.64,30.02 -165.521,30.02 -160.995,37.626 Z M -156.286,45.54 -149.825,39.157 -160.085,39.157 -156.286,45.54 Z M -155.677,46.563 -155.393,46.567 -155.393,46.423 -156.016,45.994 -155.677,46.563 Z M -153.021,51.029 -151.882,50.098 -154.097,48.293 -154.649,48.293 -153.021,51.029 Z M -151.832,53.022 -151.46,53.022 -151.537,52.958 -149.96,51.669 -151.212,50.647 -152.583,51.765 -151.832,53.022 Z M -149.792,56.456 -149.792,54.819 -147.974,54.819 -147.974,53.606 -151.485,53.609 -149.792,56.456 Z M -147.974,59.512 -147.974,57.429 -149.212,57.429 -147.974,59.512 Z M -146.425,51.866 -147.995,51.17 -148.607,51.67 -147.399,52.653 -146.425,51.866 Z M -146.403,65.716 -146.519,65.526 -146.755,65.716 -146.403,65.716 Z M -145.872,84.3 -138.071,84.3 -140.788,78 -145.872,78 -145.872,84.3 Z M -136.712,84.3 -133.56,84.3 -133.56,79.55 -136.735,78 -139.426,78 -136.712,84.3 Z M -133.767,91.134 -133.521,91.126 -133.555,91.022 -133.279,91.022 -129.999,88.55 -134.88,88.55 -133.767,91.134 Z M -132.965,92.996 -133.044,92.656 -133.325,92.16 -132.965,92.996 Z M -129.251,101.609 -129.251,101.625 -129.231,101.641 -125.97,111.006 -125.97,111.024 -120.46,129.276 -115.269,145.984 -115.071,145.984 -115.505,144.907 -107.624,137.959 -119.401,130.595 -119.879,130.595 -119.984,130.259 -120.072,130.338 -120.396,128.988 -120.924,127.681 -112.373,120.06 -125.433,111.761 -125.66,111.761 -126.433,109.307 -125.967,109.307 -126.067,109.058 -117.521,101.625 -131.863,93.479 -132.163,93.479 -132.61,93.814 -129.251,101.609 Z M -114.618,148.127 -113.598,147.29 -113.915,147.028 -114.949,147.028 -114.618,148.127 Z M -113.21,149.48 -112.07,148.54 -113.218,147.599 -114.362,148.537 -113.21,149.48 Z M -114.013,150.142 -113.598,149.801 -114.286,149.237 -114.013,150.142 Z M -113.834,150.731 -112.462,150.731 -113.218,150.111 -113.863,150.64 -113.834,150.731 Z M -113.511,151.798 -113.485,151.775 -113.519,151.775 -113.511,151.798 Z M -110.668,161.407 -107.998,157.163 -113.293,152.531 -110.668,161.407 Z M -104.607,151.775 -111.976,151.775 -107.22,155.928 -104.607,151.775 Z M -101.792,160.669 -103.571,152.933 -106.073,156.93 -101.792,160.669 Z M -105.675,172.333 -105.61,172.381 -89.68,172.381 -89.656,172.362 -105.675,172.333 Z M -105.159,187.762 -105.095,187.698 -105.271,186.692 -104.624,187.229 -97.339,179.993 -103.862,175.105 -107.464,175.105 -105.159,187.762 Z M -107.563,172.329 -107.966,172.329 -107.956,172.381 -107.495,172.381 -107.563,172.329 Z M -105.022,188.516 -105.022,188.531 -102.191,205.273 -102.111,205.189 -102.156,204.372 -101.704,204.761 -94.521,197.2 -104.477,188.925 -104.629,188.925 -104.671,188.966 -104.699,188.925 -104.845,188.925 -104.845,188.691 -104.944,188.536 -104.948,188.531 -104.948,188.526 -105.048,188.367 -105.022,188.516 Z M -102.063,206.032 -102.079,205.732 -102.119,205.711 -102.063,206.032 Z M -102.019,206.299 -101.998,206.299 -101.998,206.314 -99.772,223.884 -99.752,223.902 -98.038,241.016 -98.038,241.031 -96.607,258.245 -95.157,274.394 -95.157,274.411 -93.842,290.807 -93.842,290.824 -92.913,306.312 -92.772,306.218 -92.772,305.702 -92.594,305.704 -92.634,305.347 -86.228,298.301 -93.228,291.103 -93.516,291.103 -93.545,291.13 -93.549,291.103 -93.724,291.1 -93.724,290.132 -93.808,289.669 -93.611,289.45 -93.624,289.191 -93.496,289.322 -86.996,282.095 -94.628,274.677 -94.941,275.009 -94.988,274.606 -95.135,274.606 -95.135,273.302 -95.026,273.302 -95.157,272.646 -94.702,273.083 -87.95,265.855 -95.974,258.534 -96.419,259.015 -96.534,257.396 -96.506,257.365 -96.634,256.27 -96.019,256.838 -88.996,249.238 -97.104,241.342 -97.685,241.343 -97.931,241.604 -98.024,240.072 -97.772,239.807 -97.945,239.07 -97.491,239.506 -90.374,231.944 -98.9,224.233 -99.368,224.768 -99.372,224.049 -99.554,224.049 -99.554,222.743 -99.464,222.743 -99.636,222.034 -98.998,222.612 -92.038,214.707 -101.556,206.477 -101.921,206.477 -101.921,206.162 -102.063,206.037 -102.019,206.299 Z M -92.099,319.886 -85.751,313.845 -92.888,306.73 -92.099,319.886 Z M -92.014,321.305 -91.999,321.292 -91.999,321.171 -92.021,321.192 -92.014,321.305 Z M -91.976,322.033 -91.221,334.301 -85.628,328.377 -91.906,322.017 -91.976,322.017 -91.976,322.033 Z M -91.137,335.669 -90.964,335.477 -90.964,335.411 -90.902,335.411 -90.644,335.133 -91.192,334.789 -91.137,335.669 Z M -91.115,336.036 -91.084,336.014 -91.118,335.993 -91.115,336.036 Z M -90.336,348.796 -84.628,342.791 -91.091,336.439 -90.336,348.796 Z M -90.319,349.028 -90.242,348.972 -90.327,348.919 -90.319,349.028 Z M -90.28,349.67 -89.638,360.994 -89.55,360.904 -89.55,360.829 -89.479,360.829 -84.192,355.461 -90.285,349.607 -90.28,349.67 Z M -89.614,361.411 -89.555,361.37 -89.618,361.328 -89.614,361.411 Z M -88.958,372.959 -83.894,367.503 -89.589,361.857 -88.958,372.959 Z M -88.921,373.606 -88.746,373.49 -88.936,373.374 -88.921,373.606 Z M -88.337,384.618 -83.651,379.432 -88.894,374.122 -88.337,384.618 Z M -88.294,385.455 -88.122,385.026 -88.32,384.903 -88.294,385.455 Z M -87.76,395.447 -83.234,390.612 -88.279,385.701 -87.76,395.447 Z M -87.723,396.173 -87.544,396.053 -87.737,395.933 -87.723,396.173 Z M -87.395,406.092 -83.041,401.359 -87.709,396.587 -87.395,406.092 Z M -87.385,406.385 -87.331,406.351 -87.386,406.317 -87.385,406.385 Z M -87.077,415.763 -82.848,411.363 -87.103,407.033 -87.263,407.032 -87.263,406.869 -87.37,406.758 -87.077,415.763 Z M -86.955,416.265 -87.062,416.195 -87.062,416.265 -86.955,416.265 Z M -85.739,452.691 C -85.104,454.014 -83.548,456.258 -81.962,457.623 -80.999,458.451 -79.941,458.894 -79.261,459.114 L -79.261,459.056 -78.812,459.056 -78.812,448.568 -87.272,448.568 C -87.062,449.227 -86.282,451.563 -85.739,452.691 M -78.483,415.805 -82.158,412.066 -86.188,416.265 -78.483,416.265 -78.483,415.805 Z M -77.331,272.867 -78.228,273.485 -78.228,273.848 -78.071,273.943 -78.228,274.114 -78.228,274.639 -78.6,274.639 -78.007,287.92 -77.331,272.867 Z M -77.513,298.394 -77.513,305.594 -77.339,305.767 -63.818,305.71 -70.482,298.383 -77.384,305.008 -77.493,303.623 -71.208,297.584 -77.095,291.118 -77.186,291.118 -77.513,298.377 -77.513,298.394 Z M -77.513,306.915 -77.506,306.922 -77.369,306.797 -77.369,306.192 -77.396,306.208 -77.396,306.812 -77.513,306.812 -77.513,306.915 Z M -77.513,319.513 -77.383,319.647 -76.678,318.902 -75.953,319.356 -71.026,314.452 -77.513,307.386 -77.513,319.513 Z M -77.513,335.195 -77.383,335.323 -71.128,328.988 -77.383,322.171 -77.513,322.309 -77.513,335.195 Z M -77.513,348.413 -77.383,348.537 -71.524,342.779 -77.383,336.622 -77.513,336.754 -77.513,348.413 Z M -77.513,360.526 -77.383,360.647 -71.975,355.443 -77.383,349.948 -77.513,350.075 -77.513,360.526 Z M -77.513,372.43 -77.383,372.554 -72.256,367.479 -77.383,361.953 -77.513,362.088 -77.513,372.43 Z M -77.369,373.591 -77.369,373.508 -77.383,373.499 -77.396,373.508 -77.396,373.591 -77.383,373.598 -77.369,373.591 Z M -77.513,384.252 -77.383,384.38 -72.484,379.417 -77.383,373.986 -77.513,374.126 -77.513,384.252 Z M -77.369,385.119 -77.369,385.102 -77.383,385.094 -77.396,385.102 -77.396,385.119 -77.383,385.127 -77.369,385.119 Z M -77.513,394.82 -77.383,394.943 -72.92,390.583 -77.383,385.815 -77.513,385.95 -77.513,394.82 Z M -77.513,405.588 -77.383,405.716 -73.1,401.345 -77.383,396.694 -77.513,396.831 -77.513,405.588 Z M -77.513,415.389 -77.383,415.518 -73.296,411.352 -77.383,407.096 -77.513,407.226 -77.513,415.389 Z M -77.175,459.056 -76.73,459.056 -76.73,459.11 C -76.046,458.889 -74.994,458.445 -74.035,457.623 -72.449,456.258 -70.894,454.014 -70.258,452.691 -69.713,451.563 -68.938,449.227 -68.724,448.568 L -77.175,448.568 -77.175,459.056 Z M -71.917,411.363 -68.877,414.527 -68.664,408.052 -71.917,411.363 Z M -68.331,397.886 -71.724,401.359 -68.56,404.804 -68.331,397.886 Z M -67.784,386.978 -71.527,390.618 -68.166,394.206 -67.784,386.978 Z M -72.21,389.89 -67.894,385.676 -76.155,385.676 -72.21,389.89 Z M -68.364,395.447 -72.238,391.309 -76.481,395.434 -68.364,395.447 Z M -72.396,400.627 -68.344,396.49 -76.212,396.479 -72.396,400.627 Z M -68.816,405.995 -72.425,402.075 -76.294,406.031 -68.816,405.995 Z M -72.61,412.066 -76.734,416.265 -68.934,416.265 -68.924,415.905 -72.61,412.066 Z M -72.604,410.646 -69.069,407.039 -76.034,407.074 -72.604,410.646 Z M -71.821,380.149 -76.25,384.632 -67.779,384.632 -71.821,380.149 Z M -67.588,383.335 -67.17,375.437 -71.115,379.432 -67.588,383.335 Z M -76.058,373.961 -71.776,378.7 -67.098,373.961 -76.058,373.961 Z M -66.479,363.146 -70.874,367.503 -66.965,371.714 -66.479,363.146 Z M -66.289,359.816 -65.778,350.854 -70.575,355.461 -66.289,359.816 Z M -65.586,347.583 -64.982,337.723 -70.138,342.791 -65.586,347.583 Z M -64.699,333.081 -64.098,323.271 -69.138,328.377 -64.699,333.081 Z M -63.181,308.032 -69.647,314.475 -63.942,320.689 -63.181,308.032 Z M -70.316,313.746 -63.292,306.752 -76.686,306.809 -70.316,313.746 Z M -65.042,320.97 -70.356,315.181 -76.15,320.954 -76.146,320.958 -65.042,320.97 Z M -69.815,327.66 -64.241,322.015 -75.161,322.004 -69.815,327.66 Z M -65.224,335.421 -70.464,329.715 -76.174,335.501 -65.224,335.421 Z M -70.813,342.081 -65.099,336.464 -76.075,336.544 -70.813,342.081 Z M -65.97,348.615 -70.848,343.489 -76.117,348.668 -65.97,348.615 Z M -71.264,354.76 -65.963,349.66 -76.232,349.713 -71.264,354.76 Z M -66.672,360.831 -71.285,356.144 -76.178,360.843 -66.672,360.831 Z M -71.581,368.202 -76.339,372.918 -67.203,372.918 -71.581,368.202 Z M -71.546,366.778 -66.594,361.875 -76.088,361.888 -71.546,366.778 Z M -62.171,291.103 -62.896,291.103 -69.642,297.577 -62.995,304.885 -62.171,291.103 Z M -60.854,274.61 -60.999,274.61 -61.012,274.93 -68.478,281.794 -62.005,288.992 -60.854,274.61 Z M -59.603,260.649 -66.952,265.714 -60.663,272.443 -59.603,260.649 Z M -59.407,258.49 -73.7,258.49 -67.578,265.043 -59.495,259.464 -59.407,258.49 Z M -57.98,241.342 -59.704,241.337 -59.454,242.325 -66.327,248.632 -59.227,256.322 -57.98,241.342 Z M -56.268,224.159 -56.367,224.049 -70.847,224.049 -72.046,224.049 -65.979,230.495 -59.52,224.159 -59.543,225.687 -65.251,231.274 -57.774,239.216 -56.268,224.159 Z M -56.067,222.652 -54.171,207.705 -63.02,214.753 -56.067,222.652 Z M -51.093,189.245 -60.605,196.823 -53.616,204.178 -51.093,189.245 Z M -48.656,175.796 -56.703,180.715 -50.649,186.73 -48.656,175.796 Z M -48.026,172.329 -65.11,172.358 -65.091,172.381 -48.036,172.381 -48.026,172.329 Z M -52.881,153.117 -57.414,156.996 -54.489,160.717 -52.881,153.117 Z M -48.707,156.94 -51.204,152.977 -52.974,160.669 -48.707,156.94 Z M -47.547,155.928 -42.791,151.775 -50.162,151.775 -47.547,155.928 Z M -44.933,160.08 -43.13,153.979 -46.77,157.163 -44.933,160.08 Z M -42.18,150.731 -42.939,150.108 -43.691,150.731 -42.18,150.731 Z M -41.65,149.047 -42.561,149.796 -42.014,150.246 -41.65,149.047 Z M -41.405,148.222 -41.046,147.028 -42.239,147.028 -42.549,147.283 -41.41,148.228 -41.405,148.222 Z M -36.084,131.043 -47.14,137.959 -40.149,144.126 -36.084,131.043 Z M -30.463,112.479 -42.396,120.06 -34.796,126.831 -30.463,112.479 Z M -26.761,101.641 -26.742,101.625 -26.742,101.609 -23.345,93.729 -37.248,101.625 -29.194,108.626 -26.761,101.641 Z M -21.113,88.55 -24.767,88.55 -22.01,90.628 -21.113,88.55 Z M -19.281,84.3 -16.567,78 -18.034,78 -22.435,80.146 -22.435,84.3 -19.281,84.3 Z M -11.576,48.293 -14.083,48.293 -14.81,48.877 -17.341,53.009 -16.421,52.602 -16.698,52.37 -11.576,48.293 Z M -9.747,84.294 -9.747,75.934 -12.619,75.934 -16.331,84.294 -9.747,84.294 Z M -10.789,62.72 -10.249,63.253 -9.324,61.696 -10.789,62.72 Z M -13.608,64.688 -12.944,64.688 -13.221,64.417 -13.608,64.688 Z M -9.294,59.146 -11.195,57.618 -13.985,59.563 -11.372,62.144 -9.294,60.685 -9.294,59.146 Z M -8.021,54.819 -5.23,54.819 -4.514,53.61 -8.021,53.606 -8.021,54.819 Z M -8.021,59.506 -6.784,57.429 -8.021,57.429 -8.021,59.506 Z M -2.642,50.463 -5.115,52.437 -4.441,52.99 -8.259,52.958 -5.229,50.486 -8.197,51.803 -8.976,52.437 -8.34,52.958 -10.757,52.938 -10.94,53.02 -4.164,53.022 -2.642,50.463 Z M -6.62,48.293 -10.224,48.293 -14.659,51.828 -6.62,48.293 Z M -10.05,57.429 -9.294,58.033 -9.294,57.429 -10.05,57.429 Z M -9.294,54.819 -9.294,53.606 -12.257,53.603 -13.918,54.341 -13.319,54.819 -9.294,54.819 Z M -15.635,62.025 -15.61,64.688 -14.997,64.688 -13.797,63.845 -15.635,62.025 Z M -14.679,54.819 -14.791,54.728 -14.996,54.819 -14.679,54.819 Z M -15.681,57.429 -15.676,57.895 -14.566,58.99 -12.327,57.429 -15.681,57.429 Z M -8.936,39.302 -12.853,45.683 -2.482,45.683 -8.936,39.302 Z M 4.089,39.157 -4.942,39.157 0.745,44.773 4.089,39.157 Z M 5.64,36.544 9.021,30.86 -3.791,36.544 5.64,36.544 Z M 11.739,26.296 14.961,20.884 6.259,20.884 11.739,26.296 Z M 16.513,18.272 19.777,12.79 7.413,18.272 16.513,18.272 Z M 13.474,2.76 9.562,9.139 19.926,9.139 13.474,2.76 Z M 22.736,7.817 25.832,2.613 17.463,2.613 22.736,7.817 Z M 27.385,0 30.531,-5.284 18.617,0 27.385,0 Z M 18.734,-5.822 16.277,-1.814 25.479,-5.859 18.734,-5.822 Z M 7.697,9.139 11.326,3.236 -1.977,9.139 7.697,9.139 Z M 5.073,16.46 15.787,11.747 7.961,11.747 5.073,16.46 Z M 2.664,17.33 6.095,11.747 -2.991,11.747 2.664,17.33 Z M -3.534,27.411 0.079,21.528 -13.181,27.411 -3.534,27.411 Z M -5.142,30.02 -14.194,30.02 -8.561,35.584 -5.142,30.02 Z M 8.722,27.411 2.269,21.031 -1.642,27.411 8.722,27.411 Z M -3.247,30.02 -6.137,34.733 4.585,30.02 -3.247,30.02 Z M -14.771,45.683 -11.164,39.816 -24.387,45.683 -14.771,45.683 Z M -22.656,51 -19.302,48.293 -21.771,48.293 -23.758,49.914 -22.656,51 Z M -22.93,54.819 -23.416,54.335 -23.415,54.819 -22.93,54.819 Z M -23.131,59.277 -22.408,58.106 -23.411,58.553 -23.411,59.049 -23.131,59.277 Z M -20.09,62.837 -22.283,61.063 -23.401,62.89 -23.399,64.688 -22.75,64.688 -20.09,62.837 Z M -19.444,63.363 -21.347,64.688 -17.804,64.688 -19.444,63.363 Z M -18.711,62.853 -16.886,64.327 -16.914,61.601 -18.711,62.853 Z M -19.746,57.964 -20.871,58.76 -21.829,60.325 -19.358,62.328 -16.995,60.683 -19.746,57.964 Z M -19.144,52.79 -19.114,52.746 C -19.114,52.735 -19.121,52.723 -19.131,52.717 -19.146,52.711 -19.163,52.704 -19.195,52.704 L -19.276,52.704 -19.276,52.801 -19.195,52.801 C -19.171,52.801 -19.153,52.796 -19.144,52.79 M -19.201,52.83 -19.276,52.83 -19.276,52.911 -19.214,52.911 -19.166,52.836 C -19.178,52.835 -19.187,52.83 -19.201,52.83 M -20.026,53.596 -19.784,53.837 -19.636,53.597 -20.026,53.596 Z M -20.324,52.774 -20.466,52.774 -20.395,52.904 -20.324,52.774 Z M -19.633,52.774 -19.56,52.904 -19.489,52.774 -19.633,52.774 Z M -19.473,52.742 -19.439,52.675 -19.384,52.675 -19.532,52.938 -19.588,52.938 -19.674,52.793 -19.784,52.885 -19.784,52.938 -19.837,52.938 -19.837,52.926 -19.92,52.99 -20.241,52.717 -20.367,52.938 -20.424,52.938 -20.572,52.675 -20.518,52.675 -20.481,52.742 -20.309,52.742 -20.277,52.685 -20.572,52.437 -17.294,49.79 -16.374,48.293 -17.925,48.293 -22.043,51.609 -20.618,53.015 -19.278,53.015 -19.23,52.938 -19.329,52.938 -19.329,52.675 -19.191,52.675 C -19.148,52.675 -19.114,52.682 -19.087,52.693 -19.087,52.697 -19.085,52.699 -19.085,52.7 L -18.623,51.947 -19.608,52.742 -19.473,52.742 Z M -24.369,49.311 -23.131,48.293 -25.401,48.293 -24.369,49.311 Z M -28.635,54.819 -24.69,54.819 -24.69,53.591 -30.157,53.588 -28.635,54.819 Z M -31.136,54.819 -29.994,54.819 -31.138,53.895 -31.136,54.819 Z M -25.13,78.463 -25.13,78 -30.107,78 -31.401,81.513 -25.13,78.463 Z M -25.13,81.461 -30.626,84.139 -30.412,84.3 -25.13,84.3 -25.13,81.461 Z M -26.532,62.766 -25.69,63.446 -24.681,61.801 -24.681,61.455 -26.532,62.766 Z M -28.788,60.935 -27.181,62.238 -24.681,60.472 -24.681,59.119 -24.685,59.118 -28.788,60.935 Z M -31.104,59.058 -29.671,58.427 -28.261,57.429 -31.133,57.429 -31.129,59.039 -31.104,59.058 Z M -29.248,64.688 -26.457,64.688 -26.145,64.182 -27.257,63.279 -29.248,64.688 Z M -27.904,62.754 -29.666,61.326 -31.122,61.972 -31.12,64.688 -30.641,64.688 -27.904,62.754 Z M -33.998,88.55 -34.908,91.022 -25.876,91.022 -29.17,88.55 -33.998,88.55 Z M -38.185,78 -38.185,78.444 -33.293,82.128 -31.775,78 -38.185,78 Z M -33.818,63.168 -32.395,64.329 -32.396,62.538 -33.818,63.168 Z M -35.413,55.564 -34.226,53.584 -37.865,53.578 -35.413,55.564 Z M -37.116,64.688 -33.313,64.688 -34.696,63.559 -36.903,64.537 -37.116,64.688 Z M -38.034,59.729 -37.948,59.798 -37.812,59.565 -38.034,59.729 Z M -38.772,59.127 -38.685,59.2 -36.778,57.843 -35.86,56.309 -38.828,53.899 -38.772,59.127 Z M -38.394,60.542 -38.76,60.243 -38.75,61.133 -38.394,60.542 Z M -35.738,83.619 -38.185,81.782 -38.185,84.3 -37.137,84.3 -35.738,83.619 Z M -44.736,91.022 -36.567,91.022 -35.657,88.55 -39.668,88.55 -44.736,91.022 Z M -42.223,62.713 -40.531,64.107 -40.523,64.093 -40.721,63.284 -40.001,62.97 -40.022,61.145 -42.223,62.713 Z M -42.493,57.196 -45.916,59.664 -42.863,62.181 -40.032,60.163 -40.044,59.197 -42.493,57.196 Z M -41.772,56.676 -40.057,58.079 -40.084,55.46 -41.772,56.676 Z M -42.42,56.149 -40.096,54.475 -40.106,53.578 -45.581,53.571 -42.42,56.149 Z M -46.452,59.06 -43.14,56.671 -46.526,53.909 -46.452,59.06 Z M -43.59,62.697 -46.433,60.35 -46.371,64.684 -43.59,62.697 Z M -40.979,64.853 -42.946,63.227 -46.357,65.66 -46.355,65.716 -40.696,65.716 -41.145,65.132 -40.979,64.853 Z M -48.027,84.3 -40.81,84.3 -40.81,79.813 -43.221,78 -45.828,78 -48.027,84.3 Z M -53.685,78 -53.685,84.3 -49.339,84.3 -47.137,78 -53.685,78 Z M -50.65,63.081 -54.156,65.611 -54.156,65.716 -47.629,65.716 -47.632,65.535 -50.65,63.081 Z M -49.933,62.563 -47.646,64.418 -47.696,60.952 -49.933,62.563 Z M -50.225,57.221 -53.573,59.601 -50.579,62.035 -47.713,59.97 -47.721,59.286 -50.225,57.221 Z M -49.498,56.705 -47.739,58.159 -47.777,55.483 -49.498,56.705 Z M -50.141,56.177 -47.792,54.508 -47.805,53.57 -53.304,53.565 -50.141,56.177 Z M -54.196,59.058 -50.864,56.691 -54.23,53.914 -54.196,59.058 Z M -54.16,64.623 -51.297,62.557 -54.188,60.206 -54.16,64.623 Z M -88.8,62.681 -86.323,64.687 -86.331,60.672 -88.8,62.681 Z M -89.468,56.957 -92.664,59.553 -89.48,62.132 -86.331,59.57 -86.334,59.455 -89.468,56.957 Z M -88.789,56.402 -86.336,58.36 -86.34,54.414 -88.789,56.402 Z M -92.791,54.306 -92.814,58.576 -90.153,56.409 -92.791,54.306 Z M -89.474,55.858 -86.635,53.548 -92.365,53.555 -89.474,55.858 Z M -90.159,62.684 -92.824,60.525 -92.843,64.868 -90.159,62.684 Z M -86.411,65.716 -89.479,63.234 -92.528,65.716 -86.411,65.716 Z M -99.435,84.3 -87.06,84.3 -87.06,78 -99.435,78 -99.435,84.3 Z M -96.521,56.433 -94.086,58.402 -94.068,54.436 -96.521,56.433 Z M -100.521,58.576 -97.88,56.433 -100.493,54.315 -100.521,58.576 Z M -97.865,62.688 -100.53,60.525 -100.56,64.882 -97.865,62.688 Z M -97.194,63.234 -100.249,65.716 -94.129,65.716 -97.194,63.234 Z M -94.092,59.617 -94.092,59.499 -97.199,56.983 -100.367,59.556 -97.186,62.137 -94.092,59.617 Z M -96.513,62.681 -94.116,64.626 -94.096,60.717 -96.513,62.681 Z M -104.054,52.927 C -103.966,52.955 -103.88,52.968 -103.792,52.99 L -102.201,52.99 C -101.706,52.821 -101.266,52.461 -100.909,51.849 L -100.509,51.048 C -101.819,50.749 -103.128,50.432 -104.425,50.087 -104.486,50.072 -104.55,50.054 -104.614,50.038 L -104.985,50.82 C -105.325,51.533 -105.229,52.526 -104.054,52.927 M -107.757,53.569 -104.884,55.896 -102.059,53.563 -107.757,53.569 Z M -109.88,52.713 C -108.904,53.02 -107.171,52.794 -106.518,51.458 L -105.666,49.753 C -107.146,49.351 -108.624,48.922 -110.082,48.445 L -110.995,50.104 C -111.599,51.181 -110.726,52.45 -109.88,52.713 M -117.06,50.315 C -117.664,51.271 -117.021,52.364 -116.165,52.697 -115.273,53.046 -113.834,52.937 -113.284,51.947 L -111.123,48.097 C -111.712,47.895 -112.299,47.685 -112.88,47.461 -113.519,47.215 -114.148,46.958 -114.774,46.69 L -117.06,50.315 Z M -122.831,48.848 C -123.737,50.104 -123.225,51.303 -122.294,51.802 -121.331,52.316 -119.61,52.269 -118.812,50.968 L -115.887,46.202 C -117.158,45.632 -118.401,45.025 -119.627,44.405 L -122.831,48.848 Z M -125.914,43.79 C -126.114,44.039 -126.238,44.297 -126.304,44.552 L -125.251,45.012 -125.577,46.36 C -125.538,46.393 -125.497,46.42 -125.455,46.449 -124.552,47.055 -122.84,46.849 -122.155,45.959 L -120.588,43.916 C -120.69,43.861 -120.794,43.811 -120.896,43.757 -122.065,43.156 -123.233,42.541 -124.383,41.897 L -125.914,43.79 Z M -128.24,41.653 C -127.291,42.241 -126.009,42.158 -125.538,41.569 L -125.356,41.342 C -126.321,40.778 -127.267,40.192 -128.181,39.565 -128.294,39.485 -128.414,39.402 -128.534,39.313 L -128.74,39.549 C -129.105,39.969 -129.192,41.065 -128.24,41.653 M -130.71,53.702 -129.336,54.819 -126.718,54.819 -125.196,53.585 -130.595,53.591 -130.71,53.702 Z M -131.311,50.092 -131.244,50.146 -130.683,49.589 -131.311,50.092 Z M -130.569,64.182 -131.317,62.963 -131.321,64.69 -131.194,64.69 -130.569,64.182 Z M -124.359,84.3 -124.146,84.139 -130.868,80.86 -130.868,84.3 -124.359,84.3 Z M -119.856,91.022 -120.77,88.55 -125.598,88.55 -128.89,91.022 -119.856,91.022 Z M -118.995,93.518 -127.112,93.491 -117.279,98.965 -118.995,93.518 Z M -114.021,109.307 -115.854,103.481 -122.479,109.307 -114.021,109.307 Z M -113.281,111.801 -121.513,111.772 -111.593,117.865 -113.281,111.801 Z M -108.744,128.1 -110.5,121.795 -117.598,128.129 -108.744,128.1 Z M -108.073,130.595 -115.011,130.595 -106.764,135.655 -108.073,130.595 Z M -104.095,145.984 -105.751,139.577 -113.013,145.984 -104.095,145.984 Z M -111.685,148.227 -110.548,147.29 -110.87,147.028 -112.521,147.028 -112.832,147.281 -111.685,148.227 Z M -110.536,149.799 -111.688,148.854 -112.829,149.792 -111.688,150.731 -111.671,150.731 -110.536,149.799 Z M -110.158,150.109 -110.915,150.731 -109.398,150.731 -110.158,150.109 Z M -107.482,149.796 -108.634,148.854 -109.778,149.796 -108.64,150.731 -108.624,150.731 -107.482,149.796 Z M -107.103,150.107 -107.868,150.731 -106.337,150.731 -107.103,150.107 Z M -104.429,149.799 -105.579,148.854 -106.724,149.792 -105.579,150.731 -105.563,150.731 -104.429,149.799 Z M -104.054,150.109 -104.804,150.731 -103.291,150.731 -104.054,150.109 Z M -101.374,149.796 -102.525,148.854 -103.669,149.796 -102.534,150.731 -102.516,150.731 -101.374,149.796 Z M -97.35,156.996 -101.886,153.117 -100.274,160.717 -97.35,156.996 Z M -96.222,157.96 -99.177,161.718 -91.839,161.711 -96.222,157.96 Z M -94.499,149.796 -93.362,150.731 -93.343,150.731 -93.239,150.644 -93.524,148.994 -94.499,149.796 Z M -93.704,147.938 -93.862,147.028 -94.183,147.028 -94.499,147.29 -93.704,147.938 Z M -94.884,147.605 -96.023,148.54 -94.878,149.484 -93.733,148.544 -94.884,147.605 Z M -103.543,137.629 -94.586,143.124 -96.788,131.666 -103.543,137.629 Z M -108.331,119.865 -97.865,126.295 -100.621,112.983 -108.331,119.865 Z M -113.262,101.198 -101.781,107.586 -104.83,93.784 -113.262,101.198 Z M -106.481,88.55 -108.886,88.55 -105.989,89.957 -106.481,88.55 Z M -110.166,78 -111.546,78 -115.185,80.731 -115.185,84.3 -107.966,84.3 -110.166,78 Z M -111.937,56.442 -109.534,58.405 -109.478,54.433 -111.937,56.442 Z M -112.612,55.888 -109.774,53.571 -115.45,53.576 -112.612,55.888 Z M -113.293,56.442 -115.896,54.317 -115.944,58.603 -113.293,56.442 Z M -112.612,63.39 -114.439,64.896 -114.636,65.716 -109.799,65.716 -112.612,63.39 Z M -109.55,59.747 -109.549,59.497 -112.612,56.994 -115.837,59.619 -112.612,62.278 -109.55,59.747 Z M -111.942,62.834 -109.623,64.748 -109.569,60.875 -111.942,62.834 Z M -114.046,63.284 -114.101,63.504 -113.289,62.833 -115.964,60.624 -115.985,62.433 -114.046,63.284 Z M -115.204,65.716 -115.276,65.685 -115.302,65.716 -115.204,65.716 Z M -117.347,93.52 -115.386,99.769 -108.233,93.547 -117.347,93.52 Z M -111.64,111.806 -109.947,117.898 -103.144,111.834 -111.64,111.806 Z M -103.993,109.307 -114.214,103.503 -112.39,109.307 -103.993,109.307 Z M -99.766,128.068 -108.697,122.394 -107.113,128.095 -99.766,128.068 Z M -99.274,130.595 -106.447,130.595 -105.118,135.748 -99.274,130.595 Z M -101.382,147.291 -101.7,147.028 -103.352,147.028 -103.661,147.281 -102.516,148.227 -101.382,147.291 Z M -99.852,148.544 -101.001,147.602 -102.137,148.534 -100.99,149.48 -99.852,148.544 Z M -100.229,150.731 -100.989,150.111 -101.739,150.731 -100.229,150.731 Z M -101.251,151.775 -96.466,155.869 -93.25,151.775 -101.251,151.775 Z M -95.635,150.731 -94.122,150.731 -94.882,150.109 -95.635,150.731 Z M -97.551,149.792 -96.407,150.731 -96.394,150.731 -95.258,149.799 -96.407,148.854 -97.551,149.792 Z M -95.589,147.028 -97.242,147.028 -97.551,147.283 -96.407,148.227 -95.271,147.29 -95.589,147.028 Z M -94.792,145.984 -103.95,140.258 -102.47,145.984 -94.792,145.984 Z M -99.461,148.228 -98.319,147.29 -98.634,147.028 -100.308,147.028 -100.614,147.281 -99.461,148.228 Z M -98.319,149.799 -99.467,148.858 -100.604,149.796 -99.468,150.731 -99.454,150.731 -98.319,149.799 Z M -97.936,149.48 -96.792,148.54 -97.938,147.602 -99.08,148.54 -97.936,149.48 Z M -97.94,150.111 -98.694,150.731 -97.186,150.731 -97.94,150.111 Z M -105.196,148.54 -104.048,149.484 -102.906,148.545 -104.056,147.605 -105.196,148.54 Z M -105.576,148.23 -104.433,147.295 -104.762,147.028 -106.413,147.028 -106.724,147.283 -105.576,148.23 Z M -108.252,148.54 -107.101,149.484 -105.956,148.544 -107.108,147.602 -108.252,148.54 Z M -110.162,147.605 -111.302,148.54 -110.153,149.484 -109.015,148.545 -110.162,147.605 Z M -108.63,148.23 -107.487,147.291 -107.806,147.028 -109.456,147.028 -109.778,147.29 -108.63,148.23 Z M -119.107,88.55 -118.198,91.022 -110.028,91.022 -115.099,88.55 -119.107,88.55 Z M -119.675,56.453 -117.216,58.482 -117.168,54.424 -119.675,56.453 Z M -121.032,54.819 -120.231,54.819 -120.231,55.802 -117.487,53.578 -121.771,53.581 -121.032,54.819 Z M -123.161,59.279 -119.524,60.877 -121.359,57.818 -123.161,59.279 Z M -117.81,79.368 -117.81,78 -122.994,78 -121.472,82.128 -117.81,79.368 Z M -117.81,82.706 -119.027,83.619 -117.81,84.212 -117.81,82.706 Z M -119.78,63.687 -120.452,63.39 -122.048,64.69 -118.546,64.69 -119.78,63.687 Z M -117.392,60.892 -117.246,61.14 -117.241,60.768 -117.392,60.892 Z M -117.229,59.652 -117.226,59.585 -119.103,58.035 -117.838,60.149 -117.229,59.652 Z M -123.404,64.69 -121.331,62.998 -123.597,61.993 -123.6,64.69 -123.404,64.69 Z M -124.657,78 -130.585,78 -123.364,81.513 -124.657,78 Z M -124.858,54.819 -124.858,54.414 -125.356,54.819 -124.858,54.819 Z M -124.866,58.452 -124.862,57.429 -126.125,57.429 -124.866,58.452 Z M -127.366,62.688 -124.906,64.69 -124.874,64.69 -124.869,61.429 -125.479,61.158 -127.366,62.688 Z M -128.818,63.866 -128.313,64.69 -126.247,64.69 -128.04,63.234 -128.818,63.866 Z M -128.718,62.681 -130.374,61.337 -129.273,63.128 -128.718,62.681 Z M -130.692,54.819 -131.302,54.324 -131.306,54.819 -130.692,54.819 Z M -131.213,59.558 -128.044,62.136 -126.36,60.769 -130.46,58.949 -131.213,59.558 Z M -124.56,52.472 -126.384,49.427 -127.24,50.276 -124.56,52.472 Z M -127.868,53.011 -125.241,53.009 -127.853,50.878 -128.981,51.995 -127.806,52.958 -127.868,53.011 Z M -123.153,54.819 -123.305,54.566 -123.585,54.335 -123.585,54.819 -123.153,54.819 Z M -123.59,57.429 -123.59,58.525 -122.24,57.429 -123.59,57.429 Z M -102.259,78 -108.857,78 -106.654,84.3 -102.259,84.3 -102.259,78 Z M -104.93,63.265 -107.947,65.716 -101.925,65.716 -104.93,63.265 Z M -104.249,62.713 -101.832,64.687 -101.808,60.728 -104.249,62.713 Z M -108.29,60.524 -108.354,64.942 -105.606,62.713 -108.29,60.524 Z M -105.558,56.451 -108.2,54.31 -108.265,58.686 -105.558,56.451 Z M -101.792,58.402 -101.769,54.436 -104.204,56.447 -101.792,58.402 Z M -101.801,59.499 -104.877,57.004 -108.046,59.617 -104.93,62.159 -101.801,59.617 -101.801,59.499 Z M -92.763,153.555 -95.341,156.834 -91.671,159.972 -92.763,153.555 Z M -89.823,161.552 -85.292,157.392 -91.696,152.235 -90.173,161.25 -89.823,161.552 Z M -90.045,162.024 -90.022,162.153 -89.938,162.656 -89.169,162.656 -90.045,162.024 Z M -89.972,161.688 -90.084,161.78 -90.083,161.794 -89.972,161.688 Z M -95.562,179.89 -86.188,186.896 -88.515,175.105 -90.759,175.105 -95.562,179.89 Z M -92.418,175.105 -101.966,175.105 -96.517,179.176 -92.418,175.105 Z M -87.167,187.617 -96.384,180.707 -103.319,187.617 -87.167,187.617 Z M -86.653,188.925 -102.589,188.925 -93.686,196.323 -86.653,188.925 Z M -84.931,205.173 -93.624,197.947 -100.495,205.173 -84.931,205.173 Z M -84.798,206.477 -99.729,206.477 -91.26,213.822 -84.798,206.477 Z M -83.914,222.743 -82.747,222.743 -91.164,215.465 -97.583,222.743 -83.914,222.743 Z M -82.946,224.049 -83.914,224.049 -97.407,224.049 -89.589,231.106 -82.946,224.049 Z M -84.396,240.004 -84.396,239.971 -81.495,239.978 -89.536,232.704 -96.448,240.033 -84.396,240.004 Z M -81.673,241.305 -95.589,241.338 -88.237,248.416 -81.673,241.305 Z M -80.839,257.182 -88.145,250.067 -94.723,257.182 -80.839,257.182 Z M -81.068,258.49 -94.233,258.49 -87.164,265.015 -81.068,258.49 Z M -79.759,273.333 -87.077,266.652 -93.338,273.307 -79.759,273.333 Z M -80.286,274.636 -93.121,274.61 -86.242,281.259 -80.286,274.636 Z M -79.059,289.81 -86.15,282.917 -92.345,289.798 -79.059,289.81 Z M -79.689,291.115 -91.747,291.103 -85.479,297.481 -79.689,291.115 Z M -78.97,305.76 -85.411,299.138 -91.388,305.708 -78.97,305.76 Z M -78.776,291.846 -84.66,298.313 -78.483,304.6 -78.483,298.394 -78.483,298.377 -78.776,291.846 Z M -78.122,268.747 -78.726,271.812 -78.68,272.853 -78.343,273.16 -77.932,272.191 -77.502,271.896 -78.122,268.747 Z M -76.857,262.324 -77.867,267.454 -77.232,270.678 -76.857,262.324 Z M -74.914,274.636 -69.204,280.987 -62.318,274.613 -74.914,274.636 Z M -76.338,272.182 -76.389,273.335 -61.431,273.307 -67.934,266.391 -76.338,272.182 Z M -75.377,258.49 -75.456,258.49 -75.636,259.336 -75.743,258.937 -76.285,271.057 -68.565,265.725 -75.377,258.49 Z M -67.206,249.438 -75.075,256.656 -75.135,256.955 -74.922,257.182 -60.044,257.182 -67.206,249.438 Z M -73.095,241.305 -67.036,247.864 -59.936,241.337 -73.095,241.305 Z M -74.149,239.979 -70.368,239.971 -70.368,240.004 -58.549,240.033 -66.063,232.066 -74.149,239.979 Z M -73.489,224.194 -73.888,225.222 -74.792,238.911 -74.731,239.076 -66.795,231.293 -73.489,224.194 Z M -63.928,215.478 -73.05,222.743 -70.847,222.743 -57.519,222.743 -63.928,215.478 Z M -70.304,206.477 -63.681,214.002 -54.232,206.477 -70.304,206.477 Z M -61.518,197.55 -71.088,205.173 -70.688,205.173 -54.269,205.173 -61.518,197.55 Z M -68.11,188.925 -61.296,196.096 -52.294,188.925 -68.11,188.925 Z M -57.739,181.348 -67.995,187.617 -51.445,187.617 -57.739,181.348 Z M -57.434,179.989 -49.444,175.105 -62.348,175.105 -57.434,179.989 Z M -67.478,175.105 -69.871,187.221 -69.628,187.442 -58.468,180.621 -64.005,175.105 -67.478,175.105 Z M -64.489,153.377 -69.478,157.392 -65.749,160.816 -64.489,153.377 Z M -63.524,147.631 -63.425,147.028 -63.623,147.028 -63.942,147.29 -63.524,147.631 Z M -63.942,149.796 -63.89,149.837 -63.877,149.743 -63.942,149.796 Z M -65.469,148.54 -64.322,149.484 -63.757,149.021 -63.618,148.186 -64.327,147.605 -65.469,148.54 Z M -65.852,148.227 -64.714,147.29 -65.033,147.028 -66.686,147.028 -66.994,147.283 -65.852,148.227 Z M -68.522,148.54 -67.38,149.48 -66.234,148.54 -67.383,147.602 -68.522,148.54 Z M -68.904,148.228 -67.761,147.29 -68.079,147.028 -69.749,147.028 -70.057,147.281 -68.904,148.228 Z M -71.581,148.534 -70.435,149.48 -69.293,148.545 -70.445,147.602 -71.581,148.534 Z M -71.96,148.227 -70.823,147.291 -71.143,147.028 -72.795,147.028 -73.104,147.281 -71.96,148.227 Z M -74.644,148.545 -73.494,149.487 -72.348,148.545 -73.498,147.605 -74.644,148.545 Z M -75.022,148.235 -73.877,147.295 -74.205,147.028 -75.856,147.028 -76.174,147.291 -75.022,148.235 Z M -77.692,148.54 -76.545,149.484 -75.401,148.545 -76.553,147.602 -77.692,148.54 Z M -78.067,148.235 -76.924,147.298 -77.251,147.028 -78.007,147.028 -78.903,147.028 -79.22,147.29 -78.067,148.235 Z M -80.745,148.54 -79.593,149.487 -78.448,148.549 -79.606,147.605 -80.745,148.54 Z M -81.13,148.227 -79.992,147.29 -80.315,147.028 -81.966,147.028 -82.272,147.283 -81.13,148.227 Z M -83.802,148.54 -82.653,149.48 -81.515,148.54 -82.661,147.602 -83.802,148.54 Z M -84.186,148.228 -83.041,147.29 -83.359,147.028 -85.026,147.028 -85.337,147.281 -84.186,148.228 Z M -86.86,148.534 -85.711,149.48 -84.572,148.545 -85.723,147.602 -86.86,148.534 Z M -87.237,148.227 -86.103,147.291 -86.424,147.028 -88.074,147.028 -88.382,147.281 -87.237,148.227 Z M -89.918,148.54 -88.769,149.484 -87.627,148.545 -88.775,147.605 -89.918,148.54 Z M -90.295,148.23 -89.157,147.295 -89.484,147.028 -91.134,147.028 -91.446,147.283 -90.295,148.23 Z M -89.151,149.799 -90.303,148.854 -91.446,149.792 -90.303,150.731 -90.281,150.731 -89.151,149.799 Z M -79.177,151.775 -90.001,151.775 -84.254,156.438 -79.177,151.775 Z M -85.127,187.432 -78.236,181.092 -84.752,175.105 -87.539,175.105 -85.127,187.432 Z M -85.739,189.651 -92.79,197.067 -84.025,204.352 -85.739,189.651 Z M -82.78,215.06 -82.78,215.043 -83.716,207.021 -90.383,214.58 -82.354,221.547 -82.78,215.06 Z M -82.132,224.856 -88.744,231.868 -81.215,238.665 -82.132,224.856 Z M -80.392,255.706 -80.991,242.329 -87.381,249.24 -80.448,255.913 -80.392,255.706 Z M -80.23,259.376 -86.292,265.82 -79.665,271.939 -80.23,259.376 Z M -79.505,275.535 -85.397,282.079 -78.934,288.324 -79.505,275.535 Z M -79.076,263.905 -78.819,269.7 -78.377,267.454 -79.076,263.905 Z M -77.057,288.26 -70.069,281.789 -76.448,274.699 -77.057,288.26 Z M -76.668,258.117 -76.937,258.364 -76.883,256.922 -76.601,256.664 -76.568,255.921 -78.001,250.679 -79.428,255.97 -79.396,256.703 -79.183,256.471 -79.143,257.17 -79.129,257.182 -79.122,257.182 -79.122,257.192 -78.926,257.379 -79.109,257.72 -79.088,258.163 -79.122,258.201 -79.122,258.49 -79.315,258.49 -79.224,260.57 -78.122,266.161 -76.706,258.974 -76.668,258.117 Z M -77.353,248.276 -76.384,251.816 -75.999,243.262 -77.353,248.276 Z M -76.034,241.824 -75.936,241.85 -75.93,241.722 -76.034,241.824 Z M -77.581,234.739 -79.54,239.787 -79.517,239.981 -77.392,239.988 -75.821,239.981 -75.804,239.72 -77.581,234.739 Z M -75.043,228.198 -76.931,233.062 -75.604,236.69 -75.043,228.198 Z M -74.949,241.301 -74.962,241.473 -75.563,254.832 -75.369,255.531 -67.914,248.672 -74.726,241.301 -74.949,241.301 Z M -80.226,224.049 -77.45,231.641 -74.823,224.868 -74.769,224.049 -80.226,224.049 Z M -71.812,206.539 -71.806,206.477 -72.039,206.477 -72.262,206.871 -73.213,215.043 -73.213,215.06 -73.671,221.961 -64.59,214.727 -71.812,206.539 Z M -72.01,204.705 -72.022,204.812 -71.764,205.173 -71.696,205.173 -71.69,205.105 -72.01,204.705 Z M -72,204.622 -62.209,196.823 -69.61,189.04 -70.29,189.938 -72,204.622 Z M -70.018,175.105 -76.529,181.092 -70.681,186.474 -68.455,175.105 -70.018,175.105 Z M -75.588,151.775 -70.523,156.428 -64.769,151.775 -75.588,151.775 Z M -65.079,150.731 -64.04,150.731 -63.982,150.387 -64.324,150.109 -65.079,150.731 Z M -65.852,150.731 -65.836,150.731 -64.701,149.799 -65.852,148.854 -66.994,149.792 -65.852,150.731 Z M -68.139,150.731 -66.627,150.731 -67.383,150.111 -68.139,150.731 Z M -68.911,150.731 -68.896,150.731 -67.766,149.799 -68.911,148.858 -70.048,149.796 -68.911,150.731 Z M -71.185,150.731 -69.674,150.731 -70.431,150.111 -71.185,150.731 Z M -71.978,150.731 -71.96,150.731 -70.818,149.796 -71.97,148.854 -73.118,149.799 -71.978,150.731 Z M -74.248,150.731 -72.735,150.731 -73.494,150.109 -74.248,150.731 Z M -75.022,150.731 -75.007,150.731 -73.873,149.799 -75.022,148.854 -76.165,149.792 -75.022,150.731 Z M -77.312,150.731 -75.78,150.731 -76.548,150.107 -77.312,150.731 Z M -78.083,150.731 -78.067,150.731 -76.924,149.796 -78.077,148.854 -79.22,149.796 -78.083,150.731 Z M -78.175,161.371 -78.173,152.872 -83.102,157.372 -78.175,161.371 Z M -78.542,172.381 -78.464,172.381 -86.013,172.369 -85.996,172.381 -78.542,172.381 Z M -76.558,162.656 -77.1,162.555 -77.962,162.656 -77.53,162.656 -76.558,162.656 Z M -76.519,161.277 -71.696,157.38 -76.519,153.007 -76.519,161.277 Z M -77.53,172.381 -77.451,172.381 -68.768,172.381 -68.752,172.366 -77.53,172.381 Z M -71.73,175.105 -77.451,175.105 -78.542,175.105 -83.036,175.105 -77.383,180.308 -71.73,175.105 Z M -71.14,187.617 -77.383,181.879 -83.625,187.617 -71.14,187.617 Z M -78.087,198.272 -84.775,188.992 -84.801,189.392 -83.045,204.49 -82.782,204.19 -82.761,204.465 -78.087,198.272 Z M -78.407,215.71 -82.728,207.234 -81.827,214.978 -81.827,214.995 -81.426,221.052 -78.407,215.71 Z M -81.581,206.477 -77.64,214.353 -73.188,206.477 -81.581,206.477 Z M -77.354,199.29 -81.801,205.173 -73.115,205.173 -77.354,199.29 Z M -71.158,189.087 -71.14,188.925 -83.365,188.925 -77.369,197.321 -71.158,189.087 Z M -76.641,198.344 -72.851,203.65 -71.435,191.452 -76.641,198.344 Z M -80.973,222.743 -74.821,222.743 -77.861,216.779 -81.138,222.575 -81.125,222.612 -80.973,222.743 Z M -79.884,237.91 -79.972,236.175 -79.792,237.675 -78.095,233.301 -80.457,226.681 -79.972,236.175 -80.987,227.656 -80.247,238.847 -79.884,237.91 Z M -77.873,246.372 -76.685,241.966 -76.623,241.295 -77.392,241.293 -79.261,241.3 -77.873,246.372 Z M -79.987,243.408 -79.575,252.677 -78.521,248.773 -79.987,243.408 Z M -80.358,150.731 -78.844,150.731 -79.603,150.109 -80.358,150.731 Z M -81.13,150.731 -81.112,150.731 -79.977,149.802 -81.13,148.854 -82.272,149.792 -81.13,150.731 Z M -83.418,150.731 -81.904,150.731 -82.662,150.111 -83.418,150.731 Z M -84.192,150.731 -84.177,150.731 -83.041,149.799 -84.189,148.858 -85.328,149.796 -84.192,150.731 Z M -86.465,150.731 -84.952,150.731 -85.711,150.111 -86.465,150.731 Z M -88.773,150.109 -89.528,150.731 -88.013,150.731 -88.773,150.109 Z M -87.254,150.731 -87.237,150.731 -86.096,149.796 -87.248,148.854 -88.389,149.796 -87.254,150.731 Z M -66.943,172.381 -66.742,172.381 -66.758,172.362 -66.939,172.362 -66.943,172.381 Z M -66.053,162.656 -66.034,162.519 -70.646,158.332 -76.017,162.656 -66.053,162.656 Z M -73.474,209.015 -77.1,215.431 -74.534,220.557 -74.168,214.995 -74.168,214.978 -73.474,209.015 Z M -88.026,172.381 -87.718,172.381 -87.732,172.365 -88.009,172.365 -88.026,172.381 Z M -78.751,162.656 -84.138,158.32 -88.889,162.656 -78.751,162.656 Z M -91.618,152.103 -91.23,151.775 -91.364,151.775 -91.618,152.103 Z M -91.06,150.731 -91.825,150.107 -92.029,150.272 -91.952,150.731 -91.06,150.731 Z M -92.21,147.291 -92.528,147.028 -92.566,147.028 -92.487,147.518 -92.21,147.291 Z M -92.396,148.066 -92.216,149.163 -91.823,149.484 -90.679,148.545 -91.83,147.602 -92.396,148.066 Z M -59.428,156.834 -63.013,152.271 -64.529,161.199 -59.428,156.834 Z M -58.544,157.96 -62.929,161.711 -55.588,161.719 -58.544,157.96 Z M -61.518,151.775 -58.301,155.869 -53.514,151.775 -61.518,151.775 Z M -52.485,149.799 -53.634,148.858 -54.771,149.796 -53.634,150.731 -53.621,150.731 -52.485,149.799 Z M -52.104,150.111 -52.86,150.731 -51.348,150.731 -52.104,150.111 Z M -49.423,149.799 -50.573,148.854 -51.718,149.792 -50.573,150.731 -50.556,150.731 -49.423,149.799 Z M -49.046,150.109 -49.801,150.731 -48.288,150.731 -49.046,150.109 Z M -46.367,149.796 -47.519,148.854 -48.666,149.799 -47.531,150.731 -47.512,150.731 -46.367,149.796 Z M -45.994,150.107 -46.754,150.731 -45.225,150.731 -45.994,150.107 Z M -44.466,148.854 -45.609,149.792 -44.466,150.731 -44.45,150.731 -43.318,149.799 -44.466,148.854 Z M -44.083,148.54 -42.936,149.484 -41.789,148.54 -42.939,147.603 -44.083,148.54 Z M -49.019,139.577 -50.673,145.984 -41.753,145.984 -49.019,139.577 Z M -46.693,130.595 -48.003,135.655 -39.756,130.595 -46.693,130.595 Z M -44.268,121.795 -46.021,128.1 -37.167,128.129 -44.268,121.795 Z M -41.486,111.801 -43.173,117.865 -33.254,111.772 -41.486,111.801 Z M -38.913,103.481 -40.744,109.307 -32.288,109.307 -38.913,103.481 Z M -37.492,98.965 -27.651,93.491 -35.775,93.518 -37.492,98.965 Z M -46.536,93.547 -39.382,99.769 -37.418,93.52 -46.536,93.547 Z M -50.218,90.657 -50.145,90.408 -49.988,90.545 -45.883,88.55 -49.515,88.55 -50.256,90.675 -50.218,90.657 Z M -61.653,147.291 -61.973,147.028 -62.131,147.028 -62.264,147.794 -61.653,147.291 Z M -61.267,149.484 -60.123,148.545 -61.271,147.602 -62.39,148.518 -62.395,148.56 -61.267,149.484 Z M -61.646,149.796 -62.489,149.107 -62.765,150.713 -61.646,149.796 Z M -61.269,150.107 -62.034,150.731 -60.502,150.731 -61.269,150.107 Z M -58.594,149.799 -59.744,148.854 -60.887,149.792 -59.744,150.731 -59.727,150.731 -58.594,149.799 Z M -58.223,150.104 -58.989,150.731 -57.457,150.731 -58.223,150.104 Z M -55.541,149.796 -56.697,148.852 -57.842,149.789 -56.697,150.731 -56.681,150.731 -55.541,149.796 Z M -55.907,150.731 -54.397,150.731 -55.156,150.111 -55.907,150.731 Z M -55.169,147.599 -56.307,148.532 -55.156,149.48 -54.015,148.545 -55.169,147.599 Z M -52.485,147.29 -52.804,147.028 -54.474,147.028 -54.78,147.281 -53.629,148.228 -52.485,147.29 Z M -52.103,147.602 -53.245,148.54 -52.1,149.48 -50.958,148.54 -52.103,147.602 Z M -52.294,145.984 -50.813,140.258 -59.974,145.984 -52.294,145.984 Z M -58.598,147.295 -58.927,147.028 -60.578,147.028 -60.887,147.283 -59.739,148.23 -58.598,147.295 Z M -56.681,148.227 -55.547,147.291 -55.865,147.028 -57.516,147.028 -57.826,147.281 -56.681,148.227 Z M -58.221,147.605 -59.362,148.54 -58.212,149.484 -57.073,148.545 -58.221,147.605 Z M -47.654,128.095 -46.069,122.394 -55.001,128.068 -47.654,128.095 Z M -55.49,130.595 -49.648,135.748 -48.317,130.595 -55.49,130.595 Z M -42.376,109.307 -40.551,103.503 -50.772,109.307 -42.376,109.307 Z M -51.622,111.834 -44.818,117.898 -43.126,111.806 -51.622,111.834 Z M -49.436,147.29 -49.76,147.028 -51.407,147.028 -51.727,147.291 -50.58,148.23 -49.436,147.29 Z M -49.048,147.605 -50.197,148.545 -49.046,149.487 -47.9,148.545 -49.048,147.605 Z M -46.375,147.291 -46.695,147.028 -48.346,147.028 -48.662,147.29 -47.517,148.23 -46.375,147.291 Z M -44.461,148.23 -43.321,147.294 -43.649,147.028 -45.301,147.028 -45.609,147.283 -44.461,148.23 Z M -45.998,147.602 -47.137,148.54 -45.988,149.484 -44.846,148.545 -45.998,147.602 Z M -58.917,130.595 -59.001,130.595 -61.954,145.984 -61.72,145.984 -61.082,143.68 -51.22,137.629 -58.971,130.797 -58.917,130.595 Z M -54.843,110.656 -54.634,109.487 -54.909,110.744 -58.493,128.058 -57.944,128.059 -57.576,126.708 -46.432,119.865 -55.146,112.089 -54.843,110.656 Z M -50.335,90.897 -50.374,91.022 -50.354,91.022 -50.335,90.897 Z M -50.81,93.98 -50.779,93.56 -50.888,93.56 -50.81,93.015 -50.883,92.951 -50.725,92.401 -50.632,91.747 -50.832,92.325 -50.854,92.373 -54.384,108.363 -41.506,101.198 -50.102,93.638 -50.81,93.98 Z M -75.517,291.115 -70.368,296.775 -64.466,291.104 -75.517,291.115 Z M -63.104,289.798 -62.973,289.672 -69.347,282.594 -77.123,289.746 -77.127,289.812 -63.104,289.798 Z M -85.034,313.163 -78.483,306.929 -78.483,306.807 -91.475,306.752 -85.034,313.163 Z M -78.483,319.151 -78.483,308.31 -84.325,313.869 -78.812,319.356 -78.483,319.151 Z M -78.623,320.958 -78.619,320.954 -85.042,314.551 -91.789,320.972 -78.623,320.958 Z M -79.61,322.004 -90.525,322.015 -84.948,327.66 -79.61,322.004 Z M -78.483,334.208 -78.483,323.371 -83.639,328.988 -78.483,334.208 Z M -78.591,335.501 -84.306,329.715 -89.542,335.421 -78.591,335.501 Z M -78.69,336.544 -89.67,336.464 -83.954,342.081 -78.69,336.544 Z M -78.651,348.668 -83.919,343.489 -88.795,348.615 -78.651,348.668 Z M -78.483,347.455 -78.483,337.778 -83.242,342.779 -78.483,347.455 Z M -78.534,349.713 -88.804,349.66 -83.501,354.76 -78.534,349.713 Z M -78.483,359.588 -78.483,351.066 -82.793,355.443 -78.483,359.588 Z M -78.591,360.843 -83.484,356.144 -88.095,360.831 -78.591,360.843 Z M -78.68,361.888 -88.174,361.875 -83.219,366.778 -78.68,361.888 Z M -78.483,371.465 -78.483,363.138 -82.513,367.477 -78.483,371.465 Z M -78.483,372.918 -78.483,372.862 -83.187,368.202 -87.564,372.918 -78.483,372.918 Z M -78.709,373.961 -87.67,373.961 -82.99,378.7 -78.709,373.961 Z M -78.483,383.266 -78.483,375.205 -82.283,379.417 -78.483,383.266 Z M -78.518,384.632 -82.944,380.149 -86.987,384.632 -78.518,384.632 Z M -78.609,385.676 -86.874,385.676 -82.559,389.89 -78.609,385.676 Z M -78.483,393.868 -78.483,386.991 -81.849,390.583 -78.483,393.868 Z M -78.483,395.434 -78.483,395.239 -82.525,391.306 -86.404,395.447 -78.483,395.434 Z M -78.555,396.479 -86.424,396.49 -82.368,400.628 -78.555,396.479 Z M -78.483,404.593 -78.483,397.889 -81.668,401.345 -78.483,404.593 Z M -78.483,406.031 -78.483,406.02 -82.339,402.075 -85.949,405.995 -78.483,406.031 Z M -81.472,411.352 -78.483,414.395 -78.483,408.242 -81.472,411.352 Z M -78.731,407.074 -85.699,407.039 -82.162,410.646 -78.731,407.074 Z M -131.987,49.536 -130.726,48.532 -131.019,48.293 -132.913,48.293 -133.215,48.532 -131.987,49.536 Z M -135.144,50.068 -133.907,51.067 -132.675,50.083 -133.901,49.081 -135.144,50.068 Z M -135.813,49.525 -134.566,48.534 -134.863,48.293 -136.778,48.293 -137.06,48.521 -135.813,49.525 Z M -137.035,50.5 -136.507,50.078 -137.753,49.074 -137.858,49.161 -137.035,50.5 Z M -137.424,53.007 -137.887,52.254 -138.329,52.608 -137.424,53.007 Z M -135.753,63.234 -137.548,64.69 -133.964,64.69 -135.753,63.234 Z M -132.681,60.746 -135.071,62.684 -132.607,64.69 -132.595,64.69 -132.587,60.895 -132.681,60.746 Z M -132.956,51.836 -131.858,50.753 -131.997,50.638 -133.228,51.617 -132.956,51.836 Z M -134.245,58.187 -134.796,57.741 -137.659,60.576 -135.753,62.132 -133.13,60.007 -134.245,58.187 Z M -135.132,53.593 -134.983,53.837 -134.736,53.593 -135.132,53.593 Z M -134.595,51.615 -135.833,50.619 -136.589,51.223 -135.771,52.554 -134.595,51.615 Z M -134.6,52.712 -134.6,52.722 -134.612,52.722 -134.979,53.015 -134.149,53.014 -133.569,52.443 -133.914,52.165 -134.6,52.712 Z M -139.084,61.98 -139.111,64.69 -138.909,64.69 -136.431,62.681 -138.272,61.18 -139.084,61.98 Z M -139.044,57.848 -138.619,57.429 -139.042,57.429 -139.044,57.848 Z M -139.67,50.62 -140.794,51.525 -139.2,52.225 -138.437,51.615 -139.67,50.62 Z M -139.67,49.528 -139.594,49.469 -140.315,48.293 -140.617,48.293 -140.911,48.527 -139.67,49.528 Z M -142.835,50.078 -141.585,51.075 -140.349,50.075 -141.591,49.074 -142.835,50.078 Z M -148.149,48.293 -146.642,48.953 -146.126,48.532 -146.428,48.293 -148.149,48.293 Z M -144.357,53.019 -145.021,52.487 -145.544,52.259 -146.489,53.02 -144.357,53.019 Z M -146.698,54.819 -146.094,54.819 -146.698,54.326 -146.698,54.819 Z M -145.076,64.38 -144.894,64.69 -144.199,64.69 -144.878,64.223 -145.076,64.38 Z M -144.237,62.616 -146.698,60.595 -146.698,61.604 -146.728,61.604 -145.519,63.638 -144.237,62.616 Z M -145.292,57.429 -146.698,57.429 -146.698,58.553 -145.292,57.429 Z M -141.164,64.037 -140.384,64.684 -140.368,63.252 -141.164,64.037 Z M -146.228,53.606 -144.737,54.819 -142.024,54.819 -141.222,54.176 -142.514,53.6 -146.228,53.606 Z M -145.442,49.081 -145.76,49.341 -144.315,49.977 -145.442,49.081 Z M -143.526,49.525 -142.28,48.521 -142.563,48.293 -144.479,48.293 -144.774,48.534 -143.526,49.525 Z M -140.288,54.819 -140.288,54.59 -140.348,54.563 -140.665,54.819 -140.288,54.819 Z M -141.528,57.429 -140.323,58.409 -140.312,57.429 -141.528,57.429 Z M -141.822,64.69 -141.711,64.69 -141.772,64.639 -141.822,64.69 Z M -140.544,59.333 -142.884,57.429 -143.915,57.429 -146.589,59.577 -143.558,62.073 -142.341,61.104 -140.544,59.333 Z M -150.263,53.021 -148.303,53.021 -149.28,52.221 -150.263,53.021 Z M -148.874,50.781 -150.496,50.061 -150.537,50.098 -149.284,51.115 -148.874,50.781 Z M -152.284,45.683 -141.915,45.683 -145.829,39.302 -152.284,45.683 Z M -149.626,30.02 -146.204,35.584 -140.569,30.02 -149.626,30.02 Z M -151.229,27.411 -141.584,27.411 -154.847,21.528 -151.229,27.411 Z M -159.351,30.02 -148.632,34.733 -151.522,30.02 -159.351,30.02 Z M -153.124,27.411 -157.033,21.031 -163.489,27.411 -153.124,27.411 Z M -162.729,11.747 -170.552,11.747 -159.838,16.46 -162.729,11.747 Z M -168.241,2.76 -174.692,9.139 -164.329,9.139 -168.241,2.76 Z M -162.465,9.139 -152.787,9.139 -166.093,3.236 -162.465,9.139 Z M -95.353,52.107 C -96.717,51.858 -98.071,51.588 -99.42,51.293 L -99.458,51.408 C -99.622,51.947 -99.003,52.738 -98.124,52.958 -98.071,52.973 -98.019,52.981 -97.963,52.99 L -96.61,52.99 -96.591,52.99 C -96.094,52.891 -95.667,52.669 -95.478,52.323 L -95.353,52.107 Z M -100.065,53.563 -97.2,55.879 -94.342,53.556 -100.065,53.563 Z M -81.673,63.171 -84.775,65.716 -78.744,65.716 -78.74,65.504 -81.673,63.171 Z M -80.994,62.617 -78.731,64.419 -78.702,60.737 -80.994,62.617 Z M -85.059,60.472 -85.052,64.848 -82.354,62.628 -85.059,60.472 Z M -78.684,58.432 -78.651,54.424 -81.151,56.459 -78.684,58.432 Z M -78.695,59.534 -81.833,57.012 -84.897,59.506 -81.675,62.073 -78.695,59.621 -78.695,59.534 Z M -70.933,58.015 -70.929,55.106 -72.827,56.473 -70.933,58.015 Z M -73.915,61.886 -70.935,59.768 -70.935,59.119 -73.548,56.992 -76.922,59.412 -73.915,61.886 Z M -74.633,62.398 -77.293,60.214 -77.263,64.266 -74.633,62.398 Z M -70.938,60.755 -73.27,62.415 -70.942,64.329 -70.938,60.755 Z M -70.942,65.423 -73.991,62.925 -77.254,65.248 -77.251,65.716 -70.942,65.716 -70.942,65.423 Z M -105.17,88.55 -104.308,91.022 -104.239,91.022 -104.193,91.333 -103.927,92.096 -103.909,92.112 -103.909,92.147 -99.833,110.566 -96.212,128.056 -96.087,128.056 -95.772,130.254 -92.748,145.984 -78.007,145.984 -63.246,145.984 -60.044,129.326 -56.162,110.566 -52.086,92.147 -52.086,92.112 -52.065,92.096 -50.824,88.55 -105.17,88.55 Z M -58.408,63.034 -61.872,65.496 -61.872,65.716 -55.429,65.716 -55.429,65.456 -58.408,63.034 Z M -57.69,62.525 -55.438,64.361 -55.457,60.938 -57.69,62.525 Z M -58.338,61.999 -55.465,59.957 -55.47,59.166 -57.975,57.13 -61.36,59.537 -58.338,61.999 Z M -68.685,84.3 -56.31,84.3 -56.31,78 -68.685,78 -68.685,84.3 Z M -61.881,64.513 -59.053,62.51 -61.902,60.196 -61.881,64.513 Z M -34.43,57.465 -36.524,60.961 -36.141,61.272 -32.401,59.629 -32.401,59.112 -34.43,57.465 Z M -32.408,54.727 -32.408,54.094 -32.843,54.819 -32.536,54.819 -32.408,54.727 Z M -33.118,57.429 -32.404,58.006 -32.404,57.429 -33.118,57.429 Z M 8.977,-5.771 13.883,-0.925 16.888,-5.812 8.977,-5.771 Z M 48.55,-17.819 45.631,-15.058 45.289,-15.057 44.772,-14.583 45.488,-14.584 46.334,-13.646 39.693,-10.331 38.971,-10.331 37.854,-9.433 28.271,6.223 28.287,6.238 28.245,6.271 26.841,8.563 26.841,8.863 26.655,8.863 21.358,17.52 21.358,18.113 20.995,18.113 15.525,27.049 15.525,27.361 15.334,27.361 9.694,36.58 9.694,36.612 9.675,36.612 4.664,44.802 5.938,43.813 6.642,44.373 4.397,45.233 -6.779,63.498 -5.58,63.498 -5.58,64.292 -6.008,64.292 -5.771,66.942 -5.66,68.206 -4.916,70.602 -3.84,72.434 -3.095,72.434 -3.095,73.227 -5.497,73.227 -5.497,84.3 -4.872,84.3 -4.872,88.55 -18.22,88.55 -18.523,89.235 -18.516,89.235 -18.553,89.3 -19.652,91.774 -19.718,92.046 -19.763,92.015 -23.369,100.146 -23.388,100.181 -26.766,109.629 -26.766,109.645 -32.503,128.11 -38.033,145.402 -39.676,150.694 -39.4,150.9 -39.861,151.291 -42.686,160.401 -42.55,160.613 -42.784,160.708 -42.923,161.157 -43.045,161.553 -43.563,161.553 -45.79,161.571 -47.929,158.177 -51.869,161.623 -53.205,161.635 -51.882,161.635 -51.98,161.721 -45.691,161.728 -45.75,161.635 -42.716,161.635 C -42.578,166.021 -41.566,169.874 -39.071,170.24 L -38.056,170.24 -37.97,171.413 -45.795,171.427 -45.804,171.479 -38.569,171.479 -38.569,174.238 -46.32,174.238 -48.663,186.836 -48.266,187.22 -48.765,187.986 -48.765,188.228 -48.914,188.228 -51.771,204.532 -51.292,205.023 -51.808,205.346 -51.808,205.996 -52.021,205.996 -54.274,223.083 -54.274,223.356 -54.14,223.503 -54.15,225.249 -54.476,224.89 -56.036,240.076 -55.866,240.251 -55.968,241.801 -56.183,241.58 -57.541,257.42 -57.419,257.543 -57.515,258.819 -57.499,258.806 -57.518,258.86 -57.541,259.183 -57.611,259.112 -57.714,259.396 -59.029,273.646 -58.87,273.646 -58.87,274.967 -59.027,274.967 -59.078,275.374 -59.178,275.273 -60.416,290.344 -60.344,290.344 -60.344,290.617 -60.257,290.707 -60.344,291.154 -60.344,291.664 -60.436,291.667 -60.533,292.187 -60.552,292.168 -61.432,306.446 -61.334,306.446 -61.334,306.969 -60.942,307.222 -61.512,307.775 -62.384,321.905 -62.146,321.905 -62.146,322.229 -61.75,322.484 -62.146,322.87 -62.146,322.963 -62.236,322.963 -62.464,323.186 -63.212,335.127 -62.661,335.696 -63.272,336.071 -63.302,336.504 -63.285,336.522 -63.22,336.522 -63.22,336.589 -62.846,336.985 -63.096,337.132 -62.825,337.314 -63.386,337.849 -64.138,349.801 -63.802,350.148 -63.971,350.25 -63.551,350.544 -64.225,351.173 -64.866,362.158 -64.768,362.253 -64.689,362.253 -64.689,362.331 -64.399,362.617 -64.688,362.801 -64.358,363.013 -64.948,363.583 -65.572,374.256 -65.064,374.789 -65.528,375.071 -65.045,375.383 -65.671,376.004 -66.22,386.05 -65.79,386.516 -66.182,386.75 -66.182,387.072 -66.081,387.514 -66.312,387.731 -66.819,397.021 -66.266,397.598 -66.779,397.912 -66.347,398.192 -66.903,398.745 -67.207,407.789 -66.804,408.217 -66.999,408.337 -66.718,408.514 -67.071,408.863 -67.071,409.026 -67.238,409.027 -67.25,409.039 -67.538,417.592 -67.011,418.126 -67.486,418.434 -67.473,418.434 -67.473,421.912 -67.685,421.912 -67.722,423.043 C -67.428,424.933 -66.579,429.612 -65.118,431.929 -63.255,434.875 -61.661,435.408 -61.661,435.408 L -65.388,435.452 -60.964,435.452 -60.506,435.452 -60.506,440.571 -60.964,440.571 -60.964,443.296 -61.416,443.296 -65.289,443.296 -65.289,444.527 -63.355,444.527 -63.355,449.343 -65.289,449.343 C -65.289,449.343 -65.792,457.733 -72.959,462.433 -73.828,462.963 -74.811,463.33 -75.633,463.576 -77.368,463.846 -79.023,463.784 -80.536,463.526 -81.321,463.281 -82.231,462.926 -83.038,462.433 -86.909,459.803 -87.854,457.797 -89.232,455.022 -89.945,453.463 -90.409,451.701 -90.564,451.075 L -90.704,451.075 -90.704,443.296 -94.575,443.296 -95.03,443.296 -95.03,440.571 -95.487,440.571 -95.487,435.452 -95.03,435.452 -90.609,435.452 -94.335,435.408 C -94.335,435.408 -92.742,434.875 -90.883,431.929 -89.412,429.604 -88.562,424.896 -88.272,423.021 L -89.111,398.225 -89.111,398.208 -90.352,375.449 -91.782,350.989 -93.542,323.029 -95.487,291.432 -95.487,291.418 -96.854,274.819 -98.368,258.452 -99.856,241.029 -101.638,223.702 -103.979,205.931 -103.979,205.915 -107.129,187.948 -107.129,187.93 -109.672,174.238 -117.423,174.238 -117.423,171.479 -110.189,171.479 -110.197,171.427 -118.022,171.413 -117.94,170.24 -116.924,170.24 C -114.427,169.874 -113.418,166.021 -113.279,161.635 L -109.017,161.635 -109.075,161.728 -102.784,161.721 -102.883,161.635 -102.789,161.635 -102.884,161.634 -106.847,158.168 -108.984,161.582 -112.432,161.553 -112.948,161.553 -113.074,161.157 -117.961,145.402 -123.49,128.11 -129.227,109.645 -129.227,109.629 -132.606,100.181 -132.626,100.146 -137.771,88.55 -150.872,88.55 -150.872,84.3 -150.122,84.3 -150.122,73.227 -152.901,73.227 -152.901,72.434 -152.175,72.434 -151.099,70.602 -150.334,68.206 -150.222,66.942 -149.986,64.292 -150.415,64.292 -150.415,63.498 -150.088,63.498 -150.544,63.135 -149.795,62.555 -193.854,-9.433 -194.967,-10.331 -195.694,-10.331 -202.334,-13.646 -201.536,-14.529 -201.626,-14.529 -204.546,-17.289 -156.892,-17.289 -152.366,-17.289 -153.094,-16.548 -153.117,-14.44 C -153.117,-14.44 -152.333,-14.276 -152.217,-14.088 -152.104,-13.9 -152.068,-13.231 -152.217,-13.073 -152.366,-12.914 -153.27,-12.761 -153.27,-12.761 -153.27,-12.761 -153.1,-11.634 -153.429,-11.333 -153.598,-11.177 -153.824,-11.115 -154.013,-11.093 -154.028,-9.977 -154.034,-7.736 -153.874,-6.513 -153.558,-4.117 -152.937,-1.744 -152.136,0.591 -151.224,3.244 -150.072,5.866 -148.656,8.369 -146.909,11.456 -144.859,14.44 -142.503,17.256 -140.367,19.809 -137.917,22.227 -135.297,24.488 -133.114,26.376 -130.701,28.099 -128.212,29.758 -125.871,31.315 -123.447,32.796 -120.901,34.115 -117.657,35.801 -114.261,37.319 -110.774,38.659 -107.411,39.948 -104,41.141 -100.457,41.996 -97,42.828 -93.391,43.318 -89.772,43.746 -85.884,44.235 -82.166,44.394 -78.027,44.421 -73.89,44.449 -70.144,44.17 -66.22,43.746 -62.602,43.318 -58.993,42.828 -55.534,41.996 -51.997,41.141 -48.584,39.948 -45.22,38.659 -41.731,37.319 -38.337,35.801 -35.091,34.115 -32.545,32.796 -30.121,31.315 -27.779,29.758 -25.291,28.099 -22.879,26.376 -20.699,24.488 -18.08,22.227 -15.626,19.809 -13.488,17.256 -11.136,14.44 -9.085,11.456 -7.337,8.369 -5.924,5.866 -4.772,3.244 -3.858,0.591 -3.054,-1.744 -2.435,-4.117 -2.117,-6.513 -1.957,-7.736 -1.967,-9.975 -1.981,-11.093 -2.165,-11.115 -2.396,-11.176 -2.567,-11.333 -2.896,-11.634 -2.727,-12.761 -2.727,-12.761 -2.727,-12.761 -3.63,-12.914 -3.782,-13.073 -3.932,-13.231 -3.895,-13.9 -3.782,-14.088 -3.664,-14.276 -2.88,-14.44 -2.88,-14.44 L -2.904,-16.548 -3.63,-17.289 0.474,-17.289 0.127,-17.819 48.55,-17.819 Z"
             style="fill:#868ceb;fill-opacity:1;fill-rule:nonzero;stroke:none"
             id="path36-08-7" />
        </g>
        <text
           style="font-size:240px;font-family:Onyx;letter-spacing:7;fill:#868ceb;stroke:none"
           id="text47-4"
           letter-spacing="7"
           font-size="240"
           y="120.55653"
           x="-845.00854">IS</text>
      </g>
    </g>
  </svg>
</svg>
