<?xml version="1.0" encoding="UTF-8" standalone="no"?>
<!-- Created with Inkscape (http://www.inkscape.org/) -->

<svg
   xmlns:dc="http://purl.org/dc/elements/1.1/"
   xmlns:cc="http://creativecommons.org/ns#"
   xmlns:rdf="http://www.w3.org/1999/02/22-rdf-syntax-ns#"
   xmlns:svg="http://www.w3.org/2000/svg"
   xmlns="http://www.w3.org/2000/svg"
   xmlns:sodipodi="http://sodipodi.sourceforge.net/DTD/sodipodi-0.dtd"
   xmlns:inkscape="http://www.inkscape.org/namespaces/inkscape"
   width="94"
   height="111"
   viewBox="0 0 94 111"
   id="svg2"
   version="1.1"
   inkscape:version="0.91 r13725"
   sodipodi:docname="logoTravel.svg">
  <defs
     id="defs4" />
  <sodipodi:namedview
     id="base"
     pagecolor="#ffffff"
     bordercolor="#666666"
     borderopacity="1.0"
     inkscape:pageopacity="0.0"
     inkscape:pageshadow="2"
     inkscape:zoom="3.959798"
     inkscape:cx="-7.4060699"
     inkscape:cy="52.440796"
     inkscape:document-units="px"
     inkscape:current-layer="svg2"
     showgrid="false"
     units="px"
     inkscape:window-width="1600"
     inkscape:window-height="834"
     inkscape:window-x="0"
     inkscape:window-y="27"
     inkscape:window-maximized="1"
     showguides="true"
     inkscape:guide-bbox="true">
    <sodipodi:guide
       position="65.912454,59.851538"
       orientation="0,1"
       id="guide4157" />
    <sodipodi:guide
       position="45,87.5"
       orientation="1,0"
       id="guide4159" />
    <sodipodi:guide
       position="17.678571,81.785714"
       orientation="0,1"
       id="guide4161" />
    <sodipodi:guide
       position="79.821428,30.178571"
       orientation="0,1"
       id="guide4138" />
  </sodipodi:namedview>
  <metadata
     id="metadata7">
    <rdf:RDF>
      <cc:Work
         rdf:about="">
        <dc:format>image/svg+xml</dc:format>
        <dc:type
           rdf:resource="http://purl.org/dc/dcmitype/StillImage" />
        <dc:title></dc:title>
      </cc:Work>
    </rdf:RDF>
  </metadata>
  <path
     style="opacity:1;fill:#373333;fill-opacity:1;stroke:#ffffff;stroke-width:3;stroke-linecap:round;stroke-linejoin:miter;stroke-miterlimit:4;stroke-dasharray:none;stroke-dashoffset:0;stroke-opacity:1"
     d="M 92.100099,83.049822 46.866304,109.26714 1.5496561,83.106988 1.5007769,29.842184 46.768547,2.4996609 92.051214,29.802024 Z"
     id="path4701"
     inkscape:connector-curvature="0"
     sodipodi:nodetypes="ccccccc" />
  <path
     d="M 77.194626,54.781864 C 77.194626,69.114248 66.623045,81.02384 52.868159,83.12368 52.984157,82.48759 53.016765,81.828887 52.938679,81.161368 52.938679,81.161368 52.856535,80.458973 52.74904,79.539643 57.632462,78.707677 62.041592,76.466885 65.536302,73.244183 65.326616,73.069678 65.117552,72.843455 64.91169,72.543046 63.983542,71.188737 65.1972,69.844875 65.1972,68.660625 65.1972,67.498921 62.855144,67.59448 62.769491,66.82508 62.473527,64.16054 64.404633,64.124266 65.434036,63.094784 66.463513,62.065222 64.416567,59.724732 63.094242,59.875677 61.763023,60.017732 58.015797,59.260812 58.358177,56.393915 58.775291,52.902087 53.909418,53.210225 53.212645,51.580387 52.196894,49.204789 53.885471,46.290853 56.08789,45.62879 59.20738,44.691128 62.280533,42.146171 62.0405,39.31321 61.768562,36.104633 60.316195,33.210976 57.924293,31.492057 55.435113,30.483636 52.751068,29.860036 49.943067,29.702768 47.436882,29.801842 45.233526,30.358823 45.334001,31.506173 45.580431,34.317997 53.576245,35.048317 52.234494,37.676741 51.534911,39.046965 46.285004,40.980877 47.265418,43.020105 47.903139,44.346327 49.472518,43.209664 48.886673,45.755633 48.617152,46.927089 47.589935,49.128183 46.010258,49.270238 44.394932,49.421108 43.049828,45.141705 38.652946,45.00137 36.574325,44.934906 33.646035,48.244425 36.132485,50.592485 37.638207,52.014425 40.463761,48.883548 41.297675,51.329201 41.885392,53.052649 41.218573,56.673109 43.961282,58.186166 44.961119,58.737762 46.493834,59.218456 48.009777,59.988788 45.759694,60.44826 42.995066,61.305656 39.730401,62.563153 L 36.979815,61.837441 C 38.131224,60.878793 40.002184,60.204173 39.531478,58.109639 38.840011,55.032428 33.497039,56.193045 29.813468,52.509548 28.683433,51.379671 26.273121,47.627841 26.283027,43.120266 24.446938,46.607876 23.401933,50.574231 23.401933,54.781944 23.401933,56.077122 23.500692,57.349677 23.690642,58.592665 23.647349,58.591967 23.604521,58.584319 23.561303,58.584319 22.401238,58.584319 21.263558,58.82802 20.209191,59.288895 19.976258,57.819989 19.85199,56.315438 19.85199,54.782019 19.85199,38.972776 32.714065,26.110315 48.52323,26.110315 64.332552,26.110155 77.194626,38.972622 77.194626,54.781864 Z M 55.687548,63.138622 48.685177,66.357495 48.793765,64.831649 53.330126,62.78384 C 52.683123,62.737583 52.012793,62.719872 51.343401,62.719872 48.836982,62.719872 44.602436,63.988683 39.918871,65.847713 L 24.897594,61.885492 C 23.493827,61.515189 21.999336,61.743363 20.769919,62.515645 L 20.031332,62.979645 C 19.310219,63.432639 19.302575,64.480845 20.016979,64.944371 L 29.046485,70.802511 C 26.889468,71.905631 24.842987,73.025995 23.038958,74.095961 L 18.405475,71.642976 C 17.648634,71.242323 16.753874,71.19482 15.958966,71.51317 L 15.520323,71.68885 C 14.866298,71.950718 14.592332,72.728546 14.93791,73.342471 L 17.490354,77.877358 17.491446,77.876969 C 16.528429,78.705423 15.979639,79.392601 15.979639,79.868066 15.979639,81.291175 17.730933,81.646897 19.274492,81.646897 22.027732,81.646897 58.387587,73.321798 58.387587,65.779453 58.387665,64.285977 57.366063,63.53889 55.687548,63.138622 Z M 40.35728,77.864406 48.358319,75.045868 C 48.710764,74.921682 49.087389,75.156648 49.130763,75.527814 L 49.832216,81.525282 C 50.007501,83.02406 49.201516,84.466205 47.833087,85.102288 L 47.082644,85.451068 C 46.614045,85.668865 46.058,85.552083 45.716555,85.164227 L 40.113502,78.799106 C 39.840628,78.489174 39.967782,78.001626 40.35728,77.864406 Z"
     id="path10"
     inkscape:connector-curvature="0"
     style="fill:#ffffff" />
</svg>
