<?xml version="1.0" encoding="UTF-8" standalone="no"?>
<!-- Created with Inkscape (http://www.inkscape.org/) -->

<svg
   xmlns:dc="http://purl.org/dc/elements/1.1/"
   xmlns:cc="http://creativecommons.org/ns#"
   xmlns:rdf="http://www.w3.org/1999/02/22-rdf-syntax-ns#"
   xmlns:svg="http://www.w3.org/2000/svg"
   xmlns="http://www.w3.org/2000/svg"
   xmlns:sodipodi="http://sodipodi.sourceforge.net/DTD/sodipodi-0.dtd"
   xmlns:inkscape="http://www.inkscape.org/namespaces/inkscape"
   width="96.578003"
   height="111"
   viewBox="0 0 96.578003 111"
   id="svg2"
   version="1.1"
   inkscape:version="0.91 r13725"
   sodipodi:docname="logoArt2.svg">
  <defs
     id="defs4" />
  <sodipodi:namedview
     id="base"
     pagecolor="#ffffff"
     bordercolor="#666666"
     borderopacity="1.0"
     inkscape:pageopacity="0.0"
     inkscape:pageshadow="2"
     inkscape:zoom="15.839192"
     inkscape:cx="68.675527"
     inkscape:cy="61.449917"
     inkscape:document-units="px"
     inkscape:current-layer="svg2"
     showgrid="false"
     units="px"
     inkscape:window-width="1600"
     inkscape:window-height="834"
     inkscape:window-x="0"
     inkscape:window-y="27"
     inkscape:window-maximized="1"
     showguides="true"
     inkscape:guide-bbox="true">
    <sodipodi:guide
       position="65.912454,59.851538"
       orientation="0,1"
       id="guide4157" />
    <sodipodi:guide
       position="45,87.5"
       orientation="1,0"
       id="guide4159" />
    <sodipodi:guide
       position="144.95689,83.590123"
       orientation="0,1"
       id="guide4161" />
    <sodipodi:guide
       position="45,55.178571"
       orientation="0,1"
       id="guide4158" />
  </sodipodi:namedview>
  <metadata
     id="metadata7">
    <rdf:RDF>
      <cc:Work
         rdf:about="">
        <dc:format>image/svg+xml</dc:format>
        <dc:type
           rdf:resource="http://purl.org/dc/dcmitype/StillImage" />
        <dc:title></dc:title>
      </cc:Work>
    </rdf:RDF>
  </metadata>
  <path
     style="opacity:1;fill:none;fill-opacity:1;stroke:#ffffff;stroke-width:2.98507333;stroke-linecap:round;stroke-linejoin:miter;stroke-miterlimit:4;stroke-dasharray:none;stroke-dashoffset:0;stroke-opacity:1"
     d="M 95.119117,82.228932 48.300234,109.289 1.5590768,82.222981 1.3599308,53.92793 46.348833,54.003258 94.875323,53.861602 Z"
     id="path4701-4"
     inkscape:connector-curvature="0"
     sodipodi:nodetypes="ccccccc" />
  <path
     style="opacity:1;fill:#373333;fill-opacity:1;stroke:none;stroke-width:3;stroke-linecap:round;stroke-linejoin:miter;stroke-miterlimit:4;stroke-dasharray:none;stroke-dashoffset:0;stroke-opacity:1"
     d="M 93.663879,81.386378 48.380409,107.63248 3.0139954,81.443608 2.9650626,28.120316 48.282543,0.7477555 93.614941,28.080108 Z"
     id="path4701"
     inkscape:connector-curvature="0"
     sodipodi:nodetypes="ccccccc" />
  <g
     id="g4146"
     transform="matrix(0.89407056,0,0,0.89407056,15.215551,23.142391)">
    <path
       id="path10"
       d="M 53.162,31.943 C 52.771,31.552 52.139,31.552 51.748,31.943 51.357,32.334 51.357,32.966 51.748,33.357 L 53.87,35.479 C 54.065,35.674 54.321,35.772 54.577,35.772 54.833,35.772 55.089,35.674 55.284,35.479 55.675,35.088 55.675,34.456 55.284,34.065 L 53.162,31.943 Z"
       inkscape:connector-curvature="0"
       style="fill:#ffffff" />
    <path
       id="path12"
       d="M 44.678,23.458 C 44.287,23.067 43.655,23.067 43.264,23.458 42.873,23.849 42.873,24.481 43.264,24.872 L 47.506,29.114 C 47.701,29.309 47.957,29.407 48.213,29.407 48.469,29.407 48.725,29.309 48.92,29.114 49.311,28.723 49.311,28.091 48.92,27.7 L 44.678,23.458 Z"
       inkscape:connector-curvature="0"
       style="fill:#ffffff" />
    <path
       id="path14"
       d="M 66.598,22.751 C 65.817,21.97 64.551,21.97 63.77,22.751 L 60.284,26.237 44.02,9.975 47.506,6.488 C 48.287,5.707 48.287,4.441 47.506,3.66 46.725,2.879 45.459,2.879 44.678,3.66 L 41.15,7.188 C 39.654,5.994 37.811,5.341 35.865,5.341 33.577,5.341 31.425,6.235 29.803,7.856 28.192,9.464 27.298,11.604 27.287,13.877 27.275,16.164 28.158,18.312 29.771,19.925 L 30.36,20.514 C 26.021,21.827 21.754,24.566 18.71,28.09 15.372,31.954 14.034,36.895 12.617,42.126 10.865,48.598 9.053,55.29 3.351,61.416 2.906,61.895 2.722,62.56 2.86,63.198 2.997,63.837 3.437,64.368 4.04,64.622 7.833,66.219 12.127,66.928 16.537,66.927 28.912,66.927 42.192,61.342 47.827,54.108 50.338,50.884 52.155,46.626 52.895,42.473 54.082,43.082 55.402,43.411 56.776,43.411 59.063,43.411 61.216,42.518 62.839,40.897 66.094,37.643 66.178,32.416 63.099,29.078 L 66.597,25.58 C 67.379,24.798 67.379,23.533 66.598,22.751 Z M 44.672,51.65 C 38.534,59.53 20.651,65.297 8.239,61.85 13.101,55.645 14.885,49.059 16.479,43.172 17.83,38.186 18.996,33.88 21.738,30.706 24.824,27.132 29.374,24.539 33.694,23.849 L 49.251,39.406 C 49.039,43.545 47.247,48.342 44.672,51.65 Z M 60.012,38.067 C 59.116,38.962 57.946,39.41 56.778,39.41 55.626,39.41 54.476,38.972 53.6,38.097 L 32.6,17.097 C 30.837,15.334 30.851,12.462 32.631,10.684 33.526,9.789 34.696,9.341 35.864,9.341 37.017,9.341 38.167,9.779 39.043,10.654 L 60.043,31.653 C 61.805,33.417 61.791,36.289 60.012,38.067 Z"
       inkscape:connector-curvature="0"
       style="fill:#ffffff" />
    <path
       id="path16"
       d="M 28.73,57.016 C 28.89,57.401 29.262,57.633 29.654,57.633 29.782,57.633 29.912,57.609 30.037,57.557 35.502,55.29 40.093,52.074 42.318,48.953 44.659,45.67 45.664,41.614 45.074,37.826 44.989,37.281 44.49,36.91 43.931,36.992 43.386,37.077 43.012,37.589 43.097,38.135 43.608,41.411 42.73,44.93 40.689,47.793 38.702,50.58 34.327,53.614 29.271,55.711 28.761,55.921 28.519,56.506 28.73,57.016 Z"
       inkscape:connector-curvature="0"
       style="fill:#ffffff" />
    <path
       id="path18"
       d="M 25.537,57.039 C 24.84,57.248 24.124,57.437 23.412,57.602 22.874,57.727 22.538,58.263 22.662,58.801 22.769,59.264 23.181,59.576 23.636,59.576 23.71,59.576 23.786,59.568 23.862,59.551 24.616,59.376 25.373,59.176 26.112,58.955 26.64,58.797 26.941,58.239 26.783,57.71 26.624,57.182 26.066,56.882 25.537,57.039 Z"
       inkscape:connector-curvature="0"
       style="fill:#ffffff" />
  </g>
</svg>
