<?xml version="1.0" encoding="UTF-8" standalone="no"?>
<!-- Created with Inkscape (http://www.inkscape.org/) -->

<svg
   xmlns:dc="http://purl.org/dc/elements/1.1/"
   xmlns:cc="http://creativecommons.org/ns#"
   xmlns:rdf="http://www.w3.org/1999/02/22-rdf-syntax-ns#"
   xmlns:svg="http://www.w3.org/2000/svg"
   xmlns="http://www.w3.org/2000/svg"
   xmlns:sodipodi="http://sodipodi.sourceforge.net/DTD/sodipodi-0.dtd"
   xmlns:inkscape="http://www.inkscape.org/namespaces/inkscape"
   width="95"
   height="112"
   viewBox="0 0 95 112"
   id="svg2"
   version="1.1"
   inkscape:version="0.91 r13725"
   sodipodi:docname="logoTennis.svg">
  <defs
     id="defs4" />
  <sodipodi:namedview
     id="base"
     pagecolor="#ffffff"
     bordercolor="#666666"
     borderopacity="1.0"
     inkscape:pageopacity="0.0"
     inkscape:pageshadow="2"
     inkscape:zoom="3.959798"
     inkscape:cx="-25.212173"
     inkscape:cy="42.479576"
     inkscape:document-units="px"
     inkscape:current-layer="svg2"
     showgrid="false"
     units="px"
     inkscape:window-width="1600"
     inkscape:window-height="834"
     inkscape:window-x="0"
     inkscape:window-y="27"
     inkscape:window-maximized="1"
     showguides="true"
     inkscape:guide-bbox="true">
    <sodipodi:guide
       position="65.912454,59.851538"
       orientation="0,1"
       id="guide4157" />
    <sodipodi:guide
       position="45,87.5"
       orientation="1,0"
       id="guide4159" />
    <sodipodi:guide
       position="144.95689,83.590123"
       orientation="0,1"
       id="guide4161" />
  </sodipodi:namedview>
  <metadata
     id="metadata7">
    <rdf:RDF>
      <cc:Work
         rdf:about="">
        <dc:format>image/svg+xml</dc:format>
        <dc:type
           rdf:resource="http://purl.org/dc/dcmitype/StillImage" />
        <dc:title />
      </cc:Work>
    </rdf:RDF>
  </metadata>
  <path
     style="opacity:1;fill:#373333;fill-opacity:1;stroke:#ffffff;stroke-width:4;stroke-linecap:round;stroke-linejoin:miter;stroke-miterlimit:4;stroke-dasharray:none;stroke-dashoffset:0;stroke-opacity:1"
     d="M 92.817104,83.409475 47.475093,109.68951 2.0500319,83.466785 2.0010358,30.074554 47.377102,2.6666106 92.768103,30.034296 Z"
     id="path4701"
     inkscape:connector-curvature="0"
     sodipodi:nodetypes="ccccccc" />
  <path
     d="M 68.606174,34.585534 C 65.871997,32.077114 62.451426,30.708886 58.572497,30.708886 55.382244,30.708886 52.185149,31.621038 48.997175,33.217304 49.909328,34.585534 50.365405,35.953763 50.821481,37.55003 53.101863,35.953763 55.838319,35.269649 58.572497,35.269649 60.62256,35.269649 63.363578,35.725723 65.413641,37.778067 69.974404,42.338831 68.147818,51.916431 61.539273,58.529538 57.432306,62.634224 52.417747,64.914605 47.628947,64.914605 45.578884,64.914605 42.837866,64.456248 40.787803,62.403905 38.507421,60.123523 37.823308,56.249157 38.507421,52.372508 38.279384,52.372508 38.279384,52.372508 38.051346,52.372508 36.683117,52.372508 35.086851,52.14447 33.94666,51.688393 33.442696,54.005261 33.41077,56.310725 33.796155,58.470247 33.866847,61.806446 33.520228,67.197266 31.43596,69.475367 L 29.036999,71.876609 28.92754,71.755748 C 28.243426,71.069353 27.103235,71.069353 26.419121,71.755748 L 17.98171,80.190879 C 17.525634,80.877273 17.753672,82.699298 19.1219,84.067528 20.49013,85.435756 22.314435,85.663794 22.770511,85.207718 L 31.207922,76.770307 C 31.892036,76.086193 31.892036,74.946002 31.207922,74.259608 L 33.716341,71.755748 C 35.864461,69.60763 40.796926,69.149272 44.153646,69.160674 45.193501,69.363629 46.274402,69.475367 47.398629,69.475367 53.099583,69.475367 59.48465,66.73663 64.501488,61.722071 73.394976,53.28238 74.993523,40.970601 68.606174,34.585534 Z M 36.452798,66.734349 C 36.598744,66.150571 36.721884,65.557672 36.826782,64.971615 37.006932,65.18141 37.168839,65.400326 37.364951,65.594158 37.640877,65.870084 37.928205,66.116365 38.217813,66.360366 37.622635,66.462983 37.032015,66.581563 36.452798,66.734349 Z M 41.469638,36.637876 C 39.189257,34.357495 38.73318,32.077114 38.73318,30.708886 41.013561,30.708886 43.065905,31.621038 44.89021,33.445343 46.488756,35.04161 47.398629,37.321991 47.398629,39.374335 46.030401,39.372054 43.750019,38.690221 41.469638,36.637876 Z M 31.892036,46.441236 C 30.067731,44.616931 29.155579,42.564588 29.155579,40.284206 30.751845,40.284206 32.804188,40.740282 35.08457,43.020664 37.136913,45.301045 37.821028,47.581426 37.821028,48.949655 35.768685,48.951936 33.716341,48.267821 31.892036,46.441236 Z M 36.452798,41.652435 C 33.716341,39.144017 30.979884,38.459901 29.383616,38.459901 29.611654,36.635596 30.523807,34.811291 31.892036,33.443063 33.260265,32.074834 34.856532,31.162681 36.680837,30.934643 36.908875,32.53091 37.592989,35.267368 40.329447,37.775787 42.837866,40.512244 45.574324,41.196359 47.398629,41.196359 47.16831,43.020664 46.258438,44.844969 44.89021,46.213198 43.52198,47.581426 41.697676,48.49358 39.87337,48.721617 39.645333,47.12763 38.961217,44.391173 36.452798,41.652435 Z"
     id="path10"
     inkscape:connector-curvature="0"
     style="fill:#ffffff" />
</svg>
