<?xml version="1.0" encoding="UTF-8" standalone="no"?>

<svg
     xmlns="http://www.w3.org/2000/svg"
     xmlns:xlink="http://www.w3.org/1999/xlink"
     version="1.1"
     viewBox="0 0 500 400"
     >
 <style type="text/css" >
      <![CDATA[

.loiret {
  stroke-dasharray: 1287;
  stroke-dashoffset: 1287;
  animation: dash 3s linear forwards;
  -webkit-animation : dash 3s linear forwards;
}

@keyframes dash {
  to {
    stroke-dashoffset: 0;
  }
}

@-webkit-keyframes dash {
  to {
    stroke-dashoffset: 0;
  }
}
      ]]>
    </style>

    <path
          class="loiret"
          stroke="#000000"
          stroke-width="4"
          fill="#FFF2B0"

          style="stroke-linecap:butt;stroke-linejoin:miter;stroke-miterlimit:4;stroke-opacity:1;fill:none"
          d="m 107.7578,267.46566 -11.830208,-13.88764 7.200998,-7.201 -7.200998,-5.14357 5.657928,-7.201 6.17228,-4.11486 2.05743,-8.74406 -4.62921,-3.6005 -8.229718,-5.14357 -1.54307,-6.17229 6.172288,0.51436 1.02871,-6.17229 2.57179,-4.11485 -3.6005,-2.57179 -7.200998,0 0,-15.94506 6.172278,-3.08614 6.17229,4.11486 8.22971,-4.62922 1.02872,-8.22972 4.11485,-1.54307 2.05743,5.14357 8.74407,-4.11486 11.31586,3.6005 14.40199,-7.71535 5.14357,-1.02872 3.6005,-7.71535 3.08615,-5.65793 2.57178,-9.25843 6.68664,1.02872 1.54307,1.02871 2.57179,-4.11486 5.65793,-6.17228 -4.11486,-8.74406 4.62921,-9.25843 2.57179,-7.201 10.8015,-4.629213 1.54307,3.086143 7.71535,-4.114857 7.201,3.600497 3.6005,-0.51435 -1.54307,-7.201003 7.201,-2.057428 0.51436,-4.114857 12.85892,6.172285 -1.54307,5.14357 10.8015,-2.057428 0,-5.14357 6.68664,-0.514357 0,6.172284 12.34457,-5.657927 4.11486,4.114856 1.02871,15.430715 4.62921,2.57178 8.74407,4.62921 6.68665,10.28714 0,4.11486 -10.8015,8.22971 -5.65793,11.31585 14.91636,-1.02871 6.68664,-6.17228 3.6005,0 -0.51436,5.14357 9.77278,-2.57179 6.68664,4.62921 11.83022,-2.05742 9.77278,-10.8015 2.57179,-2.05743 5.14357,1.02871 0,9.25843 6.68664,0 4.62921,-7.71536 7.71536,0 11.31585,1.54308 7.71536,2.05742 10.28714,21.603 -0.51436,4.62921 11.31586,6.68666 2.57178,19.54556 -13.88764,12.85893 -3.08614,4.62921 -5.14357,-1.02871 -2.05743,13.37328 1.54307,3.6005 4.62922,4.11486 -3.08615,10.28714 -7.71535,9.25843 -5.65793,5.14357 -5.65793,-5.65793 -5.14357,3.6005 -4.62921,-2.57179 -6.68664,14.402 6.68664,3.08614 7.201,6.68665 5.65793,3.60049 0.51435,7.71536 3.08614,2.05743 -2.57178,11.31585 6.68664,9.25843 -5.14357,6.17228 -10.8015,-6.17228 -8.22971,8.22971 3.6005,10.28714 -8.74407,6.68665 -20.05993,-15.43072 -2.05742,5.14358 2.05742,12.85892 -11.31585,-1.02871 -8.22971,-11.83021 0,-9.77279 -9.25843,2.05743 -3.6005,-6.17229 -12.85893,0.51436 -7.201,-10.8015 -20.05992,5.14357 -7.201,-6.17228 -13.37328,0.51436 -4.11486,-13.88764 -4.11486,-4.11486 -7.71535,0.51436 -12.34457,-1.54307 -2.57179,-2.57179 -7.71535,2.05743 -9.25843,-2.05743 0,7.71536 -11.31585,4.11485 -3.08615,-7.201 -15.94506,0.51436 0,-7.201 -5.14358,1.54307 1.02872,13.37329 -5.65793,0.51435 -4.62921,3.08614 -4.11486,-4.62921 -0.51436,-4.62921 -6.17228,-4.11487 -4.11486,-19.03121 -17.48814,-1.54307 z" />
</svg>
