<?xml version="1.0" encoding="UTF-8" standalone="no"?>
<svg
   xmlns:dc="http://purl.org/dc/elements/1.1/"
   xmlns:cc="http://creativecommons.org/ns#"
   xmlns:rdf="http://www.w3.org/1999/02/22-rdf-syntax-ns#"
   xmlns:svg="http://www.w3.org/2000/svg"
   xmlns="http://www.w3.org/2000/svg"
   xmlns:sodipodi="http://sodipodi.sourceforge.net/DTD/sodipodi-0.dtd"
   xmlns:inkscape="http://www.inkscape.org/namespaces/inkscape"
   version="1.1"
   width="900"
   height="900"
   viewbox="0 0 1052 745"
   id="svg2"
   inkscape:version="0.48.5 r10040"
   sodipodi:docname="parallaxePremierPlan.svg">
  <metadata
     id="metadata16">
    <rdf:RDF>
      <cc:Work
         rdf:about="">
        <dc:format>image/svg+xml</dc:format>
        <dc:type
           rdf:resource="http://purl.org/dc/dcmitype/StillImage" />
      </cc:Work>
    </rdf:RDF>
  </metadata>
  <sodipodi:namedview
     pagecolor="#ffffff"
     bordercolor="#666666"
     borderopacity="1"
     objecttolerance="10"
     gridtolerance="10"
     guidetolerance="10"
     inkscape:pageopacity="0"
     inkscape:pageshadow="2"
     inkscape:window-width="1600"
     inkscape:window-height="834"
     id="namedview14"
     showgrid="false"
     inkscape:zoom="0.31677852"
     inkscape:cx="1442.6745"
     inkscape:cy="336.86795"
     inkscape:window-x="0"
     inkscape:window-y="27"
     inkscape:window-maximized="1"
     inkscape:current-layer="svg2" />
  <defs
     id="defs10">
    <filter
       id="filter1"
       x="-0.16625975"
       width="1.3325195"
       y="-0.16625977"
       height="1.3325195"
       color-interpolation-filters="sRGB">
      <feGaussianBlur
         stdDeviation="9.9516139"
         id="feGaussianBlur3774" />
    </filter>
  </defs>
  <path
     inkscape:connector-curvature="0"
     id="path8"
     cx="288.90363"
     cy="273.3634"
     rx="24.243662"
     ry="27.274118"
     d="m 754.49014,455.12544 a 58.942917,58.942917 0 1 1 -117.88583,0 58.942917,58.942917 0 1 1 117.88583,0 z"
     style="opacity:0.3;fill:#ffffff;display:inline;filter:url(#filter1)"
     type="arc"
     transform="matrix(0.88541305,0,0,0.88541305,41.378752,48.021693)" />
  <path
     inkscape:connector-curvature="0"
     id="path10"
     type="arc"
     style="opacity:0.2;fill:#ffffff;display:inline;filter:url(#filter1)"
     cx="288.90363"
     cy="273.3634"
     rx="24.243662"
     ry="27.274118"
     d="m 379.03311,733.24141 a 45.18722,45.187218 0 0 1 -90.37444,0 45.18722,45.187218 0 1 1 90.37444,0 z"
     transform="matrix(0.88574164,0,0,0.88574164,-149.68371,0.78531678)" />
  <path
     inkscape:connector-curvature="0"
     id="path12"
     transform="matrix(2.1800932,0,0,1.9378607,-352.78032,-281.85018)"
     d="m 313.14729,273.3634 a 24.243665,27.274121 0 1 1 -48.48733,0 24.243665,27.274121 0 1 1 48.48733,0 z"
     ry="27.274118"
     rx="24.243662"
     cy="273.3634"
     cx="288.90363"
     style="opacity:0.5;fill:#ffffff;display:inline;filter:url(#filter1)"
     type="arc" />
</svg>
