<?xml version="1.0" encoding="UTF-8" standalone="no"?>
<svg
   xmlns:dc="http://purl.org/dc/elements/1.1/"
   xmlns:cc="http://creativecommons.org/ns#"
   xmlns:rdf="http://www.w3.org/1999/02/22-rdf-syntax-ns#"
   xmlns:svg="http://www.w3.org/2000/svg"
   xmlns="http://www.w3.org/2000/svg"
   xmlns:sodipodi="http://sodipodi.sourceforge.net/DTD/sodipodi-0.dtd"
   xmlns:inkscape="http://www.inkscape.org/namespaces/inkscape"
   version="1.1"
   width="1200"
   height="1200"
   viewbox="0 0 1000 1000"
   id="svg2"
   inkscape:version="0.48.5 r10040"
   sodipodi:docname="parallaxeTroisiemePlan.svg">
  <metadata
     id="metadata24">
    <rdf:RDF>
      <cc:Work
         rdf:about="">
        <dc:format>image/svg+xml</dc:format>
        <dc:type
           rdf:resource="http://purl.org/dc/dcmitype/StillImage" />
      </cc:Work>
    </rdf:RDF>
  </metadata>
  <defs
     id="defs22" />
  <sodipodi:namedview
     pagecolor="#ffffff"
     bordercolor="#666666"
     borderopacity="1"
     objecttolerance="10"
     gridtolerance="10"
     guidetolerance="10"
     inkscape:pageopacity="0"
     inkscape:pageshadow="2"
     inkscape:window-width="1600"
     inkscape:window-height="834"
     id="namedview20"
     showgrid="false"
     inkscape:zoom="0.27812867"
     inkscape:cx="2498.1404"
     inkscape:cy="234.73227"
     inkscape:window-x="0"
     inkscape:window-y="27"
     inkscape:window-maximized="1"
     inkscape:current-layer="svg2" />
  <path
     inkscape:connector-curvature="0"
     d="m 291.5116,238.11974 a 11.811025,11.811025 0 1 1 -23.62205,0 11.811025,11.811025 0 1 1 23.62205,0 z"
     ry="27.274118"
     rx="24.243662"
     cy="273.3634"
     cx="288.90363"
     id="path2985"
     style="opacity:0.4;fill:#ffffff;stroke-width:3;stroke-linecap:round;stroke-linejoin:round;stroke-miterlimit:4;stroke-dasharray:none;stroke-dashoffset:44"
     type="arc" />
  <path
     inkscape:connector-curvature="0"
     d="m 312.44605,779.88713 a 7.0386504,7.0386501 0 1 1 -14.0773,0 7.0386504,7.0386501 0 1 1 14.0773,0 z"
     ry="27.274118"
     rx="24.243662"
     cy="273.3634"
     cx="288.90363"
     id="path2985-1"
     style="opacity:0.4;fill:#ffffff;stroke-width:3;stroke-linecap:round;stroke-linejoin:round;stroke-miterlimit:4;stroke-dasharray:none;stroke-dashoffset:44"
     type="arc" />
  <path
     inkscape:connector-curvature="0"
     d="m 701.88441,388.0157 a 9.4248377,9.4248373 0 1 1 -18.84968,0 9.4248377,9.4248373 0 1 1 18.84968,0 z"
     ry="27.274118"
     rx="24.243662"
     cy="273.3634"
     cx="288.90363"
     id="path2985-1-7"
     style="opacity:0.4;fill:#ffffff;stroke-width:3;stroke-linecap:round;stroke-linejoin:round;stroke-miterlimit:4;stroke-dasharray:none;stroke-dashoffset:44"
     type="arc" />
  <path
     inkscape:connector-curvature="0"
     d="m 694.20949,393.82493 a 9.42484,9.4248396 0 0 1 -18.84968,0 9.42484,9.4248396 0 1 1 18.84968,0 z"
     ry="27.274118"
     rx="24.243662"
     cy="273.3634"
     cx="288.90363"
     id="path2985-1-7-4"
     style="opacity:0.4;fill:#ffffff;stroke-width:3;stroke-linecap:round;stroke-linejoin:round;stroke-miterlimit:4;stroke-dasharray:none;stroke-dashoffset:44"
     type="arc" />
  <path
     inkscape:connector-curvature="0"
     d="m 563.7719,197.09688 a 4.6524631,4.6524629 0 1 1 -9.30493,0 4.6524631,4.6524629 0 1 1 9.30493,0 z"
     ry="27.274118"
     rx="24.243662"
     cy="273.3634"
     cx="288.90363"
     id="path2985-1-7-4-0"
     style="opacity:0.4;fill:#ffffff;stroke-width:3;stroke-linecap:round;stroke-linejoin:round;stroke-miterlimit:4;stroke-dasharray:none;stroke-dashoffset:44"
     type="arc" />
  <path
     inkscape:connector-curvature="0"
     d="m 137.51536,521.86092 a 4.1752256,4.1752253 0 1 1 -8.35045,0 4.1752256,4.1752253 0 1 1 8.35045,0 z"
     ry="27.274118"
     rx="24.243662"
     cy="273.3634"
     cx="288.90363"
     id="path2985-1-7-4-0-9"
     style="opacity:0.4;fill:#ffffff;stroke-width:3;stroke-linecap:round;stroke-linejoin:round;stroke-miterlimit:4;stroke-dasharray:none;stroke-dashoffset:44"
     type="arc" />
  <path
     inkscape:connector-curvature="0"
     d="m 399.50559,545.18205 a 14.396403,14.396402 0 0 1 -28.79281,0 14.396403,14.396402 0 1 1 28.79281,0 z"
     ry="27.274118"
     rx="24.243662"
     cy="273.3634"
     cx="288.90363"
     id="path2985-1-7-4-0-9-4"
     style="opacity:0.4;fill:#ffffff;stroke-width:3;stroke-linecap:round;stroke-linejoin:round;stroke-miterlimit:4;stroke-dasharray:none;stroke-dashoffset:44"
     type="arc" />
  <path
     inkscape:connector-curvature="0"
     d="m 660.66302,558.22642 a 6.0841754,6.0841751 0 1 1 -12.16835,0 6.0841754,6.0841751 0 1 1 12.16835,0 z"
     ry="27.274118"
     rx="24.243662"
     cy="273.3634"
     cx="288.90363"
     id="path2985-1-7-4-0-9-4-8"
     style="opacity:0.4;fill:#ffffff;stroke-width:3;stroke-linecap:round;stroke-linejoin:round;stroke-miterlimit:4;stroke-dasharray:none;stroke-dashoffset:44"
     type="arc" />
  <path
     inkscape:connector-curvature="0"
     d="m 942.21574,685.8178 a 9.90208,9.9020797 0 0 1 -19.80416,0 9.90208,9.9020797 0 1 1 19.80416,0 z"
     ry="27.274118"
     rx="24.243662"
     cy="273.3634"
     cx="288.90363"
     id="path2985-1-7-4-0-9-4-8-8"
     style="opacity:0.4;fill:#ffffff;stroke-width:3;stroke-linecap:round;stroke-linejoin:round;stroke-miterlimit:4;stroke-dasharray:none;stroke-dashoffset:44"
     type="arc" />
  <path
     inkscape:connector-curvature="0"
     d="m 895.18544,263.26187 a 3.2207505,3.2207505 0 1 1 -6.4415,0 3.2207505,3.2207505 0 1 1 6.4415,0 z"
     ry="27.274118"
     rx="24.243662"
     cy="273.3634"
     cx="288.90363"
     id="path2985-1-7-4-0-9-4-8-8-2"
     style="opacity:0.4;fill:#ffffff;stroke-width:3;stroke-linecap:round;stroke-linejoin:round;stroke-miterlimit:4;stroke-dasharray:none;stroke-dashoffset:44"
     type="arc" />
  <path
     inkscape:connector-curvature="0"
     d="m 996.23605,301.42995 a 7.0386504,7.0386501 0 1 1 -14.0773,0 7.0386504,7.0386501 0 1 1 14.0773,0 z"
     ry="27.274118"
     rx="24.243662"
     cy="273.3634"
     cx="288.90363"
     id="path2985-1-7-4-0-9-4-8-8-2-4"
     style="opacity:0.4;fill:#ffffff;stroke-width:3;stroke-linecap:round;stroke-linejoin:round;stroke-miterlimit:4;stroke-dasharray:none;stroke-dashoffset:44"
     type="arc" />
  <path
     inkscape:connector-curvature="0"
     d="m 373.72402,86.48517 a 7.0386504,7.0386501 0 1 1 -14.0773,0 7.0386504,7.0386501 0 1 1 14.0773,0 z"
     ry="27.274118"
     rx="24.243662"
     cy="273.3634"
     cx="288.90363"
     id="path2985-1-7-4-0-9-4-8-8-2-5"
     style="opacity:0.4;fill:#ffffff;stroke-width:3;stroke-linecap:round;stroke-linejoin:round;stroke-miterlimit:4;stroke-dasharray:none;stroke-dashoffset:44"
     type="arc" />
  <path
     inkscape:connector-curvature="0"
     d="m 144.50291,235.48268 a 5.6069379,5.6069377 0 1 1 -11.21387,0 5.6069379,5.6069377 0 1 1 11.21387,0 z"
     ry="27.274118"
     rx="24.243662"
     cy="273.3634"
     cx="288.90363"
     id="path2985-1-7-4-0-9-4-8-8-2-5-5"
     style="opacity:0.4;fill:#ffffff;stroke-width:3;stroke-linecap:round;stroke-linejoin:round;stroke-miterlimit:4;stroke-dasharray:none;stroke-dashoffset:44"
     type="arc" />
  <path
     inkscape:connector-curvature="0"
     d="m 280.59511,479.93959 a 10.379313,10.379312 0 1 1 -20.75862,0 10.379313,10.379312 0 1 1 20.75862,0 z"
     ry="27.274118"
     rx="24.243662"
     cy="273.3634"
     cx="288.90363"
     id="path2985-1-7-4-0-9-4-8-8-2-5-1"
     style="opacity:0.4;fill:#ffffff;stroke-width:3;stroke-linecap:round;stroke-linejoin:round;stroke-miterlimit:4;stroke-dasharray:none;stroke-dashoffset:44"
     type="arc" />
  <path
     inkscape:connector-curvature="0"
     d="m 546.87806,760.4347 a 15.15169,15.151689 0 0 1 -30.30338,0 15.15169,15.151689 0 1 1 30.30338,0 z"
     ry="27.274118"
     rx="24.243662"
     cy="273.3634"
     cx="288.90363"
     id="path2985-1-7-4-0-9-4-8-8-2-5-1-7"
     style="opacity:0.4;fill:#ffffff;stroke-width:3;stroke-linecap:round;stroke-linejoin:round;stroke-miterlimit:4;stroke-dasharray:none;stroke-dashoffset:44"
     type="arc" />
  <path
     inkscape:connector-curvature="0"
     d="m 510.4028,977.08159 a 7.0386504,7.0386501 0 1 1 -14.0773,0 7.0386504,7.0386501 0 1 1 14.0773,0 z"
     ry="27.274118"
     rx="24.243662"
     cy="273.3634"
     cx="288.90363"
     id="path2985-1-3"
     style="opacity:0.4;fill:#ffffff;stroke-width:3;stroke-linecap:round;stroke-linejoin:round;stroke-miterlimit:4;stroke-dasharray:none;stroke-dashoffset:44"
     type="arc" />
  <path
     inkscape:connector-curvature="0"
     d="m 779.65083,1024.402 a 3.2207505,3.2207505 0 1 1 -6.4415,0 3.2207505,3.2207505 0 1 1 6.4415,0 z"
     ry="27.274118"
     rx="24.243662"
     cy="273.3634"
     cx="288.90363"
     id="path2985-1-7-4-0-9-4-8-8-2-7"
     style="opacity:0.4;fill:#ffffff;stroke-width:3;stroke-linecap:round;stroke-linejoin:round;stroke-miterlimit:4;stroke-dasharray:none;stroke-dashoffset:44"
     type="arc" />
  <path
     inkscape:connector-curvature="0"
     d="m 983.172,965.49273 a 7.0386504,7.0386501 0 1 1 -14.0773,0 7.0386504,7.0386501 0 1 1 14.0773,0 z"
     ry="27.274118"
     rx="24.243662"
     cy="273.3634"
     cx="288.90363"
     id="path2985-1-7-4-0-9-4-8-8-2-4-9"
     style="opacity:0.4;fill:#ffffff;stroke-width:3;stroke-linecap:round;stroke-linejoin:round;stroke-miterlimit:4;stroke-dasharray:none;stroke-dashoffset:44"
     type="arc" />
  <path
     inkscape:connector-curvature="0"
     d="m 952.811,906.97016 a 14.396405,14.396404 0 0 1 -28.79281,0 14.396405,14.396404 0 1 1 28.79281,0 z"
     ry="27.274118"
     rx="24.243662"
     cy="273.3634"
     cx="288.90363"
     id="path2985-1-7-4-0-9-4-9"
     style="opacity:0.4;fill:#ffffff;stroke-width:3;stroke-linecap:round;stroke-linejoin:round;stroke-miterlimit:4;stroke-dasharray:none;stroke-dashoffset:44"
     type="arc" />
  <path
     inkscape:connector-curvature="0"
     d="m 731.34555,795.12712 a 9.9472525,9.9472518 0 0 1 -19.8945,0 9.9472525,9.9472518 0 1 1 19.8945,0 z"
     ry="27.274118"
     rx="24.243662"
     cy="273.3634"
     cx="288.90363"
     id="path2985-1-7-4-0-9-4-3"
     style="opacity:0.4;fill:#ffffff;stroke-width:3;stroke-linecap:round;stroke-linejoin:round;stroke-miterlimit:4;stroke-dasharray:none;stroke-dashoffset:44"
     type="arc" />
</svg>
