<?xml version="1.0" encoding="UTF-8" standalone="no"?>


<svg xmlns="http://www.w3.org/2000/svg"
     version="1.1"
     width="1052"
     height="745"
     viewbox="0 0 1052 745"
     >
    <defs
          id="defs10">
        <filter

                id="filter1"
                x="-0.16625975"
                width="1.3325195"
                y="-0.16625976"
                height="1.3325195">
            <feGaussianBlur

                            stdDeviation="9.9516139"
                            id="feGaussianBlur3774" />
        </filter>
    </defs>
    <g
       groupmode="layer"
       id="layer3"
       label="premierPlan">
        <path
              type="arc"
              style="opacity:0.3;fill:white;display:inline;filter:url(#filter1)"

              d="m 877.60455,282.20171 a 58.942917,58.942917 0 1 1 -117.88583,0 58.942917,58.942917 0 1 1 117.88583,0 z"
              ry="27.274118"
              rx="24.243662"
              cy="273.3634"
              cx="288.90363"
              />
        <path

              d="m 382.18989,588.7287 a 45.18722,45.187218 0 0 1 -90.37444,0 45.18722,45.187218 0 1 1 90.37444,0 z"
              ry="27.274118"
              rx="24.243662"
              cy="273.3634"
              cx="288.90363"

              style="opacity:0.2;fill:#ffffff;display:inline;filter:url(#filter1)"
              type="arc" />
        <path
              type="arc"
              style="opacity:0.5;fill:white;display:inline;filter:url(#filter1)"

              cx="288.90363"
              cy="273.3634"
              rx="24.243662"
              ry="27.274118"
              d="m 313.14729,273.3634 a 24.243662,27.274118 0 1 1 -48.48733,0 24.243662,27.274118 0 1 1 48.48733,0 z"
              transform="matrix(2.1800932,0,0,1.9378607,-361.13624,-327.08747)" />
    </g>
</svg>
