<?xml version="1.0" encoding="UTF-8" standalone="no"?>
<svg
   xmlns:dc="http://purl.org/dc/elements/1.1/"
   xmlns:cc="http://creativecommons.org/ns#"
   xmlns:rdf="http://www.w3.org/1999/02/22-rdf-syntax-ns#"
   xmlns:svg="http://www.w3.org/2000/svg"
   xmlns="http://www.w3.org/2000/svg"
   xmlns:sodipodi="http://sodipodi.sourceforge.net/DTD/sodipodi-0.dtd"
   xmlns:inkscape="http://www.inkscape.org/namespaces/inkscape"
   version="1.1"
   width="1100"
   height="1100"
   viewbox="0 0 1052 745"
   id="svg2"
   inkscape:version="0.48.5 r10040"
   sodipodi:docname="parallaxeSecondPlan.svg">
  <metadata
     id="metadata17">
    <rdf:RDF>
      <cc:Work
         rdf:about="">
        <dc:format>image/svg+xml</dc:format>
        <dc:type
           rdf:resource="http://purl.org/dc/dcmitype/StillImage" />
      </cc:Work>
    </rdf:RDF>
  </metadata>
  <defs
     id="defs15" />
  <sodipodi:namedview
     pagecolor="#ffffff"
     bordercolor="#666666"
     borderopacity="1"
     objecttolerance="10"
     gridtolerance="10"
     guidetolerance="10"
     inkscape:pageopacity="0"
     inkscape:pageshadow="2"
     inkscape:window-width="1600"
     inkscape:window-height="834"
     id="namedview13"
     showgrid="false"
     inkscape:zoom="0.44799248"
     inkscape:cx="423.59445"
     inkscape:cy="589.45505"
     inkscape:window-x="0"
     inkscape:window-y="27"
     inkscape:window-maximized="1"
     inkscape:current-layer="svg2" />
  <path
     inkscape:connector-curvature="0"
     d="m 428.138,700.01176 a 10.554654,10.554653 0 0 1 -21.1093,0 10.554654,10.554653 0 1 1 21.1093,0 z"
     ry="27.274118"
     rx="24.243662"
     cy="273.3634"
     cx="288.90363"
     id="path2985-1-7-1"
     style="opacity:0.3;fill:#ffffff;stroke-linecap:round;stroke-linejoin:round;stroke-miterlimit:4;stroke-opacity:1;stroke-dasharray:none;stroke-dashoffset:44;display:inline"
     type="arc" />
  <path
     inkscape:connector-curvature="0"
     d="m 279.38126,476.61021 a 13.66287,13.66287 0 0 1 -27.32573,0 13.66287,13.66287 0 1 1 27.32573,0 z"
     ry="27.274118"
     rx="24.243662"
     cy="273.3634"
     cx="288.90363"
     id="path2985-1-7-1-1"
     style="opacity:0.3;fill:#ffffff;stroke-linecap:round;stroke-linejoin:round;stroke-miterlimit:4;stroke-opacity:1;stroke-dasharray:none;stroke-dashoffset:44;display:inline"
     type="arc" />
  <path
     inkscape:connector-curvature="0"
     d="m 433.0097,834.60825 a 6.9284056,6.9284056 0 0 1 -13.85681,0 6.9284056,6.9284056 0 1 1 13.85681,0 z"
     ry="27.274118"
     rx="24.243662"
     cy="273.3634"
     cx="288.90363"
     id="path2985-1-7-1-1-5"
     style="opacity:0.3;fill:#ffffff;stroke-linecap:round;stroke-linejoin:round;stroke-miterlimit:4;stroke-opacity:1;stroke-dasharray:none;stroke-dashoffset:44;display:inline"
     type="arc" />
  <path
     inkscape:connector-curvature="0"
     d="m 608.53103,890.25613 a 14.957961,14.957961 0 0 1 -29.91592,0 14.957961,14.957961 0 1 1 29.91592,0 z"
     ry="27.274118"
     rx="24.243662"
     cy="273.3634"
     cx="288.90363"
     id="path2985-1-7-1-1-5-2"
     style="opacity:0.3;fill:#ffffff;stroke-linecap:round;stroke-linejoin:round;stroke-miterlimit:4;stroke-opacity:1;stroke-dasharray:none;stroke-dashoffset:44;display:inline"
     type="arc" />
  <path
     inkscape:connector-curvature="0"
     d="m 402.63062,406.9819 a 10.813671,10.813671 0 0 1 -21.62734,0 10.813671,10.813671 0 1 1 21.62734,0 z"
     ry="27.274118"
     rx="24.243662"
     cy="273.3634"
     cx="288.90363"
     id="path2985-1-7-1-1-5-2-7"
     style="opacity:0.3;fill:#ffffff;stroke-linecap:round;stroke-linejoin:round;stroke-miterlimit:4;stroke-opacity:1;stroke-dasharray:none;stroke-dashoffset:44;display:inline"
     type="arc" />
  <path
     inkscape:connector-curvature="0"
     d="m 298.81038,891.35258 a 9.5185831,9.5185831 0 0 1 -19.03716,0 9.5185831,9.5185831 0 1 1 19.03716,0 z"
     ry="27.274118"
     rx="24.243662"
     cy="273.3634"
     cx="288.90363"
     id="path2985-1-7-1-1-5-2-7-6"
     style="opacity:0.3;fill:#ffffff;stroke-linecap:round;stroke-linejoin:round;stroke-miterlimit:4;stroke-opacity:1;stroke-dasharray:none;stroke-dashoffset:44;display:inline"
     type="arc" />
  <path
     inkscape:connector-curvature="0"
     d="m 317.25676,780.4681 a 9.7355089,9.7355084 0 0 1 -19.47102,0 9.7355089,9.7355084 0 1 1 19.47102,0 z"
     ry="27.274118"
     rx="24.243662"
     cy="273.3634"
     cx="288.90363"
     id="path2985-1-7-1-1-5-2-7-6-1"
     style="opacity:0.3;fill:#ffffff;stroke-linecap:round;stroke-linejoin:round;stroke-miterlimit:4;stroke-opacity:1;stroke-dasharray:none;stroke-dashoffset:44;display:inline"
     type="arc" />
  <path
     inkscape:connector-curvature="0"
     d="m 581.19707,371.95784 a 10.554654,10.554653 0 0 1 -21.1093,0 10.554654,10.554653 0 1 1 21.1093,0 z"
     ry="27.274118"
     rx="24.243662"
     cy="273.3634"
     cx="288.90363"
     id="path2985-1-7-1-5"
     style="opacity:0.3;fill:#ffffff;stroke-linecap:round;stroke-linejoin:round;stroke-miterlimit:4;stroke-opacity:1;stroke-dasharray:none;stroke-dashoffset:44;display:inline"
     type="arc" />
  <path
     inkscape:connector-curvature="0"
     d="m 712.32272,412.80279 a 13.66287,13.66287 0 0 1 -27.32574,0 13.66287,13.66287 0 1 1 27.32574,0 z"
     ry="27.274118"
     rx="24.243662"
     cy="273.3634"
     cx="288.90363"
     id="path2985-1-7-1-1-8"
     style="opacity:0.3;fill:#ffffff;stroke-linecap:round;stroke-linejoin:round;stroke-miterlimit:4;stroke-opacity:1;stroke-dasharray:none;stroke-dashoffset:44;display:inline"
     type="arc" />
  <path
     inkscape:connector-curvature="0"
     d="m 586.06876,506.55431 a 6.9284021,6.9284021 0 1 1 -13.8568,0 6.9284021,6.9284021 0 1 1 13.8568,0 z"
     ry="27.274118"
     rx="24.243662"
     cy="273.3634"
     cx="288.90363"
     id="path2985-1-7-1-1-5-0"
     style="opacity:0.3;fill:#ffffff;stroke-linecap:round;stroke-linejoin:round;stroke-miterlimit:4;stroke-opacity:1;stroke-dasharray:none;stroke-dashoffset:44;display:inline"
     type="arc" />
  <path
     inkscape:connector-curvature="0"
     d="m 761.5901,557.73616 a 10.4936,10.4936 0 0 1 -20.9872,0 10.4936,10.4936 0 1 1 20.9872,0 z"
     ry="27.274118"
     rx="24.243662"
     cy="273.3634"
     cx="288.90363"
     id="path2985-1-7-1-1-5-2-9"
     style="opacity:0.3;fill:#ffffff;stroke-linecap:round;stroke-linejoin:round;stroke-miterlimit:4;stroke-opacity:1;stroke-dasharray:none;stroke-dashoffset:44;display:inline"
     type="arc" />
  <path
     inkscape:connector-curvature="0"
     d="m 835.57207,343.17447 a 10.813671,10.813671 0 0 1 -21.62734,0 10.813671,10.813671 0 1 1 21.62734,0 z"
     ry="27.274118"
     rx="24.243662"
     cy="273.3634"
     cx="288.90363"
     id="path2985-1-7-1-1-5-2-7-9"
     style="opacity:0.3;fill:#ffffff;stroke-linecap:round;stroke-linejoin:round;stroke-miterlimit:4;stroke-opacity:1;stroke-dasharray:none;stroke-dashoffset:44;display:inline"
     type="arc" />
  <path
     inkscape:connector-curvature="0"
     d="m 451.86944,563.29865 a 9.5185831,9.5185831 0 0 1 -19.03716,0 9.5185831,9.5185831 0 1 1 19.03716,0 z"
     ry="27.274118"
     rx="24.243662"
     cy="273.3634"
     cx="288.90363"
     id="path2985-1-7-1-1-5-2-7-6-8"
     style="opacity:0.3;fill:#ffffff;stroke-linecap:round;stroke-linejoin:round;stroke-miterlimit:4;stroke-opacity:1;stroke-dasharray:none;stroke-dashoffset:44;display:inline"
     type="arc" />
  <path
     inkscape:connector-curvature="0"
     d="m 745.15809,708.32107 a 13.66287,13.66287 0 0 1 -27.32574,0 13.66287,13.66287 0 1 1 27.32574,0 z"
     ry="27.274118"
     rx="24.243662"
     cy="273.3634"
     cx="288.90363"
     id="path2985-1-7-1-1-7"
     style="opacity:0.3;fill:#ffffff;stroke-linecap:round;stroke-linejoin:round;stroke-miterlimit:4;stroke-opacity:1;stroke-dasharray:none;stroke-dashoffset:44;display:inline"
     type="arc" />
  <path
     inkscape:connector-curvature="0"
     d="m 618.90413,802.07259 a 6.9284021,6.9284021 0 1 1 -13.8568,0 6.9284021,6.9284021 0 1 1 13.8568,0 z"
     ry="27.274118"
     rx="24.243662"
     cy="273.3634"
     cx="288.90363"
     id="path2985-1-7-1-1-5-8"
     style="opacity:0.3;fill:#ffffff;stroke-linecap:round;stroke-linejoin:round;stroke-miterlimit:4;stroke-opacity:1;stroke-dasharray:none;stroke-dashoffset:44;display:inline"
     type="arc" />
  <path
     inkscape:connector-curvature="0"
     d="m 794.42546,857.72043 a 14.957961,14.957961 0 0 1 -29.91592,0 14.957961,14.957961 0 1 1 29.91592,0 z"
     ry="27.274118"
     rx="24.243662"
     cy="273.3634"
     cx="288.90363"
     id="path2985-1-7-1-1-5-2-99"
     style="opacity:0.3;fill:#ffffff;stroke-linecap:round;stroke-linejoin:round;stroke-miterlimit:4;stroke-opacity:1;stroke-dasharray:none;stroke-dashoffset:44;display:inline"
     type="arc" />
  <path
     inkscape:connector-curvature="0"
     d="m 868.40744,638.69275 a 10.813671,10.813671 0 0 1 -21.62734,0 10.813671,10.813671 0 1 1 21.62734,0 z"
     ry="27.274118"
     rx="24.243662"
     cy="273.3634"
     cx="288.90363"
     id="path2985-1-7-1-1-5-2-7-4"
     style="opacity:0.3;fill:#ffffff;stroke-linecap:round;stroke-linejoin:round;stroke-miterlimit:4;stroke-opacity:1;stroke-dasharray:none;stroke-dashoffset:44;display:inline"
     type="arc" />
  <path
     inkscape:connector-curvature="0"
     d="m 484.70481,858.81693 a 9.518585,9.518585 0 0 1 -19.03717,0 9.518585,9.518585 0 1 1 19.03717,0 z"
     ry="27.274118"
     rx="24.243662"
     cy="273.3634"
     cx="288.90363"
     id="path2985-1-7-1-1-5-2-7-6-9"
     style="opacity:0.3;fill:#ffffff;stroke-linecap:round;stroke-linejoin:round;stroke-miterlimit:4;stroke-opacity:1;stroke-dasharray:none;stroke-dashoffset:44;display:inline"
     type="arc" />
  <path
     inkscape:connector-curvature="0"
     d="m 551.9367,657.78825 a 11.969569,11.969569 0 1 1 -23.93914,0 11.969569,11.969569 0 1 1 23.93914,0 z"
     ry="27.274118"
     rx="24.243662"
     cy="273.3634"
     cx="288.90363"
     id="path2985-1-7-1-1-5-2-7-6-1-6"
     style="opacity:0.3;fill:#ffffff;stroke-linecap:round;stroke-linejoin:round;stroke-miterlimit:4;stroke-opacity:1;stroke-dasharray:none;stroke-dashoffset:44;display:inline"
     type="arc" />
  <path
     inkscape:connector-curvature="0"
     d="m 452.61081,234.6844 a 13.66287,13.66287 0 0 1 -27.32574,0 13.66287,13.66287 0 1 1 27.32574,0 z"
     ry="27.274118"
     rx="24.243662"
     cy="273.3634"
     cx="288.90363"
     id="path2985-1-7-1-1-7-9"
     style="opacity:0.3;fill:#ffffff;stroke-linecap:round;stroke-linejoin:round;stroke-miterlimit:4;stroke-opacity:1;stroke-dasharray:none;stroke-dashoffset:44;display:inline"
     type="arc" />
  <path
     inkscape:connector-curvature="0"
     d="m 240.98401,646.31355 a 6.9284021,6.9284021 0 1 1 -13.85679,0 6.9284021,6.9284021 0 1 1 13.85679,0 z"
     ry="27.274118"
     rx="24.243662"
     cy="273.3634"
     cx="288.90363"
     id="path2985-1-7-1-1-5-8-4"
     style="opacity:0.3;fill:#ffffff;stroke-linecap:round;stroke-linejoin:round;stroke-miterlimit:4;stroke-opacity:1;stroke-dasharray:none;stroke-dashoffset:44;display:inline"
     type="arc" />
  <path
     inkscape:connector-curvature="0"
     d="m 501.87819,384.08376 a 14.957957,14.957957 0 0 1 -29.91591,0 14.957957,14.957957 0 1 1 29.91591,0 z"
     ry="27.274118"
     rx="24.243662"
     cy="273.3634"
     cx="288.90363"
     id="path2985-1-7-1-1-5-2-99-0"
     style="opacity:0.3;fill:#ffffff;stroke-linecap:round;stroke-linejoin:round;stroke-miterlimit:4;stroke-opacity:1;stroke-dasharray:none;stroke-dashoffset:44;display:inline"
     type="arc" />
  <path
     inkscape:connector-curvature="0"
     d="m 575.86017,165.05609 a 10.813674,10.813674 0 0 1 -21.62734,0 10.813674,10.813674 0 1 1 21.62734,0 z"
     ry="27.274118"
     rx="24.243662"
     cy="273.3634"
     cx="288.90363"
     id="path2985-1-7-1-1-5-2-7-4-2"
     style="opacity:0.3;fill:#ffffff;stroke-linecap:round;stroke-linejoin:round;stroke-miterlimit:4;stroke-opacity:1;stroke-dasharray:none;stroke-dashoffset:44;display:inline"
     type="arc" />
  <path
     inkscape:connector-curvature="0"
     d="m 192.15754,385.18026 a 9.5185813,9.5185813 0 1 1 -19.03716,0 9.5185813,9.5185813 0 1 1 19.03716,0 z"
     ry="27.274118"
     rx="24.243662"
     cy="273.3634"
     cx="288.90363"
     id="path2985-1-7-1-1-5-2-7-6-9-9"
     style="opacity:0.3;fill:#ffffff;stroke-linecap:round;stroke-linejoin:round;stroke-miterlimit:4;stroke-opacity:1;stroke-dasharray:none;stroke-dashoffset:44;display:inline"
     type="arc" />
  <path
     inkscape:connector-curvature="0"
     d="m 210.60393,282.10841 a 17.54814,17.548139 0 0 1 -35.09628,0 17.54814,17.548139 0 1 1 35.09628,0 z"
     ry="27.274118"
     rx="24.243662"
     cy="273.3634"
     cx="288.90363"
     id="path2985-1-7-1-1-5-2-7-6-1-6-5"
     style="opacity:0.3;fill:#ffffff;stroke-linecap:round;stroke-linejoin:round;stroke-miterlimit:4;stroke-opacity:1;stroke-dasharray:none;stroke-dashoffset:44;display:inline"
     type="arc" />
</svg>
