<?xml version="1.0" encoding="UTF-8" standalone="no"?>

<svg xmlns="http://www.w3.org/2000/svg"
     version="1.1"
     width="1052"
     height="745"
     viewbox="0 0 1052 745"
     >

    <g
       style="display:inline">
        <path
              type="arc"
              style="opacity:0.65116278;fill:none;stroke:#2646b3;stroke-width:3;stroke-linecap:round;stroke-linejoin:round;stroke-miterlimit:4;stroke-opacity:1;stroke-dasharray:none;stroke-dashoffset:44;display:inline"
              id="path2985-1-7-1"
              cx="288.90363"
              cy="273.3634"
              rx="24.243662"
              ry="27.274118"
              d="m 313.14729,273.3634 a 24.243662,27.274118 0 1 1 -48.48733,0 24.243662,27.274118 0 1 1 48.48733,0 z"
              transform="matrix(0.80214048,0,0,0.71301378,165.75373,9.2560711)" />
        <path
              type="arc"
              style="opacity:0.65116278;fill:none;stroke:#2646b3;stroke-width:3;stroke-linecap:round;stroke-linejoin:round;stroke-miterlimit:4;stroke-opacity:1;stroke-dasharray:none;stroke-dashoffset:44;display:inline"
              id="path2985-1-7-1-1"
              cx="288.90363"
              cy="273.3634"
              rx="24.243662"
              ry="27.274118"
              d="m 313.14729,273.3634 a 24.243662,27.274118 0 1 1 -48.48733,0 24.243662,27.274118 0 1 1 48.48733,0 z"
              transform="matrix(1.0383609,0,0,0.92298754,333.3794,27.113298)" />
        <path
              type="arc"
              style="opacity:0.65116278;fill:none;stroke:#2646b3;stroke-width:3;stroke-linecap:round;stroke-linejoin:round;stroke-miterlimit:4;stroke-opacity:1;stroke-dasharray:none;stroke-dashoffset:44;display:inline"
              id="path2985-1-7-1-1-5"
              cx="288.90363"
              cy="273.3634"
              rx="24.243662"
              ry="27.274118"
              d="m 313.14729,273.3634 a 24.243662,27.274118 0 1 1 -48.48733,0 24.243662,27.274118 0 1 1 48.48733,0 z"
              transform="matrix(0.52654989,0,0,0.46804439,261.03022,324.21419)" />
        <path
              type="arc"
              style="opacity:0.65116278;fill:none;stroke:#2646b3;stroke-width:3;stroke-linecap:round;stroke-linejoin:round;stroke-miterlimit:4;stroke-opacity:1;stroke-dasharray:none;stroke-dashoffset:44;display:inline"
              id="path2985-1-7-1-1-5-2"
              cx="288.90363"
              cy="273.3634"
              rx="24.243662"
              ry="27.274118"
              d="m 313.14729,273.3634 a 24.243662,27.274118 0 1 1 -48.48733,0 24.243662,27.274118 0 1 1 48.48733,0 z"
              transform="matrix(1.1367861,0,0,1.0104766,393.33238,278.46356)" />
        <path
              type="arc"
              style="opacity:0.65116278;fill:none;stroke:#2646b3;stroke-width:3;stroke-linecap:round;stroke-linejoin:round;stroke-miterlimit:4;stroke-opacity:1;stroke-dasharray:none;stroke-dashoffset:44;display:inline"
              id="path2985-1-7-1-1-5-2-7"
              cx="288.90363"
              cy="273.3634"
              rx="24.243662"
              ry="27.274118"
              d="m 313.14729,273.3634 a 24.243662,27.274118 0 1 1 -48.48733,0 24.243662,27.274118 0 1 1 48.48733,0 z"
              transform="matrix(0.82182548,0,0,0.73051159,628.27237,-48.560192)" />
        <path
              type="arc"
              style="opacity:0.65116278;fill:none;stroke:#2646b3;stroke-width:3;stroke-linecap:round;stroke-linejoin:round;stroke-miterlimit:4;stroke-opacity:1;stroke-dasharray:none;stroke-dashoffset:44;display:inline"
              id="path2985-1-7-1-1-5-2-7-6"
              cx="288.90363"
              cy="273.3634"
              rx="24.243662"
              ry="27.274118"
              d="m 313.14729,273.3634 a 24.243662,27.274118 0 1 1 -48.48733,0 24.243662,27.274118 0 1 1 48.48733,0 z"
              transform="matrix(0.72340029,0,0,0.64302252,-47.873636,380.93236)" />
        <path
              type="arc"
              style="opacity:0.65116278;fill:none;stroke:#2646b3;stroke-width:3;stroke-linecap:round;stroke-linejoin:round;stroke-miterlimit:4;stroke-opacity:1;stroke-dasharray:none;stroke-dashoffset:44;display:inline"
              id="path2985-1-7-1-1-5-2-7-6-1"
              cx="288.90363"
              cy="273.3634"
              rx="24.243662"
              ry="27.274118"
              d="m 313.14729,273.3634 a 24.243662,27.274118 0 1 1 -48.48733,0 24.243662,27.274118 0 1 1 48.48733,0 z"
              transform="matrix(1.3336365,0,0,1.1854547,-204.98018,42.742561)" />
    </g>

</svg>
