<?xml version="1.0" encoding="UTF-8" standalone="no"?>
<svg
   xmlns:dc="http://purl.org/dc/elements/1.1/"
   xmlns:cc="http://creativecommons.org/ns#"
   xmlns:rdf="http://www.w3.org/1999/02/22-rdf-syntax-ns#"
   xmlns:svg="http://www.w3.org/2000/svg"
   xmlns="http://www.w3.org/2000/svg"
   xmlns:sodipodi="http://sodipodi.sourceforge.net/DTD/sodipodi-0.dtd"
   xmlns:inkscape="http://www.inkscape.org/namespaces/inkscape"
   version="1.1"
   width="1200"
   height="1200"
   viewbox="0 0 1000 1000"
   id="svg2"
   inkscape:version="0.48.5 r10040"
   sodipodi:docname="parallaxeTroisiemePlan.svg">
  <metadata
     id="metadata34">
    <rdf:RDF>
      <cc:Work
         rdf:about="">
        <dc:format>image/svg+xml</dc:format>
        <dc:type
           rdf:resource="http://purl.org/dc/dcmitype/StillImage" />
      </cc:Work>
    </rdf:RDF>
  </metadata>
  <defs
     id="defs32" />
  <sodipodi:namedview
     pagecolor="#ffffff"
     bordercolor="#666666"
     borderopacity="1"
     objecttolerance="10"
     gridtolerance="10"
     guidetolerance="10"
     inkscape:pageopacity="0"
     inkscape:pageshadow="2"
     inkscape:window-width="1600"
     inkscape:window-height="834"
     id="namedview30"
     showgrid="false"
     inkscape:zoom="0.55625733"
     inkscape:cx="48.378399"
     inkscape:cy="893.62902"
     inkscape:window-x="0"
     inkscape:window-y="27"
     inkscape:window-maximized="1"
     inkscape:current-layer="svg2" />
  <path
     connector-curvature="0"
     d="m 469.44615,349.53453 a 6.32129,6.32129 0 0 1 -12.64258,0 6.32129,6.32129 0 1 1 12.64258,0 z"
     ry="27.274118"
     rx="24.243662"
     cy="273.3634"
     cx="288.90363"
     id="path2985"
     style="opacity:0.4;fill:#ffffff;stroke-width:3;stroke-linecap:round;stroke-linejoin:round;stroke-miterlimit:4;stroke-dasharray:none;stroke-dashoffset:44"
     type="arc"
     inkscape:connector-curvature="0" />
  <path
     connector-curvature="0"
     d="m 480.65031,639.48965 a 3.767105,3.7671049 0 0 1 -7.53421,0 3.767105,3.7671049 0 1 1 7.53421,0 z"
     ry="27.274118"
     rx="24.243662"
     cy="273.3634"
     cx="288.90363"
     id="path2985-1"
     style="opacity:0.4;fill:#ffffff;stroke-width:3;stroke-linecap:round;stroke-linejoin:round;stroke-miterlimit:4;stroke-dasharray:none;stroke-dashoffset:44"
     type="arc"
     inkscape:connector-curvature="0" />
  <path
     connector-curvature="0"
     d="m 689.07859,429.75919 a 5.0441972,5.044197 0 0 1 -10.08839,0 5.0441972,5.044197 0 1 1 10.08839,0 z"
     ry="27.274118"
     rx="24.243662"
     cy="273.3634"
     cx="288.90363"
     id="path2985-1-7"
     style="opacity:0.4;fill:#ffffff;stroke-width:3;stroke-linecap:round;stroke-linejoin:round;stroke-miterlimit:4;stroke-dasharray:none;stroke-dashoffset:44"
     type="arc"
     inkscape:connector-curvature="0" />
  <path
     connector-curvature="0"
     d="m 700.36533,400.15525 a 5.0441972,5.044197 0 0 1 -10.08839,0 5.0441972,5.044197 0 1 1 10.08839,0 z"
     ry="27.274118"
     rx="24.243662"
     cy="273.3634"
     cx="288.90363"
     id="path2985-1-7-4"
     style="opacity:0.4;fill:#ffffff;stroke-width:3;stroke-linecap:round;stroke-linejoin:round;stroke-miterlimit:4;stroke-dasharray:none;stroke-dashoffset:44"
     type="arc"
     inkscape:connector-curvature="0" />
  <path
     connector-curvature="0"
     d="m 615.16046,327.57902 a 2.49001,2.4900098 0 0 1 -4.98002,0 2.49001,2.4900098 0 1 1 4.98002,0 z"
     ry="27.274118"
     rx="24.243662"
     cy="273.3634"
     cx="288.90363"
     id="path2985-1-7-4-0"
     style="opacity:0.4;fill:#ffffff;stroke-width:3;stroke-linecap:round;stroke-linejoin:round;stroke-miterlimit:4;stroke-dasharray:none;stroke-dashoffset:44"
     type="arc"
     inkscape:connector-curvature="0" />
  <path
     connector-curvature="0"
     d="m 387.02702,501.39345 a 2.23459,2.2345899 0 1 1 -4.46918,0 2.23459,2.2345899 0 1 1 4.46918,0 z"
     ry="27.274118"
     rx="24.243662"
     cy="273.3634"
     cx="288.90363"
     id="path2985-1-7-4-0-9"
     style="opacity:0.4;fill:#ffffff;stroke-width:3;stroke-linecap:round;stroke-linejoin:round;stroke-miterlimit:4;stroke-dasharray:none;stroke-dashoffset:44"
     type="arc"
     inkscape:connector-curvature="0" />
  <path
     connector-curvature="0"
     d="m 527.24477,510.697 a 4.5270236,4.5270233 0 0 1 -9.05405,0 4.5270236,4.5270233 0 1 1 9.05405,0 z"
     ry="27.274118"
     rx="24.243662"
     cy="273.3634"
     cx="288.90363"
     id="path2985-1-7-4-0-9-4"
     style="opacity:0.4;fill:#ffffff;stroke-width:3;stroke-linecap:round;stroke-linejoin:round;stroke-miterlimit:4;stroke-dasharray:none;stroke-dashoffset:44"
     type="arc"
     inkscape:connector-curvature="0" />
  <path
     connector-curvature="0"
     d="m 667.0168,520.85634 a 3.2562642,3.256264 0 1 1 -6.51252,0 3.2562642,3.256264 0 1 1 6.51252,0 z"
     ry="27.274118"
     rx="24.243662"
     cy="273.3634"
     cx="288.90363"
     id="path2985-1-7-4-0-9-4-8"
     style="opacity:0.4;fill:#ffffff;stroke-width:3;stroke-linecap:round;stroke-linejoin:round;stroke-miterlimit:4;stroke-dasharray:none;stroke-dashoffset:44"
     type="arc"
     inkscape:connector-curvature="0" />
  <path
     connector-curvature="0"
     d="m 817.70444,589.14354 a 5.2996192,5.299619 0 0 1 -10.59923,0 5.2996192,5.299619 0 1 1 10.59923,0 z"
     ry="27.274118"
     rx="24.243662"
     cy="273.3634"
     cx="288.90363"
     id="path2985-1-7-4-0-9-4-8-8"
     style="opacity:0.4;fill:#ffffff;stroke-width:3;stroke-linecap:round;stroke-linejoin:round;stroke-miterlimit:4;stroke-dasharray:none;stroke-dashoffset:44"
     type="arc"
     inkscape:connector-curvature="0" />
  <path
     connector-curvature="0"
     d="m 792.53372,362.99066 a 1.7237528,1.7237528 0 1 1 -3.4475,0 1.7237528,1.7237528 0 1 1 3.4475,0 z"
     ry="27.274118"
     rx="24.243662"
     cy="273.3634"
     cx="288.90363"
     id="path2985-1-7-4-0-9-4-8-8-2"
     style="opacity:0.4;fill:#ffffff;stroke-width:3;stroke-linecap:round;stroke-linejoin:round;stroke-miterlimit:4;stroke-dasharray:none;stroke-dashoffset:44"
     type="arc"
     inkscape:connector-curvature="0" />
  <path
     connector-curvature="0"
     d="m 846.61623,383.4183 a 3.767115,3.7671148 0 0 1 -7.53423,0 3.767115,3.7671148 0 1 1 7.53423,0 z"
     ry="27.274118"
     rx="24.243662"
     cy="273.3634"
     cx="288.90363"
     id="path2985-1-7-4-0-9-4-8-8-2-4"
     style="opacity:0.4;fill:#ffffff;stroke-width:3;stroke-linecap:round;stroke-linejoin:round;stroke-miterlimit:4;stroke-dasharray:none;stroke-dashoffset:44"
     type="arc"
     inkscape:connector-curvature="0" />
  <path
     connector-curvature="0"
     d="m 513.44641,268.37938 a 3.767103,3.7671029 0 0 1 -7.5342,0 3.767103,3.7671029 0 1 1 7.5342,0 z"
     ry="27.274118"
     rx="24.243662"
     cy="273.3634"
     cx="288.90363"
     id="path2985-1-7-4-0-9-4-8-8-2-5"
     style="opacity:0.4;fill:#ffffff;stroke-width:3;stroke-linecap:round;stroke-linejoin:round;stroke-miterlimit:4;stroke-dasharray:none;stroke-dashoffset:44"
     type="arc"
     inkscape:connector-curvature="0" />
  <path
     connector-curvature="0"
     d="m 390.76677,348.12318 a 3.0008456,3.0008455 0 1 1 -6.00169,0 3.0008456,3.0008455 0 1 1 6.00169,0 z"
     ry="27.274118"
     rx="24.243662"
     cy="273.3634"
     cx="288.90363"
     id="path2985-1-7-4-0-9-4-8-8-2-5-5"
     style="opacity:0.4;fill:#ffffff;stroke-width:3;stroke-linecap:round;stroke-linejoin:round;stroke-miterlimit:4;stroke-dasharray:none;stroke-dashoffset:44"
     type="arc"
     inkscape:connector-curvature="0" />
  <path
     connector-curvature="0"
     d="m 463.60362,478.95706 a 5.555035,5.5550344 0 0 1 -11.11007,0 5.555035,5.5550344 0 1 1 11.11007,0 z"
     ry="27.274118"
     rx="24.243662"
     cy="273.3634"
     cx="288.90363"
     id="path2985-1-7-4-0-9-4-8-8-2-5-1"
     style="opacity:0.4;fill:#ffffff;stroke-width:3;stroke-linecap:round;stroke-linejoin:round;stroke-miterlimit:4;stroke-dasharray:none;stroke-dashoffset:44"
     type="arc"
     inkscape:connector-curvature="0" />
  <path
     connector-curvature="0"
     d="m 606.11884,625.26151 a 4.2956592,4.2956588 0 0 1 -8.59131,0 4.2956592,4.2956588 0 1 1 8.59131,0 z"
     ry="27.274118"
     rx="24.243662"
     cy="273.3634"
     cx="288.90363"
     id="path2985-1-7-4-0-9-4-8-8-2-5-1-7"
     style="opacity:0.4;fill:#ffffff;stroke-width:3;stroke-linecap:round;stroke-linejoin:round;stroke-miterlimit:4;stroke-dasharray:none;stroke-dashoffset:44"
     type="arc"
     inkscape:connector-curvature="0" />
  <path
     connector-curvature="0"
     d="m 586.5972,745.02856 a 3.7671026,3.7671025 0 0 1 -7.5342,0 3.7671026,3.7671025 0 1 1 7.5342,0 z"
     ry="27.274118"
     rx="24.243662"
     cy="273.3634"
     cx="288.90363"
     id="path2985-1-3"
     style="opacity:0.4;fill:#ffffff;stroke-width:3;stroke-linecap:round;stroke-linejoin:round;stroke-miterlimit:4;stroke-dasharray:none;stroke-dashoffset:44"
     type="arc"
     inkscape:connector-curvature="0" />
  <path
     connector-curvature="0"
     d="m 730.69935,770.35454 a 1.723755,1.723755 0 0 1 -3.44751,0 1.723755,1.723755 0 1 1 3.44751,0 z"
     ry="27.274118"
     rx="24.243662"
     cy="273.3634"
     cx="288.90363"
     id="path2985-1-7-4-0-9-4-8-8-2-7"
     style="opacity:0.4;fill:#ffffff;stroke-width:3;stroke-linecap:round;stroke-linejoin:round;stroke-miterlimit:4;stroke-dasharray:none;stroke-dashoffset:44"
     type="arc"
     inkscape:connector-curvature="0" />
  <path
     connector-curvature="0"
     d="m 839.62434,738.82618 a 3.7671127,3.7671124 0 0 1 -7.53422,0 3.7671127,3.7671124 0 1 1 7.53422,0 z"
     ry="27.274118"
     rx="24.243662"
     cy="273.3634"
     cx="288.90363"
     id="path2985-1-7-4-0-9-4-8-8-2-4-9"
     style="opacity:0.4;fill:#ffffff;stroke-width:3;stroke-linecap:round;stroke-linejoin:round;stroke-miterlimit:4;stroke-dasharray:none;stroke-dashoffset:44"
     type="arc"
     inkscape:connector-curvature="0" />
  <path
     connector-curvature="0"
     d="m 823.37504,703.68578 a 3.8914284,3.8914281 0 0 1 -7.78285,0 3.8914284,3.8914281 0 1 1 7.78285,0 z"
     ry="27.274118"
     rx="24.243662"
     cy="273.3634"
     cx="288.90363"
     id="path2985-1-7-4-0-9-4-9"
     style="opacity:0.4;fill:#ffffff;stroke-width:3;stroke-linecap:round;stroke-linejoin:round;stroke-miterlimit:4;stroke-dasharray:none;stroke-dashoffset:44"
     type="arc"
     inkscape:connector-curvature="0" />
  <path
     connector-curvature="0"
     d="m 704.84625,647.64612 a 5.3237916,5.3237913 0 0 1 -10.64758,0 5.3237916,5.3237913 0 1 1 10.64758,0 z"
     ry="27.274118"
     rx="24.243662"
     cy="273.3634"
     cx="288.90363"
     id="path2985-1-7-4-0-9-4-3"
     style="opacity:0.4;fill:#ffffff;stroke-width:3;stroke-linecap:round;stroke-linejoin:round;stroke-miterlimit:4;stroke-dasharray:none;stroke-dashoffset:44"
     type="arc"
     inkscape:connector-curvature="0" />
  <path
     connector-curvature="0"
     d="m 392.9736,746.63585 a 3.3468255,3.3468254 0 0 1 -6.69365,0 3.3468255,3.3468254 0 1 1 6.69365,0 z"
     ry="27.274118"
     rx="24.243662"
     cy="273.3634"
     cx="288.90363"
     id="path2985-1-7-4-0-9-4-8-8-2-5-1-7-8"
     style="opacity:0.4;fill:#ffffff;stroke-width:3;stroke-linecap:round;stroke-linejoin:round;stroke-miterlimit:4;stroke-dasharray:none;stroke-dashoffset:44"
     type="arc"
     inkscape:connector-curvature="0" />
  <path
     connector-curvature="0"
     d="m 414.55543,864.88033 a 3.7671013,3.7671012 0 1 1 -7.5342,0 3.7671013,3.7671012 0 1 1 7.5342,0 z"
     ry="27.274118"
     rx="24.243662"
     cy="273.3634"
     cx="288.90363"
     id="path2985-1-0"
     style="opacity:0.4;fill:#ffffff;stroke-width:3;stroke-linecap:round;stroke-linejoin:round;stroke-miterlimit:4;stroke-dasharray:none;stroke-dashoffset:44"
     type="arc"
     inkscape:connector-curvature="0" />
  <path
     connector-curvature="0"
     d="m 281.46666,584.14616 a 3.767105,3.7671049 0 0 1 -7.53421,0 3.767105,3.7671049 0 1 1 7.53421,0 z"
     ry="27.274118"
     rx="24.243662"
     cy="273.3634"
     cx="288.90363"
     id="path2985-1-5"
     style="opacity:0.4;fill:#ffffff;stroke-width:3;stroke-linecap:round;stroke-linejoin:round;stroke-miterlimit:4;stroke-dasharray:none;stroke-dashoffset:44"
     type="arc"
     inkscape:connector-curvature="0" />
  <path
     connector-curvature="0"
     d="m 657.85835,877.35733 a 3.767103,3.7671029 0 0 1 -7.5342,0 3.767103,3.7671029 0 1 1 7.5342,0 z"
     ry="27.274118"
     rx="24.243662"
     cy="273.3634"
     cx="288.90363"
     id="path2985-1-6"
     style="opacity:0.4;fill:#ffffff;stroke-width:3;stroke-linecap:round;stroke-linejoin:round;stroke-miterlimit:4;stroke-dasharray:none;stroke-dashoffset:44"
     type="arc"
     inkscape:connector-curvature="0" />
  <path
     connector-curvature="0"
     d="m 319.37254,418.82494 a 6.3212883,6.3212883 0 0 1 -12.64256,0 6.3212883,6.3212883 0 1 1 12.64256,0 z"
     ry="27.274118"
     rx="24.243662"
     cy="273.3634"
     cx="288.90363"
     id="path2985-8"
     style="opacity:0.4;fill:#ffffff;stroke-width:3;stroke-linecap:round;stroke-linejoin:round;stroke-miterlimit:4;stroke-dasharray:none;stroke-dashoffset:44"
     type="arc"
     inkscape:connector-curvature="0" />
  <path
     connector-curvature="0"
     d="m 333.92913,686.04225 a 6.3212875,6.3212875 0 0 1 -12.64257,0 6.3212875,6.3212875 0 1 1 12.64257,0 z"
     ry="27.274118"
     rx="24.243662"
     cy="273.3634"
     cx="288.90363"
     id="path2985-9"
     style="opacity:0.4;fill:#ffffff;stroke-width:3;stroke-linecap:round;stroke-linejoin:round;stroke-miterlimit:4;stroke-dasharray:none;stroke-dashoffset:44"
     type="arc"
     inkscape:connector-curvature="0" />
  <path
     connector-curvature="0"
     d="m 827.18568,1046.9556 a 5.0441972,5.044197 0 0 1 -10.08839,0 5.0441972,5.044197 0 1 1 10.08839,0 z"
     ry="27.274118"
     rx="24.243662"
     cy="273.3634"
     cx="288.90363"
     id="path2985-1-7-5"
     style="opacity:0.4;fill:#ffffff;stroke-width:3;stroke-linecap:round;stroke-linejoin:round;stroke-miterlimit:4;stroke-dasharray:none;stroke-dashoffset:44"
     type="arc"
     inkscape:connector-curvature="0" />
  <path
     connector-curvature="0"
     d="m 838.47242,1017.3517 a 5.0441972,5.044197 0 0 1 -10.08839,0 5.0441972,5.044197 0 1 1 10.08839,0 z"
     ry="27.274118"
     rx="24.243662"
     cy="273.3634"
     cx="288.90363"
     id="path2985-1-7-4-3"
     style="opacity:0.4;fill:#ffffff;stroke-width:3;stroke-linecap:round;stroke-linejoin:round;stroke-miterlimit:4;stroke-dasharray:none;stroke-dashoffset:44"
     type="arc"
     inkscape:connector-curvature="0" />
  <path
     connector-curvature="0"
     d="m 753.26755,944.77544 a 2.49001,2.4900098 0 0 1 -4.98002,0 2.49001,2.4900098 0 1 1 4.98002,0 z"
     ry="27.274118"
     rx="24.243662"
     cy="273.3634"
     cx="288.90363"
     id="path2985-1-7-4-0-7"
     style="opacity:0.4;fill:#ffffff;stroke-width:3;stroke-linecap:round;stroke-linejoin:round;stroke-miterlimit:4;stroke-dasharray:none;stroke-dashoffset:44"
     type="arc"
     inkscape:connector-curvature="0" />
  <path
     connector-curvature="0"
     d="m 805.12389,1138.0528 a 3.2562642,3.256264 0 1 1 -6.51252,0 3.2562642,3.256264 0 1 1 6.51252,0 z"
     ry="27.274118"
     rx="24.243662"
     cy="273.3634"
     cx="288.90363"
     id="path2985-1-7-4-0-9-4-8-7"
     style="opacity:0.4;fill:#ffffff;stroke-width:3;stroke-linecap:round;stroke-linejoin:round;stroke-miterlimit:4;stroke-dasharray:none;stroke-dashoffset:44"
     type="arc"
     inkscape:connector-curvature="0" />
  <path
     connector-curvature="0"
     d="m 930.64081,980.18708 a 1.7237528,1.7237528 0 1 1 -3.4475,0 1.7237528,1.7237528 0 1 1 3.4475,0 z"
     ry="27.274118"
     rx="24.243662"
     cy="273.3634"
     cx="288.90363"
     id="path2985-1-7-4-0-9-4-8-8-2-1"
     style="opacity:0.4;fill:#ffffff;stroke-width:3;stroke-linecap:round;stroke-linejoin:round;stroke-miterlimit:4;stroke-dasharray:none;stroke-dashoffset:44"
     type="arc"
     inkscape:connector-curvature="0" />
  <path
     connector-curvature="0"
     d="m 984.72332,1000.6147 a 3.767115,3.7671148 0 0 1 -7.53423,0 3.767115,3.7671148 0 1 1 7.53423,0 z"
     ry="27.274118"
     rx="24.243662"
     cy="273.3634"
     cx="288.90363"
     id="path2985-1-7-4-0-9-4-8-8-2-4-1"
     style="opacity:0.4;fill:#ffffff;stroke-width:3;stroke-linecap:round;stroke-linejoin:round;stroke-miterlimit:4;stroke-dasharray:none;stroke-dashoffset:44"
     type="arc"
     inkscape:connector-curvature="0" />
  <path
     connector-curvature="0"
     d="m 626.19152,909.33771 a 3.767105,3.7671049 0 0 1 -7.53421,0 3.767105,3.7671049 0 1 1 7.53421,0 z"
     ry="27.274118"
     rx="24.243662"
     cy="273.3634"
     cx="288.90363"
     id="path2985-1-9"
     style="opacity:0.4;fill:#ffffff;stroke-width:3;stroke-linecap:round;stroke-linejoin:round;stroke-miterlimit:4;stroke-dasharray:none;stroke-dashoffset:44"
     type="arc"
     inkscape:connector-curvature="0" />
  <path
     connector-curvature="0"
     d="m 538.51482,1016.4839 a 3.3468255,3.3468254 0 0 1 -6.69365,0 3.3468255,3.3468254 0 1 1 6.69365,0 z"
     ry="27.274118"
     rx="24.243662"
     cy="273.3634"
     cx="288.90363"
     id="path2985-1-7-4-0-9-4-8-8-2-5-1-7-8-3"
     style="opacity:0.4;fill:#ffffff;stroke-width:3;stroke-linecap:round;stroke-linejoin:round;stroke-miterlimit:4;stroke-dasharray:none;stroke-dashoffset:44"
     type="arc"
     inkscape:connector-curvature="0" />
  <path
     connector-curvature="0"
     d="m 479.47035,955.89031 a 6.3212875,6.3212875 0 0 1 -12.64257,0 6.3212875,6.3212875 0 1 1 12.64257,0 z"
     ry="27.274118"
     rx="24.243662"
     cy="273.3634"
     cx="288.90363"
     id="path2985-9-8"
     style="opacity:0.4;fill:#ffffff;stroke-width:3;stroke-linecap:round;stroke-linejoin:round;stroke-miterlimit:4;stroke-dasharray:none;stroke-dashoffset:44"
     type="arc"
     inkscape:connector-curvature="0" />
  <path
     connector-curvature="0"
     d="m 327.76849,41.034552 a 3.767105,3.7671049 0 0 1 -7.53421,0 3.767105,3.7671049 0 1 1 7.53421,0 z"
     ry="27.274118"
     rx="24.243662"
     cy="273.3634"
     cx="288.90363"
     id="path2985-1-97"
     style="opacity:0.4;fill:#ffffff;stroke-width:3;stroke-linecap:round;stroke-linejoin:round;stroke-miterlimit:4;stroke-dasharray:none;stroke-dashoffset:44"
     type="arc"
     inkscape:connector-curvature="0" />
  <path
     connector-curvature="0"
     d="m 240.09178,148.18076 a 3.3468255,3.3468254 0 0 1 -6.69365,0 3.3468255,3.3468254 0 1 1 6.69365,0 z"
     ry="27.274118"
     rx="24.243662"
     cy="273.3634"
     cx="288.90363"
     id="path2985-1-7-4-0-9-4-8-8-2-5-1-7-8-0"
     style="opacity:0.4;fill:#ffffff;stroke-width:3;stroke-linecap:round;stroke-linejoin:round;stroke-miterlimit:4;stroke-dasharray:none;stroke-dashoffset:44"
     type="arc"
     inkscape:connector-curvature="0" />
  <path
     connector-curvature="0"
     d="m 181.04731,87.587152 a 6.3212875,6.3212875 0 0 1 -12.64257,0 6.3212875,6.3212875 0 1 1 12.64257,0 z"
     ry="27.274118"
     rx="24.243662"
     cy="273.3634"
     cx="288.90363"
     id="path2985-9-7"
     style="opacity:0.4;fill:#ffffff;stroke-width:3;stroke-linecap:round;stroke-linejoin:round;stroke-miterlimit:4;stroke-dasharray:none;stroke-dashoffset:44"
     type="arc"
     inkscape:connector-curvature="0" />
  <path
     connector-curvature="0"
     d="m 848.56104,124.22763 a 6.32129,6.32129 0 0 1 -12.64258,0 6.32129,6.32129 0 1 1 12.64258,0 z"
     ry="27.274118"
     rx="24.243662"
     cy="273.3634"
     cx="288.90363"
     id="path2985-0"
     style="opacity:0.4;fill:#ffffff;stroke-width:3;stroke-linecap:round;stroke-linejoin:round;stroke-miterlimit:4;stroke-dasharray:none;stroke-dashoffset:44"
     type="arc"
     inkscape:connector-curvature="0" />
  <path
     connector-curvature="0"
     d="m 892.5613,43.072478 a 3.767103,3.7671029 0 0 1 -7.5342,0 3.767103,3.7671029 0 1 1 7.5342,0 z"
     ry="27.274118"
     rx="24.243662"
     cy="273.3634"
     cx="288.90363"
     id="path2985-1-7-4-0-9-4-8-8-2-5-6"
     style="opacity:0.4;fill:#ffffff;stroke-width:3;stroke-linecap:round;stroke-linejoin:round;stroke-miterlimit:4;stroke-dasharray:none;stroke-dashoffset:44"
     type="arc"
     inkscape:connector-curvature="0" />
  <path
     connector-curvature="0"
     d="m 769.88165,122.81628 a 3.0008456,3.0008455 0 1 1 -6.00169,0 3.0008456,3.0008455 0 1 1 6.00169,0 z"
     ry="27.274118"
     rx="24.243662"
     cy="273.3634"
     cx="288.90363"
     id="path2985-1-7-4-0-9-4-8-8-2-5-5-3"
     style="opacity:0.4;fill:#ffffff;stroke-width:3;stroke-linecap:round;stroke-linejoin:round;stroke-miterlimit:4;stroke-dasharray:none;stroke-dashoffset:44"
     type="arc"
     inkscape:connector-curvature="0" />
  <path
     connector-curvature="0"
     d="m 698.48742,193.51804 a 6.3212883,6.3212883 0 0 1 -12.64256,0 6.3212883,6.3212883 0 1 1 12.64256,0 z"
     ry="27.274118"
     rx="24.243662"
     cy="273.3634"
     cx="288.90363"
     id="path2985-8-1"
     style="opacity:0.4;fill:#ffffff;stroke-width:3;stroke-linecap:round;stroke-linejoin:round;stroke-miterlimit:4;stroke-dasharray:none;stroke-dashoffset:44"
     type="arc"
     inkscape:connector-curvature="0" />
  <path
     connector-curvature="0"
     d="m 188.79445,924.21708 a 6.32129,6.32129 0 0 1 -12.64258,0 6.32129,6.32129 0 1 1 12.64258,0 z"
     ry="27.274118"
     rx="24.243662"
     cy="273.3634"
     cx="288.90363"
     id="path2985-2"
     style="opacity:0.4;fill:#ffffff;stroke-width:3;stroke-linecap:round;stroke-linejoin:round;stroke-miterlimit:4;stroke-dasharray:none;stroke-dashoffset:44"
     type="arc"
     inkscape:connector-curvature="0" />
  <path
     connector-curvature="0"
     d="m 232.79471,843.06193 a 3.767103,3.7671029 0 0 1 -7.5342,0 3.767103,3.7671029 0 1 1 7.5342,0 z"
     ry="27.274118"
     rx="24.243662"
     cy="273.3634"
     cx="288.90363"
     id="path2985-1-7-4-0-9-4-8-8-2-5-9"
     style="opacity:0.4;fill:#ffffff;stroke-width:3;stroke-linecap:round;stroke-linejoin:round;stroke-miterlimit:4;stroke-dasharray:none;stroke-dashoffset:44"
     type="arc"
     inkscape:connector-curvature="0" />
  <path
     connector-curvature="0"
     d="m 110.11507,922.80573 a 3.0008456,3.0008455 0 1 1 -6.00169,0 3.0008456,3.0008455 0 1 1 6.00169,0 z"
     ry="27.274118"
     rx="24.243662"
     cy="273.3634"
     cx="288.90363"
     id="path2985-1-7-4-0-9-4-8-8-2-5-5-7"
     style="opacity:0.4;fill:#ffffff;stroke-width:3;stroke-linecap:round;stroke-linejoin:round;stroke-miterlimit:4;stroke-dasharray:none;stroke-dashoffset:44"
     type="arc"
     inkscape:connector-curvature="0" />
  <path
     connector-curvature="0"
     d="m 38.720842,993.50749 a 6.3212883,6.3212883 0 0 1 -12.642559,0 6.3212883,6.3212883 0 1 1 12.642559,0 z"
     ry="27.274118"
     rx="24.243662"
     cy="273.3634"
     cx="288.90363"
     id="path2985-8-8"
     style="opacity:0.4;fill:#ffffff;stroke-width:3;stroke-linecap:round;stroke-linejoin:round;stroke-miterlimit:4;stroke-dasharray:none;stroke-dashoffset:44"
     type="arc"
     inkscape:connector-curvature="0" />
  <path
     connector-curvature="0"
     d="m 12.116984,467.88061 a 3.767105,3.7671049 0 0 1 -7.5342097,0 3.767105,3.7671049 0 1 1 7.5342097,0 z"
     ry="27.274118"
     rx="24.243662"
     cy="273.3634"
     cx="288.90363"
     id="path2985-1-02"
     style="opacity:0.4;fill:#ffffff;stroke-width:3;stroke-linecap:round;stroke-linejoin:round;stroke-miterlimit:4;stroke-dasharray:none;stroke-dashoffset:44"
     type="arc"
     inkscape:connector-curvature="0" />
  <path
     connector-curvature="0"
     d="m 137.58551,453.01628 a 3.6600661,3.6600657 0 0 1 -7.32013,0 3.6600661,3.6600657 0 1 1 7.32013,0 z"
     ry="27.274118"
     rx="24.243662"
     cy="273.3634"
     cx="288.90363"
     id="path2985-1-7-4-0-9-4-8-8-2-5-1-7-2"
     style="opacity:0.4;fill:#ffffff;stroke-width:3;stroke-linecap:round;stroke-linejoin:round;stroke-miterlimit:4;stroke-dasharray:none;stroke-dashoffset:44"
     type="arc"
     inkscape:connector-curvature="0" />
  <path
     connector-curvature="0"
     d="m 118.06387,573.41952 a 3.7671026,3.7671025 0 0 1 -7.5342,0 3.7671026,3.7671025 0 1 1 7.5342,0 z"
     ry="27.274118"
     rx="24.243662"
     cy="273.3634"
     cx="288.90363"
     id="path2985-1-3-3"
     style="opacity:0.4;fill:#ffffff;stroke-width:3;stroke-linecap:round;stroke-linejoin:round;stroke-miterlimit:4;stroke-dasharray:none;stroke-dashoffset:44"
     type="arc"
     inkscape:connector-curvature="0" />
  <path
     connector-curvature="0"
     d="m 236.31292,476.03708 a 5.3237916,5.3237913 0 0 1 -10.64758,0 5.3237916,5.3237913 0 1 1 10.64758,0 z"
     ry="27.274118"
     rx="24.243662"
     cy="273.3634"
     cx="288.90363"
     id="path2985-1-7-4-0-9-4-3-9"
     style="opacity:0.4;fill:#ffffff;stroke-width:3;stroke-linecap:round;stroke-linejoin:round;stroke-miterlimit:4;stroke-dasharray:none;stroke-dashoffset:44"
     type="arc"
     inkscape:connector-curvature="0" />
  <path
     connector-curvature="0"
     d="m 966.71114,250.35539 a 3.767105,3.7671049 0 0 1 -7.53421,0 3.767105,3.7671049 0 1 1 7.53421,0 z"
     ry="27.274118"
     rx="24.243662"
     cy="273.3634"
     cx="288.90363"
     id="path2985-1-1"
     style="opacity:0.4;fill:#ffffff;stroke-width:3;stroke-linecap:round;stroke-linejoin:round;stroke-miterlimit:4;stroke-dasharray:none;stroke-dashoffset:44"
     type="arc"
     inkscape:connector-curvature="0" />
  <path
     connector-curvature="0"
     d="m 910.60906,534.77197 a 8.10925,8.1092492 0 0 1 -16.2185,0 8.10925,8.1092492 0 1 1 16.2185,0 z"
     ry="27.274118"
     rx="24.243662"
     cy="273.3634"
     cx="288.90363"
     id="path2985-1-7-4-0-9-4-8-8-2-5-1-7-4"
     style="opacity:0.4;fill:#ffffff;stroke-width:3;stroke-linecap:round;stroke-linejoin:round;stroke-miterlimit:4;stroke-dasharray:none;stroke-dashoffset:44"
     type="arc"
     inkscape:connector-curvature="0" />
  <path
     connector-curvature="0"
     d="m 1072.658,355.8943 a 3.7671026,3.7671025 0 0 1 -7.5342,0 3.7671026,3.7671025 0 1 1 7.5342,0 z"
     ry="27.274118"
     rx="24.243662"
     cy="273.3634"
     cx="288.90363"
     id="path2985-1-3-5"
     style="opacity:0.4;fill:#ffffff;stroke-width:3;stroke-linecap:round;stroke-linejoin:round;stroke-miterlimit:4;stroke-dasharray:none;stroke-dashoffset:44"
     type="arc"
     inkscape:connector-curvature="0" />
  <path
     connector-curvature="0"
     d="m 1009.3365,553.33943 a 5.3238,5.3237997 0 0 1 -10.64764,0 5.3238,5.3237997 0 1 1 10.64764,0 z"
     ry="27.274118"
     rx="24.243662"
     cy="273.3634"
     cx="288.90363"
     id="path2985-1-7-4-0-9-4-3-7"
     style="opacity:0.4;fill:#ffffff;stroke-width:3;stroke-linecap:round;stroke-linejoin:round;stroke-miterlimit:4;stroke-dasharray:none;stroke-dashoffset:44"
     type="arc"
     inkscape:connector-curvature="0" />
  <path
     connector-curvature="0"
     d="m 92.295207,277.20754 a 2.23459,2.2345899 0 0 1 -4.46918,0 2.23459,2.2345899 0 1 1 4.46918,0 z"
     ry="27.274118"
     rx="24.243662"
     cy="273.3634"
     cx="288.90363"
     id="path2985-1-7-4-0-9-2"
     style="opacity:0.4;fill:#ffffff;stroke-width:3;stroke-linecap:round;stroke-linejoin:round;stroke-miterlimit:4;stroke-dasharray:none;stroke-dashoffset:44"
     type="arc"
     inkscape:connector-curvature="0" />
  <path
     connector-curvature="0"
     d="m 232.51296,288.41787 a 6.4338036,6.4338031 0 0 1 -12.86761,0 6.4338036,6.4338031 0 1 1 12.86761,0 z"
     ry="27.274118"
     rx="24.243662"
     cy="273.3634"
     cx="288.90363"
     id="path2985-1-7-4-0-9-4-1"
     style="opacity:0.4;fill:#ffffff;stroke-width:3;stroke-linecap:round;stroke-linejoin:round;stroke-miterlimit:4;stroke-dasharray:none;stroke-dashoffset:44"
     type="arc"
     inkscape:connector-curvature="0" />
  <path
     connector-curvature="0"
     d="m 168.87181,254.77115 a 5.555035,5.5550344 0 0 1 -11.11007,0 5.555035,5.5550344 0 1 1 11.11007,0 z"
     ry="27.274118"
     rx="24.243662"
     cy="273.3634"
     cx="288.90363"
     id="path2985-1-7-4-0-9-4-8-8-2-5-1-2"
     style="opacity:0.4;fill:#ffffff;stroke-width:3;stroke-linecap:round;stroke-linejoin:round;stroke-miterlimit:4;stroke-dasharray:none;stroke-dashoffset:44"
     type="arc"
     inkscape:connector-curvature="0" />
  <path
     connector-curvature="0"
     d="m 1053.9087,819.18843 a 2.23459,2.2345899 0 0 1 -4.4692,0 2.23459,2.2345899 0 1 1 4.4692,0 z"
     ry="27.274118"
     rx="24.243662"
     cy="273.3634"
     cx="288.90363"
     id="path2985-1-7-4-0-9-1"
     style="opacity:0.4;fill:#ffffff;stroke-width:3;stroke-linecap:round;stroke-linejoin:round;stroke-miterlimit:4;stroke-dasharray:none;stroke-dashoffset:44"
     type="arc"
     inkscape:connector-curvature="0" />
  <path
     connector-curvature="0"
     d="m 1194.1264,831.66995 a 7.70499,7.7049894 0 0 1 -15.41,0 7.70499,7.7049894 0 1 1 15.41,0 z"
     ry="27.274118"
     rx="24.243662"
     cy="273.3634"
     cx="288.90363"
     id="path2985-1-7-4-0-9-4-85"
     style="opacity:0.4;fill:#ffffff;stroke-width:3;stroke-linecap:round;stroke-linejoin:round;stroke-miterlimit:4;stroke-dasharray:none;stroke-dashoffset:44"
     type="arc"
     inkscape:connector-curvature="0" />
  <path
     connector-curvature="0"
     d="m 1130.4853,796.75204 a 5.555035,5.5550344 0 0 1 -11.1101,0 5.555035,5.5550344 0 1 1 11.1101,0 z"
     ry="27.274118"
     rx="24.243662"
     cy="273.3634"
     cx="288.90363"
     id="path2985-1-7-4-0-9-4-8-8-2-5-1-29"
     style="opacity:0.4;fill:#ffffff;stroke-width:3;stroke-linecap:round;stroke-linejoin:round;stroke-miterlimit:4;stroke-dasharray:none;stroke-dashoffset:44"
     type="arc"
     inkscape:connector-curvature="0" />
  <path
     connector-curvature="0"
     d="m 1088.0655,360.76751 a 2.23459,2.2345899 0 0 1 -4.4691,0 2.23459,2.2345899 0 1 1 4.4691,0 z"
     ry="27.274118"
     rx="24.243662"
     cy="273.3634"
     cx="288.90363"
     id="path2985-1-7-4-0-9-0"
     style="opacity:0.4;fill:#ffffff;stroke-width:3;stroke-linecap:round;stroke-linejoin:round;stroke-miterlimit:4;stroke-dasharray:none;stroke-dashoffset:44"
     type="arc"
     inkscape:connector-curvature="0" />
  <path
     connector-curvature="0"
     d="m 1163.1289,422.00582 a 3.8914407,3.8914404 0 0 1 -7.7829,0 3.8914407,3.8914404 0 1 1 7.7829,0 z"
     ry="27.274118"
     rx="24.243662"
     cy="273.3634"
     cx="288.90363"
     id="path2985-1-7-4-0-9-4-39"
     style="opacity:0.4;fill:#ffffff;stroke-width:3;stroke-linecap:round;stroke-linejoin:round;stroke-miterlimit:4;stroke-dasharray:none;stroke-dashoffset:44"
     type="arc"
     inkscape:connector-curvature="0" />
  <path
     connector-curvature="0"
     d="m 1164.6421,338.33112 a 5.555035,5.5550344 0 0 1 -11.11,0 5.555035,5.5550344 0 1 1 11.11,0 z"
     ry="27.274118"
     rx="24.243662"
     cy="273.3634"
     cx="288.90363"
     id="path2985-1-7-4-0-9-4-8-8-2-5-1-75"
     style="opacity:0.4;fill:#ffffff;stroke-width:3;stroke-linecap:round;stroke-linejoin:round;stroke-miterlimit:4;stroke-dasharray:none;stroke-dashoffset:44"
     type="arc"
     inkscape:connector-curvature="0" />
  <path
     connector-curvature="0"
     d="m 187.63419,1133.9872 a 2.23459,2.2345899 0 0 1 -4.46918,0 2.23459,2.2345899 0 1 1 4.46918,0 z"
     ry="27.274118"
     rx="24.243662"
     cy="273.3634"
     cx="288.90363"
     id="path2985-1-7-4-0-9-6"
     style="opacity:0.4;fill:#ffffff;stroke-width:3;stroke-linecap:round;stroke-linejoin:round;stroke-miterlimit:4;stroke-dasharray:none;stroke-dashoffset:44"
     type="arc"
     inkscape:connector-curvature="0" />
  <path
     connector-curvature="0"
     d="m 327.85194,1146.4687 a 7.70499,7.7049894 0 0 1 -15.40998,0 7.70499,7.7049894 0 1 1 15.40998,0 z"
     ry="27.274118"
     rx="24.243662"
     cy="273.3634"
     cx="288.90363"
     id="path2985-1-7-4-0-9-4-91"
     style="opacity:0.4;fill:#ffffff;stroke-width:3;stroke-linecap:round;stroke-linejoin:round;stroke-miterlimit:4;stroke-dasharray:none;stroke-dashoffset:44"
     type="arc"
     inkscape:connector-curvature="0" />
  <path
     connector-curvature="0"
     d="m 264.21079,1111.5508 a 5.555035,5.5550344 0 0 1 -11.11007,0 5.555035,5.5550344 0 1 1 11.11007,0 z"
     ry="27.274118"
     rx="24.243662"
     cy="273.3634"
     cx="288.90363"
     id="path2985-1-7-4-0-9-4-8-8-2-5-1-9"
     style="opacity:0.4;fill:#ffffff;stroke-width:3;stroke-linecap:round;stroke-linejoin:round;stroke-miterlimit:4;stroke-dasharray:none;stroke-dashoffset:44"
     type="arc"
     inkscape:connector-curvature="0" />
</svg>
