<?xml version="1.0" encoding="UTF-8" standalone="no"?>
<svg
   xmlns:svg="http://www.w3.org/2000/svg"
   xmlns="http://www.w3.org/2000/svg"
   width="275"
   height="260"
  >

  <path
     style="fill:#000000;stroke:#000000;stroke-width:1px;stroke-linecap:butt;stroke-linejoin:miter;stroke-opacity:1"
     d="m 260.20558,262.825 c 0.62806,-4.099 0.58967,-8.804 -0.01,-13.145 -0.84609,-6.123 -2.46442,-12.222 -5.0151,-17.852 -4.34075,-9.582 -10.14248,-18.662 -17.21148,-26.452 -4.41323,-4.863 -10.10718,-8.4 -15.39568,-12.293 -5.01296,-3.691 -8.29206,-3.944 -15.46112,-10.475 -7.06615,-6.437 -8.25284,-9.341 -12.98701,-16.363 -4.73417,-7.022 -5.48538,-12.045 -5.90759,-16.441 -0.42222,-4.396 -0.12726,-4.332 0.12712,-6.102 0.19481,-1.355 2.04181,-6.161 2.60406,-7.409 2.2585,-5.014 3.75656,-6.286 6.33257,-11.145 3.08672,-5.822 7.0644,-11.195 9.63547,-17.263 2.29332,-5.412 4.0542,-11.098 5.08474,-16.885 0.93156,-5.231 1.13126,-10.601 0.95526,-15.911 -0.21533,-6.498 -0.31167,-13.21 -2.45513,-19.348 -1.81554,-5.198 -4.95677,-9.968 -8.57489,-14.119 -3.29785,-3.783 -7.4359,-6.824 -11.68214,-9.499 -4.59304,-2.895 -9.66724,-4.985 -14.72241,-6.965 -5.41757,-2.121 -11.00841,-3.815 -16.65099,-5.233 -4.81777,-1.211 -9.73206,-2.02 -14.64046,-2.784 -3.83512,-0.598 -11.55876,-1.408 -11.55876,-1.408 l -8.39512,-1.692 -6.35593,-2.288 -6.73728,-2.924 -6.99154,-3.559 c 0,0 0.46701,2.068 10e-6,2.924 -0.67587,1.238 -2.16355,2.085 -3.55933,2.288 -2.707126,0.393 -7.881356,-2.288 -7.881356,-2.288 l 1.2712,3.813 -12.33052,0.89 4.19492,5.339 -8.64407,2.034 4.0678,3.178 -6.02723,4.629 2.51682,1.982 -3.23591,2.881 3.23591,2.521 -1.9775,4.32 2.39344,2.016 c 1.20559,1.616 1.99275,2.826 2.56349,4.436 0.53156,1.499 0.81821,3.123 0.74845,4.712 -0.036,0.821 -0.37929,1.599 -0.59836,2.391 -0.22208,0.803 -0.0367,0.253 -0.72548,2.391 -0.78659,2.441 -1.3553,3.263 -2.09341,4.868 -0.84391,1.834 -1.83414,3.6 -2.6684,5.439 -0.92209,2.032 -1.96616,4.033 -2.58068,6.178 -0.50055,1.748 -0.79828,3.516 -0.88081,5.383 -0.0889,2.01 1.15994,3.864 0.8526,5.853 -0.13581,0.879 -0.044,1.125 -1.43818,3.051 -1.39415,1.925 -6.2292,4.59 -9.15255,7.118 -0.73245,0.634 -1.56121,1.205 -2.09558,2.012 -0.47744,0.722 -0.94507,1.562 -0.92254,2.427 0.42565,2.524 2.65943,4.525 4.03507,5.985 1.14803,1.224 2.51475,2.246 3.55932,3.559 0.49772,0.626 1.12467,1.248 1.27119,2.034 0.2056,1.103 -0.0957,2.602 -0.45583,3.665 -0.39542,1.166 -1.0327,1.701 -1.65253,2.766 -0.48165,0.827 -1.49122,1.651 -1.77967,2.564 -0.18849,0.596 -0.20665,1.273 -0.0399,1.876 0.38006,1.374 2.27536,3.621 2.27536,3.621 0.70468,1.121 -2.70645,2.361 -2.33706,4.383 0,0 0.0839,1.083 0.28774,1.576 0.63116,1.527 2.27415,2.52 2.81203,4.083 0.69079,2.007 0.54964,4.24 0.38136,6.356 -0.18585,2.337 -1.44807,4.522 -1.52543,6.864 -0.0552,1.672 0.0779,3.433 0.76271,4.958 0.6533,1.455 1.76418,2.744 3.05085,3.687 1.36467,0.999 3.04574,1.568 4.7034,1.906 2.44999,0.5 5.00081,0.05 7.49999,0.127 1.90776,0.06 3.82942,0 5.72034,0.255 1.85327,0.254 3.74259,0.544 5.46611,1.271 1.80853,0.763 3.61416,1.747 4.95762,3.178 2.077716,2.213 3.254326,4.741 4.780496,7.872 l 5.13101,10.528 4.32578,10.71 2.9083,7.988 c 0.85371,2.344 2.60451,6.366 2.93916,9.173 0.33465,2.807 -2.59493,4.474 -5.72035,7.5 -3.12542,3.026 -4.70338,4.322 -4.70338,4.322 l -4.0678,4.831 -3.13435,4.979 c 0,0 -2.097586,3.944 -2.967346,8.241 -0.8338,4.119 -0.924775,4.253 -1.16213,8.609 -0.237355,4.357 -0.956157,15.302 2.68807,15.302 z"
    />
</svg>
