<?xml version="1.0" encoding="UTF-8" standalone="no"?>
<!-- Created with Inkscape (http://www.inkscape.org/) -->

<svg
   xmlns:dc="http://purl.org/dc/elements/1.1/"
   xmlns:cc="http://creativecommons.org/ns#"
   xmlns:rdf="http://www.w3.org/1999/02/22-rdf-syntax-ns#"
   xmlns:svg="http://www.w3.org/2000/svg"
   xmlns="http://www.w3.org/2000/svg"
   xmlns:xlink="http://www.w3.org/1999/xlink"
   xmlns:sodipodi="http://sodipodi.sourceforge.net/DTD/sodipodi-0.dtd"
   xmlns:inkscape="http://www.inkscape.org/namespaces/inkscape"
   width="500mm"
   height="500mm"
   viewBox="0 0 1771.6535 1771.6535"
   id="svg5145"
   version="1.1"
   inkscape:version="0.91 r13725"
   sodipodi:docname="profilAnimation.svg"
   >

  <defs
     id="defs5147">
    <clipPath
       clipPathUnits="userSpaceOnUse"
       id="clipPath30-3">
      <path
         d="m 187.388,20.417 465.048,0 0,559.223 -465.048,0 0,-559.223 z"
         id="path32-7"
         inkscape:connector-curvature="0" />
    </clipPath>
  </defs>

  <sodipodi:namedview
     id="base"
     pagecolor="#ffffff"
     bordercolor="#666666"
     borderopacity="1.0"
     inkscape:pageopacity="0.0"
     inkscape:pageshadow="2"
     inkscape:zoom="0.59040889"
     inkscape:cx="500.01656"
     inkscape:cy="1230.7901"
     inkscape:document-units="px"
     inkscape:current-layer="layer2"
     showgrid="false"
     units="mm"
     showguides="true"
     inkscape:guide-bbox="true"
     inkscape:window-width="1600"
     inkscape:window-height="834"
     inkscape:window-x="0"
     inkscape:window-y="27"
     inkscape:window-maximized="1">
    <sodipodi:guide
       position="1592.0004,1212.183"
       orientation="0,1"
       id="guide4243" />
    <sodipodi:guide
       position="881.42855,1108.5714"
       orientation="1,0"
       id="guide4264" />
    <sodipodi:guide
       position="1800,1071.4285"
       orientation="1,0"
       id="guide4266" />
    <sodipodi:guide
       position="2717.3103,1149.5536"
       orientation="1,0"
       id="guide4313" />
  </sodipodi:namedview>
  <metadata
     id="metadata5150">
    <rdf:RDF>
      <cc:Work
         rdf:about="">
        <dc:format>image/svg+xml</dc:format>
        <dc:type
           rdf:resource="http://purl.org/dc/dcmitype/StillImage" />
        <dc:title />
      </cc:Work>
    </rdf:RDF>
  </metadata>
  <g
     inkscape:groupmode="layer"
     id="layer2"
     inkscape:label="fond">
    <!--circle
       style="fill:#000000;fill-opacity:1;stroke:none;stroke-width:5;stroke-linecap:round;stroke-linejoin:round;stroke-miterlimit:4;stroke-dasharray:none;stroke-dashoffset:0;stroke-opacity:1"
       id="path4229"
       cx="882.43921"
       cy="562.32208"
       r="281.13898" /-->





    <path
       inkscape:connector-curvature="0"
       style="fill:#868ceb;fill-opacity:1;stroke:none;stroke-width:5;stroke-linecap:round;stroke-linejoin:round;stroke-miterlimit:4;stroke-dasharray:none;stroke-dashoffset:0;stroke-opacity:1"
       d="m -5.23535,211.69925 0,711.40813 2019.24775,0 0,-711.40813 -2019.24775,0 z m 884.83387,64.08788 A 281.13901,281.13901 0 0 1 1160.7371,556.92578 281.13901,281.13901 0 0 1 879.59852,838.06442 281.13901,281.13901 0 0 1 598.45989,556.92578 281.13901,281.13901 0 0 1 879.59852,275.78713 Z"
       id="rect4224" />
  </g>
  <g
     inkscape:label="Calque 1"
     inkscape:groupmode="layer"
     id="layer1"
     transform="translate(0,719.29132)" />
  <g
     inkscape:groupmode="layer"
     id="layer3"
     inkscape:label="premierPlan">
    <path
       inkscape:connector-curvature="0"
       style="fill:#000000;stroke:#000000;stroke-width:6.60432291px;stroke-linecap:butt;stroke-linejoin:miter;stroke-opacity:1"
       d="m 1208.1974,65.152791 -46.1739,23.50585 -44.4941,19.310549 -41.9785,15.10937 -55.4434,11.17579 c 0,0 -51.00993,5.34943 -76.33789,9.29882 -32.416,5.0457 -64.87144,10.38883 -96.68944,18.38671 -37.26601,9.36493 -74.18874,20.55277 -109.96874,34.56054 -33.386,13.07655 -66.89746,26.87853 -97.23046,45.99805 -28.044,17.66655 -55.37428,37.7502 -77.15429,62.73436 -23.89599,27.41454 -44.64085,58.91679 -56.63085,93.24609 -14.157,40.53732 -14.79284,84.86634 -16.21484,127.78123 -1.162,35.06895 0.15559,70.53477 6.30859,105.08202 6.806,38.21921 18.43603,75.77115 33.58203,111.51366 16.98001,40.07508 43.24876,75.55937 63.63476,114.00974 17.013,32.09044 26.90726,40.49137 41.82226,73.60547 3.713,8.2422 15.91321,39.98283 17.19921,48.93163 1.68,11.68971 3.62785,11.26623 0.83985,40.29883 -2.789,29.0326 -7.75157,62.2065 -39.01757,108.5821 -31.266,46.3756 -39.10253,65.5544 -85.76952,108.0664 -47.34701,43.1329 -69.00332,44.8051 -102.11132,69.1816 -34.92699,25.7107 -72.52977,49.0686 -101.67577,81.1855 -46.687,51.4476 -85.00291,111.4165 -113.66991,174.6992 -16.846,37.1824 -27.53504,77.462 -33.12304,117.9004 -3.965,28.669 -4.21831,59.7413 -0.0703,86.8125 l 1063.10534,0 c 24.068,0 19.322,-72.2838 17.754,-101.0586 -1.568,-28.7685 -2.1688,-29.6542 -7.6758,-56.8574 -5.744,-28.3787 -19.5977,-54.4258 -19.5977,-54.4258 l -20.6992,-32.8828 -26.8652,-31.9063 c 0,0 -10.4225,-8.5582 -31.0625,-28.5429 -20.641,-19.9846 -39.9883,-30.9949 -37.7793,-49.5332 2.211,-18.5383 13.7741,-45.1015 19.4121,-60.5821 l 19.207,-52.7538 28.5684,-70.7324 33.8867,-69.5312 c 10.079,-20.6781 17.8502,-37.3729 31.5722,-51.9883 8.8731,-9.4508 20.7973,-15.9493 32.7403,-20.9883 11.383,-4.8014 23.8606,-6.717 36.0996,-8.3945 12.488,-1.684 25.1812,-1.2874 37.7812,-1.6836 16.505,-0.5086 33.3513,2.4623 49.5313,-0.8399 10.948,-2.2323 22.0495,-5.9902 31.0624,-12.5879 8.497,-6.228 15.8344,-14.7404 20.1484,-24.3497 4.522,-10.0716 5.4011,-21.7016 5.0371,-32.7441 -0.51,-15.46728 -8.8472,-29.89771 -10.0742,-45.33201 -1.111,-13.9748 -2.0434,-28.72165 2.5176,-41.97655 3.553,-10.3226 14.4052,-16.882 18.5742,-26.9668 1.345,-3.2559 1.9004,-10.4082 1.9004,-10.4082 2.439,-13.35393 -20.0895,-21.54386 -15.4355,-28.94726 0,0 12.5173,-14.83966 15.0273,-23.91406 1.101,-3.98239 0.9813,-8.45247 -0.2637,-12.38867 -1.905,-6.0298 -8.5719,-11.47179 -11.7539,-16.93359 -4.093,-7.0336 -8.302,-10.56698 -10.914,-18.26758 -2.376,-7.02048 -4.3698,-16.92047 -3.0118,-24.20507 0.968,-5.191 5.1095,-9.29929 8.3965,-13.43359 6.898,-8.6715 15.9249,-15.42021 23.5059,-23.50391 9.085,-9.64229 23.8384,-22.85806 26.6504,-39.52733 0.148,-5.7128 -2.9398,-11.261 -6.0938,-16.0293 -3.528,-5.3297 -9.0018,-9.10001 -13.8398,-13.28711 -19.306,-16.69581 -51.2383,-34.29641 -60.4452,-47.00976 -9.208,-12.71991 -8.6011,-14.3452 -9.4981,-20.15039 -2.029,-13.13601 6.2189,-25.3796 5.6309,-38.65429 -0.545,-12.33026 -2.5124,-24.00642 -5.8184,-35.55077 -4.059,-14.1663 -10.9529,-27.38276 -17.0429,-40.80274 -5.509,-12.14536 -12.0501,-23.80761 -17.6231,-35.91991 -4.875,-10.59994 -8.6312,-16.02925 -13.8262,-32.15039 -4.548,-14.12005 -3.324,-10.48775 -4.791,-15.79102 -1.446,-5.23064 -3.7141,-10.36886 -3.9511,-15.79101 -0.461,-10.49428 1.4314,-21.21925 4.9414,-31.11913 3.77,-10.63297 8.9686,-18.62427 16.9316,-29.29688 l 15.8066,-13.31445 -13.0605,-28.53124 21.3711,-16.64844 -21.3711,-19.02734 16.623,-13.08985 -39.8066,-30.57226 26.8652,-20.98827 -57.0879,-13.43164 27.7051,-35.26171 -81.4355,-5.87696 8.3965,-25.183589 c 0,0 -34.1748,17.706839 -52.0528,15.11133 -9.219,-1.34067 -19.0418,-6.93516 -23.5058,-15.11133 -3.084,-5.65328 0,-19.31054 0,-19.31054 z M 881.95517,278.79729 A 281.13904,281.13904 0 0 1 1163.0939,559.93593 281.13904,281.13904 0 0 1 881.95517,841.07457 281.13904,281.13904 0 0 1 600.81653,559.93593 281.13904,281.13904 0 0 1 881.95517,278.79729 Z"
       id="path6-2-4-7-0-5-4-0-7-3-8-7-6-3" />
    <path
       inkscape:connector-curvature="0"
       style="fill:#868ceb;fill-opacity:1;stroke:none;stroke-width:5.32957077;stroke-linecap:round;stroke-linejoin:round;stroke-miterlimit:4;stroke-dasharray:none;stroke-dashoffset:0;stroke-opacity:1"
       d="m 877.24228,227.87542 -18.88477,27.33789 -22.70117,-24.27148 -15.30469,29.48632 -25.56639,-21.23828 -11.48438,31.16992 -28.03125,-17.87109 -7.48242,32.36132 -30.05273,-14.2207 -3.36132,33.04101 -31.59961,-10.3457 0.81054,33.20117 -32.64843,-6.30859 4.9707,32.83788 -33.18358,-2.17187 9.05273,31.95702 -33.19531,1.99805 12.99414,30.57227 -32.6836,6.13672 16.72852,28.70506 -31.65625,10.17969 20.19922,26.38477 -30.12891,14.06054 23.34961,23.65038 -28.125,17.72071 26.13281,20.54101 -25.67968,21.10156 28.5039,17.10743 -22.82812,24.15038 30.42578,13.40234 -19.61719,26.81836 31.86914,9.48828 -16.09765,29.06249 32.80859,5.42578 -12.32422,30.84766 33.23046,1.27539 -8.35546,32.14647 33.1289,-2.89256 -4.25586,32.93944 32.5039,-7.01758 -0.0879,33.21289 31.36718,-11.03125 4.08008,32.96094 29.73633,-14.86914 8.18555,32.18944 27.63476,-18.4746 12.16015,30.9121 25.09961,-21.78906 15.94336,29.14844 22.16601,-24.75977 19.47461,26.92188 18.88476,-27.33789 22.70117,24.27148 15.30469,-29.48633 25.56838,21.23828 11.4843,-31.16991 28.03133,17.87108 7.4805,-32.36131 30.0527,14.2207 3.3613,-33.04297 31.6016,10.34766 -0.8125,-33.20313 32.6504,6.31055 -4.9727,-32.83983 33.1856,2.17382 -9.0547,-31.95703 33.1953,-1.99804 -12.9922,-30.57227 32.6817,-6.13672 -16.7266,-28.70507 31.6543,-10.17968 -20.1973,-26.38477 30.1289,-14.0625 -23.3515,-23.64843 28.1269,-17.7207 -26.1347,-20.54102 25.6816,-21.10156 -28.5059,-17.10741 22.8301,-24.15039 -30.4277,-13.40235 19.6191,-26.81835 -31.8691,-9.49024 16.0976,-29.06054 -32.8086,-5.42578 12.3243,-30.84765 -33.2305,-1.27539 8.3555,-32.14843 -33.1289,2.89453 4.2558,-32.93945 -32.5058,7.01758 0.09,-33.2129 -31.3691,11.03125 -4.0801,-32.96092 -29.7364,14.86913 -8.18353,-32.1914 -27.6368,18.47656 -12.1582,-30.91211 -25.09958,21.78711 -15.94335,-29.14648 -22.16602,24.75977 -19.47655,-26.92188 z m 3.61523,71.05663 A 260.53958,260.53958 0 0 1 1141.3985,559.47108 260.53958,260.53958 0 0 1 880.85751,820.01012 260.53958,260.53958 0 0 1 620.31848,559.47108 260.53958,260.53958 0 0 1 880.85751,298.93205 Z"
       id="path6538-1-6-7-6-7-1-7-7-9-2-0-9-2-6-6-8" />
  </g>


</svg>
